<svg display="none" xmlns="http://www.w3.org/2000/svg">
    
    <symbol id="facebook" viewBox="0 0 98.6 98.6">
        <g>
            <path d="M49.3,0C22.1,0,0,22.1,0,49.3s22.1,49.3,49.3,49.3s49.3-22.1,49.3-49.3S76.5,0,49.3,0z M63.8,28.3c-2.3,0-4.7,0-7,0
                c-1.5-0.1-3,1-3.3,2.5c0,2.6,0,5.1,0,7.7c3.4,0,6.9,0,10.3,0c-0.3,3.7-0.7,7.4-1.3,11.1c-3,0-6.1,0-9.1,0c0,11,0,21.9,0,32.8
                c-4.5,0-9,0-13.6,0c-0.1-11,0-21.9,0-32.9c-2.2,0-4.4,0-6.6,0c0-3.7,0-7.4,0-11c2.2,0,4.4,0,6.6,0c0.1-3.6-0.1-7.2,0.1-10.7
                c0.2-2.9,1.3-5.7,3.4-7.7c2.6-2.4,6.2-3.3,9.6-3.4c3.6,0,7.3,0,10.9,0C63.8,20.6,63.8,24.4,63.8,28.3z"/>
        </g>
    </symbol>

    <symbol id="instagram" viewBox="0 0 98.6 98.6">
        <g>
            <path d="M62.2,24.5H36.2c-6.5,0-11.8,5.3-11.8,11.8v26.2c0,6.5,5.3,11.8,11.8,11.8h25.9c6.5,0,11.8-5.3,11.8-11.8V36.2
                C73.9,29.8,68.7,24.5,62.2,24.5z M49.2,65c-8.8,0-16-7.1-16-15.8s7.2-15.8,16-15.8s16,7.1,16,15.8S58,65,49.2,65z M65.5,36.5
                c-2.1,0-3.8-1.7-3.8-3.8s1.7-3.8,3.8-3.8c2.1,0,3.8,1.7,3.8,3.8S67.6,36.5,65.5,36.5z"/>
            <path d="M49.3,0C22.1,0,0,22.1,0,49.3s22.1,49.3,49.3,49.3s49.3-22.1,49.3-49.3S76.5,0,49.3,0z M79.8,62.4
                c0,9.7-7.9,17.6-17.6,17.6H36.2c-9.7,0-17.6-7.9-17.6-17.6V36.2c0-9.7,7.9-17.6,17.6-17.6h25.9c9.7,0,17.6,7.9,17.6,17.6V62.4z"/>
            <path d="M49.2,39.2c-5.6,0-10.1,4.5-10.1,10s4.6,10,10.1,10s10.1-4.5,10.1-10S54.8,39.2,49.2,39.2z"/>
        </g>
    </symbol>

    <symbol id="odnoklassniki" viewBox="0 0 98.6 98.6">
       <g>
	        <circle cx="49.9" cy="30.9" r="8.3"/>
	        <path d="M49.3,0C22.1,0,0,22.1,0,49.3s22.1,49.3,49.3,49.3s49.3-22.1,49.3-49.3S76.5,0,49.3,0z M49.9,14c9.3,0,16.9,7.6,16.9,16.9
                s-7.6,16.9-16.9,16.9s-16.9-7.6-16.9-16.9S40.5,14,49.9,14z M64.9,57.6c-3.6,2.3-8.5,3.2-11.8,3.5l2.7,2.7l10,10
                c1.5,1.5,1.5,4,0,5.5l-0.5,0.5c-1.5,1.5-4,1.5-5.5,0c-2.5-2.5-6.2-6.2-10-10l-10,10c-1.5,1.5-4,1.5-5.5,0L34,79.3
                c-1.5-1.5-1.5-4,0-5.5c2.5-2.5,6.2-6.2,10-10l2.7-2.7c-3.2-0.3-8.2-1.2-11.8-3.5c-4.2-2.7-6.1-4.3-4.5-7.7c1-1.9,3.6-3.5,7.1-0.7
                c4.8,3.7,12.4,3.7,12.4,3.7s7.6,0,12.4-3.7c3.5-2.8,6.2-1.2,7.1,0.7C71,53.2,69.2,54.9,64.9,57.6z"/>
        </g>
    </symbol>

    <symbol id="vk" viewBox="0 0 98.6 98.6">
       <g>
	        <path d="M49.3,0C22.1,0,0,22.1,0,49.3s22.1,49.3,49.3,49.3s49.3-22.1,49.3-49.3S76.5,0,49.3,0z M70.7,55.8c0.4,0.5,1.3,1.4,2.8,2.8
            h0l0,0l0,0l0.1,0.1c3.2,3,5.4,5.5,6.5,7.6c0.1,0.1,0.1,0.3,0.2,0.4c0.1,0.2,0.2,0.5,0.2,0.9c0.1,0.4,0.1,0.8,0,1.2
            c-0.1,0.3-0.4,0.7-0.9,0.9c-0.5,0.3-1.2,0.4-2,0.4L69,70.3c-0.5,0.1-1.2,0.1-1.9-0.2c-0.7-0.2-1.3-0.5-1.8-0.8L64.6,69
            c-0.7-0.5-1.5-1.2-2.4-2.2c-0.9-1-1.7-1.9-2.3-2.7s-1.3-1.4-2.1-2c-0.7-0.5-1.4-0.7-1.9-0.5c-0.1,0-0.2,0.1-0.3,0.1
            c-0.1,0.1-0.3,0.2-0.6,0.5c-0.3,0.3-0.5,0.6-0.7,1c-0.2,0.4-0.4,1-0.6,1.8c-0.2,0.8-0.2,1.7-0.2,2.7c0,0.3,0,0.7-0.1,0.9
            c-0.1,0.3-0.2,0.5-0.3,0.6l-0.1,0.2c-0.4,0.4-1,0.7-1.8,0.8h-3.9c-1.6,0.1-3.3-0.1-5-0.6c-1.7-0.5-3.2-1.1-4.5-1.8
            c-1.3-0.7-2.5-1.5-3.5-2.3c-1.1-0.8-1.9-1.4-2.4-2l-0.9-0.8c-0.2-0.2-0.5-0.6-0.9-1c-0.4-0.5-1.2-1.5-2.4-3.1
            c-1.2-1.6-2.4-3.3-3.6-5.2c-1.2-1.8-2.6-4.2-4.2-7.2c-1.6-3-3.1-6.1-4.5-9.3C15.1,36.6,15,36.3,15,36c0-0.2,0-0.4,0.1-0.5l0.1-0.2
            c0.3-0.4,1-0.7,1.9-0.7l9.4-0.1c0.3,0,0.5,0.1,0.8,0.2c0.3,0.1,0.4,0.2,0.5,0.3l0.2,0.1c0.4,0.3,0.6,0.6,0.8,1.1
            c0.5,1.1,1,2.3,1.6,3.5c0.6,1.2,1.1,2.2,1.4,2.8l0.5,1c0.7,1.4,1.3,2.6,1.9,3.6c0.6,1,1.2,1.8,1.7,2.3c0.5,0.6,1,1,1.4,1.3
            c0.5,0.3,0.8,0.5,1.2,0.5c0.3,0,0.6-0.1,0.9-0.2c0,0,0.1-0.1,0.2-0.2s0.2-0.3,0.4-0.8c0.2-0.4,0.4-0.9,0.5-1.6
            c0.1-0.7,0.2-1.6,0.3-2.8c0.1-1.2,0.1-2.6,0-4.3c0-0.9-0.1-1.7-0.3-2.5c-0.2-0.8-0.3-1.3-0.5-1.6L39.9,37c-0.6-0.8-1.5-1.3-2.9-1.5
            c-0.3,0-0.2-0.3,0.2-0.8c0.4-0.4,0.8-0.8,1.3-1c1.2-0.6,3.9-0.9,8.2-0.8c1.9,0,3.4,0.2,4.6,0.4c0.5,0.1,0.8,0.3,1.1,0.5
            c0.3,0.2,0.5,0.5,0.7,0.8c0.2,0.4,0.3,0.7,0.4,1.1c0.1,0.4,0.1,0.9,0.1,1.6c0,0.7,0,1.3,0,1.9c0,0.6-0.1,1.4-0.1,2.4
            c0,1-0.1,2-0.1,2.8c0,0.3,0,0.7,0,1.4c0,0.7,0,1.3,0,1.6c0,0.4,0.1,0.9,0.1,1.4c0.1,0.5,0.2,1,0.4,1.3c0.2,0.4,0.5,0.6,0.8,0.8
            c0.2,0,0.4,0.1,0.6,0.1c0.2,0,0.5-0.1,0.9-0.4c0.4-0.3,0.8-0.7,1.3-1.2c0.5-0.5,1.1-1.3,1.8-2.3c0.7-1,1.5-2.3,2.3-3.7
            c1.4-2.4,2.6-4.9,3.7-7.7c0.1-0.2,0.2-0.4,0.3-0.6c0.1-0.2,0.3-0.3,0.4-0.4l0.1-0.1c0,0,0.1-0.1,0.2-0.1c0.1,0,0.2-0.1,0.4-0.1
            c0.2,0,0.5,0,0.7,0l9.9-0.1c0.9-0.1,1.6-0.1,2.2,0.1c0.6,0.2,0.9,0.4,1.1,0.6l0.2,0.3c0.5,1.5-1.2,4.8-5.1,10.1
            c-0.5,0.7-1.3,1.7-2.2,2.9c-1.8,2.3-2.8,3.8-3.1,4.5C69.8,54,70,54.9,70.7,55.8z"/>
        </g>
    </symbol>

    <symbol id="youtube" viewBox="0 0 98.6 98.6">
       <g>
	       <g>
	            <polygon points="43.7,56.5 59,48.4 43.7,40.5 	"/>
	                <path d="M49.3,0C22.1,0,0,22.1,0,49.3s22.1,49.3,49.3,49.3s49.3-22.1,49.3-49.3S76.5,0,49.3,0z M76.8,60.8
                        c-0.7,4.2-2.7,6.4-6.9,6.9c-4.7,0.5-15.4,0.8-20.1,0.8c-4.9,0-14.8-0.2-19.7-0.6c-4.2-0.4-7.1-2.7-7.7-6.9
                        c-0.4-3.1-0.7-6.7-0.7-12.5c0-6.5,0.2-9.2,0.8-12.1c0.8-4.2,2.8-6.2,7.3-6.6c4.8-0.5,9.3-0.7,19.3-0.7c4.9,0,15.5,0.3,20.4,0.7
                        c4.3,0.4,6.7,3,7.2,7.2c0.4,2.9,0.7,7.1,0.7,11.6C77.5,56.2,76.8,60.8,76.8,60.8z"/>
            </g>
        </g>
    </symbol>

    <symbol id="play" viewBox="0 0 32 32">
        <g>
	       <path d="M15.9967 0C7.16468 0 0 7.16468 0 15.9967C0 24.8286 7.16468 31.9933 15.9967 31.9933C24.8286 31.9933 31.9933 24.8286 31.9933 15.9967C31.9866 7.16468 24.8286 0.00669596 15.9967 0ZM22.7395 16.5055C22.6257 16.7265 22.4516 16.9073 22.2239 17.0211V17.0278L13.0839 21.6012C12.5214 21.8824 11.8318 21.6547 11.5505 21.0923C11.4702 20.9316 11.43 20.7575 11.43 20.5767V11.43C11.43 10.8006 11.9389 10.285 12.575 10.285C12.7558 10.285 12.9299 10.3252 13.0839 10.4055L22.2239 14.9789C22.7864 15.2601 23.0207 15.9431 22.7395 16.5055Z" fill="#C4E3FF"/>
        </g>
    </symbol>

    <symbol id="roll" viewBox="0 0 36 36">
        <g>
            <path d="M27.4219 14.9062V13.8516C27.4219 12.1078 28.8422 10.6875 30.5859 10.6875H34.9453C35.5289 10.6875 36 11.1586 36 11.7422C36 12.3258 35.5289 12.7969 34.9453 12.7969H30.5859C30.0023 12.7969 29.5312 13.268 29.5312 13.8516C29.5312 14.0414 29.5312 15.7852 29.5312 15.9609C29.5312 21.0797 25.4742 25.2211 20.4047 25.418L16.7133 27.7875L20.4398 30.1781C20.932 29.8617 21.5156 29.6719 22.1414 29.6719C23.8852 29.6719 25.3055 31.0922 25.3055 32.8359C25.3055 34.5797 23.8852 36 22.1414 36C20.7703 36 19.6102 35.1141 19.1742 33.8906H10.35C9.91406 35.1141 8.75391 36 7.38281 36C5.63906 36 4.21875 34.5797 4.21875 32.8359C4.21875 31.0922 5.63906 29.6719 7.38281 29.6719C8.00859 29.6719 8.59219 29.8617 9.08438 30.1781L12.8109 27.7875L9.11953 25.418C4.05703 25.2211 0 21.0797 0 15.9609V14.9062H27.4219ZM13.0852 25.4531L14.7656 26.5289L16.4461 25.4531H13.0852ZM10.4977 31.7812H19.0336L14.7656 29.0391L10.4977 31.7812Z" fill="#C4E3FF"/>
            <path d="M11.6016 0C12.1852 0 12.6562 0.471094 12.6562 1.05469V11.3063L4.17656 2.82656C6.1875 1.15313 8.775 0 11.6016 0Z" fill="#C4E3FF"/>
            <path d="M2.68596 4.31738L11.1656 12.7971H2.67029e-05V11.7424C2.67029e-05 8.91582 1.01253 6.33535 2.68596 4.31738Z" fill="#C4E3FF"/>
        </g>
    </symbol>
</svg>