<svg width="780" height="407" viewBox="0 0 780 407" fill="none" xmlns="http://www.w3.org/2000/svg">
<g clip-path="url(#clip0)">
<path d="M762.028 365.439L762.837 378.877L774.446 385.862L761.883 390.824L758.907 403.989L750.333 393.608L736.834 394.825L744.058 383.423L738.705 371.022L751.847 374.313L762.028 365.439Z" fill="#C4E3FF"/>
</g>
<path opacity="0.5" d="M760 206.988C760 209.752 757.752 211.977 755.012 211.977C752.248 212 750 209.752 750 206.988C750 204.248 752.248 202 754.988 202C757.752 202 760 204.248 760 206.988Z" fill="#885E42"/>
<path opacity="0.5" d="M28 13.9672C28 21.7049 21.7049 27.9344 14.0328 27.9344C6.29508 28 0 21.7049 0 13.9672C0 6.29508 6.29508 0 13.9672 0C21.7049 0 28 6.29508 28 13.9672Z" fill="#FFDDC4"/>
<defs>
<clipPath id="clip0">
<rect width="38.7" height="36.8" fill="white" transform="translate(744.111 358) rotate(22.5483)"/>
</clipPath>
</defs>
</svg>
