<svg width="303" height="287" viewBox="0 0 303 287" fill="none" xmlns="http://www.w3.org/2000/svg">
<g clip-path="url(#clip0)">
<path d="M99.8223 282.415C102.455 278.772 103.02 273.246 103.458 269.289C104.712 256.791 107.972 245.046 111.545 232.862C115.495 219.233 122.83 209.435 132.358 199.073C139.129 191.724 147.341 188.835 157.184 188.333C165.333 187.893 172.229 191.41 178.874 195.807C182.009 197.879 185.519 199.575 188.591 201.459C192.227 203.783 193.857 207.928 196.678 211.068C199.248 213.832 201.568 216.344 203.511 219.798C207.461 226.833 210.094 233.929 211.974 241.717C213.604 248.689 215.61 255.723 216.3 262.82C216.927 268.975 216.613 275.255 218.996 280.845C222.632 289.324 235.42 288.382 236.235 278.584C236.862 271.613 236.486 263.95 235.859 257.105C234.605 243.602 230.907 230.161 224.763 217.914C222.444 213.267 219.497 208.807 217.491 204.097C215.172 198.696 213.73 192.98 210.658 187.579C200.251 169.303 180.128 158.375 159.252 159.317C114.68 161.327 91.5473 205.479 80.0751 243.225C77.5675 251.515 78.4451 260.056 77.5675 268.598C77.0659 273.371 75.2479 282.352 80.6393 285.053C84.0245 286.749 94.6818 286.812 97.8163 284.676C98.5059 283.985 99.2581 283.232 99.8223 282.415Z" fill="#2D2F2F"/>
<path d="M76.7525 283.86C78.9466 282.164 80.075 279.589 80.5139 276.637C85.2783 243.162 97.5655 203.846 123.456 180.419C134.49 170.433 148.407 164.718 163.39 165.597C200.377 167.733 218.557 204.913 227.145 236.316C229.841 246.114 231.847 256.163 233.352 266.211C233.979 270.545 233.665 275.004 234.605 279.338C236.235 286.812 239.182 286.121 245.89 285.87C248.585 285.744 251.406 285.87 254.102 285.87C256.86 285.87 265.637 285.367 267.079 282.478C269.712 277.265 265.135 269.352 263.568 264.39C261.186 256.979 257.174 250.259 254.98 242.785C252.848 235.5 252.033 228.403 249.212 221.368C246.705 215.151 242.692 209.373 239.809 203.343C236.737 196.937 234.605 190.343 231.157 184.125C227.584 177.656 222.381 172.38 217.679 166.853C213.291 161.766 209.153 155.737 203.825 151.592C199.123 147.886 193.105 145.248 187.776 142.422C176.931 136.707 162.763 133.253 150.601 135.011C139.129 136.707 125.024 140.224 114.617 145.877C107.032 149.959 101.64 156.428 95.7475 162.583C93.3653 165.032 91.2965 167.105 88.5382 169.114C87.159 170.119 85.341 171.25 84.4006 172.694C79.6989 179.98 75.1225 188.082 70.7969 195.744C60.5785 213.769 50.8616 233.301 49.8585 254.153C49.4824 261.689 47.2256 270.733 49.5451 278.019C51.99 285.807 56.3156 287.126 64.0891 286.686C67.2863 286.498 70.4208 286.435 73.3672 285.618C74.6837 285.116 75.8121 284.551 76.7525 283.86Z" fill="white"/>
<path d="M155.68 106.999C118.755 107.753 83.5236 121.131 58.6985 149.205C38.8258 171.689 27.0401 200.328 20.395 229.344C18.2008 239.016 16.5082 248.751 15.3798 258.611C14.3141 267.655 10.8035 281.159 22.3384 284.801C30.8015 287.439 42.7126 289.135 49.4204 281.787C54.9998 275.757 55.2505 267.781 56.8178 260.119C59.8896 244.794 64.0898 229.658 69.7946 215.025C82.2071 183.182 103.584 150.963 138.44 141.794C145.9 139.847 153.611 139.03 161.259 139.156C200.001 139.909 225.704 171.815 240.875 204.222C248.022 219.547 253.413 235.625 257.739 251.954C260.372 261.877 259.933 275.443 267.832 283.043C273.035 288.067 277.925 285.869 284.194 285.429C291.654 284.864 303.816 286.12 303.063 275.192C302.687 269.728 301.684 264.264 300.807 258.863C298.612 245.36 295.541 232.045 291.528 218.981C282.25 188.898 267.456 159.379 243.884 138.025C219.561 116.169 188.028 106.371 155.68 106.999Z" fill="#C4E3FF"/>
<path d="M115.683 282.541C116.623 280.217 116.686 277.14 117.125 274.879C119.381 263.762 120.635 252.143 124.021 241.089C126.465 233.176 130.352 226.204 134.929 219.359C138.126 214.648 143.078 211.822 148.219 209.435C157.56 205.039 168.53 203.657 177.62 209.31C184.391 213.518 186.46 220.992 189.719 227.837C194.045 237.133 196.302 247.244 198.559 257.167C199.123 259.742 199.499 262.38 199.875 264.955C200.439 268.849 200.69 272.932 201.693 276.7C202.257 278.898 203.637 282.541 205.517 284.111C208.276 286.435 214.607 286.812 217.93 285.618C222.569 283.985 220.688 278.521 220.312 274.753C220.124 272.869 219.873 270.922 219.622 269.038C219.058 264.704 218.369 260.371 217.616 256.1C215.861 246.616 213.416 237.195 210.031 228.214C201.881 206.672 186.334 186.511 161.321 186.763C136.747 187.014 120.698 205.793 112.109 227.084C108.097 237.07 105.402 247.621 103.521 258.172C102.706 262.694 102.079 267.279 101.578 271.864C101.327 274.125 100.763 276.323 100.512 278.521C99.6969 284.927 107.658 287.251 112.611 285.744C114.116 285.241 115.056 284.048 115.683 282.541Z" fill="#FFDDC4"/>
<path d="M132.107 284.174C132.358 283.923 132.609 283.671 132.797 283.357C134.929 280.029 133.926 277.454 134.239 273.874C134.552 270.231 135.117 266.525 135.618 262.883C136.747 255.472 138.188 248.061 140.32 240.901C143.204 231.292 148.595 216.47 160.443 215.465C160.757 215.465 161.008 215.402 161.321 215.402C172.981 215.214 178.435 229.659 181.319 238.766C183.576 245.925 185.08 253.336 186.209 260.747C186.773 264.516 187.275 268.284 187.713 272.115C188.09 275.193 187.525 279.652 189.093 282.29C190.534 284.613 193.23 285.367 195.738 285.618C209.028 286.937 200.816 260.685 199.311 253.713C196.553 241.089 192.666 227.9 185.08 217.223C179.125 208.807 170.536 202.652 159.942 202.778C134.176 203.092 124.083 233.867 119.57 254.53C118.316 260.182 117.375 265.897 116.623 271.613C116.122 275.444 114.053 281.85 117.752 284.551C120.823 286.686 128.973 287 132.107 284.174Z" fill="#FF939C"/>
<path d="M130.916 122.701C130.728 122.262 130.478 121.885 130.039 121.571C129.412 121.068 128.597 120.817 127.719 120.817C127.092 120.817 126.591 120.943 126.027 121.194C125.212 121.571 124.836 122.073 124.522 122.764C124.083 123.581 124.271 124.585 124.898 125.339C125.588 126.093 126.466 126.595 127.719 126.595C128.91 126.595 129.851 126.093 130.54 125.339C131.167 124.523 131.355 123.518 130.916 122.701Z" fill="white"/>
<path d="M145.711 115.856C145.022 115.73 144.207 116.17 144.207 116.735C144.207 116.986 143.768 117.363 143.643 117.614C143.454 118.116 144.081 118.619 144.708 118.493C145.523 118.305 146.275 117.614 146.464 116.986C146.714 116.484 146.338 115.981 145.711 115.856Z" fill="white"/>
<path d="M149.598 120.252C149.41 120.378 149.159 120.44 148.971 120.566C148.783 120.692 148.658 120.88 148.47 121.006C148.219 121.257 147.905 121.445 147.592 121.634C147.09 121.948 147.153 122.639 147.592 122.953C148.031 123.267 148.908 123.329 149.285 122.953C149.598 122.639 149.911 122.324 150.162 122.01C150.476 121.571 150.664 121.194 150.664 120.692C150.664 120.315 150.1 120.001 149.598 120.252Z" fill="white"/>
<path d="M165.458 113.469C164.832 112.841 163.39 112.59 162.512 112.841C161.948 113.029 161.446 113.155 161.07 113.532C160.193 114.285 159.942 115.353 160.631 116.295C160.945 116.735 161.446 117.112 162.011 117.363C162.7 117.74 163.452 117.865 164.393 117.677C165.647 117.426 166.524 116.484 166.524 115.479C166.462 114.662 166.085 114.097 165.458 113.469Z" fill="white"/>
<path d="M175.74 121.948C169.91 121.948 169.91 129.107 175.74 129.107C181.57 129.107 181.57 121.948 175.74 121.948Z" fill="white"/>
<path d="M200.941 121.759C199.374 121.445 198.183 122.827 198.935 123.832C198.998 124.02 199.06 124.146 199.186 124.271C199.499 124.585 199.938 124.711 200.314 124.585C200.69 124.585 201.066 124.523 201.38 124.334C202.634 123.706 202.508 122.136 200.941 121.759Z" fill="white"/>
<path d="M202.508 133.253C200.816 133.253 200.816 135.325 202.508 135.325C204.201 135.388 204.201 133.253 202.508 133.253Z" fill="white"/>
<path d="M225.327 133.315C224.826 132.75 224.262 132.373 223.321 132.373C222.757 132.373 222.444 132.499 221.942 132.687C221.315 132.939 220.814 133.504 220.375 133.943C219.811 134.509 220.124 135.451 220.688 135.89C221.315 136.393 222.444 136.581 223.196 136.142C223.321 136.079 223.447 136.016 223.572 135.953C223.76 135.953 223.823 135.953 223.948 135.953C224.324 135.89 224.638 135.702 224.951 135.514C225.703 135.011 225.892 133.881 225.327 133.315Z" fill="white"/>
<path d="M227.271 146.253C223.948 146.253 223.948 150.336 227.271 150.336C230.593 150.336 230.593 146.253 227.271 146.253Z" fill="white"/>
<path d="M242.442 146.818C240.749 146.818 239.433 148.389 240.436 149.582C240.937 150.147 241.439 151.089 242.442 151.089C243.507 151.089 244.009 150.21 244.448 149.582C245.451 148.451 244.134 146.818 242.442 146.818Z" fill="white"/>
<path d="M246.955 161.892C241.125 161.892 241.125 169.052 246.955 169.052C252.786 169.052 252.786 161.892 246.955 161.892Z" fill="white"/>
<path d="M266.389 173.636C266.076 173.511 265.762 173.385 265.449 173.322C263.505 172.757 261.311 174.516 262.001 176.023C262.063 176.086 262.063 176.211 262.063 176.274C262.377 177.028 263.129 177.719 264.132 177.907C265.261 178.347 266.64 177.97 267.329 177.153C267.517 176.902 267.706 176.588 267.768 176.337C267.956 175.207 267.517 174.264 266.389 173.636Z" fill="white"/>
<path d="M263.693 188.647C263.443 188.396 263.129 188.207 262.753 188.082C261.562 187.454 259.807 187.705 258.866 188.458C257.801 189.275 257.675 190.531 258.365 191.536C259.054 192.478 260.12 193.043 261.499 193.043C262.063 193.043 262.565 192.918 263.067 192.729C263.819 192.352 264.195 191.85 264.508 191.222C264.508 191.222 264.508 191.159 264.571 191.159C264.947 190.217 264.383 189.275 263.693 188.647Z" fill="white"/>
<path d="M273.724 201.082C272.721 201.082 272.219 201.773 272.345 202.527C272.407 203.029 272.533 203.532 272.721 204.034C273.034 204.788 274.413 204.788 274.727 204.034C274.915 203.532 275.04 203.029 275.103 202.527C275.228 201.773 274.79 201.082 273.724 201.082Z" fill="white"/>
<path d="M276.294 215.465C273.786 215.465 273.786 218.542 276.294 218.542C278.802 218.542 278.802 215.465 276.294 215.465Z" fill="white"/>
<path d="M79.072 139.093C79.0093 139.031 79.0093 139.031 78.8839 138.968C78.1943 138.528 77.1913 138.403 76.5017 138.968C75.8121 139.533 75.9375 140.287 76.5017 140.852C77.1913 141.48 77.9436 141.668 78.9466 141.292C79.5735 141.103 79.8243 140.475 79.8243 139.973C79.887 139.596 79.5108 139.219 79.072 139.093Z" fill="white"/>
<path d="M98.1924 138.026C97.8789 137.9 97.6282 137.837 97.3147 137.775C97.252 137.775 97.252 137.712 97.1894 137.712C97.1267 137.649 97.064 137.649 97.0013 137.586C96.6878 137.272 95.9356 137.398 95.6848 137.712C95.434 138.089 95.3087 138.465 95.4967 138.905C95.6221 139.219 95.8729 139.47 96.0609 139.721C96.4998 140.412 97.8163 140.538 98.5058 139.973C99.1954 139.47 99.1327 138.403 98.1924 138.026Z" fill="white"/>
<path d="M102.581 126.156C102.455 125.276 102.079 124.523 101.013 124.02C100.136 123.643 99.1954 123.643 98.2551 123.957C97.1894 124.271 96.3744 124.962 96.3744 125.904C96.3744 126.846 97.064 127.475 98.067 127.789C98.067 127.789 98.1297 127.851 98.1924 127.851C98.4432 127.977 98.6939 128.04 99.0074 128.103C99.0701 128.103 99.1328 128.103 99.2581 128.103C99.9477 128.291 100.7 128.228 101.327 127.914C101.954 127.663 102.643 126.846 102.581 126.156Z" fill="white"/>
<path d="M61.2054 161.892C60.8919 161.264 60.6412 160.698 59.8262 160.322C59.262 160.07 58.5097 159.882 57.8828 160.07C57.3813 160.259 57.0678 160.322 56.629 160.636C56.1902 160.95 56.0021 161.389 55.814 161.829C55.5006 162.457 55.8141 163.525 56.5036 163.964C56.5663 164.027 56.629 164.027 56.6917 164.09C57.2559 164.53 57.7574 164.781 58.5097 164.781C59.262 164.781 59.7635 164.53 60.3277 164.216C60.3904 164.153 60.4531 164.153 60.5158 164.09C61.2054 163.65 61.5188 162.583 61.2054 161.892Z" fill="white"/>
<path d="M69.5432 155.36C69.7313 154.606 69.0417 153.916 68.1013 153.916C67.2237 153.916 66.2833 154.669 66.6595 155.423C66.8475 155.8 67.0356 156.051 67.4117 156.365C67.6625 156.616 67.9132 156.742 68.164 156.93C68.4148 157.181 68.9163 157.244 69.167 156.93C69.4178 156.616 69.6059 156.302 69.6686 155.862C69.6686 155.737 69.6686 155.611 69.6686 155.486C69.5432 155.486 69.5432 155.423 69.5432 155.36Z" fill="white"/>
<path d="M51.4258 176.651C45.5956 176.651 45.5956 183.811 51.4258 183.811C57.2559 183.811 57.2559 176.651 51.4258 176.651Z" fill="white"/>
<path d="M47.7898 193.169C47.1629 192.352 45.4702 192.227 44.906 193.169C44.8433 193.232 44.7806 193.357 44.7179 193.42C44.8433 193.232 44.5926 193.546 44.5926 193.546C44.3418 193.734 44.0911 193.985 43.9657 194.237C43.4015 194.99 44.4672 195.681 45.3448 195.367C45.721 195.241 46.2852 195.304 46.7867 195.116C47.7898 194.802 48.4167 193.923 47.7898 193.169Z" fill="white"/>
<path d="M35.2518 201.522C33.8726 201.522 32.7442 202.841 33.6219 203.783C33.9353 204.097 34.1861 204.348 34.6249 204.537C34.7503 204.599 34.813 204.662 34.9383 204.725C35.001 204.788 35.001 204.788 35.0637 204.788C35.5652 205.227 36.3802 205.039 36.7563 204.599C36.9444 204.348 37.0071 204.097 37.0698 203.846C37.0698 203.72 37.0698 203.657 37.1325 203.532C37.3832 202.59 36.6937 201.522 35.2518 201.522Z" fill="white"/>
<path d="M34.2488 226.958C32.9323 226.958 32.9323 228.591 34.2488 228.591C35.5652 228.591 35.5652 226.958 34.2488 226.958Z" fill="white"/>
<path d="M42.5238 214.02C42.1477 213.392 40.8939 213.329 40.3297 213.769C39.7028 214.271 39.8282 215.151 40.5804 215.465C40.8312 215.59 40.8312 215.59 40.8939 215.779C41.2073 216.407 42.3358 216.47 42.6492 215.779C42.9627 215.213 42.8373 214.648 42.5238 214.02Z" fill="white"/>
<path d="M38.449 241.843C37.8221 242.094 36.9444 242.785 36.9444 243.35C36.9444 243.727 37.3833 244.104 37.8848 244.167C38.1355 244.23 38.3863 244.167 38.6371 244.167C38.6998 244.167 38.7624 244.167 38.8878 244.167C39.9536 244.418 40.9566 243.727 40.9566 242.911C40.9566 241.906 39.5774 241.403 38.449 241.843Z" fill="white"/>
<path d="M30.174 246.993C29.4844 246.491 28.4813 246.365 27.6664 246.742C26.7887 247.119 26.2245 248.249 26.9141 248.94C27.0395 249.066 27.1022 249.191 27.1649 249.317C27.2902 249.442 27.4156 249.568 27.6037 249.694C27.0395 249.254 28.0425 250.07 27.8544 249.945C27.9798 250.07 28.1679 250.133 28.2933 250.259C28.1052 250.133 28.1052 250.133 28.2306 250.259C28.4187 250.384 28.544 250.447 28.7321 250.573C29.0456 250.761 29.4217 250.761 29.7351 250.573C30.2367 250.259 30.7382 249.882 30.9262 249.38C31.177 248.437 30.9889 247.621 30.174 246.993Z" fill="white"/>
<path d="M27.1649 265.772C21.3348 265.772 21.3348 272.932 27.1649 272.932C32.9951 272.869 32.9951 265.772 27.1649 265.772Z" fill="white"/>
<path d="M273.222 230.789C271.655 230.789 271.655 232.673 273.222 232.673C274.79 232.736 274.79 230.789 273.222 230.789Z" fill="white"/>
<path d="M288.832 236.567C288.456 235.311 285.948 234.934 285.196 236.191C285.259 236.128 285.322 236.065 285.384 236.002C285.322 236.065 285.259 236.128 285.133 236.253C283.942 237.007 284.318 238.452 285.76 238.828C286.45 239.017 287.202 238.954 287.829 238.703C288.769 238.2 289.083 237.321 288.832 236.567Z" fill="white"/>
<path d="M287.39 251.138C285.76 251.138 285.76 253.085 287.39 253.085C289.02 253.148 289.02 251.138 287.39 251.138Z" fill="white"/>
<path d="M285.886 262.318C285.76 261.564 285.572 260.999 284.945 260.433C284.13 259.805 282.877 259.491 281.748 259.742C280.369 260.057 279.679 260.873 279.115 261.878C278.739 262.569 279.178 263.511 279.867 264.013C280.494 264.516 281.372 264.704 282.187 264.641C282.25 264.641 282.312 264.641 282.375 264.641C283.065 264.704 283.692 264.641 284.381 264.39C285.196 264.076 286.011 263.134 285.886 262.318Z" fill="white"/>
<path d="M296.104 273.748C295.916 273.183 295.226 272.743 294.474 272.743C293.847 272.743 293.283 272.994 293.032 273.434C292.594 273.999 292.844 274.564 293.283 275.067C293.471 275.255 293.722 275.444 293.973 275.569C294.286 275.695 294.662 275.695 294.913 275.569C295.226 275.444 295.415 275.255 295.603 275.067C296.041 274.69 296.292 274.25 296.104 273.748Z" fill="white"/>
<path d="M125.713 152.094C124.397 152.722 124.397 154.23 125.713 154.858C127.092 155.486 129.098 154.858 129.098 153.476C129.098 152.094 127.092 151.466 125.713 152.094Z" fill="#FF939C"/>
<path d="M148.156 150.084C146.965 148.452 143.893 148.452 142.702 150.084C141.887 151.152 142.013 152.659 143.204 153.539C144.52 154.481 146.338 154.481 147.655 153.539C148.846 152.659 148.908 151.152 148.156 150.084Z" fill="#FF939C"/>
<path d="M152.607 154.983C152.231 155.172 151.98 155.423 151.667 155.737C151.416 155.988 151.353 156.239 151.04 156.365C150.476 156.679 150.601 157.433 151.04 157.747C151.604 158.186 152.607 158.061 152.983 157.558C153.171 157.307 153.297 156.993 153.359 156.679C153.422 156.428 153.359 156.051 153.547 155.8C153.924 155.297 153.297 154.606 152.607 154.983Z" fill="#FF939C"/>
<path d="M169.784 147.509C169.22 147.07 168.53 146.881 167.715 146.819C167.151 146.756 166.461 146.944 165.835 147.007C163.202 147.384 163.202 150.775 165.835 151.152C166.461 151.215 167.088 151.403 167.715 151.341C168.53 151.278 169.157 151.152 169.784 150.65C170.348 150.21 170.662 149.645 170.662 149.017C170.662 148.514 170.348 147.886 169.784 147.509Z" fill="#FF939C"/>
<path d="M184.328 153.978C180.504 153.978 180.504 158.626 184.328 158.626C188.152 158.626 188.152 153.978 184.328 153.978Z" fill="#FF939C"/>
<path d="M198.998 160.51C197.43 160.51 197.43 162.394 198.998 162.394C200.502 162.457 200.502 160.51 198.998 160.51Z" fill="#FF939C"/>
<path d="M211.473 164.027C210.595 163.839 209.717 164.341 209.717 165.095C209.717 164.907 209.655 165.221 209.655 165.221C209.592 165.346 209.529 165.472 209.529 165.535C209.341 165.974 209.592 166.351 209.906 166.665C210.219 166.979 210.721 166.916 211.097 166.791L210.971 166.853C211.159 166.791 211.347 166.728 211.535 166.602C211.724 166.477 211.786 166.351 211.912 166.225C212.1 165.974 212.35 165.66 212.413 165.346C212.601 164.781 212.225 164.153 211.473 164.027Z" fill="#FF939C"/>
<path d="M217.742 177.719C217.303 177.216 216.363 177.028 215.736 177.53C215.109 178.033 215.297 178.724 215.987 179.101C216.613 179.477 217.115 179.917 217.805 180.231C218.243 180.482 218.745 180.168 218.745 179.791C218.87 179.038 218.306 178.41 217.742 177.719Z" fill="#FF939C"/>
<path d="M227.271 196.623C225.327 196.623 225.327 199.01 227.271 199.01C229.214 199.01 229.214 196.623 227.271 196.623Z" fill="#FF939C"/>
<path d="M102.643 174.265C101.766 173.825 100.324 173.888 99.6342 174.579C99.5088 174.704 99.3834 174.767 99.3208 174.893C99.0073 175.144 98.7565 175.395 98.6312 175.709L98.5685 175.772C98.5685 175.709 98.6312 175.709 98.6312 175.709C98.1296 176.023 97.8162 176.463 97.8162 177.028C97.8162 177.782 98.5058 178.472 99.4461 178.724C100.324 178.912 101.201 178.786 102.016 178.472C103.082 178.096 103.521 177.342 103.897 176.526C104.085 175.709 103.584 174.704 102.643 174.265Z" fill="#FF939C"/>
<path d="M115.119 162.897C114.366 162.897 113.739 163.525 113.927 164.09C113.99 164.153 113.99 164.278 114.053 164.341C114.366 165.158 115.871 165.158 116.184 164.341C116.247 164.278 116.247 164.153 116.247 164.09C116.498 163.525 115.871 162.897 115.119 162.897Z" fill="#FF939C"/>
<path d="M125.212 164.404C123.456 164.404 123.456 166.602 125.212 166.602C126.967 166.539 126.967 164.404 125.212 164.404Z" fill="#FF939C"/>
<path d="M149.473 172.883C147.905 172.883 147.905 174.767 149.473 174.767C151.04 174.83 151.04 172.883 149.473 172.883Z" fill="white"/>
<path d="M162.261 171.25C161.697 171.124 161.133 171.25 160.569 171.313C158.876 171.627 158.876 173.762 160.569 174.013C161.133 174.139 161.697 174.202 162.261 174.076C164.079 173.636 164.079 171.689 162.261 171.25Z" fill="white"/>
<path d="M175.238 176.086C173.608 176.086 173.608 178.033 175.238 178.033C176.805 178.033 176.805 176.086 175.238 176.086Z" fill="white"/>
<path d="M185.833 183.434C185.77 183.434 185.77 183.497 185.833 183.497C185.895 183.497 185.895 183.434 185.833 183.434Z" fill="white"/>
<path d="M139.881 180.168C139.129 179.728 138.188 179.917 137.311 180.105C135.618 180.356 135.618 182.555 137.311 182.806C138.188 182.932 139.066 183.183 139.881 182.743C140.445 182.429 140.821 182.052 140.821 181.487C140.821 180.859 140.445 180.482 139.881 180.168Z" fill="white"/>
</g>
<g clip-path="url(#clip1)">
<path d="M55.3923 31L60.1151 40.4474L70.5729 41.9885L63.0163 49.2918L64.7705 59.6772L55.3923 54.786L46.014 59.6772L47.8357 49.2918L40.2117 41.9885L50.7369 40.4474L55.3923 31Z" fill="#FF939C"/>
<path d="M159.902 56.595L161.049 61.1512L165.367 62.7593L161.454 65.2384L161.184 69.8616L157.676 66.8465L153.155 68.0525L154.91 63.7643L152.346 59.8782L157.001 60.2132L159.902 56.595Z" fill="#BF9C83"/>
<path d="M290.118 81.5872L291.535 87.2824L297 89.3595L292.007 92.4416L291.737 98.2709L287.217 94.4517L281.55 95.9928L283.776 90.6325L280.605 85.7413L286.407 86.1434L290.118 81.5872Z" fill="#C4E3FF"/>
</g>
<path d="M246.679 0.520508L248.771 4.67469L253.359 5.34472L250.053 8.62786L250.795 13.1841L246.679 11.04L242.564 13.1841L243.373 8.62786L240 5.34472L244.588 4.67469L246.679 0.520508Z" fill="#BF9C83"/>
<defs>
<clipPath id="clip0">
<rect width="289" height="180" fill="white" transform="translate(14 107)"/>
</clipPath>
<clipPath id="clip1">
<rect width="297" height="93" fill="white" transform="translate(0 31)"/>
</clipPath>
</defs>
</svg>
