<svg width="276" height="231" viewBox="0 0 276 231" fill="none" xmlns="http://www.w3.org/2000/svg">
<path opacity="0.5" d="M231.146 216.366C231.146 223.966 189.348 230.172 137.841 230.172C86.2702 230.172 44.5348 224.029 44.5348 216.366C44.5348 208.766 86.3333 202.56 137.841 202.56C189.348 202.56 231.146 208.766 231.146 216.366Z" fill="#D8D4CE"/>
<path d="M198.237 208.133C198.237 207.943 198.174 207.816 198.111 207.626C198.111 206.55 197.67 205.347 197.544 204.46C197.228 202.813 196.913 201.23 196.661 199.583C196.157 195.91 195.715 192.237 195.4 188.564C194.77 181.28 194.518 173.997 194.455 166.651C194.455 164.181 190.609 164.181 190.672 166.651C190.735 180.457 191.618 194.2 194.139 207.816C192.248 208.83 190.168 209.526 188.213 210.413C187.078 210.92 188.087 212.566 189.159 212.06C191.113 211.173 193.194 210.476 195.022 209.463C194.013 210.73 193.572 212.376 192.5 213.643C191.681 214.593 193.068 215.923 193.824 214.973C194.896 213.77 195.337 211.87 196.409 210.666C196.535 211.996 196.724 213.263 196.976 214.593C197.228 215.796 199.057 215.29 198.805 214.086C198.552 212.123 198.3 210.096 198.237 208.133Z" fill="#885E42"/>
<path d="M233.92 143.471C226.733 129.665 226.103 119.215 226.103 119.215C226.103 119.215 243.755 98.886 241.801 75.8966C239.846 52.9072 217.655 39.1642 195.463 37.8342C194.454 37.7709 193.383 37.7709 192.248 37.7709C190.546 36.5676 188.97 35.111 187.835 33.4643C185.943 30.8677 186.07 27.8911 188.213 25.4845C189.348 24.2179 190.798 23.5846 192.5 23.4579C193.32 23.3946 194.139 23.5846 194.959 23.9646C197.418 25.0412 194.517 30.2344 192.941 27.4478C193.572 28.5245 195.211 27.5745 194.581 26.4978C193.698 24.9779 191.87 25.3579 191.176 26.8778C190.167 28.9678 193.067 30.8044 194.707 30.9944C197.291 31.3111 199.057 27.9545 198.489 25.8012C197.733 22.8879 195.4 21.6846 192.563 21.6213C186.511 21.4313 183.296 28.2711 185.502 33.211C186.259 34.9843 187.583 36.5676 189.159 37.9609C188.276 38.0242 187.393 38.1509 186.448 38.2142C185.502 37.8975 184.62 37.4542 183.737 36.9476C183.043 36.5043 182.413 35.8709 181.909 35.2376C181.593 34.921 181.341 34.541 181.152 34.161C181.026 33.9077 180.963 33.7177 180.837 33.4643C180.459 32.7043 180.774 32.3244 181.846 32.3244C181.152 33.3377 182.791 34.2876 183.485 33.2743C185.817 29.9178 177.496 28.3345 178.882 33.4643C179.45 35.6809 181.026 37.4542 182.98 38.6575C168.606 41.3175 151.458 49.8672 146.541 69.2467C139.984 94.8327 157.637 119.089 157.637 119.089C157.637 119.089 152.404 176.847 201.389 177.481C250.375 178.114 250.375 138.785 250.375 138.785C250.375 138.785 241.107 157.214 233.92 143.471Z" fill="#FFDDC4"/>
<path d="M96.9878 213.77C95.79 213.58 94.5921 213.2 93.4573 212.693C94.466 212.376 95.5378 212.06 96.4204 212.313C97.6183 212.63 97.8704 210.73 96.6726 210.413C95.4117 210.096 94.0247 210.54 92.7638 210.983C91.6921 195.72 90.116 180.457 88.792 165.194C88.6029 162.724 84.8202 163.231 85.0094 165.701C86.3333 180.964 87.9094 196.163 88.9812 211.426C88.9812 211.553 88.9181 211.616 88.9812 211.743L89.1073 212.693C89.1073 212.756 89.1703 212.756 89.1703 212.82C88.9812 213.2 88.9812 213.643 89.4225 213.96C90.7464 214.846 91.8812 215.923 92.953 217.063C93.7725 217.886 94.8443 219.406 96.0421 219.406C96.6095 219.406 97.0509 218.583 96.7987 218.076C96.7356 217.949 96.6726 217.823 96.6726 217.696C96.5465 217.253 96.1682 217.126 95.853 217.126C94.9704 216.303 94.0878 215.416 93.2051 214.593C94.403 215.036 95.6008 215.48 96.7987 215.606C97.9335 215.796 98.1857 213.896 96.9878 213.77Z" fill="#885E42"/>
<path d="M112.434 1.10179C96.3573 -2.00146 75.8679 1.73511 58.9089 25.3578C41.9499 48.9805 48.4435 68.6767 27.5758 60.7602C27.5758 60.7602 35.3933 72.5399 45.8587 70.5766C45.8587 70.5766 49.7674 80.3931 32.8085 75.1365C32.8085 75.1365 42.5804 88.2462 54.3697 86.2829L58.2785 96.0993C58.2785 96.0993 62.1872 127.575 46.5522 136.758C30.8541 145.941 23.667 121.685 23.667 121.685C23.667 121.685 18.4343 176.784 73.9765 172.224C129.519 167.664 140.615 90.8428 140.615 90.8428C140.615 90.8428 155.619 68.55 154.358 48.8539C152.908 29.2844 139.858 6.35832 112.434 1.10179Z" fill="#C4E3FF"/>
<path d="M124.223 55.5035C118.99 54.8069 107.894 64.6867 102.662 62.7234C97.4291 60.7601 123.53 82.4197 123.53 82.4197L139.669 61.0767C139.732 61.1401 128.951 56.2002 124.223 55.5035Z" fill="#FF939C"/>
<path d="M159.969 79.6331C159.969 79.6331 172.704 87.9929 188.402 86.0296C188.402 86.0296 173.208 103.256 168.291 102.243C163.374 101.293 159.969 79.6331 159.969 79.6331Z" fill="#FF939C"/>
<path d="M233.92 143.471C226.733 129.665 226.103 119.215 226.103 119.215C226.103 119.215 226.481 118.772 227.111 117.949C226.418 118.139 225.724 118.392 224.968 118.709C224.968 118.709 208.829 134.922 217.592 151.198C225.157 165.131 237.388 155.188 241.675 148.348C239.153 149.108 236.442 148.221 233.92 143.471Z" fill="#BF9C83"/>
<path d="M58.5307 107.499C58.5307 107.499 78.5158 133.085 70.0048 148.791C61.4938 164.497 53.1719 155.568 53.1719 155.568C53.1719 155.568 45.1652 161.394 41.4456 156.201C37.726 150.944 43.4 146.258 43.4 146.258C43.4 146.258 28.7106 146.511 33.6281 136.885C33.5651 136.885 54.4958 143.155 58.5307 107.499Z" fill="#885E42"/>
<path d="M249.934 141.381C249.934 141.381 251.888 117.759 255.797 118.772C259.705 119.785 256.301 132.578 256.301 132.578C256.301 132.578 272.945 110.412 274.899 117.822C276.917 125.105 249.934 141.381 249.934 141.381Z" fill="#BF9C83"/>
<path d="M23.604 121.812C23.604 121.812 -8.23349 103.953 2.04277 95.0862C12.319 86.2198 14.7778 104.903 14.7778 104.903C14.7778 104.903 13.7691 78.81 19.6952 82.7365C25.5584 86.7264 22.6583 114.086 23.604 121.812Z" fill="#885E42"/>
<path d="M107.894 105.219C101.338 107.372 90.4311 97.9993 85.1984 109.336C79.9657 120.672 80.5961 153.921 95.1594 154.744C109.66 155.568 123.908 132.578 126.366 117.822C128.762 103.066 125.358 99.4559 107.894 105.219Z" fill="white"/>
<path d="M158.267 138.278C158.267 138.278 156.817 124.345 168.732 125.802C180.648 127.258 184.746 130.868 187.204 141.065C189.663 151.261 194.896 174.187 210.216 176.974C210.216 176.974 187.33 180.394 173.965 168.297C160.6 156.201 158.267 138.278 158.267 138.278Z" fill="#FF939C"/>
<path d="M197.985 81.7864C197.985 81.7864 204.983 68.3602 210.531 72.0967C216.079 75.8966 212.17 84.2563 212.17 84.2563C212.17 84.2563 205.866 76.3399 197.985 81.7864Z" fill="#BF9C83"/>
<path d="M159.969 74.0589C159.969 74.0589 163.563 62.5969 157.826 62.0902C152.089 61.5836 150.134 72.0958 150.134 72.0958C150.134 72.0958 155.682 68.2962 159.969 74.0589Z" fill="#BF9C83"/>
<path d="M159.15 74.5029C159.15 74.5029 159.087 74.3762 158.96 74.1862C158.834 73.9329 158.582 73.6163 158.267 73.2997C157.952 72.9197 157.573 72.6031 157.069 72.2865C156.817 72.1598 156.565 71.9698 156.313 71.9065C156.06 71.7799 155.745 71.7165 155.43 71.6532C155.115 71.5899 154.799 71.5899 154.547 71.5266C154.232 71.5266 153.917 71.5266 153.665 71.5899C153.349 71.6532 153.097 71.7165 152.782 71.7799C152.53 71.8432 152.278 71.9698 152.026 72.0332C151.521 72.1598 151.206 72.4131 150.891 72.4764C150.639 72.6031 150.386 72.7298 150.386 72.7298C150.071 72.8564 149.693 72.7298 149.567 72.4131C149.441 72.0965 149.567 71.7165 149.819 71.5899C149.819 71.5899 150.008 71.5266 150.26 71.3366C150.576 71.2099 150.954 70.8933 151.458 70.7667C151.71 70.64 152.026 70.5767 152.341 70.45C152.656 70.3867 152.971 70.26 153.349 70.1967C153.728 70.1334 154.106 70.1334 154.484 70.0701C154.863 70.0701 155.241 70.0701 155.682 70.1334C156.06 70.1967 156.502 70.26 156.817 70.3867C157.195 70.5133 157.573 70.7033 157.889 70.83C158.519 71.2099 159.087 71.6532 159.528 72.0332C159.969 72.4764 160.284 72.8564 160.473 73.1097C160.663 73.4263 160.789 73.6163 160.789 73.6163C161.041 74.0596 160.852 74.6295 160.41 74.8828C159.906 75.1361 159.402 74.9462 159.15 74.5029Z" fill="#231F20"/>
<path d="M197.733 81.0258C197.733 81.0258 197.796 80.9625 197.859 80.8992C197.985 80.7725 198.111 80.6459 198.3 80.5192C198.679 80.2026 199.246 79.8227 200.065 79.506C200.444 79.316 200.885 79.1894 201.326 79.0627C201.768 78.9361 202.272 78.8728 202.839 78.8094C203.344 78.7461 203.911 78.8094 204.479 78.8728C204.983 78.9994 205.55 79.0627 206.055 79.2527C206.559 79.4427 207.063 79.6327 207.568 79.886C208.009 80.1393 208.513 80.3926 208.892 80.7092C209.27 81.0258 209.711 81.2792 210.027 81.5958C210.342 81.9124 210.657 82.1657 210.972 82.4823C211.54 82.9889 211.918 83.5589 212.233 83.8755C212.548 84.1921 212.674 84.3821 212.674 84.3821C212.927 84.6354 212.864 85.0154 212.611 85.2687C212.359 85.522 211.981 85.4587 211.729 85.2054C211.666 85.142 211.54 85.0154 211.224 84.6987C210.909 84.3821 210.531 83.9388 209.963 83.4322C209.711 83.1789 209.396 82.9256 209.081 82.6723C208.766 82.419 208.387 82.229 208.009 81.9124C207.631 81.6591 207.253 81.4691 206.811 81.2792C206.433 81.0258 205.992 80.9625 205.55 80.7725C205.109 80.5826 204.668 80.5826 204.226 80.5192C203.785 80.5192 203.344 80.4559 202.966 80.5826C202.587 80.5826 202.209 80.7092 201.831 80.8359C201.452 80.9625 201.137 81.0892 200.885 81.2158C200.318 81.5324 199.876 81.8491 199.561 82.1024C199.435 82.229 199.309 82.2924 199.246 82.3557C199.246 82.4823 199.246 82.4823 199.246 82.4823C198.805 82.9256 198.174 82.9256 197.733 82.5457C197.355 82.1657 197.292 81.4691 197.733 81.0258C197.733 81.0892 197.733 81.0892 197.733 81.0258Z" fill="#231F20"/>
<path d="M135.319 47.334C135.319 47.334 139.921 35.0477 145.91 36.821C151.963 38.5943 152.908 47.8406 152.908 47.8406C152.908 47.8406 147.739 54.5537 135.319 47.334Z" fill="#BF9C83"/>
<path d="M102.473 46.8274C102.473 46.8274 96.6095 33.5276 86.4594 37.9609C76.3092 42.3942 75.994 51.7673 75.994 51.7673C75.994 51.7673 90.8725 58.7972 102.473 46.8274Z" fill="#BF9C83"/>
<path d="M76.3093 51.1968C76.3093 51.1968 76.4353 51.2602 76.6245 51.3235C76.8136 51.3868 77.1288 51.4501 77.4441 51.5768C78.2006 51.8301 79.2723 52.0201 80.5332 52.3367C81.1637 52.4634 81.8572 52.59 82.6137 52.6533C82.992 52.7167 83.3702 52.7167 83.7485 52.78C84.1268 52.78 84.5681 52.8433 84.9463 52.8433C85.7659 52.9066 86.5855 52.8433 87.4681 52.9066C88.2877 52.8433 89.1703 52.8433 90.053 52.7167C90.8725 52.5267 91.7552 52.4634 92.5747 52.2101C92.953 52.0834 93.3943 52.0201 93.7726 51.8934C94.1508 51.7668 94.5291 51.5768 94.9074 51.4501C95.2856 51.3235 95.6639 51.1335 95.9791 51.0069C96.2943 50.8169 97.6183 50.1203 97.9335 49.9303C98.2487 49.7403 98.5009 49.5504 98.7531 49.3604C99.2574 48.9804 99.7618 48.6638 100.14 48.2838C100.518 47.9039 102.094 46.4474 102.094 46.4474C102.347 46.1941 102.725 46.2574 102.977 46.5107C103.166 46.764 103.166 47.0806 102.977 47.334C102.977 47.334 101.59 49.0438 101.212 49.487C100.834 49.9303 100.329 50.3103 99.7618 50.8169C99.5096 51.0702 99.1944 51.3235 98.9422 51.5135C98.627 51.7034 97.24 52.59 96.8618 52.8433C96.4835 53.0333 96.0422 53.2233 95.6639 53.4132C95.2226 53.6032 94.8443 53.7932 94.403 53.9832C93.9617 54.1098 93.5204 54.2365 93.0791 54.3631C92.1965 54.6798 91.2508 54.8064 90.3051 54.9331C89.3595 55.0597 88.4138 55.0597 87.4681 55.1231C86.5225 55.0597 85.6398 55.1231 84.7572 54.9964C83.8746 54.9331 83.055 54.8064 82.2354 54.6164C81.4159 54.4898 80.7224 54.2365 80.0289 54.1098C78.7049 53.7299 77.6332 53.2866 76.8767 52.97C76.4984 52.8433 76.1832 52.6533 75.994 52.59C75.8049 52.4634 75.6788 52.4634 75.6788 52.4634C75.3636 52.3367 75.2375 51.8934 75.4266 51.6401C75.6788 51.1968 75.994 51.0702 76.3093 51.1968Z" fill="#231F20"/>
<path d="M135.067 47.2705C135.067 47.2705 136.138 47.7137 137.904 48.2837C138.723 48.6003 139.732 48.8536 140.804 49.1702C141.875 49.4235 143.01 49.6769 144.208 49.8035C144.775 49.8668 145.343 49.9302 145.91 49.9302C146.478 49.9935 147.045 49.9302 147.549 49.8668C148.054 49.8668 148.558 49.6768 148.999 49.6135C149.441 49.4869 149.819 49.2969 150.26 49.1702C150.639 48.9803 150.891 48.727 151.206 48.6003C151.521 48.4737 151.647 48.2204 151.836 48.0304C152.215 47.7137 152.53 47.3971 152.53 47.3971C152.782 47.1438 153.16 47.2071 153.412 47.3971C153.602 47.6504 153.665 47.967 153.475 48.2204C153.475 48.2204 153.286 48.4737 152.908 48.9803C152.719 49.1702 152.53 49.5502 152.215 49.7402C151.899 49.9935 151.521 50.3101 151.08 50.5634C150.639 50.7534 150.134 51.07 149.567 51.26C148.999 51.3866 148.432 51.64 147.801 51.7033C147.171 51.7666 146.541 51.8933 145.91 51.8299C145.28 51.8299 144.649 51.8299 143.956 51.7033C143.325 51.64 142.695 51.5133 142.064 51.3867C141.434 51.26 140.867 51.07 140.299 50.9434C139.164 50.6267 138.156 50.1835 137.273 49.8035C135.571 49.0436 134.499 48.347 134.499 48.347C134.184 48.157 134.121 47.7771 134.31 47.4604C134.499 47.2705 134.814 47.1438 135.067 47.2705Z" fill="#231F20"/>
<path d="M161.797 142.268V143.091C161.797 144.295 163.689 144.295 163.689 143.091V142.268C163.689 141.002 161.797 141.002 161.797 142.268Z" fill="white"/>
<path d="M166.526 152.465V153.288C166.526 154.491 168.417 154.491 168.417 153.288V152.465C168.417 151.198 166.526 151.198 166.526 152.465Z" fill="white"/>
<path d="M215.385 218.646C214.692 216.43 213.431 214.466 212.674 212.313C212.611 212.123 212.485 211.996 212.359 211.87C211.855 207.12 212.864 202.18 213.494 197.493C214.566 189.26 214.566 180.774 214.629 172.477C214.629 170.008 210.846 170.008 210.846 172.477C210.783 180.141 210.909 187.994 210.027 195.53C209.333 200.913 208.072 206.55 208.64 211.933C208.64 211.996 208.64 211.996 208.703 212.06C207.379 214.276 205.992 216.43 204.163 218.266C203.281 219.153 204.668 220.483 205.487 219.596C207 218.013 208.261 216.176 209.459 214.34C208.892 216.303 208.135 218.33 208.387 220.293C208.577 221.496 210.405 220.99 210.216 219.786C210.09 218.9 210.531 217.823 210.72 216.936C210.972 215.986 211.224 215.036 211.413 214.086C212.17 215.733 213.053 217.316 213.557 219.026C213.872 220.356 215.764 219.85 215.385 218.646Z" fill="#885E42"/>
<path d="M170.624 145.118V145.308C170.624 146.511 172.515 146.511 172.515 145.308V145.118C172.578 143.915 170.624 143.915 170.624 145.118Z" fill="white"/>
<path d="M170.308 133.655C169.111 133.655 169.111 135.555 170.308 135.555C171.569 135.555 171.569 133.655 170.308 133.655Z" fill="white"/>
<path d="M181.467 145.308C180.27 145.308 180.27 147.208 181.467 147.208C182.665 147.208 182.665 145.308 181.467 145.308Z" fill="white"/>
<path d="M179.387 154.808V154.998C179.387 156.201 181.278 156.201 181.278 154.998V154.808C181.278 153.604 179.387 153.604 179.387 154.808Z" fill="white"/>
<path d="M175.163 159.874C174.343 158.988 172.956 160.318 173.839 161.204C173.839 161.268 173.902 161.331 173.902 161.394C174.091 162.597 175.92 162.091 175.73 160.888C175.604 160.508 175.415 160.191 175.163 159.874Z" fill="white"/>
<path d="M179.198 166.777C178 166.777 178 168.677 179.198 168.677C180.459 168.677 180.459 166.777 179.198 166.777Z" fill="white"/>
<path d="M187.015 164.688C185.817 164.688 185.817 166.587 187.015 166.587C188.213 166.651 188.213 164.688 187.015 164.688Z" fill="white"/>
<path d="M190.924 172.541C189.726 172.541 189.726 174.441 190.924 174.441C192.185 174.441 192.185 172.541 190.924 172.541Z" fill="white"/>
<path d="M230.642 157.848C233.605 159.431 238.207 159.304 236.757 154.681C237.135 155.821 239.531 155.441 240.162 154.998C241.17 154.364 241.738 153.034 241.801 151.831C241.864 150.754 241.549 149.171 240.351 148.728C239.783 148.474 239.153 149.108 238.207 148.791C237.072 148.411 236.127 147.271 235.307 146.448C235.307 148.284 235.875 149.741 234.046 150.944C232.659 151.894 230.39 152.021 229.129 150.818C229.507 152.591 229.759 154.111 227.679 154.808C225.724 155.441 224.085 154.491 222.95 153.034C223.896 154.174 221.942 155.251 221.059 155.188C219.672 155.061 218.79 153.731 218.096 152.654C219.231 155.948 222.194 157.658 225.094 159.368C227.868 160.951 229.318 160.634 230.011 157.468C230.327 157.658 230.453 157.784 230.642 157.848Z" fill="#7C6861"/>
<path d="M221.122 150.184C220.555 149.171 220.24 148.158 219.924 147.081C219.609 145.878 217.781 146.385 218.096 147.588C218.474 148.854 218.853 150.058 219.483 151.134C220.051 152.274 221.69 151.324 221.122 150.184Z" fill="#7C6861"/>
<path d="M226.292 148.094C226.103 147.968 225.914 147.841 225.851 147.651C225.22 146.575 223.581 147.588 224.212 148.601C224.527 149.108 224.842 149.424 225.346 149.741C226.418 150.437 227.364 148.791 226.292 148.094Z" fill="#7C6861"/>
<path d="M229.759 146.004C229.318 144.358 228.498 142.838 227.994 141.255C227.616 140.052 225.788 140.558 226.166 141.761C226.67 143.408 227.427 144.928 227.931 146.511C228.246 147.651 230.075 147.144 229.759 146.004Z" fill="#7C6861"/>
<path d="M233.794 144.928C233.542 144.421 233.353 144.041 233.038 143.598C232.281 142.648 230.894 143.978 231.714 144.928C231.966 145.181 232.029 145.561 232.218 145.878C232.659 147.018 234.299 146.068 233.794 144.928Z" fill="#7C6861"/>
<path d="M173.019 71.3364C172.452 72.6662 172.011 73.8694 171.948 75.3259C171.885 76.5924 173.839 76.5291 173.839 75.3259C173.902 74.2493 174.217 73.2995 174.659 72.2862C175.1 71.2097 173.461 70.2598 173.019 71.3364Z" fill="white"/>
<path d="M177.685 78.7463C177.369 79.6962 176.928 80.6461 176.55 81.5959C176.172 82.7358 178 83.2424 178.378 82.1025C178.693 81.1527 179.135 80.2028 179.513 79.2529C179.891 78.113 178.063 77.6064 177.685 78.7463Z" fill="white"/>
<path d="M184.304 67.2834C183.989 68.1066 183.548 68.8665 183.107 69.6264C182.476 70.703 184.115 71.6529 184.746 70.5763C185.25 69.6898 185.691 68.7399 186.133 67.79C186.637 66.6501 184.809 66.1435 184.304 67.2834Z" fill="white"/>
<path d="M187.015 73.4897C186.826 74.503 186.385 75.1995 185.691 75.9594C184.872 76.846 186.196 78.1759 187.015 77.2893C187.898 76.3394 188.591 75.2629 188.843 73.9963C189.096 72.7931 187.267 72.2865 187.015 73.4897Z" fill="white"/>
<path d="M178.756 57.4036C178.567 58.1635 178.378 58.9234 177.874 59.5566C177.18 60.5699 178.819 61.5197 179.513 60.5065C180.08 59.7466 180.332 58.7967 180.585 57.9102C180.9 56.707 179.009 56.2004 178.756 57.4036Z" fill="white"/>
<path d="M171.443 60.5069C171.443 61.3935 171.254 62.28 171.002 63.1033C170.624 64.3064 172.452 64.813 172.83 63.6099C173.145 62.5966 173.335 61.5834 173.335 60.5069C173.398 59.3037 171.443 59.3037 171.443 60.5069Z" fill="white"/>
<path d="M177.622 47.1437C177.117 48.2836 176.487 49.2968 175.856 50.31C175.226 51.3865 176.865 52.3364 177.496 51.2599C178.126 50.1834 178.756 49.1701 179.261 48.0936C179.765 47.0171 178.126 46.0038 177.622 47.1437Z" fill="white"/>
<path d="M185.502 50.817C185.313 51.197 185.187 51.577 184.998 51.9569C184.493 53.0968 186.133 54.0467 186.637 52.9068C186.826 52.5269 186.952 52.1469 187.141 51.7669C187.646 50.6904 186.007 49.6772 185.502 50.817Z" fill="white"/>
<path d="M193.194 42.5208C191.996 42.5208 191.996 44.4205 193.194 44.4205C194.391 44.4205 194.391 42.5208 193.194 42.5208Z" fill="white"/>
<path d="M193.761 56.7071C193.32 57.4037 192.815 58.1003 192.311 58.7335C191.555 59.6834 192.879 61.0766 193.635 60.0634C194.265 59.3035 194.833 58.4802 195.4 57.657C196.031 56.6438 194.392 55.6939 193.761 56.7071Z" fill="white"/>
<path d="M206.181 46.7007C205.487 46.764 204.857 46.954 204.289 47.334C203.218 47.9672 204.226 49.6137 205.235 48.9804C205.55 48.7905 205.802 48.6638 206.181 48.6638C207.379 48.5372 207.379 46.574 206.181 46.7007Z" fill="white"/>
<path d="M204.163 40.8108C203.47 41.0641 202.776 41.2541 202.02 41.2541C200.822 41.3174 200.759 43.2172 202.02 43.1538C202.902 43.1538 203.785 42.9639 204.668 42.6472C205.803 42.2673 205.298 40.3675 204.163 40.8108Z" fill="white"/>
<path d="M95.1595 114.212C94.7812 114.845 94.4029 115.479 93.8986 116.049C93.8986 116.049 93.8355 116.049 93.8355 115.985C93.5203 115.669 93.2681 115.162 93.016 114.719C92.4486 113.642 90.8094 114.592 91.3768 115.669C91.8812 116.619 92.7007 118.202 94.0247 118.012C95.4117 117.822 96.1682 116.239 96.7986 115.162C97.4291 114.149 95.7899 113.199 95.1595 114.212Z" fill="#885E42"/>
<path d="M108.02 120.292C107.768 120.799 107.579 121.305 107.264 121.748C107.201 121.875 107.138 121.938 107.138 121.938C106.444 121.558 105.814 120.862 105.246 120.419C104.238 119.722 103.292 121.368 104.301 122.065C105.12 122.698 106.003 123.775 107.138 123.901C108.525 124.028 109.281 122.318 109.723 121.242C110.164 120.102 108.525 119.152 108.02 120.292Z" fill="#885E42"/>
<path d="M118.234 113.832C118.234 113.959 118.171 113.959 118.171 114.022C118.171 114.022 118.171 113.959 118.108 113.959C117.855 113.832 117.729 113.579 117.54 113.389C116.784 112.439 115.46 113.769 116.216 114.719C117.414 116.238 119.368 116.302 119.999 114.275C120.44 113.135 118.549 112.629 118.234 113.832Z" fill="#885E42"/>
<path d="M114.388 131.755C114.388 132.135 114.451 132.642 114.199 133.022C114.199 133.022 114.199 133.022 114.136 132.958C113.884 132.768 113.758 132.515 113.631 132.262C113.064 131.185 111.425 132.135 111.992 133.212C112.56 134.225 113.568 135.301 114.829 134.858C116.09 134.415 116.342 132.958 116.342 131.755C116.216 130.489 114.325 130.489 114.388 131.755Z" fill="#885E42"/>
<path d="M97.5551 132.515C96.2312 132.452 95.2855 133.085 94.2768 133.845C94.0877 133.592 93.9616 133.338 93.8355 133.022C93.4572 131.882 91.629 132.388 92.0072 133.528C92.2594 134.352 92.8268 134.921 93.2051 135.681C93.4572 136.125 94.0877 136.315 94.529 135.998C95.4116 135.301 96.2942 134.288 97.5551 134.352C98.753 134.541 98.753 132.578 97.5551 132.515Z" fill="#885E42"/>
<path d="M102.536 142.015C102.157 143.091 101.212 142.964 100.266 142.585C99.1313 142.078 98.1856 143.724 99.3204 144.231C101.464 145.118 103.481 144.928 104.364 142.521C104.805 141.381 102.914 140.875 102.536 142.015Z" fill="#885E42"/>
<path d="M117.036 38.9106C116.595 37.7707 114.766 38.2773 115.208 39.4172C115.586 40.4304 115.649 41.4436 115.838 42.5202C115.964 43.7234 117.919 43.7234 117.729 42.5202C117.54 41.317 117.477 40.1138 117.036 38.9106Z" fill="white"/>
<path d="M113.442 27.5108C112.749 26.6242 112.055 25.7377 111.047 25.1044C109.975 24.4712 109.029 26.181 110.101 26.7509C110.984 27.2575 111.551 28.0807 112.118 28.8406C112.875 29.8539 114.199 28.4607 113.442 27.5108Z" fill="white"/>
<path d="M125.169 33.5909C124.853 32.8943 124.538 32.1977 124.223 31.5011C123.719 30.3613 122.079 31.3745 122.584 32.451C122.899 33.1476 123.214 33.8442 123.529 34.5408C124.097 35.6806 125.736 34.7308 125.169 33.5909Z" fill="white"/>
<path d="M120.44 24.2174C119.621 23.0142 119.053 21.7477 118.234 20.5445C117.54 19.5313 115.901 20.4812 116.595 21.4944C117.414 22.6976 117.982 23.9641 118.801 25.1673C119.495 26.1805 121.134 25.2306 120.44 24.2174Z" fill="white"/>
<path d="M111.362 17.821C110.668 16.6178 110.101 15.2879 108.966 14.4647C108.021 13.7048 106.634 15.0346 107.642 15.7945C108.651 16.5545 109.092 17.6943 109.723 18.7709C110.353 19.9107 111.992 18.8975 111.362 17.821Z" fill="white"/>
<path d="M104.112 22.6342C103.103 21.3043 102.157 19.9112 100.77 18.9613C99.7616 18.2647 98.816 19.9112 99.8247 20.6077C100.959 21.3677 101.716 22.5075 102.473 23.5841C103.166 24.534 104.805 23.5841 104.112 22.6342Z" fill="white"/>
<path d="M99.6357 9.71405C99.1943 8.95414 98.6269 8.3842 97.8704 7.94092C96.7986 7.37099 95.853 9.01746 96.9247 9.58739C97.4291 9.8407 97.7443 10.1573 97.9965 10.6639C98.5639 11.7405 100.203 10.7906 99.6357 9.71405Z" fill="white"/>
<path d="M105.373 3.00141C104.553 2.17817 103.67 1.67156 102.473 1.60824C101.275 1.54491 101.275 3.44469 102.473 3.50802C103.103 3.57134 103.544 3.88797 104.049 4.33126C104.868 5.21782 106.255 3.82465 105.373 3.00141Z" fill="white"/>
<path d="M115.964 10.0306C114.892 9.39735 113.947 11.0438 115.018 11.6771C115.712 12.057 116.027 12.6903 116.153 13.5135C116.405 14.7167 118.234 14.2101 117.982 13.0069C117.729 11.7404 117.099 10.6639 115.964 10.0306Z" fill="white"/>
<path d="M126.429 21.1778C126.366 20.7978 126.303 20.4179 126.24 20.0379C126.177 18.8347 124.223 18.8347 124.349 20.0379C124.349 20.4179 124.475 20.7978 124.475 21.1778C124.475 21.2411 124.538 21.3044 124.538 21.3677C124.601 21.7477 124.916 22.1277 125.421 22.1277C125.61 22.1277 125.736 22.0643 125.862 22.0643C126.24 21.9377 126.492 21.6844 126.429 21.1778Z" fill="white"/>
<path d="M128.762 32.5141C128.762 32.9574 128.636 33.4007 128.51 33.8439C128.132 35.0471 129.96 35.4904 130.338 34.3506C130.528 33.7173 130.654 33.1474 130.717 32.5141C130.717 31.2476 128.825 31.2476 128.762 32.5141Z" fill="white"/>
<path d="M126.871 43.1539V44.4204C126.871 45.6236 128.762 45.6236 128.762 44.4204V43.1539C128.762 41.9507 126.871 41.9507 126.871 43.1539Z" fill="white"/>
<path d="M123.656 49.6134C123.34 48.7268 123.151 47.8403 123.025 46.8904C122.836 45.6872 121.008 46.1938 121.197 47.397C121.323 48.3469 121.512 49.2334 121.827 50.12C122.269 51.2599 124.097 50.7533 123.656 49.6134Z" fill="white"/>
<path d="M92.5115 10.7905C91.5028 10.1572 90.4941 9.52398 89.4854 8.89072C88.4767 8.19413 87.531 9.84061 88.5397 10.5372C89.5484 11.1705 90.5571 11.8037 91.5658 12.437C92.5745 13.1336 93.5202 11.4871 92.5115 10.7905Z" fill="white"/>
<path d="M91.5029 2.81153C91.4398 2.87486 91.3768 2.93818 91.3768 2.93818C90.4941 3.82475 91.8811 5.15459 92.7007 4.26803C92.7637 4.2047 92.8268 4.14138 92.8898 4.14138C93.7094 3.31814 92.3855 1.98829 91.5029 2.81153Z" fill="white"/>
<path d="M110.921 33.0841C110.731 32.8941 110.605 32.6408 110.416 32.4508C109.66 31.5009 108.336 32.8308 109.092 33.7807C109.281 33.9706 109.408 34.2239 109.597 34.4139C110.353 35.4271 111.677 34.034 110.921 33.0841Z" fill="white"/>
<path d="M47.6239 139.671C46.8674 139.291 46.0478 139.165 45.2913 138.911C45.0391 138.848 44.7869 138.721 44.5978 138.595C44.7239 138.341 44.913 138.151 45.1022 138.025C45.9848 137.138 44.6609 135.808 43.7782 136.695C42.7695 137.708 42.1391 139.165 43.463 140.178C44.4087 140.874 45.6065 140.874 46.6783 141.381C47.75 141.824 48.6957 140.178 47.6239 139.671Z" fill="white"/>
<path d="M52.7306 146.258C51.974 146.511 51.2175 146.511 50.3979 146.258C49.6414 146.005 50.524 145.435 50.9023 145.118C51.8479 144.421 50.9023 142.712 49.9566 143.471C48.6957 144.421 47.4979 145.878 48.6957 147.398C49.7044 148.601 51.911 148.474 53.2349 148.094C54.4328 147.778 53.9284 145.941 52.7306 146.258Z" fill="white"/>
<path d="M60.2959 150.311C60.0437 150.944 59.2242 151.198 58.5937 151.198C57.8372 151.198 57.7741 150.818 58.0263 150.185C58.4046 149.045 56.5763 148.538 56.198 149.678C55.6306 151.388 56.5133 152.908 58.3415 153.098C59.9807 153.288 61.5568 152.338 62.1873 150.818C62.6286 149.678 60.8003 149.171 60.2959 150.311Z" fill="white"/>
<path d="M66.4742 145.941C60.1068 146.131 52.2893 139.988 50.2718 134.035C49.8936 132.895 48.0653 133.402 48.4436 134.542C50.7762 141.255 59.2241 148.095 66.4742 147.841C67.6721 147.778 67.6721 145.878 66.4742 145.941Z" fill="white"/>
<path d="M71.6438 210.793C70.3829 209.273 67.609 209.463 65.7807 209.273C65.8437 208.513 65.9068 207.817 65.9068 206.867C65.9068 206.233 65.6546 205.79 65.3394 205.473C64.6459 192.364 63.7633 179.254 63.7002 166.081C63.7002 163.611 59.8545 163.611 59.9176 166.081C59.9806 180.837 61.1154 195.53 61.8089 210.287C61.6828 210.54 61.6828 210.793 61.8719 211.11C61.935 211.173 61.935 211.237 61.998 211.363C61.998 211.427 62.0611 211.427 62.0611 211.49C63.2589 213.39 63.6372 215.733 64.3937 217.823C64.7089 218.71 65.9068 218.773 66.222 217.823C66.285 217.696 66.285 217.506 66.3481 217.316C66.4742 216.873 66.222 216.493 65.9068 216.303C65.6546 215.416 65.3394 214.53 65.0872 213.643C65.5916 214.023 66.0329 214.403 66.5372 214.783C67.4829 215.543 68.4916 216.556 69.5634 217.063C70.6981 217.506 71.2025 215.67 70.0677 215.226C70.446 215.353 70.1307 215.226 70.0047 215.163C69.8155 215.036 69.5634 214.846 69.3742 214.656C68.8068 214.213 68.2394 213.77 67.609 213.263C66.8524 212.693 66.159 212.06 65.4024 211.49C65.4655 211.363 65.4655 211.3 65.5285 211.173C66.285 211.237 67.1046 211.3 67.8612 211.363C68.6177 211.427 69.8155 211.49 70.3199 212.123C71.0134 213.136 72.4003 211.743 71.6438 210.793Z" fill="#885E42"/>
<path d="M137.399 208.26C118.36 209.716 110.479 187.17 120.251 168.487C132.23 145.625 140.993 146.448 152.278 165.067C161.671 180.52 165.643 206.043 137.399 208.26Z" fill="#BF9C83"/>
<path d="M124.349 167.791C124.223 167.347 123.719 166.841 123.214 166.841C122.584 166.777 122.205 166.967 121.701 167.284C120.629 167.917 121.008 169.12 121.764 169.69C122.395 170.387 123.656 170.514 124.097 169.374C124.349 168.804 124.475 168.424 124.349 167.791Z" fill="white"/>
<path d="M147.865 187.677C147.423 187.044 146.415 186.79 145.784 187.297C145.532 187.55 145.154 187.613 144.839 187.867C144.208 188.373 143.956 189.197 144.46 189.957C144.902 190.59 145.91 190.843 146.541 190.336C146.793 190.083 147.171 190.02 147.486 189.767C148.117 189.197 148.369 188.373 147.865 187.677Z" fill="white"/>
<path d="M153.349 176.404C153.034 175.517 152.278 175.201 151.332 175.201C149.567 175.327 149.63 177.797 151.143 178.114C152.215 178.747 153.917 177.86 153.349 176.404Z" fill="white"/>
<path d="M122.016 184.13C121.512 184.194 121.197 184.447 120.945 184.764C119.495 185.27 119.81 187.74 121.575 187.613C122.836 187.487 123.656 186.79 123.656 185.46C123.592 184.7 122.773 184.13 122.016 184.13Z" fill="white"/>
<path d="M134.184 173.807C133.301 174.631 133.743 176.53 135.256 176.34C136.264 176.214 136.895 175.517 136.832 174.504C136.769 172.984 134.878 172.857 134.184 173.807Z" fill="white"/>
<path d="M141.56 161.583C141.434 161.773 141.308 162.027 141.308 162.28C140.993 164.116 143.641 164.686 144.145 163.04C144.271 162.85 144.397 162.597 144.397 162.343C144.712 160.507 142.065 159.937 141.56 161.583Z" fill="white"/>
<path d="M130.717 193.25C130.59 193.44 130.464 193.694 130.464 193.947C130.149 195.783 132.797 196.353 133.301 194.707C133.427 194.517 133.554 194.264 133.554 194.01C133.869 192.174 131.221 191.604 130.717 193.25Z" fill="white"/>
<path d="M180.143 191.983C176.613 191.73 172.704 193.503 169.615 194.58C168.228 195.087 166.904 195.593 165.58 196.163C166.526 195.657 165.643 194.39 164.571 194.833C158.834 197.177 152.53 197.62 146.162 198.063C140.11 198.507 134.058 199.013 128.006 198.95C127.249 198.76 126.429 198.57 125.673 198.443C123.403 198 121.323 196.607 119.116 196.163C116.342 195.593 113.505 194.96 110.731 194.517C108.273 194.073 103.733 193.187 101.527 194.707C98.7529 196.67 100.644 198.57 103.67 200.09C102.536 200.913 102.662 202.307 103.544 203.763C100.896 202.37 98.9421 200.66 98.6268 198.697C98.5008 197.683 96.5464 198 96.6725 199.013C97.1768 202.497 101.653 204.903 106.192 206.613C112.371 211.3 121.008 215.163 129.645 216.936C129.582 217.189 129.519 217.379 129.519 217.633C129.519 218.013 129.645 218.329 129.771 218.646C125.421 218.583 121.071 218.013 116.91 216.556C115.712 216.113 115.145 217.633 116.279 218.013C124.16 220.736 132.608 220.609 140.867 219.279C142.065 219.533 143.325 219.786 144.586 219.913C144.712 219.913 144.838 219.913 144.965 219.913C144.271 220.166 143.515 220.483 142.821 220.736C141.623 221.116 142.569 222.509 143.767 222.129C149.315 220.293 154.421 217.823 159.15 214.91C160.537 214.53 161.924 214.15 163.247 213.77C163.374 214.023 163.626 214.213 164.067 214.276C166.021 214.403 167.787 213.39 166.652 211.616C166.4 211.173 165.958 210.856 165.391 210.603C166.589 209.716 167.724 208.766 168.858 207.816C169.678 207.12 168.354 205.916 167.534 206.613C166.211 207.753 164.887 208.83 163.437 209.843C162.617 209.653 161.797 209.526 160.915 209.463C163.374 208.133 165.769 206.676 168.039 205.22C169.741 204.08 172.389 202.433 173.839 200.533C177.306 198.443 180.711 195.847 181.152 192.807C181.152 192.363 180.648 191.983 180.143 191.983ZM154.989 200.027C156.25 199.71 157.447 199.393 158.708 199.077C157.447 199.647 156.186 200.217 154.926 200.787C154.989 200.533 155.052 200.28 154.989 200.027ZM168.858 199.14C168.858 199.14 168.858 199.203 168.795 199.203C167.471 200.343 164.382 200.977 162.617 201.547C159.465 202.56 156.186 203.446 152.908 204.206C157.826 202.243 163.31 200.09 168.858 199.14ZM152.467 201.99C152.089 202.18 151.647 202.37 151.206 202.56C149.63 203.32 148.054 204.143 146.478 204.966C145.784 205.283 145.091 205.6 144.397 205.98C144.019 206.043 143.578 206.106 143.199 206.233C142.695 205.79 142.128 205.41 141.56 205.03C142.38 204.586 143.325 204.27 144.208 203.89C146.225 203.7 148.306 203.32 150.26 202.75C151.017 202.496 150.891 201.863 150.449 201.483C150.576 201.42 150.702 201.357 150.891 201.357C151.143 201.673 151.71 201.927 152.467 201.99ZM144.082 212.313C144.334 212.376 144.586 212.44 144.902 212.44C145.217 212.82 145.532 213.263 145.847 213.706C144.334 213.77 142.884 213.516 141.308 213.136C142.254 212.883 143.199 212.63 144.082 212.313ZM140.173 208.006C139.606 208.006 139.038 207.943 138.471 207.943C137.967 207.753 137.462 207.626 137.021 207.436C137.462 207.183 137.904 206.866 138.345 206.613C138.975 207.12 139.543 207.563 140.173 208.006ZM145.028 199.71C146.982 199.583 148.936 199.393 150.828 199.267C150.702 199.457 150.576 199.647 150.512 199.9C148.243 200.66 146.036 201.42 143.893 202.307C141.812 202.497 139.669 202.56 137.588 202.623C136.075 201.8 134.562 201.103 132.923 200.47C136.958 200.343 140.993 200.027 145.028 199.71ZM122.584 199.457C122.521 199.837 122.836 200.28 123.466 200.343C124.475 200.407 125.484 200.47 126.556 200.47C129.014 201.42 131.536 202.623 133.995 203.953C134.121 204.08 134.247 204.206 134.499 204.206C135.319 204.65 136.075 205.156 136.832 205.6C136.201 205.98 135.571 206.296 134.94 206.676C134.31 206.486 133.743 206.233 133.175 206.043C125.484 203.193 116.973 200.09 108.462 199.33C111.614 197.873 117.982 198.697 122.584 199.457ZM136.832 210.54C136.517 210.73 136.201 210.92 135.823 211.173C135.571 211.363 135.256 211.553 134.94 211.743C134.184 211.49 133.427 211.236 132.671 210.983C132.986 210.54 133.49 210.033 133.932 209.653C134.877 209.906 135.823 210.223 136.832 210.54ZM113.19 203.446C117.414 204.65 121.701 205.536 125.862 206.866C127.249 207.31 128.573 207.753 129.897 208.196C128.573 208.323 127.249 208.45 125.925 208.64C125.736 208.576 125.547 208.513 125.421 208.45C125.232 208.323 124.979 208.196 124.664 208.196C123.908 207.943 123.151 207.69 122.332 207.5C119.432 206.676 106.255 205.03 106.76 201.357C109.471 202.433 112.181 203.193 113.19 203.446ZM113.001 201.737C113.631 201.863 114.262 202.053 114.829 202.18C119.81 203.32 124.664 204.84 129.456 206.55C126.429 205.473 123.34 204.46 120.251 203.7C117.792 203.066 115.397 202.433 113.001 201.737ZM103.986 195.593C107.705 194.897 112.371 195.91 116.658 197.177C112.56 196.923 108.525 197.24 106.003 199.203C103.166 197.937 100.518 196.227 103.986 195.593ZM105.499 203.7C108.273 206.17 115.46 207.816 117.666 208.26C118.612 208.45 119.495 208.703 120.44 208.956C119.936 209.083 119.368 209.21 118.864 209.336C118.486 209.21 118.108 209.02 117.729 208.893C115.397 208.07 111.488 207.056 107.831 205.663C107.012 205.03 106.192 204.333 105.499 203.7ZM113.758 209.21C115.397 209.78 116.973 210.413 118.549 211.046C118.675 211.49 119.242 211.87 119.936 211.68C122.269 212.63 124.538 213.643 126.808 214.593C122.205 213.263 117.792 211.363 113.758 209.21ZM122.836 210.92C123.656 210.73 124.538 210.54 125.421 210.413C126.808 210.856 128.258 211.3 129.645 211.806C129.582 212.63 130.212 213.326 131.977 213.896C131.725 214.086 131.473 214.34 131.284 214.53C128.447 213.326 125.673 212.06 122.836 210.92ZM131.662 217.316C132.923 217.506 134.184 217.696 135.445 217.823C135.571 217.886 135.697 217.886 135.823 217.949C133.932 218.266 131.536 218.456 131.662 217.316ZM138.975 217.126C138.912 217.126 138.786 217.063 138.723 217.063C138.66 216.746 138.408 216.429 137.841 216.429C137.273 216.429 136.706 216.366 136.138 216.303C135.193 215.986 134.247 215.669 133.301 215.29C133.68 214.91 133.995 214.593 134.373 214.276C135.256 214.34 136.138 214.276 137.084 214.15C137.462 214.276 137.841 214.34 138.156 214.466C138.849 214.72 139.606 214.91 140.488 215.036C141.623 215.289 142.695 215.479 143.83 215.669C142.254 216.176 140.614 216.683 138.975 217.126ZM144.523 216.999C145.532 216.619 146.541 216.239 147.36 215.923C147.928 215.923 148.495 215.986 149.125 215.986C147.612 216.303 146.099 216.683 144.523 216.999ZM148.873 211.743C148.684 211.49 148.432 211.3 148.243 211.046C149.062 210.793 149.819 210.54 150.639 210.286C152.152 210.413 153.602 210.54 155.115 210.666C154.043 211.173 152.971 211.68 151.899 212.186C151.143 212.503 150.449 212.883 149.693 213.2C149.378 213.01 149.125 212.756 148.81 212.566C148.999 212.313 149.125 211.996 148.873 211.743ZM145.217 219.849C145.784 219.596 145.721 218.836 145.091 218.519C147.549 218.013 149.945 217.443 152.341 216.809C150.071 217.949 147.675 218.899 145.217 219.849ZM161.545 211.3C160.41 212.06 159.276 212.82 158.078 213.58C155.934 214.213 153.728 214.783 151.521 215.353C151.584 215.099 151.584 214.846 151.332 214.656C151.269 214.593 151.143 214.466 151.08 214.403C153.539 213.326 155.997 212.123 158.33 210.92C158.96 210.983 159.591 211.046 160.221 211.11C160.663 211.11 161.104 211.236 161.545 211.3ZM157.826 209.273C157.826 209.273 157.763 209.273 157.7 209.273C156.691 209.21 155.619 209.083 154.547 209.02C158.204 207.816 161.734 206.55 165.139 205.03C162.806 206.55 160.347 207.943 157.826 209.273ZM172.326 199.457C170.308 200.66 168.228 201.673 166.778 202.433C162.302 204.776 157.384 206.55 152.404 208.133C151.773 208.323 151.143 208.513 150.576 208.703C148.936 208.576 147.297 208.45 145.658 208.323C145.406 208.133 145.217 207.88 144.965 207.69C145.154 207.563 145.406 207.436 145.595 207.373C152.908 205.98 160.095 204.27 167.03 201.863C168.985 201.167 170.813 200.09 171.002 198.887C171.569 198.823 172.137 198.823 172.704 198.823C172.641 199.013 172.515 199.267 172.326 199.457ZM174.848 197.873C174.785 197.493 174.406 197.177 173.902 197.177C172.641 197.177 171.38 197.24 170.182 197.43C169.867 197.177 169.363 196.923 168.795 196.733C169.174 196.607 169.489 196.417 169.867 196.29C172.452 195.34 175.793 193.757 178.883 193.567C178.315 195.087 176.739 196.543 174.848 197.873Z" fill="#7C6861"/>
<path d="M212.233 84.1931C212.233 84.1931 212.422 84.3831 212.8 84.6364C213.179 84.8897 213.746 85.143 214.377 85.2063C215.007 85.2697 215.637 85.143 216.079 84.8897C216.331 84.8264 216.457 84.6997 216.583 84.5731C216.709 84.5098 216.772 84.4464 216.772 84.4464C216.772 84.4464 216.709 84.5098 216.583 84.6364C216.457 84.7631 216.331 84.8897 216.142 85.0797C215.764 85.3963 215.07 85.7763 214.313 85.8396C213.557 85.9663 212.8 85.7763 212.296 85.5863C212.044 85.4596 211.792 85.3963 211.666 85.333C211.54 85.2697 211.413 85.2063 211.413 85.2063C211.161 85.0164 211.098 84.5731 211.287 84.3198C211.603 84.0031 211.981 84.0032 212.233 84.1931Z" fill="#231F20"/>
<path d="M210.594 81.9764C210.594 81.9764 210.783 82.1663 211.161 82.4196C211.54 82.673 212.107 82.9263 212.737 82.9896C213.368 83.0529 213.998 82.9263 214.44 82.673C214.692 82.6096 214.818 82.483 214.944 82.3563C215.07 82.293 215.133 82.2297 215.133 82.2297C215.133 82.2297 215.07 82.293 214.944 82.4196C214.818 82.5463 214.692 82.673 214.503 82.8629C214.124 83.1796 213.431 83.5595 212.674 83.6228C211.918 83.7495 211.161 83.5595 210.657 83.3695C210.405 83.2429 210.153 83.1796 210.026 83.1162C209.9 83.0529 209.774 82.9896 209.774 82.9896C209.522 82.7996 209.459 82.3563 209.648 82.103C209.9 81.7864 210.279 81.7231 210.594 81.9764Z" fill="#231F20"/>
<path d="M150.197 72.3497C150.197 72.3497 150.071 72.3497 149.945 72.2864C149.756 72.2864 149.567 72.2231 149.252 72.0964C148.684 71.9064 147.991 71.5898 147.486 71.0832C146.919 70.5766 146.604 69.88 146.541 69.3734C146.478 69.1201 146.478 68.9301 146.415 68.7401C146.415 68.6135 146.415 68.4868 146.415 68.4868C146.415 68.4868 146.415 68.5501 146.478 68.6768C146.541 68.8034 146.604 68.9934 146.73 69.2467C146.919 69.69 147.36 70.1966 147.928 70.5133C148.432 70.8299 149.062 70.9565 149.504 71.0199C149.945 71.0832 150.26 71.0199 150.26 71.0199C150.639 71.0199 150.891 71.2732 150.891 71.6531C150.828 72.0331 150.512 72.3497 150.197 72.3497Z" fill="#231F20"/>
<path d="M153.16 71.5894C153.16 71.5894 153.034 71.5894 152.908 71.5261C152.719 71.5261 152.53 71.4628 152.215 71.3361C151.647 71.1462 150.954 70.8295 150.449 70.3229C149.882 69.8163 149.567 69.1197 149.504 68.6131C149.441 68.3598 149.441 68.1698 149.378 67.9799C149.378 67.8532 149.378 67.7266 149.378 67.7266C149.378 67.7266 149.378 67.7899 149.441 67.9165C149.504 68.0432 149.567 68.2332 149.693 68.4865C149.882 68.9298 150.323 69.4364 150.891 69.753C151.395 70.0696 152.026 70.1963 152.467 70.2596C152.908 70.3229 153.223 70.2596 153.223 70.2596C153.602 70.2596 153.854 70.5129 153.854 70.8929C153.791 71.3361 153.476 71.5894 153.16 71.5894Z" fill="#231F20"/>
</svg>
