<svg width="241" height="225" viewBox="0 0 241 225" fill="none" xmlns="http://www.w3.org/2000/svg">
<g clip-path="url(#clip0)">
<path d="M171.375 1.5223C169.054 -2.73346e-05 168.444 -0.365386 165.39 0.365331C163.191 0.852476 161.176 2.74016 160.382 4.87142C158.611 9.56019 161.237 13.4573 165.023 15.2232C161.298 13.9445 156.778 13.9445 155.19 18.3897C153.48 23.0176 155.801 25.6969 158.794 28.6806C154.702 27.5237 150.854 27.7672 147.984 32.0906C143.892 38.3017 149.388 41.59 153.297 45.1827C148.961 45.1218 145.235 42.138 142.181 46.8268C139.555 50.9066 144.869 54.3166 147.678 56.4479C143.22 55.9607 139.006 54.9255 136.624 60.8322C134.181 66.7997 139.433 69.6617 143.831 72.2801C140.777 72.4628 134.914 70.0879 132.593 73.0717C129.417 77.1515 136.196 82.1448 138.09 84.9459C135.647 85.0067 133.387 84.0325 131.005 85.3112C128.684 86.5291 127.218 89.5128 128.257 92.1312C128.989 94.0189 131.921 98.2814 134.059 97.9161C135.402 97.6725 138.212 94.5061 137.906 93.0446L171.375 1.5223Z" fill="#885E42"/>
<path d="M239.656 101.57C239.656 101.57 237.946 168.613 183.285 176.164C128.623 183.714 75.9156 173.789 66.6322 158.748C57.3489 143.708 45.134 97.1245 45.134 98.5251C45.0729 99.9256 213.272 98.2815 239.656 101.57Z" fill="#FF939C"/>
<path d="M213.272 121.299C213.639 120.69 214.005 120.386 214.555 119.959C215.227 119.472 216.204 119.472 216.998 119.594C217.792 119.716 218.586 120.447 218.891 121.116C219.257 121.847 219.38 122.517 219.441 123.309C219.441 123.613 219.38 123.917 219.319 124.161C219.319 124.405 219.257 124.709 219.196 124.953C218.891 126.11 217.731 126.962 216.509 126.962C215.776 126.962 215.043 126.779 214.433 126.414C213.639 125.988 213.15 125.257 212.845 124.405C212.478 123.491 212.784 122.212 213.272 121.299Z" fill="white"/>
<path d="M130.883 99.4992L171.07 0.852417C171.07 0.852417 187.926 22.9566 206.188 19.4857C206.188 19.4857 209.669 45.4871 231.9 48.8971C231.9 48.8971 220.296 84.7022 239.595 100.352C239.656 100.474 131.86 104.858 130.883 99.4992Z" fill="#BF9C83"/>
<path d="M6.90142 53.3423C15.2076 48.7144 26.201 55.4127 31.6366 61.5629C35.7897 66.2517 37.9272 72.8281 40.0038 78.613C41.1031 81.6576 41.9582 84.6414 42.6911 87.7469C43.4239 90.9134 44.0347 94.6278 46.2334 97.1244C47.8213 98.8903 45.1951 101.509 43.6072 99.7429C41.1031 96.9418 40.187 93.2273 39.332 89.6955C38.1105 84.5196 36.5225 79.5872 34.5682 74.6549C31.0258 65.7036 25.5291 58.2138 15.6351 55.8998C11.9095 55.0473 8.61151 56.0825 6.2296 58.5791C6.29068 59.0663 6.16852 59.5534 5.80207 59.9797C3.72554 62.4763 9.77192 64.6075 11.2988 66.2517C13.6196 68.7483 12.4592 72.4627 9.40546 73.5588C5.13025 75.142 0.855049 69.7835 0.183231 66.3125C-0.855034 61.1366 2.44299 55.778 6.90142 53.3423ZM6.10744 69.1136C7.63431 70.1488 9.77192 69.7835 7.93968 68.1393C6.71819 67.0433 5.13026 66.3125 3.72554 65.3383C4.03091 66.7997 4.76381 68.2002 6.10744 69.1136Z" fill="#885E42"/>
<path d="M127.462 101.57C124.164 101.813 130.028 97.4898 130.333 97.1244C135.708 91.0351 142.426 86.2855 147.984 80.3788C154.213 73.6806 160.626 67.4086 167.344 61.1975C173.94 55.1691 179.742 48.5926 185.605 41.8944C192.201 34.3437 198.92 26.9756 205.332 19.3031C205.943 18.5723 206.981 19.6075 206.371 20.3382C200.263 27.6454 193.912 34.709 187.621 41.8335C181.391 48.8971 175.345 55.8389 168.382 62.2327C161.97 68.1393 155.74 74.046 149.877 80.5006C144.319 86.5899 137.479 91.4614 131.982 97.5507C140.777 94.5669 149.205 90.6089 157.572 86.529C166.123 82.3883 174.795 78.6129 183.529 74.8376C192.507 70.9404 201.179 66.4952 209.791 61.8064C214.066 59.4316 218.586 57.2395 222.617 54.4384C223.105 54.1948 228.846 50.115 230.678 49.3234C231.045 48.8971 231.411 48.5317 231.961 48.5317C232.388 48.5317 232.694 48.8971 232.694 49.2625V49.4451C232.694 49.8105 232.45 50.0541 232.144 50.1759C232.022 50.2368 231.961 50.2368 231.839 50.2976C231.717 50.5412 231.472 50.7848 231.167 50.9066C230.862 51.1502 230.495 51.1501 230.251 50.9675C227.38 52.368 225.06 54.5602 222.433 56.387C218.341 59.188 213.639 61.4411 209.241 63.8159C200.63 68.5047 191.957 72.8281 182.979 76.7253C165.634 84.2151 148.839 93.6535 130.822 99.4993C130.028 99.7428 126.73 101.935 127.462 101.57Z" fill="white"/>
<path d="M241 100.595C240.084 104.371 238.801 108.39 233.182 107.415C230.434 106.928 225.243 103.823 225.609 101.083C225.854 103.701 223.411 107.781 220.051 108.268C217.67 108.572 214.494 107.111 212.784 105.893C211.073 104.675 210.341 102.483 208.631 101.387C208.569 104.188 206.859 109.06 203.195 109.547C198.553 110.156 193.973 105.162 192.079 102.24C191.163 104.005 189.636 108.877 187.071 109.425C183.834 110.156 178.887 104.066 177.544 102.118C176.566 104.614 175.528 107.476 171.742 107.781C167.527 108.146 162.58 105.162 161.481 101.813C162.336 103.701 157.694 108.694 155.496 109.181C151.282 110.095 147.678 105.65 145.846 103.214C144.197 105.406 141.387 107.903 138.212 108.146C135.524 108.39 130.333 105.102 130.272 102.666C129.478 104.493 127.829 107.111 124.836 107.415C121.477 107.72 117.019 105.223 116.347 102.361C117.202 110.277 103.399 108.572 102.239 102.727C102.422 105.589 99.0018 108.207 95.8259 108.207C92.4668 108.207 86.909 105.771 86.6647 102.544C87.2144 105.832 83.3667 108.329 79.8855 108.512C75.4881 108.816 72.0679 106.015 70.9075 102.666C71.5182 106.258 68.4034 109.303 64.1893 109.486C60.4027 109.669 56.3718 105.954 55.8832 102.788C55.9442 104.553 56.1885 106.137 54.4174 107.355C52.7073 108.512 50.3254 108.39 48.371 107.659C46.6609 107.05 45.3784 105.467 44.8898 103.945C44.5233 102.909 44.2179 99.4384 45.2562 98.5859L241 100.595Z" fill="#885E42"/>
<path d="M183.834 141.82C184.873 140.785 186.46 140.724 187.682 141.333C187.743 141.333 187.804 141.394 187.865 141.455C188.293 141.576 188.72 141.881 189.026 142.185C189.392 142.49 189.636 142.916 189.82 143.342C189.82 143.403 189.881 143.464 189.881 143.525C190.736 144.865 190.186 146.691 188.842 147.483C188.537 147.666 188.171 147.787 187.804 147.848C187.743 147.909 187.682 147.97 187.56 148.031C186.766 148.579 185.483 148.579 184.628 148.275C184.14 148.153 183.712 147.909 183.346 147.544C182.796 146.996 182.491 146.265 182.491 145.474C182.491 144.195 182.918 142.733 183.834 141.82Z" fill="white"/>
<path d="M146.823 118.924C147.129 118.376 147.678 117.889 148.228 117.524C149.388 116.793 151.098 116.854 152.259 117.645C152.808 118.011 153.236 118.437 153.419 119.107C153.602 119.716 153.48 120.447 153.175 120.995C153.053 121.238 152.808 121.421 152.625 121.603C152.503 122.273 152.137 122.821 151.709 123.308C151.037 124.1 149.755 124.465 148.778 124.1C148.228 123.917 147.739 123.674 147.373 123.187C146.701 122.517 146.457 121.725 146.335 120.812C146.273 120.203 146.518 119.472 146.823 118.924Z" fill="white"/>
<path d="M125.508 152.842C125.752 151.928 126.485 150.954 127.401 150.528C128.012 150.284 128.562 150.041 129.234 150.102C129.967 150.162 130.638 150.345 131.249 150.71C132.471 151.38 132.837 152.963 132.165 154.181C132.043 154.425 131.86 154.608 131.616 154.79C131.616 154.912 131.554 155.034 131.554 155.095C131.371 155.947 130.577 156.617 129.783 156.861C128.562 157.226 127.218 156.982 126.302 156.13C125.447 155.277 125.203 153.938 125.508 152.842Z" fill="white"/>
<path d="M95.5205 121.786C96.1313 120.812 97.2306 120.142 98.391 120.203C99.7347 120.264 100.773 121.055 101.506 122.152C102.178 123.187 101.872 124.587 100.956 125.379C100.529 126.17 99.6125 126.718 98.6964 126.718C97.9635 126.718 97.4138 126.536 96.742 126.231C96.1923 125.988 95.8259 125.501 95.4594 125.013C94.8487 124.161 94.9709 122.76 95.5205 121.786Z" fill="white"/>
<path d="M74.8163 149.066C74.9995 148.214 75.6103 147.544 76.3432 147.057C76.6486 146.874 77.015 146.691 77.3815 146.631C78.1144 146.509 78.4808 146.509 79.2137 146.631C79.7634 146.691 80.3741 147.239 80.6184 147.727C80.9238 148.275 81.0459 148.944 80.8627 149.553C80.8627 149.614 80.8016 149.736 80.7406 149.797C80.8016 150.162 80.8016 150.528 80.6795 150.832C80.6184 151.015 80.5573 151.258 80.4352 151.441C80.0687 152.294 79.1526 152.781 78.2365 152.842C77.2593 152.903 76.3432 152.598 75.6103 151.928C74.8163 151.258 74.6331 150.101 74.8163 149.066Z" fill="white"/>
<path d="M56.0053 115.088C56.1886 114.053 57.0436 113.018 58.0819 112.835C58.2651 112.774 58.5705 112.713 58.8148 112.774C59.4866 112.835 59.5477 112.896 60.0973 113.139C60.4638 113.322 60.8302 113.566 61.0745 113.87C61.9907 114.723 61.9296 116.184 61.0745 117.037C60.647 117.463 60.0973 117.645 59.5477 117.706C58.8758 118.072 58.204 118.011 57.4711 117.889C56.9215 117.828 56.3718 117.341 56.1275 116.854C55.8832 116.245 55.8832 115.697 56.0053 115.088Z" fill="white"/>
<path d="M174.001 225C184.75 225 194.95 219.946 201.118 211.482C207.104 203.322 208.569 192.727 205.149 183.105C201.118 171.901 190.919 163.437 179.254 161.61C177.421 161.306 175.589 161.184 173.818 161.184C158.794 161.184 146.579 171.049 143.403 185.785C142.914 188.16 142.67 190.534 142.67 192.909C142.67 201.739 146.029 210.203 152.014 216.11C157.817 221.955 165.39 225 174.001 225ZM173.818 166.055C175.345 166.055 176.933 166.177 178.46 166.421C188.415 168.004 197.087 175.189 200.508 184.75C203.439 192.848 202.157 201.739 197.148 208.559C191.835 215.744 183.162 220.068 173.94 220.068C166.672 220.068 160.259 217.51 155.374 212.639C150.304 207.585 147.434 200.399 147.434 192.848C147.434 190.839 147.678 188.769 148.106 186.698C150.854 174.398 161.176 166.055 173.818 166.055Z" fill="#885E42"/>
<path d="M174.429 208.802C179.742 208.802 184.75 206.306 187.804 202.165C190.736 198.146 191.469 192.97 189.758 188.22C187.743 182.679 182.735 178.538 176.994 177.625C176.078 177.503 175.223 177.442 174.307 177.442C166.917 177.442 160.87 182.314 159.343 189.56C159.099 190.717 158.977 191.874 158.977 193.092C158.977 197.415 160.626 201.617 163.558 204.54C166.428 207.28 170.215 208.802 174.429 208.802ZM174.368 179.817C175.101 179.817 175.895 179.878 176.627 180C181.513 180.792 185.789 184.323 187.438 189.012C188.842 192.97 188.232 197.354 185.789 200.704C183.162 204.235 178.948 206.367 174.368 206.367C170.764 206.367 167.65 205.088 165.268 202.713C162.764 200.216 161.359 196.685 161.359 193.031C161.359 191.996 161.481 191.022 161.664 190.047C163.069 183.897 168.138 179.817 174.368 179.817Z" fill="#885E42"/>
<path d="M170.215 198.938C173.329 201.373 177.971 201.373 180.78 197.781C182.368 195.771 182.857 193.153 182.185 190.778C181.513 188.464 179.742 186.698 177.421 185.967C174.795 185.115 171.68 185.724 169.604 187.672C166.55 190.534 166.428 194.797 168.932 197.781C169.36 198.207 169.787 198.572 170.215 198.938Z" fill="#885E42"/>
<path d="M154.026 171.238L196.501 214.057L195.633 214.913L153.157 172.094L154.026 171.238Z" fill="#885E42"/>
<path d="M195.668 171.225L196.537 172.081L154.068 214.906L153.199 214.05L195.668 171.225Z" fill="#885E42"/>
<path d="M148.742 177.904L201.522 207.185L200.928 208.249L148.148 178.968L148.742 177.904Z" fill="#885E42"/>
<path d="M188.711 166.29L189.785 166.87L161.034 219.83L159.959 219.25L188.711 166.29Z" fill="#885E42"/>
<path d="M171.807 163.101L179.115 222.879L177.903 223.026L170.594 163.249L171.807 163.101Z" fill="#885E42"/>
<path d="M144.991 197.659L204.844 189.743L204.722 188.525L144.808 196.441L144.991 197.659Z" fill="#885E42"/>
<path d="M162.704 165.488L188.067 220.146L186.958 220.658L161.595 165.999L162.704 165.488Z" fill="#885E42"/>
<path d="M201.88 179.592L202.405 180.691L147.867 206.581L147.342 205.482L201.88 179.592Z" fill="#885E42"/>
<path d="M181.026 163.587L182.217 163.86L168.675 222.553L167.484 222.28L181.026 163.587Z" fill="#885E42"/>
<path d="M145.445 186.087L204.465 198.908L204.205 200.098L145.185 187.277L145.445 186.087Z" fill="#885E42"/>
<path d="M98.391 222.93C109.14 222.93 119.34 217.876 125.508 209.411C131.493 201.252 132.959 190.656 129.539 181.035C125.508 169.831 115.309 161.367 103.643 159.54C101.811 159.235 99.9789 159.114 98.2078 159.114C83.1834 159.114 70.9685 168.978 67.7927 183.714C67.3041 186.089 67.0598 188.464 67.0598 190.839C67.0598 199.668 70.4189 208.133 76.4042 214.039C82.1452 219.824 89.7795 222.93 98.391 222.93ZM98.2078 163.985C99.7346 163.985 101.323 164.107 102.849 164.35C112.805 165.934 121.477 173.119 124.897 182.679C127.829 190.778 126.546 199.668 121.538 206.488C116.225 213.735 107.552 217.997 98.3299 217.997C91.0621 217.997 84.6492 215.44 79.7633 210.568C74.6941 205.514 71.8236 198.329 71.8236 190.778C71.8236 188.708 72.0679 186.698 72.4954 184.628C75.2438 172.327 85.5043 163.985 98.2078 163.985Z" fill="#885E42"/>
<path d="M98.8186 206.732C104.132 206.732 109.14 204.235 112.194 200.095C115.125 196.076 115.858 190.9 114.148 186.15C112.133 180.609 107.125 176.468 101.384 175.555C100.468 175.433 99.6125 175.372 98.6964 175.372C91.3064 175.372 85.26 180.244 83.7331 187.49C83.4888 188.647 83.3667 189.865 83.3667 191.022C83.3667 195.345 85.0157 199.547 87.9473 202.469C90.8178 205.21 94.5433 206.732 98.8186 206.732ZM98.6964 177.747C99.4293 177.747 100.223 177.808 100.956 177.93C105.842 178.721 110.117 182.253 111.766 186.942C113.171 190.9 112.56 195.284 110.117 198.633C107.491 202.165 103.277 204.296 98.6964 204.296C95.093 204.296 91.9782 203.018 89.5963 200.643C87.0922 198.146 85.6875 194.614 85.6875 190.961C85.6875 189.986 85.8097 188.951 85.9929 187.977C87.4587 181.827 92.4668 177.747 98.6964 177.747Z" fill="#885E42"/>
<path d="M94.6043 196.867C97.7191 199.303 102.361 199.303 105.17 195.71C106.758 193.701 107.247 191.083 106.575 188.708C105.903 186.394 104.132 184.628 101.811 183.897C99.1849 183.045 96.0701 183.654 93.9936 185.602C90.9399 188.464 90.8177 192.727 93.3218 195.71C93.7493 196.076 94.1157 196.502 94.6043 196.867Z" fill="#885E42"/>
<path d="M78.3962 169.189L120.871 212.007L120.003 212.864L77.5277 170.045L78.3962 169.189Z" fill="#885E42"/>
<path d="M120.012 169.133L120.881 169.989L78.418 212.814L77.5494 211.958L120.012 169.133Z" fill="#885E42"/>
<path d="M73.1217 175.847L125.902 205.127L125.308 206.191L72.5278 176.911L73.1217 175.847Z" fill="#885E42"/>
<path d="M113.04 164.205L114.114 164.784L85.3624 217.745L84.2882 217.165L113.04 164.205Z" fill="#885E42"/>
<path d="M96.1468 161.05L103.462 220.828L102.249 220.975L94.9344 161.198L96.1468 161.05Z" fill="#885E42"/>
<path d="M69.3806 195.589L129.234 187.612L129.05 186.455L69.1974 194.371L69.3806 195.589Z" fill="#885E42"/>
<path d="M87.0705 163.413L112.409 218.083L111.301 218.594L85.9616 163.924L87.0705 163.413Z" fill="#885E42"/>
<path d="M126.21 177.476L126.735 178.575L72.1974 204.465L71.6723 203.366L126.21 177.476Z" fill="#885E42"/>
<path d="M105.348 161.505L106.539 161.778L92.9964 220.471L91.806 220.198L105.348 161.505Z" fill="#885E42"/>
<path d="M69.8284 184.022L128.848 196.844L128.588 198.033L69.5684 185.212L69.8284 184.022Z" fill="#885E42"/>
<path d="M140.716 197.903C160.626 197.903 172.169 192.848 172.902 192.544L171.925 190.352C171.68 190.474 144.502 202.287 101.261 189.378L100.59 191.691C116.225 196.38 129.722 197.903 140.716 197.903Z" fill="#885E42"/>
</g>
<defs>
<clipPath id="clip0">
<rect width="241" height="225" fill="white" transform="matrix(-1 0 0 1 241 0)"/>
</clipPath>
</defs>
</svg>
