<svg width="240" height="229" viewBox="0 0 240 229" fill="none" xmlns="http://www.w3.org/2000/svg">
<g clip-path="url(#clip0)">
<path d="M175.669 159.54C131.861 168.674 81.3663 142.583 72.2384 98.7492C70.5815 90.7794 69.7966 72.862 72.2384 65.0958C76.8896 50.2616 81.0175 42.9899 90.378 32.6059C95.0291 27.4285 101.599 22.6291 106.89 18.1498C111.337 14.3976 120.058 10.9944 119.215 3.95544C118.401 -2.87995 106.134 1.13403 102.268 1.91937C40.3198 14.8048 -10.9011 75.7125 2.00589 137.696C14.8838 199.68 75.5524 239.471 137.5 226.585C140.174 226.033 142.82 225.393 145.465 224.666C171.686 217.365 195.552 201.716 212.965 180.803C221.454 170.623 228.43 159.104 233.169 146.684C235.494 140.576 237.268 134.264 238.43 127.807C239.07 124.287 242.268 114.427 237.18 112.536C236.977 112.449 236.744 112.391 236.541 112.362C233.634 111.925 231.454 115.59 230.291 117.743C228.779 120.622 227.791 123.415 225.901 126.149C222.064 131.734 217.529 136.824 212.442 141.274C201.948 150.407 189.215 156.719 175.669 159.54Z" fill="#FFDDC4"/>
<path d="M141.192 119.634C141.192 119.634 149.622 113.962 159.244 111.577C168.866 109.192 186.425 105.323 198.576 119.983C210.698 134.643 201.308 163.09 181.483 166.086C179.942 166.318 178.023 166.813 176.454 166.58C175.407 166.435 174.564 165.795 173.46 165.649C170.96 165.271 168.43 166.406 165.93 166.406C163.721 166.406 161.425 166.057 159.244 165.62C155.96 164.951 153.605 163.09 150.64 161.548C147.529 159.919 144.855 161.315 141.657 160.472C139.012 159.774 136.25 158.058 134.215 156.022C130.523 152.299 131.454 147.528 131.948 142.729C132.268 139.704 132.006 136.563 132.326 133.508C132.907 128.098 134.651 119.081 141.192 119.634Z" fill="white"/>
<path d="M198.779 119.547C189.797 108.552 177.82 107.854 168.314 109.221C169.361 110.53 174.419 117.365 172.82 127.662C171.018 139.122 161.134 156.225 161.134 156.225C161.134 156.225 176.308 168.965 191.047 162.653C204.099 153.636 208.779 131.821 198.779 119.547Z" fill="#FF939C"/>
<path d="M177.326 167.278C176.977 167.278 176.657 167.249 176.366 167.22C175.785 167.133 175.262 166.929 174.767 166.725C174.302 166.522 173.866 166.347 173.372 166.289C173.052 166.231 172.762 166.231 172.413 166.231C171.395 166.231 170.349 166.435 169.273 166.638C168.198 166.842 167.064 167.075 165.93 167.075C163.983 167.075 161.831 166.813 159.128 166.26C156.657 165.766 154.738 164.631 152.703 163.468C151.948 163.031 151.163 162.566 150.349 162.159C149.041 161.49 147.849 161.403 146.773 161.403C146.366 161.403 145.959 161.432 145.552 161.432C145.116 161.461 144.709 161.461 144.273 161.461C143.198 161.461 142.355 161.374 141.512 161.141C138.837 160.443 135.959 158.698 133.779 156.516C130.203 152.88 130.698 148.343 131.192 143.951C131.25 143.543 131.279 143.136 131.337 142.729C131.483 141.245 131.512 139.704 131.512 138.22C131.541 136.679 131.541 135.079 131.715 133.508C132.733 123.881 135.727 119.023 140.64 119.023C140.756 119.023 140.901 119.023 141.046 119.023C142.326 118.18 150.262 113.206 159.099 110.995C162.384 110.181 168.488 108.668 174.884 108.668C184.913 108.668 193.023 112.333 199.041 119.605C205.058 126.877 206.308 137.901 202.297 148.401C198.459 158.494 190.698 165.358 181.541 166.755C181.192 166.813 180.843 166.871 180.465 166.929C179.477 167.075 178.372 167.278 177.326 167.278ZM172.384 164.951C172.791 164.951 173.169 164.98 173.517 165.038C174.157 165.126 174.68 165.358 175.203 165.562C175.669 165.737 176.076 165.911 176.512 165.969C176.744 165.998 177.006 166.027 177.297 166.027C178.227 166.027 179.244 165.853 180.233 165.678C180.61 165.62 180.988 165.533 181.366 165.475C190.058 164.166 197.442 157.592 201.134 147.935C204.913 138.017 203.721 127.197 198.081 120.39C192.326 113.439 184.506 109.919 174.884 109.919C168.634 109.919 162.616 111.402 159.39 112.217C150 114.544 141.628 120.129 141.541 120.187L141.366 120.303L141.134 120.274C135.552 119.809 133.605 127.313 132.936 133.625C132.762 135.137 132.762 136.708 132.733 138.22C132.703 139.733 132.703 141.304 132.529 142.845C132.5 143.252 132.442 143.66 132.384 144.067C131.919 148.372 131.453 152.415 134.622 155.614C136.628 157.65 139.302 159.25 141.773 159.919C142.5 160.123 143.256 160.181 144.215 160.181C144.622 160.181 145.058 160.152 145.465 160.152C145.901 160.123 146.308 160.123 146.715 160.123C147.907 160.123 149.331 160.239 150.872 161.024C151.715 161.461 152.5 161.926 153.285 162.362C155.233 163.497 157.064 164.573 159.331 165.009C161.948 165.533 164.041 165.795 165.872 165.795C166.89 165.795 167.907 165.591 168.983 165.387C170.116 165.155 171.25 164.951 172.384 164.951Z" fill="#231F20"/>
<path d="M138.081 138.279C141.076 133.828 147.907 122.426 144.302 107.039C140.698 91.6525 109.041 70.7682 87.7907 93.514C66.5407 116.26 78.2849 143.805 98.3721 149.186C118.459 154.538 128.983 151.804 138.081 138.279Z" fill="white"/>
<path d="M176.046 128.738C176.512 124.52 176.424 120.099 175.262 116.027C174.855 114.573 174.273 113.206 173.517 111.926C173.023 111.111 172.151 109.337 171.337 108.93C170.378 108.435 168.343 108.784 167.471 109.395C165.988 110.384 167.384 111.024 168.11 111.81C170.203 114.049 171.279 117.918 171.599 121.001C172.064 125.393 171.395 129.989 170.174 134.177C168.721 139.18 165.785 143.66 163.139 147.935C160.756 151.775 158.924 155.032 160.087 159.744C160.872 162.915 165.291 161.402 164.506 158.232C163.75 155.091 165.698 152.764 167.209 150.349C168.75 147.877 170.262 145.405 171.628 142.816C173.924 138.511 175.523 133.712 176.046 128.738Z" fill="#231F20"/>
<path d="M188.634 144.154C185 139.82 174.477 138.627 167.355 146.19C160.233 153.753 151.454 164.776 154.709 169.139C157.965 173.502 165.698 176.527 179.36 170.594C183.14 168.965 186.686 166.783 189.709 163.991C190.814 162.973 193.488 162.042 194.36 160.791C194.913 160.006 198.517 156.138 199.012 151.92C196.57 154.247 191.017 157.883 190.727 158.377C191.017 157.912 191.337 157.447 191.686 157.01C193.808 154.276 193.721 150.204 188.634 144.154Z" fill="white"/>
<path d="M108.081 145.55C108.314 144.852 108.692 144.183 109.186 143.631C109.215 143.572 109.273 143.543 109.302 143.485C111.454 141.304 115.087 142.438 116.57 144.794C117.878 146.859 116.483 150.117 114.361 151.106C112.907 151.775 111.279 151.542 110.029 150.582C109.041 149.855 107.936 148.634 107.849 147.325C107.82 146.714 107.907 146.132 108.081 145.55Z" fill="#FF939C"/>
<path d="M128.924 123.328C129.564 122.95 130.291 122.717 131.017 122.659C131.075 122.659 131.134 122.659 131.192 122.63C134.244 122.455 136.163 125.742 135.698 128.476C135.291 130.891 132.064 132.345 129.825 131.647C128.314 131.181 127.267 129.902 126.977 128.331C126.744 127.109 126.744 125.48 127.558 124.462C127.936 124.026 128.401 123.619 128.924 123.328Z" fill="#FF939C"/>
<path d="M165.843 174.55C158.692 174.55 155.291 171.03 154.157 169.547C150.611 164.776 159.099 153.985 166.832 145.754C170.378 142.001 175.233 139.907 180.146 140.053C183.896 140.169 187.239 141.536 189.099 143.718C193.837 149.331 194.884 153.956 192.18 157.417C191.657 158.116 189.477 159.89 189.215 159.628C188.954 159.366 190.64 157.243 191.134 156.603C193.372 153.694 192.355 149.651 188.082 144.59C186.512 142.7 183.459 141.478 180.116 141.391C177.471 141.303 172.297 141.914 167.791 146.655C157.646 157.447 152.936 165.707 155.204 168.732C156.744 170.797 162.994 176.935 179.041 169.983C182.878 168.325 186.192 166.231 188.954 163.729C190.087 162.711 191.134 161.606 192.035 160.472C192.239 160.21 192.529 159.919 192.82 159.628C193.459 158.959 194.244 158.145 194.303 157.534C194.332 157.156 194.622 156.894 195 156.923C195.378 156.952 195.64 157.272 195.611 157.621C195.553 158.755 194.593 159.715 193.75 160.559C193.489 160.821 193.227 161.082 193.053 161.315C192.093 162.508 190.989 163.642 189.826 164.718C186.977 167.307 183.518 169.488 179.535 171.205C173.954 173.677 169.448 174.55 165.843 174.55Z" fill="#231F20"/>
<path d="M194.535 160.472C193.14 160.501 192.006 159.832 190.727 161.199C189.913 162.1 189.186 164.02 189.622 165.329C190.378 167.598 193.721 164.485 193.954 162.798C193.837 164.049 192.297 166.551 193.808 167.074C194.942 167.481 196.25 166.056 195.93 164.544C195.756 165.504 195.669 168.325 196.832 168.267C197.791 168.209 198.547 166.289 198.198 165.329C198.082 166.463 198.896 168.092 199.884 167.976C200.32 167.918 200.698 167.481 200.727 166.871C200.727 166.376 200.436 165.94 200.204 165.562C200.814 166.434 201.599 167.307 202.587 166.522C203.052 166.143 203.227 165.765 203.256 165.096C203.314 164.078 202.965 163.671 202.529 162.886L194.535 160.472Z" fill="white"/>
<path d="M196.773 168.907C196.424 168.907 196.134 168.761 195.872 168.529C195.611 168.267 195.436 167.889 195.32 167.394C194.797 167.743 194.128 167.86 193.576 167.656C192.704 167.336 192.471 166.667 192.5 165.911C191.861 166.405 191.163 166.754 190.523 166.754C189.797 166.754 189.215 166.318 188.954 165.533C188.43 163.991 189.215 161.868 190.204 160.762C190.872 160.035 191.628 159.686 192.558 159.686C192.878 159.686 193.198 159.715 193.488 159.773C193.808 159.803 194.099 159.832 194.39 159.832H194.564L202.965 162.391L203.081 162.624C203.169 162.769 203.227 162.886 203.285 163.002C203.605 163.584 203.924 164.136 203.866 165.154C203.808 166.027 203.547 166.551 202.965 167.045C202.587 167.336 202.209 167.481 201.802 167.481C201.599 167.481 201.424 167.452 201.221 167.365C201.018 168.005 200.494 168.529 199.884 168.587C199.826 168.587 199.768 168.587 199.709 168.587C199.128 168.587 198.663 168.267 198.285 167.801C197.936 168.412 197.413 168.848 196.802 168.878L196.773 168.907ZM196.773 167.656V168.296V167.656ZM196.454 165.94C196.454 167.161 196.715 167.627 196.802 167.685C197.064 167.656 197.529 167.016 197.645 166.231C197.587 165.911 197.558 165.591 197.587 165.3L197.849 162.449L198.779 165.154C198.866 165.445 198.924 165.794 198.895 166.143C199.07 166.841 199.506 167.365 199.768 167.365C199.884 167.365 200.087 167.191 200.087 166.871C200.087 166.609 199.913 166.318 199.738 166.027L199.651 165.911L200.698 165.242C201.163 165.911 201.541 166.26 201.802 166.26C201.919 166.26 202.035 166.202 202.18 166.085C202.471 165.853 202.587 165.649 202.616 165.096C202.674 164.456 202.5 164.166 202.209 163.642C202.18 163.584 202.151 163.526 202.093 163.438L195.93 161.548L196.512 164.427C196.657 164.922 196.599 165.445 196.454 165.94ZM193.314 162.711L194.564 162.857C194.535 163.322 194.361 163.816 194.186 164.369C193.75 165.649 193.605 166.347 194.012 166.492C194.419 166.638 194.971 166.26 195.204 165.678C195.204 165.242 195.262 164.776 195.32 164.427L195.843 161.49L194.419 161.053C194.041 161.053 193.721 161.024 193.372 160.966C192.529 160.879 191.919 160.733 191.163 161.577C190.407 162.391 189.826 164.078 190.174 165.096C190.291 165.474 190.465 165.474 190.552 165.474C191.454 165.504 193.169 163.758 193.314 162.711Z" fill="#231F20"/>
<path d="M205.174 143.572C201.831 142.845 200.32 146.626 198.924 152.007C197.529 157.388 190.901 158.348 192.674 161.839C194.448 165.329 203.314 166.056 205.581 160.384C207.18 156.37 206.686 155.847 208.488 150C209.942 145.23 205.174 143.572 205.174 143.572Z" fill="white"/>
<path d="M198.343 165.533C195.204 165.533 192.413 164.282 191.425 162.42C190.204 160.123 192.035 158.668 193.837 157.243C195.465 155.963 197.297 154.509 197.936 152.124C199.157 147.557 200.669 143.107 204.244 143.107C204.564 143.107 204.884 143.136 205.233 143.223L205.291 143.252C207.239 143.921 210.552 146.277 209.186 150.524C208.314 153.229 207.965 154.8 207.675 156.08C207.326 157.592 207.064 158.814 206.163 161.024C205 163.817 202.093 165.533 198.343 165.533ZM204.244 144.328C201.802 144.328 200.436 147.557 199.157 152.415C198.401 155.207 196.308 156.865 194.622 158.203C192.587 159.832 191.861 160.559 192.558 161.81C193.314 163.235 195.727 164.253 198.372 164.253C201.57 164.253 204.07 162.857 205.029 160.501C205.901 158.377 206.134 157.301 206.483 155.76C206.773 154.451 207.151 152.851 208.023 150.088C209.302 146.074 205.378 144.532 204.942 144.387C204.709 144.358 204.477 144.328 204.244 144.328Z" fill="#231F20"/>
<path d="M114.767 152.356C110.174 152.356 104.767 151.513 98.2267 149.768C88.1976 147.092 80.1162 138.947 77.122 128.534C73.6918 116.609 77.4127 103.694 87.3255 93.0777C93.5755 86.3877 101.395 82.8391 109.942 82.8391C126.453 82.8391 142.296 95.7536 144.913 106.894C146.686 114.427 147.035 126.062 138.605 138.628C132.151 148.255 125 152.356 114.767 152.356ZM109.942 84.0898C101.657 84.0898 94.3604 87.4057 88.2558 93.9503C78.6627 104.218 75.029 116.696 78.343 128.214C81.2209 138.22 88.9534 146.016 98.5755 148.604C105.029 150.32 110.32 151.164 114.796 151.164C124.564 151.164 131.395 147.208 137.587 137.959C144.157 128.185 146.221 117.83 143.721 107.214C141.25 96.7135 125.639 84.0898 109.942 84.0898Z" fill="#231F20"/>
<path d="M136.163 138.918C136.163 138.918 127.558 144.416 125.727 150.931C125.727 150.931 118.518 149.36 110.669 149.942C110.669 149.942 104.768 145.957 100.465 146.103C96.1339 146.248 92.6746 149.273 94.3606 152.269C96.0757 155.236 99.099 154.392 100.262 154.043C100.262 154.043 101.221 152.531 98.9536 152.065C96.6862 151.629 99.2734 150.815 99.2734 150.815C99.2734 150.815 101.163 154.538 104.448 154.48C104.593 154.509 122.151 167.132 126.396 167.831C130.611 168.529 147.326 153.927 150.959 147.644C154.593 141.362 145.523 135.835 136.163 138.918Z" fill="white"/>
<path d="M107.965 142.583L107.878 142.554C107.936 142.409 107.994 142.263 108.023 142.118C108.285 141.158 107.326 140.984 106.919 141.914C105.901 144.241 103.14 145.172 101.744 145.55C100.785 145.812 101.018 146.946 101.977 146.685C102.907 146.423 105.436 145.347 106.192 144.736C106.396 145.434 107.471 145.143 107.297 144.445C107.239 144.241 107.151 144.096 107.035 143.95C107.151 143.834 107.239 143.689 107.326 143.572L107.646 143.659C108.372 143.892 108.692 142.787 107.965 142.583Z" fill="#231F20"/>
<path d="M198.023 152.735C198.023 152.735 197.82 152.909 197.413 153.2C195.262 154.829 185.145 162.857 174.797 161.839C174.797 161.839 178.169 165.387 188.023 160.355C194.041 157.389 198.023 152.735 198.023 152.735Z" fill="#231F20"/>
<path d="M135.611 98.0808C135.611 98.0808 134.361 91.2744 139.506 93.5432C144.68 95.812 144.942 103.345 140.349 104.8L135.611 98.0808Z" fill="white"/>
<path d="M140.349 105.411C140.087 105.411 139.826 105.236 139.768 104.974C139.651 104.654 139.855 104.305 140.175 104.189C141.832 103.665 142.878 102.153 142.965 100.175C143.082 98.0225 141.977 95.2884 139.244 94.0958C138.14 93.6013 137.326 93.5432 136.832 93.9504C135.872 94.7066 136.076 97.179 136.221 97.9643C136.279 98.3134 136.047 98.6333 135.727 98.6915C135.378 98.7497 135.058 98.517 135 98.197C134.942 97.8189 134.332 94.3576 136.076 92.9614C136.948 92.2633 138.198 92.2633 139.768 92.9614C143.023 94.3867 144.361 97.6735 144.215 100.262C144.099 102.764 142.675 104.712 140.552 105.411C140.494 105.411 140.407 105.411 140.349 105.411Z" fill="#231F20"/>
<path d="M125.494 168.151C125.465 168.151 125.465 168.151 125.494 168.151C125.349 168.151 125.204 168.151 125.087 168.122C121.919 167.598 112.994 161.345 105.611 155.963C105.058 155.556 104.564 155.207 104.302 155.033C104.012 155.091 103.75 155.12 103.459 155.12C102.471 155.12 101.628 154.713 100.93 154.131C100.872 154.247 100.843 154.335 100.814 154.364C100.727 154.48 100.611 154.567 100.465 154.625C99.8838 154.8 99.0117 155.062 98.0233 155.062C96.1919 155.062 94.7384 154.218 93.8082 152.589C93.1105 151.397 93.1105 150.088 93.7791 148.895C94.8547 146.976 97.5291 145.609 100.436 145.521C104.506 145.376 109.767 148.663 110.843 149.332C111.977 149.244 113.14 149.215 114.331 149.215C119.419 149.215 123.779 149.942 125.291 150.233C127.442 143.834 135.465 138.657 135.814 138.424C135.872 138.395 135.901 138.366 135.959 138.366C137.791 137.755 139.68 137.464 141.541 137.464C146.047 137.464 150 139.268 151.599 142.089C152.645 143.922 152.616 146.016 151.454 147.994C148.052 153.986 130.581 168.151 125.494 168.151ZM104.39 153.724C104.622 153.724 104.622 153.724 106.308 154.974C110.174 157.796 121.948 166.347 125.233 166.9C125.291 166.9 125.378 166.929 125.465 166.929C129.826 166.929 146.831 153.578 150.407 147.354C151.337 145.754 151.366 144.125 150.552 142.7C149.157 140.286 145.64 138.715 141.57 138.715C139.855 138.715 138.14 139.006 136.454 139.529C135.669 140.053 128.023 145.23 126.337 151.135C126.25 151.455 125.93 151.659 125.611 151.571C125.552 151.571 120.494 150.466 114.361 150.466C113.111 150.466 111.919 150.524 110.756 150.611C110.611 150.611 110.465 150.582 110.349 150.495C110.291 150.466 104.593 146.597 100.494 146.772C98.0524 146.859 95.7268 147.994 94.8838 149.506C94.4187 150.321 94.4477 151.164 94.9128 151.979C95.6396 153.229 96.657 153.811 98.0233 153.811C98.6919 153.811 99.3314 153.666 99.7966 153.52C99.8256 153.404 99.8547 153.287 99.7966 153.171C99.7094 152.967 99.3605 152.793 98.8082 152.677C98.4012 152.589 97.4128 152.386 97.3838 151.63C97.3547 151.048 97.9361 150.582 99.0698 150.204C99.3896 150.117 99.7094 150.262 99.8256 150.553C99.8256 150.582 101.192 153.869 103.401 153.869C103.634 153.869 103.895 153.84 104.157 153.753C104.273 153.724 104.331 153.724 104.39 153.724Z" fill="#231F20"/>
<path d="M126.861 120.187C126.977 120.216 127.064 120.216 127.151 120.187C127.151 120.187 127.151 120.187 127.18 120.187C127.471 120.128 127.704 120.041 127.965 119.925C128.634 119.576 128.053 118.587 127.413 118.936C127.326 118.994 127.239 119.023 127.151 119.023C127.268 118.5 127.326 117.947 127.355 117.423C127.646 117.452 127.878 117.452 128.169 117.394C128.896 117.249 128.605 116.144 127.878 116.289C127.791 116.318 127.675 116.347 127.587 116.318C127.5 116.289 127.413 116.318 127.355 116.318C127.239 115.504 126.134 115.678 126.192 116.551C126.396 119.256 125.058 123.008 122.5 123.357C121.744 123.473 121.832 124.84 122.587 124.753C123.227 124.666 123.779 124.404 124.303 124.055C124.477 124.201 124.71 124.317 124.913 124.375C125.611 124.608 125.93 123.502 125.233 123.27C125.233 123.27 125.204 123.27 125.204 123.241C125.436 122.979 125.64 122.688 125.843 122.368C126.076 122.484 126.396 122.572 126.657 122.484C126.948 122.368 127.151 122.106 127.064 121.786C127.006 121.583 126.832 121.408 126.628 121.379C126.599 121.321 126.57 121.263 126.512 121.205C126.599 120.885 126.715 120.536 126.861 120.187C126.832 120.187 126.861 120.187 126.861 120.187Z" fill="#231F20"/>
<path d="M130.756 134.265C130.582 133.625 129.622 134.003 129.797 134.614C130.378 136.94 128.954 141.594 126.134 141.827C125.465 141.885 125.581 142.903 126.25 142.845C129.826 142.583 131.512 137.231 130.756 134.265Z" fill="#231F20"/>
<path d="M118.314 141.303C118.314 141.303 124.971 142.845 123.808 135.341C123.808 135.341 121.279 139.733 118.314 141.303Z" fill="#FFDDC4"/>
<path d="M124.593 111.693C121.018 112.769 117.733 115.271 116.105 118.674C115.785 119.343 116.773 119.925 117.093 119.256C118.605 116.114 121.57 113.787 124.884 112.799C125.611 112.595 125.32 111.49 124.593 111.693Z" fill="#231F20"/>
<path d="M101.25 138.191C97.7035 138.744 94.6802 141.565 93.5755 144.969C93.343 145.667 94.4476 145.987 94.6802 145.288C95.6395 142.263 98.3721 139.82 101.512 139.326C102.267 139.18 101.977 138.075 101.25 138.191Z" fill="#231F20"/>
<path d="M184.012 113.177C183.372 113.031 182.733 113.177 182.239 113.526C181.715 113.817 181.308 114.311 181.163 114.98C180.872 116.173 181.657 117.482 182.878 117.714C184.186 117.976 185.407 117.249 185.727 115.94C186.018 114.718 185.204 113.468 184.012 113.177Z" fill="white"/>
<path d="M191.047 127.545L190.872 127.516C189.651 127.225 188.401 128.011 188.14 129.232C187.849 130.454 188.634 131.705 189.855 131.967L190.029 131.996C191.25 132.287 192.5 131.501 192.762 130.28C193.023 129.087 192.268 127.836 191.047 127.545Z" fill="white"/>
<path d="M202.151 138.686C201.802 138.366 201.483 138.22 201.018 138.104C199.826 137.784 198.547 138.628 198.285 139.82C198.285 139.878 198.285 139.907 198.256 139.966C198.14 140.518 198.227 141.129 198.547 141.653C199.186 142.7 200.64 143.049 201.686 142.38C201.89 142.263 202.064 142.118 202.239 141.943C203.111 141.042 203.023 139.529 202.151 138.686Z" fill="white"/>
<path d="M181.25 135.166C180.494 134.992 179.71 135.486 179.535 136.242L179.506 136.33C179.332 137.086 179.826 137.871 180.582 138.046C181.337 138.22 182.122 137.726 182.297 136.97L182.326 136.882C182.5 136.126 182.006 135.341 181.25 135.166Z" fill="white"/>
<path d="M198.023 119.808C197.326 119.488 196.483 119.663 196.076 120.39C195.93 120.652 195.872 121.001 195.93 121.321C195.901 121.99 196.366 122.63 197.035 122.775C197.791 122.95 198.576 122.455 198.75 121.699C198.924 121.001 198.75 120.157 198.023 119.808Z" fill="white"/>
<path d="M193.227 141.274C191.424 140.867 190.785 143.63 192.587 144.067C194.389 144.474 195.029 141.682 193.227 141.274Z" fill="white"/>
<path d="M103.227 118.325C102.5 118.122 102.297 119.256 103.023 119.46C102.907 120.536 102.355 120.972 101.425 120.739C100.872 120.681 100.32 120.361 99.8257 120.099C98.8083 119.547 98.0525 118.645 97.4711 117.656C96.1339 115.475 96.0466 112.537 97.035 110.21C97.3257 109.541 96.3083 109.017 96.0176 109.716C94.4478 113.439 95.349 118.645 98.9536 120.885C100.349 121.757 102.151 122.485 103.547 121.292C104.593 120.39 104.68 118.703 103.227 118.325Z" fill="#231F20"/>
<path d="M94.7093 118.849C93.0523 117.453 93.75 114.66 94.2151 112.857C94.3895 112.13 93.2848 111.926 93.0813 112.653C92.5 114.922 91.9186 118.005 93.9534 119.721C94.5348 120.216 95.2616 119.343 94.7093 118.849Z" fill="#231F20"/>
<path d="M100.087 112.391C98.8956 110.704 98.9537 109.046 99.8839 107.243C100.233 106.574 99.1863 106.079 98.8665 106.748C97.7328 108.901 97.7328 111.053 99.1572 113.031C99.5932 113.642 100.523 113.002 100.087 112.391Z" fill="#231F20"/>
<path d="M27.384 161.286H27.1514C25.8724 161.286 25.8724 163.293 27.1514 163.293H27.384C28.6921 163.264 28.6921 161.286 27.384 161.286Z" fill="white"/>
<path d="M17.006 154.073C16.5408 153.811 15.9304 153.956 15.6397 154.422C15.3781 154.858 15.5234 155.469 15.9594 155.76C15.9594 155.789 15.9594 155.789 15.9594 155.818C15.9594 157.098 17.9653 157.098 17.9653 155.818C17.9653 155.062 17.7036 154.451 17.006 154.073Z" fill="white"/>
<path d="M19.8547 140.402C19.3024 140.373 18.8663 140.867 18.8663 141.391C18.8663 141.885 19.2443 142.292 19.7094 142.38C19.8838 142.67 20.1745 142.845 20.5233 142.845C21.0466 142.845 21.5698 142.38 21.5117 141.856C21.4245 140.925 20.7268 140.431 19.8547 140.402Z" fill="white"/>
<path d="M10.1748 140.954V141.187C10.1748 142.467 12.1806 142.467 12.1806 141.187V140.954C12.1806 139.645 10.1748 139.645 10.1748 140.954Z" fill="white"/>
<path d="M7.84904 133.072C6.56997 133.072 6.56997 135.079 7.84904 135.079C9.12811 135.05 9.12811 133.072 7.84904 133.072Z" fill="white"/>
<path d="M8.95384 120.187C7.67477 120.187 7.67477 122.194 8.95384 122.194C10.262 122.165 10.262 120.187 8.95384 120.187Z" fill="white"/>
<path d="M8.75013 110.181C7.47107 110.181 7.47107 112.188 8.75013 112.188C10.0292 112.188 10.0292 110.181 8.75013 110.181Z" fill="white"/>
<path d="M10.291 94.183C9.0119 94.183 9.0119 96.19 10.291 96.19C11.57 96.19 11.57 94.183 10.291 94.183Z" fill="white"/>
<path d="M13.634 79.9595C12.3549 79.9595 12.3549 81.9665 13.634 81.9665C14.9131 81.9665 14.9131 79.9595 13.634 79.9595Z" fill="white"/>
<path d="M16.7443 74.6365C15.4653 74.6365 15.4653 76.6435 16.7443 76.6435C18.0234 76.6435 18.0234 74.6365 16.7443 74.6365Z" fill="white"/>
<path d="M28.4884 51.7454H28.2559C26.9768 51.7454 26.9768 53.7523 28.2559 53.7523H28.4884C29.7966 53.7523 29.7966 51.7454 28.4884 51.7454Z" fill="white"/>
<path d="M34.2735 49.0695C32.9945 49.0695 32.9945 51.0764 34.2735 51.0764C35.5526 51.0764 35.5526 49.0695 34.2735 49.0695Z" fill="white"/>
<path d="M35.8434 39.7617C34.5643 39.7617 34.5643 41.7687 35.8434 41.7687C37.1224 41.7396 37.1224 39.7617 35.8434 39.7617Z" fill="white"/>
<path d="M49.5934 29.3195H49.3608C48.0818 29.3195 48.0818 31.3264 49.3608 31.3264H49.5934C50.8724 31.2974 50.8724 29.3195 49.5934 29.3195Z" fill="white"/>
<path d="M58.5176 25.3928C58.1397 25.0147 57.5001 25.0147 57.0932 25.3928C56.9478 25.5383 56.8025 25.6837 56.6571 25.8291C56.2792 26.2073 56.2792 26.8472 56.6571 27.2544C57.035 27.6325 57.6746 27.6325 58.0815 27.2544L58.5176 26.8181C58.8955 26.4109 58.8955 25.771 58.5176 25.3928Z" fill="white"/>
<path d="M61.8025 19.5464C60.5234 19.5464 60.5234 21.5534 61.8025 21.5534C63.0815 21.5243 63.0815 19.5464 61.8025 19.5464Z" fill="white"/>
<path d="M70.6978 19.7499C69.4187 19.7499 69.4187 21.7569 70.6978 21.7569C71.9768 21.7569 71.9768 19.7499 70.6978 19.7499Z" fill="white"/>
<path d="M81.3375 11.9839C80.0585 11.9839 80.0585 13.9909 81.3375 13.9909C82.6457 13.9909 82.6457 11.9839 81.3375 11.9839Z" fill="white"/>
<path d="M99.3315 6.19556C98.0524 6.19556 98.0524 8.20254 99.3315 8.20254C100.611 8.20254 100.611 6.19556 99.3315 6.19556Z" fill="white"/>
<path d="M35.4362 177.516C34.8838 177.429 34.3606 177.633 34.2152 178.215C34.128 178.505 34.2152 178.884 34.4187 179.145C34.6513 180.192 36.3955 180.134 36.3955 178.913C36.3664 178.331 36.1048 177.633 35.4362 177.516Z" fill="white"/>
<path d="M43.0526 174.928V175.597C43.0526 176.876 45.0584 176.876 45.0584 175.597V174.928C45.0584 173.648 43.0526 173.648 43.0526 174.928Z" fill="white"/>
<path d="M45.6979 189.82V190.053C45.6979 191.333 47.7037 191.333 47.7037 190.053V189.82C47.7037 188.54 45.6979 188.54 45.6979 189.82Z" fill="white"/>
<path d="M66.7443 205.527C66.4536 205.44 66.0757 205.527 65.8141 205.731C64.7676 205.963 64.8257 207.709 66.0467 207.709C66.6571 207.709 67.3548 207.447 67.442 206.749C67.5001 206.225 67.3257 205.673 66.7443 205.527Z" fill="white"/>
<path d="M77.2097 207.825L77.1806 207.796C77.1806 207.796 77.1515 207.796 77.1515 207.767C76.9771 207.592 76.7736 207.505 76.4539 207.505C76.1632 207.505 75.9306 207.621 75.7562 207.796C75.7562 207.796 75.7562 207.796 75.7271 207.796C75.669 207.854 75.6108 207.941 75.5818 207.999C75.4074 208.29 75.4074 208.61 75.5527 208.93C75.5818 209.017 75.6399 209.105 75.6981 209.192C75.8143 209.628 76.1341 209.948 76.6574 209.948C77.1516 209.948 77.7039 209.483 77.6457 208.959C77.6457 208.494 77.5004 208.145 77.2097 207.825Z" fill="white"/>
<path d="M97.7039 215.62C97.6457 215.562 97.5876 215.475 97.5294 215.417C97.3841 215.068 97.0934 214.835 96.6573 214.835C96.1632 214.835 95.5818 215.3 95.669 215.824C95.698 216.057 95.7562 216.231 95.8434 216.464C95.9015 216.522 95.9597 216.609 96.0178 216.667C96.1632 217.016 96.4539 217.249 96.8899 217.249C97.3841 217.249 97.9655 216.784 97.8783 216.26C97.8492 216.028 97.8201 215.853 97.7039 215.62Z" fill="white"/>
<path d="M101.657 221.816V222.252C101.657 223.532 103.663 223.532 103.663 222.252V221.816C103.663 220.536 101.657 220.536 101.657 221.816Z" fill="white"/>
<path d="M110.698 216.435C110.611 216.347 110.553 216.289 110.465 216.202C110.088 215.824 109.448 215.824 109.041 216.202C108.663 216.58 108.663 217.22 109.041 217.627C109.128 217.714 109.186 217.773 109.274 217.86C109.651 218.238 110.291 218.238 110.698 217.86C111.076 217.482 111.076 216.842 110.698 216.435Z" fill="white"/>
<path d="M131.338 214.893C130.96 214.515 130.32 214.515 129.913 214.893C129.826 214.98 129.768 215.039 129.681 215.126C129.303 215.504 129.303 216.144 129.681 216.551C130.058 216.929 130.698 216.929 131.105 216.551C131.192 216.464 131.25 216.406 131.338 216.318C131.715 215.911 131.715 215.271 131.338 214.893Z" fill="white"/>
<path d="M135.407 220.041V220.943C135.407 222.223 137.413 222.223 137.413 220.943V220.041C137.413 218.762 135.407 218.762 135.407 220.041Z" fill="white"/>
<path d="M148.169 211.693C146.89 211.693 146.89 213.7 148.169 213.7C149.477 213.7 149.477 211.693 148.169 211.693Z" fill="white"/>
<path d="M157.762 207.999C157.355 207.65 156.919 207.476 156.396 207.476C155.117 207.476 155.117 209.483 156.396 209.483C156.425 209.483 156.425 209.483 156.454 209.483C156.861 209.774 157.384 209.774 157.762 209.425C158.14 209.047 158.169 208.348 157.762 207.999Z" fill="white"/>
<path d="M182.035 201.833C182.035 201.862 182.035 201.862 182.035 201.891C181.744 202.298 181.744 202.822 182.093 203.2C182.471 203.578 183.14 203.607 183.518 203.2C183.866 202.793 184.041 202.357 184.041 201.833C184.041 200.524 182.035 200.524 182.035 201.833Z" fill="white"/>
<path d="M186.802 192.147C185.523 192.147 185.523 194.154 186.802 194.154C188.111 194.154 188.111 192.147 186.802 192.147Z" fill="white"/>
<path d="M196.919 189.587V190.024C196.919 191.303 198.924 191.303 198.924 190.024V189.587C198.924 188.307 196.919 188.307 196.919 189.587Z" fill="white"/>
<path d="M204.128 177.924H203.692C202.413 177.924 202.413 179.931 203.692 179.931H204.128C205.407 179.931 205.407 177.924 204.128 177.924Z" fill="white"/>
<path d="M221.715 161.111C221.367 160.704 220.669 160.733 220.291 161.111C220 161.402 219.942 161.809 220.058 162.158C219.942 162.508 219.971 162.915 220.291 163.206C220.669 163.584 221.337 163.613 221.715 163.206C222.297 162.537 222.297 161.78 221.715 161.111Z" fill="white"/>
<path d="M223.227 153.287C221.948 153.287 221.948 155.294 223.227 155.294C224.506 155.265 224.506 153.287 223.227 153.287Z" fill="white"/>
<path d="M229.884 147.935C228.605 147.935 228.605 149.942 229.884 149.942C231.163 149.942 231.163 147.935 229.884 147.935Z" fill="white"/>
<path d="M231.773 138.657C232.035 138.25 232.064 137.726 231.686 137.377C231.337 137.028 230.64 136.97 230.262 137.377C229.855 137.842 229.738 138.366 229.738 138.977C229.738 140.256 231.744 140.256 231.744 138.977C231.744 138.889 231.744 138.802 231.744 138.715C231.773 138.657 231.773 138.657 231.773 138.657Z" fill="white"/>
<path d="M235 129.494C233.721 129.494 233.721 131.501 235 131.501C236.279 131.501 236.279 129.494 235 129.494Z" fill="white"/>
<path d="M236.337 119.517C235.058 119.517 235.058 121.524 236.337 121.524C237.617 121.495 237.617 119.517 236.337 119.517Z" fill="white"/>
<path d="M56.8024 190.489V190.722C56.8024 192.002 58.8082 192.002 58.8082 190.722V190.489C58.8082 189.209 56.8024 189.209 56.8024 190.489Z" fill="white"/>
<path d="M54.7094 200.379C53.4303 200.379 53.4303 202.386 54.7094 202.386C55.9884 202.386 55.9884 200.379 54.7094 200.379Z" fill="white"/>
<path d="M39.0408 194.707V194.939C39.0408 196.219 41.0467 196.219 41.0467 194.939V194.707C41.0467 193.427 39.0408 193.427 39.0408 194.707Z" fill="white"/>
<path d="M38.4886 185.719C37.2096 185.719 37.2096 187.726 38.4886 187.726C39.7677 187.726 39.7677 185.719 38.4886 185.719Z" fill="white"/>
<path d="M30.0584 184.381C28.7794 184.381 28.7794 186.388 30.0584 186.388C31.3375 186.388 31.3375 184.381 30.0584 184.381Z" fill="white"/>
<path d="M27.6165 175.48C26.3374 175.48 26.3374 177.487 27.6165 177.487C28.8956 177.487 28.8956 175.48 27.6165 175.48Z" fill="white"/>
<path d="M17.7329 168.936V169.372C17.7329 170.652 19.7387 170.652 19.7387 169.372V168.936C19.7387 167.656 17.7329 167.656 17.7329 168.936Z" fill="white"/>
<path d="M21.1631 157.039C19.8841 157.039 19.8841 159.046 21.1631 159.046C22.4713 159.046 22.4713 157.039 21.1631 157.039Z" fill="white"/>
<path d="M9.01184 149.564C8.63393 149.157 7.96533 149.186 7.58742 149.564C7.20951 149.942 7.20951 150.553 7.55835 150.931C7.55835 150.931 7.55835 150.931 7.55835 150.96C7.67463 151.397 7.9944 151.717 8.51765 151.717C9.01184 151.717 9.59323 151.251 9.50603 150.728C9.47696 150.262 9.33161 149.913 9.01184 149.564Z" fill="white"/>
<path d="M6.30849 142.496C6.36663 142.147 5.95965 141.827 5.63988 141.827C5.32011 141.827 5.11662 142.031 5.02942 142.263C5.00035 142.321 4.94221 142.35 4.91314 142.409C4.79686 142.554 4.76779 142.729 4.73872 142.932C4.68058 143.281 5.08756 143.601 5.40732 143.601C5.72709 143.601 5.93058 143.398 6.01779 143.165C6.04686 143.107 6.105 143.078 6.13407 143.019C6.25035 142.874 6.27942 142.7 6.30849 142.496Z" fill="white"/>
<path d="M12.9653 130.28H12.2966C11.4246 130.28 11.4246 131.618 12.2966 131.618H12.9653C13.8083 131.618 13.8083 130.28 12.9653 130.28Z" fill="white"/>
<path d="M4.09899 120.71C4.06992 120.681 4.06992 120.681 4.04085 120.652C4.01178 120.332 3.8083 120.07 3.40132 120.07C2.73272 120.07 2.58737 120.885 2.96527 121.234C2.99434 121.379 3.05248 121.525 3.13969 121.641C3.16876 121.67 3.16876 121.932 3.16876 122.048C3.16876 122.921 4.50597 122.921 4.50597 122.048C4.53504 121.554 4.44783 121.088 4.09899 120.71Z" fill="white"/>
<path d="M3.40137 113.176C2.52928 113.176 2.52928 114.514 3.40137 114.514C4.27346 114.514 4.27346 113.176 3.40137 113.176Z" fill="white"/>
<path d="M4.30246 106.516C3.43037 106.516 3.43037 107.854 4.30246 107.854C5.17455 107.854 5.17455 106.516 4.30246 106.516Z" fill="white"/>
<path d="M4.97121 100.524C4.09912 100.524 4.09912 101.862 4.97121 101.862C5.81423 101.833 5.81423 100.524 4.97121 100.524Z" fill="white"/>
<path d="M5.63967 94.2994C5.08735 94.2994 4.76758 94.6194 4.73851 95.2011C4.73851 95.9283 5.66874 96.0156 5.95944 95.5502C6.45363 95.2302 6.36642 94.2994 5.63967 94.2994Z" fill="white"/>
<path d="M13.4596 101.629C13.7503 101.309 13.8666 100.96 13.8666 100.524C13.8666 99.6511 12.5294 99.6511 12.5294 100.524C12.5294 100.611 12.5585 100.669 12.5003 100.727C12.4712 100.756 12.4712 100.785 12.4422 100.815C12.2678 101.047 12.2678 101.367 12.4712 101.6C12.4712 101.629 12.5003 101.629 12.5003 101.658L12.5294 101.687C12.6457 101.774 12.7619 101.862 12.9654 101.862H12.9945C13.0817 101.862 13.1689 101.833 13.2271 101.804C13.2852 101.774 13.3143 101.745 13.3433 101.716C13.3724 101.687 13.4015 101.687 13.4596 101.629C13.4306 101.658 13.4306 101.658 13.4596 101.629C13.4306 101.629 13.4596 101.629 13.4596 101.629Z" fill="white"/>
<path d="M12.2966 91.6232C11.4246 91.6232 11.4246 92.9612 12.2966 92.9612C13.1397 92.9612 13.1397 91.6232 12.2966 91.6232Z" fill="white"/>
<path d="M8.08153 86.9694C7.20944 86.9694 7.20944 88.3074 8.08153 88.3074C8.92455 88.3074 8.92455 86.9694 8.08153 86.9694Z" fill="white"/>
<path d="M14.5059 84.2935C13.6338 84.2935 13.6338 85.6314 14.5059 85.6314C15.378 85.6314 15.378 84.2935 14.5059 84.2935Z" fill="white"/>
<path d="M20.2908 77.6326C19.4187 77.6326 19.4187 78.9706 20.2908 78.9706C21.1339 78.9706 21.1339 77.6326 20.2908 77.6326Z" fill="white"/>
<path d="M21.0467 67.8302C20.9886 67.772 20.9595 67.7138 20.9014 67.6557C20.8142 67.3939 20.6107 67.2194 20.2909 67.2194C19.9711 67.2194 19.5642 67.5393 19.6223 67.8884C19.6514 68.0629 19.6804 68.2083 19.7386 68.3537C19.7967 68.4119 19.8258 68.4701 19.8839 68.5283C19.8839 68.5283 19.8839 68.5283 19.913 68.5283C20.0002 68.79 20.2037 68.9646 20.5235 68.9646C20.8432 68.9646 21.2502 68.6446 21.1921 68.2956C21.163 68.1211 21.1049 68.0047 21.0467 67.8302Z" fill="white"/>
<path d="M21.1629 62.0712C20.2908 62.0712 20.2908 63.4092 21.1629 63.4092C22.035 63.4092 22.035 62.0712 21.1629 62.0712Z" fill="white"/>
<path d="M25.378 61.6348H24.942C24.0699 61.6348 24.0699 62.9728 24.942 62.9728H25.378C26.2501 62.9728 26.2501 61.6348 25.378 61.6348Z" fill="white"/>
<path d="M23.8374 54.9739H23.6049C22.7328 54.9739 22.7328 56.3119 23.6049 56.3119H23.8374C24.7095 56.3119 24.7095 54.9739 23.8374 54.9739Z" fill="white"/>
<path d="M32.8198 45.2588C32.3257 45.2588 32.0931 45.666 32.035 46.1023C31.9768 46.4513 32.3838 46.7713 32.7036 46.7713C32.7326 46.7713 32.7617 46.7422 32.8198 46.7422C32.8489 46.7422 32.878 46.7713 32.9361 46.7713C33.2559 46.7713 33.6629 46.4804 33.6047 46.1023C33.5466 45.666 33.314 45.2588 32.8198 45.2588Z" fill="white"/>
<path d="M40.7852 43.4264C40.8142 43.4264 40.8142 43.4264 40.7561 43.3973C40.7561 43.3973 40.7561 43.3973 40.727 43.3683C40.1166 42.7865 39.1572 43.7173 39.7968 44.299C40.0584 44.5608 40.3491 44.6772 40.698 44.7062C41.0468 44.7353 41.3666 44.3572 41.3666 44.0372C41.3666 43.7173 41.1049 43.5137 40.7852 43.4264Z" fill="white"/>
<path d="M42.2677 35.864H42.0352C41.1631 35.864 41.1631 37.202 42.0352 37.202H42.2677C43.1398 37.202 43.1398 35.864 42.2677 35.864Z" fill="white"/>
<path d="M45.6107 38.5399H45.3782C44.5061 38.5399 44.5061 39.8779 45.3782 39.8779H45.6107C46.4538 39.8779 46.4538 38.5399 45.6107 38.5399Z" fill="white"/>
<path d="M49.1573 35.864C48.2852 35.864 48.2852 37.202 49.1573 37.202C50.0003 37.202 50.0003 35.864 49.1573 35.864Z" fill="white"/>
<path d="M55.3781 31.2102H55.1456C54.2735 31.2102 54.2735 32.5482 55.1456 32.5482H55.3781C56.2211 32.5191 56.2211 31.2102 55.3781 31.2102Z" fill="white"/>
<path d="M62.791 31.3555C62.7619 31.2973 62.6747 30.9773 62.7037 31.181C62.6747 30.8319 62.4421 30.512 62.0351 30.512C61.7154 30.512 61.3375 30.8028 61.3665 31.181C61.3956 31.3846 61.4247 31.5009 61.4828 31.6754C61.5119 31.7336 61.5991 32.0536 61.57 31.85C61.5991 32.199 61.8317 32.5189 62.2386 32.5189C62.5584 32.5189 62.9363 32.2281 62.9072 31.85C62.9072 31.6754 62.8782 31.53 62.791 31.3555Z" fill="white"/>
<path d="M65.349 24.7527C64.4769 24.7527 64.4769 26.0907 65.349 26.0907C66.221 26.0907 66.221 24.7527 65.349 24.7527Z" fill="white"/>
<path d="M74.913 22.9785C74.0409 22.9785 74.0409 24.3165 74.913 24.3165C75.7561 24.3165 75.7561 22.9785 74.913 22.9785Z" fill="white"/>
<path d="M75.3491 12.9725C74.477 12.9725 74.477 14.3105 75.3491 14.3105C76.2212 14.3105 76.2212 12.9725 75.3491 12.9725Z" fill="white"/>
<path d="M81.8024 18.5284C80.9303 18.5284 80.9303 19.8664 81.8024 19.8664C82.6454 19.8664 82.6454 18.5284 81.8024 18.5284Z" fill="white"/>
<path d="M88.6631 10.0933C87.791 10.0933 87.791 11.4313 88.6631 11.4313C89.5352 11.4313 89.5352 10.0933 88.6631 10.0933Z" fill="white"/>
<path d="M94.4477 12.9725C93.5756 12.9725 93.5756 14.3105 94.4477 14.3105C95.2907 14.3105 95.2907 12.9725 94.4477 12.9725Z" fill="white"/>
<path d="M96.6573 10.3257C95.7852 10.3257 95.7852 11.6637 96.6573 11.6637C97.5294 11.6346 97.5294 10.3257 96.6573 10.3257Z" fill="white"/>
<path d="M108.198 5.64282C107.326 5.64282 107.326 6.98081 108.198 6.98081C109.07 6.98081 109.07 5.64282 108.198 5.64282Z" fill="white"/>
<path d="M111.977 7.21362C111.105 7.21362 111.105 8.55161 111.977 8.55161C112.849 8.55161 112.849 7.21362 111.977 7.21362Z" fill="white"/>
<path d="M52.0641 181.123C51.9769 181.036 51.9188 180.978 51.8315 180.891C51.2211 180.28 50.2909 181.211 50.9013 181.821C50.9885 181.909 51.0467 181.967 51.1339 182.054C51.7443 182.694 52.6746 181.734 52.0641 181.123Z" fill="white"/>
<path d="M48.4885 195.376C48.0815 195.376 47.878 195.696 47.8199 196.045C47.8489 195.841 47.7617 196.161 47.7327 196.219C47.6455 196.394 47.6164 196.539 47.6164 196.714C47.5873 197.063 47.9652 197.383 48.285 197.383C48.692 197.383 48.9245 197.092 48.9536 196.714C48.9245 196.917 49.0117 196.597 49.0408 196.539C49.128 196.365 49.1571 196.219 49.1571 196.045C49.1862 195.696 48.8082 195.376 48.4885 195.376Z" fill="white"/>
<path d="M59.012 197.034C58.8085 197.412 58.5469 197.703 58.2271 198.023C57.6166 198.634 58.5469 199.564 59.1573 198.954C59.5352 198.575 59.9131 198.197 60.1457 197.703C60.5527 196.947 59.419 196.278 59.012 197.034Z" fill="white"/>
<path d="M57.355 206.254H57.1225C56.2504 206.254 56.2504 207.592 57.1225 207.592H57.355C58.2271 207.592 58.2271 206.254 57.355 206.254Z" fill="white"/>
<path d="M65.7851 213.642C65.7269 213.613 65.6979 213.555 65.6397 213.526C65.4944 213.41 65.32 213.381 65.1165 213.351C64.7676 213.293 64.4479 213.7 64.4479 214.02C64.4479 214.34 64.6514 214.544 64.8839 214.631C64.9421 214.66 64.9711 214.718 65.0293 214.748C65.1746 214.864 65.349 214.893 65.5525 214.922C65.9014 214.98 66.2211 214.573 66.2211 214.253C66.2502 213.933 66.0467 213.759 65.7851 213.642Z" fill="white"/>
<path d="M84.0118 218.936H83.7793C82.9072 218.936 82.9072 220.274 83.7793 220.274H84.0118C84.8549 220.245 84.8549 218.936 84.0118 218.936Z" fill="white"/>
<path d="M85.3491 213.148C84.477 213.148 84.477 214.486 85.3491 214.486C86.1922 214.486 86.1922 213.148 85.3491 213.148Z" fill="white"/>
<path d="M75.5817 215.591C74.7097 215.591 74.7097 216.929 75.5817 216.929C76.4248 216.929 76.4248 215.591 75.5817 215.591Z" fill="white"/>
<path d="M93.1106 222.688V223.124C93.1106 223.997 94.4478 223.997 94.4478 223.124V222.688C94.4478 221.845 93.1106 221.845 93.1106 222.688Z" fill="white"/>
<path d="M96.0178 212.45C95.9305 212.362 95.8724 212.304 95.7852 212.217C95.1747 211.606 94.2445 212.566 94.855 213.148C94.9422 213.235 95.0003 213.293 95.0875 213.38C95.698 214.02 96.6282 213.06 96.0178 212.45Z" fill="white"/>
<path d="M71.8027 199.593C70.9306 199.593 70.9306 200.931 71.8027 200.931C72.6457 200.931 72.6457 199.593 71.8027 199.593Z" fill="white"/>
<path d="M66.0177 192.7C65.1456 192.7 65.1456 194.038 66.0177 194.038C66.8898 194.038 66.8898 192.7 66.0177 192.7Z" fill="white"/>
<path d="M45.8142 201.833V202.269C45.8142 203.142 47.1514 203.142 47.1514 202.269V201.833C47.1514 200.96 45.8142 200.96 45.8142 201.833Z" fill="white"/>
<path d="M53.4012 206.458C53.314 206.37 53.2559 206.312 53.1687 206.225C52.5582 205.614 51.628 206.574 52.2384 207.156C52.3257 207.243 52.3838 207.301 52.471 207.388C53.0524 207.999 54.0117 207.069 53.4012 206.458Z" fill="white"/>
<path d="M51.8316 202.24L51.8026 202.211C51.8026 202.211 51.8026 202.24 51.8316 202.24C51.7735 201.92 51.5409 201.6 51.134 201.6C50.8142 201.6 50.4363 201.891 50.4654 202.269C50.4944 202.619 50.6398 202.909 50.8723 203.171C51.4828 203.811 52.4421 202.851 51.8316 202.24Z" fill="white"/>
<path d="M51.8025 202.211C51.8599 202.268 51.8025 202.096 51.8025 202.211V202.211Z" fill="white"/>
<path d="M57.1513 180.949H56.9187C56.0467 180.949 56.0467 182.287 56.9187 182.287H57.1513C57.9943 182.258 57.9943 180.949 57.1513 180.949Z" fill="white"/>
<path d="M52.9652 188.453C52.7327 188.191 52.2676 188.22 52.035 188.453C51.7734 188.715 51.8024 189.122 52.035 189.384C52.0931 189.442 52.0641 189.5 52.0641 189.588C52.0641 190.46 53.4013 190.46 53.4013 189.588C53.3722 189.151 53.2559 188.802 52.9652 188.453Z" fill="white"/>
<path d="M33.9247 189.936C33.4305 190.227 33.5468 191.158 34.2735 191.158C34.8259 191.158 35.1456 190.838 35.1747 190.256C35.1747 189.558 34.2445 189.442 33.9247 189.936Z" fill="white"/>
<path d="M34.2733 185.835C33.4012 185.835 33.4012 187.173 34.2733 187.173C35.1454 187.144 35.1454 185.835 34.2733 185.835Z" fill="white"/>
<path d="M25.1748 180.28C24.6224 180.28 24.3027 180.6 24.2736 181.181C24.2736 181.909 25.2038 182.025 25.4945 181.53C25.9887 181.181 25.9015 180.251 25.1748 180.28Z" fill="white"/>
<path d="M34.0408 167.394H33.8083C32.9362 167.394 32.9362 168.732 33.8083 168.732H34.0408C34.9129 168.732 34.9129 167.394 34.0408 167.394Z" fill="white"/>
<path d="M23.4013 174.055C23.4594 173.706 23.0525 173.386 22.7327 173.386C22.4129 173.386 22.2094 173.59 22.1222 173.823C22.0932 173.881 22.035 173.91 22.006 173.968C21.8897 174.113 21.8606 174.288 21.8315 174.492C21.7734 174.841 22.1804 175.161 22.5001 175.161C22.8199 175.161 23.0234 174.957 23.1106 174.695C23.1397 174.637 23.1978 174.608 23.2269 174.55C23.3432 174.404 23.3722 174.23 23.4013 174.055Z" fill="white"/>
<path d="M27.3839 167.598C26.5118 167.598 26.5118 168.936 27.3839 168.936C28.256 168.936 28.256 167.598 27.3839 167.598Z" fill="white"/>
<path d="M16.0468 160.239L15.8142 160.472C15.2038 161.082 16.134 162.013 16.7444 161.402L16.977 161.17C17.5875 160.588 16.6572 159.628 16.0468 160.239Z" fill="white"/>
<path d="M30.0582 149.826C29.1861 149.826 29.1861 151.164 30.0582 151.164C30.9012 151.164 30.9012 149.826 30.0582 149.826Z" fill="white"/>
<path d="M4.5061 126.702C4.41889 126.789 4.36075 126.847 4.27354 126.935C3.66308 127.545 4.62238 128.476 5.20377 127.865C5.29098 127.778 5.34912 127.72 5.43633 127.633C6.0468 127.051 5.11657 126.091 4.5061 126.702Z" fill="white"/>
<path d="M8.72107 126.935C8.66293 126.993 8.60479 126.964 8.51758 126.964C7.64549 126.964 7.64549 128.302 8.51758 128.302C8.95363 128.302 9.30246 128.185 9.6513 127.895C10.2908 127.284 9.3606 126.353 8.72107 126.935Z" fill="white"/>
<path d="M4.97121 131.181C4.09912 131.181 4.09912 132.519 4.97121 132.519C5.81423 132.519 5.81423 131.181 4.97121 131.181Z" fill="white"/>
<path d="M13.4015 148.721C12.9654 148.721 12.6166 148.837 12.2677 149.128C12.0061 149.361 12.0352 149.826 12.2677 150.059C12.5294 150.32 12.9363 150.291 13.198 150.059C13.2561 150 13.3143 150.029 13.4015 150.029C14.2736 150.059 14.2736 148.721 13.4015 148.721Z" fill="white"/>
<path d="M10.5235 156.051V156.72C10.5235 157.592 11.8607 157.592 11.8607 156.72V156.051C11.8607 155.207 10.5235 155.207 10.5235 156.051Z" fill="white"/>
<path d="M22.2967 148.953C21.4246 148.953 21.4246 150.291 22.2967 150.291C23.1397 150.291 23.1397 148.953 22.2967 148.953Z" fill="white"/>
<path d="M20.5815 124.288C20.407 124.084 20.1163 123.997 19.8838 124.084C19.5059 124.201 19.3605 124.55 19.4187 124.899C19.5059 125.451 20.0291 125.597 20.4943 125.597C21.3373 125.626 21.3663 124.404 20.5815 124.288Z" fill="white"/>
<path d="M15.6107 112.508C14.7386 112.508 14.7386 113.846 15.6107 113.846C16.4828 113.846 16.4828 112.508 15.6107 112.508Z" fill="white"/>
<path d="M22.2967 110.501C21.4246 110.501 21.4246 111.839 22.2967 111.839C23.1397 111.839 23.1397 110.501 22.2967 110.501Z" fill="white"/>
<path d="M114.419 221.147V222.688C114.419 223.561 115.756 223.561 115.756 222.688V221.147C115.756 220.274 114.419 220.274 114.419 221.147Z" fill="white"/>
<path d="M120.204 218.034C119.332 218.034 119.332 219.372 120.204 219.372C121.047 219.372 121.047 218.034 120.204 218.034Z" fill="white"/>
<path d="M123.983 223.59V224.026C123.983 224.899 125.32 224.899 125.32 224.026V223.59C125.32 222.717 123.983 222.717 123.983 223.59Z" fill="white"/>
<path d="M126.657 212.45C126.192 212.013 125.727 212.013 125.262 212.45C124.739 212.973 125.378 213.759 125.96 213.555C126.541 213.759 127.21 212.973 126.657 212.45Z" fill="white"/>
<path d="M129.738 222.252V222.485C129.738 223.357 131.076 223.357 131.076 222.485V222.252C131.076 221.408 129.738 221.408 129.738 222.252Z" fill="white"/>
<path d="M120.64 225.161C119.768 225.161 119.768 226.499 120.64 226.499C121.512 226.47 121.512 225.161 120.64 225.161Z" fill="white"/>
<path d="M110.465 223.997C110.378 223.91 110.32 223.852 110.233 223.764C109.622 223.153 108.692 224.084 109.302 224.695C109.39 224.782 109.448 224.841 109.535 224.928C110.116 225.568 111.076 224.608 110.465 223.997Z" fill="white"/>
<path d="M110.436 225.801C110.029 225.801 109.826 226.12 109.768 226.47C109.797 226.382 109.797 226.353 109.768 226.411C109.71 226.499 109.622 226.586 109.535 226.673C108.925 227.284 109.884 228.215 110.465 227.604C110.814 227.255 111.047 226.964 111.105 226.47C111.134 226.12 110.756 225.801 110.436 225.801Z" fill="white"/>
<path d="M115.756 224.695C114.884 224.695 114.884 226.033 115.756 226.033C116.628 226.033 116.628 224.695 115.756 224.695Z" fill="white"/>
<path d="M142.413 221.146C142.413 221.234 142.442 221.292 142.384 221.35C142.151 221.612 142.122 222.019 142.384 222.281C142.616 222.513 143.082 222.543 143.314 222.281C143.605 221.932 143.721 221.583 143.721 221.146C143.75 220.274 142.413 220.303 142.413 221.146Z" fill="white"/>
<path d="M148.634 217.802H148.198C147.326 217.802 147.326 219.14 148.198 219.14H148.634C149.477 219.14 149.477 217.802 148.634 217.802Z" fill="white"/>
<path d="M151.715 217.133C151.454 217.394 151.338 217.685 151.308 218.063C151.279 218.412 151.628 218.732 151.977 218.732C152.355 218.732 152.558 218.471 152.617 218.151C152.617 218.18 152.617 218.18 152.646 218.121C152.646 218.121 152.646 218.092 152.675 218.092C153.227 217.452 152.297 216.493 151.715 217.133Z" fill="white"/>
<path d="M159.855 213.264C159.535 212.682 159.041 212.479 158.401 212.479C157.529 212.479 157.529 213.817 158.401 213.817C158.459 213.817 158.518 213.817 158.576 213.817C158.576 213.817 158.605 213.817 158.663 213.817C158.692 213.875 158.721 213.933 158.721 213.933C159.099 214.689 160.262 214.02 159.855 213.264Z" fill="white"/>
<path d="M162.18 214.719C161.308 214.719 161.308 216.056 162.18 216.056C163.023 216.027 163.023 214.719 162.18 214.719Z" fill="white"/>
<path d="M164.39 210.472C163.983 210.472 163.779 210.792 163.721 211.141C163.75 210.908 163.663 211.257 163.634 211.315C163.547 211.49 163.518 211.635 163.518 211.81C163.489 212.159 163.838 212.479 164.186 212.479C164.593 212.479 164.826 212.159 164.855 211.81C164.826 212.014 164.913 211.694 164.942 211.635C165.029 211.461 165.058 211.315 165.058 211.141C165.088 210.792 164.71 210.472 164.39 210.472Z" fill="white"/>
<path d="M168.372 208.261C167.5 208.261 167.5 209.599 168.372 209.599C169.244 209.599 169.244 208.261 168.372 208.261Z" fill="white"/>
<path d="M171.948 209.366C171.076 209.366 171.076 210.704 171.948 210.704C172.791 210.704 172.791 209.366 171.948 209.366Z" fill="white"/>
<path d="M175.698 204.043C174.826 204.043 174.826 205.381 175.698 205.381C176.57 205.381 176.57 204.043 175.698 204.043Z" fill="white"/>
<path d="M155.727 220.245C155.727 219.925 155.436 219.547 155.058 219.576C154.884 219.605 154.738 219.634 154.564 219.692C154.506 219.721 154.186 219.808 154.39 219.779C154.041 219.808 153.721 220.041 153.721 220.448C153.721 220.768 154.012 221.146 154.39 221.117C154.564 221.088 154.709 221.059 154.884 221.001C154.942 220.972 155.262 220.885 155.058 220.914C155.407 220.885 155.727 220.652 155.727 220.245Z" fill="white"/>
<path d="M164.622 202.037C163.75 202.037 163.75 203.375 164.622 203.375C165.465 203.375 165.465 202.037 164.622 202.037Z" fill="white"/>
<path d="M163.983 199.797C163.372 199.186 162.442 200.117 163.053 200.728L163.082 200.757C163.169 201.542 164.419 201.513 164.39 200.699C164.39 200.321 164.244 200.059 163.983 199.797Z" fill="white"/>
<path d="M166.192 195.434C166.134 195.317 166.047 195.23 165.96 195.143C165.378 194.503 164.448 195.434 165.029 196.074C165.262 196.335 165.378 196.626 165.756 196.684C166.105 196.743 166.483 196.597 166.57 196.219C166.657 195.928 166.512 195.521 166.192 195.434Z" fill="white"/>
<path d="M174.593 196.947C173.721 196.947 173.721 198.285 174.593 198.285C175.465 198.255 175.465 196.947 174.593 196.947Z" fill="white"/>
<path d="M192.355 194.503V195.172C192.355 196.045 193.692 196.045 193.692 195.172V194.503C193.692 193.631 192.355 193.631 192.355 194.503Z" fill="white"/>
<path d="M192.151 185.835V186.068C192.151 186.941 193.489 186.941 193.489 186.068V185.835C193.46 184.963 192.151 184.963 192.151 185.835Z" fill="white"/>
<path d="M189.477 199.39C188.605 199.39 188.605 200.728 189.477 200.728C190.349 200.698 190.349 199.39 189.477 199.39Z" fill="white"/>
<path d="M184.593 196.045C183.721 196.045 183.721 197.383 184.593 197.383C185.436 197.383 185.436 196.045 184.593 196.045Z" fill="white"/>
<path d="M178.808 188.046C177.936 188.046 177.936 189.384 178.808 189.384C179.68 189.384 179.68 188.046 178.808 188.046Z" fill="white"/>
<path d="M204.128 182.927C203.721 182.927 203.489 183.246 203.459 183.596C203.489 183.392 203.372 183.712 203.372 183.77C203.285 183.945 203.256 184.09 203.256 184.264C203.227 184.614 203.605 184.933 203.925 184.933C204.332 184.933 204.535 184.643 204.593 184.264C204.564 184.468 204.651 184.148 204.68 184.09C204.768 183.915 204.797 183.77 204.797 183.596C204.826 183.246 204.448 182.927 204.128 182.927Z" fill="white"/>
<path d="M209.012 178.505C208.14 178.505 208.14 179.843 209.012 179.843C209.884 179.814 209.884 178.505 209.012 178.505Z" fill="white"/>
<path d="M209.913 175.393H209.68C208.808 175.393 208.808 176.731 209.68 176.731H209.913C210.756 176.702 210.756 175.393 209.913 175.393Z" fill="white"/>
<path d="M197.704 176.498V176.731C197.704 177.604 199.041 177.604 199.041 176.731V176.498C199.012 175.626 197.704 175.626 197.704 176.498Z" fill="white"/>
<path d="M213.023 171.612V171.844C213.023 172.717 214.361 172.717 214.361 171.844V171.612C214.332 170.739 213.023 170.739 213.023 171.612Z" fill="white"/>
<path d="M215 164.049H214.564C213.692 164.049 213.692 165.387 214.564 165.387H215C215.872 165.387 215.872 164.049 215 164.049Z" fill="white"/>
<path d="M218.082 165.591C217.82 165.853 217.704 166.143 217.675 166.492C217.645 166.842 217.994 167.161 218.343 167.161C218.721 167.161 218.925 166.9 218.983 166.58C218.983 166.609 218.983 166.609 219.012 166.551C219.012 166.551 219.012 166.551 219.012 166.522C219.622 165.911 218.692 164.951 218.082 165.591Z" fill="white"/>
<path d="M226.57 156.923C226.483 156.836 226.425 156.777 226.337 156.69C225.727 156.079 224.797 157.039 225.407 157.621C225.494 157.708 225.553 157.766 225.64 157.854C226.25 158.464 227.18 157.534 226.57 156.923Z" fill="white"/>
<path d="M221.57 145.928C221.279 145.754 220.814 145.841 220.669 146.161C220.582 146.365 220.494 146.539 220.436 146.743C220.407 146.83 220.378 147.092 220.32 147.121C220.087 147.383 220.058 147.79 220.32 148.052C220.552 148.284 221.018 148.343 221.25 148.052C221.57 147.674 221.599 147.237 221.802 146.801C221.948 146.51 221.89 146.132 221.57 145.928Z" fill="white"/>
<path d="M229.622 142.525C229.273 142.467 228.895 142.612 228.808 142.99C228.75 143.223 228.837 143.514 229.012 143.688C229.099 144.445 230.32 144.445 230.32 143.601C230.32 143.136 230.175 142.612 229.622 142.525Z" fill="white"/>
<path d="M233.896 134.73H233.431C232.558 134.73 232.558 136.068 233.431 136.068H233.867C234.739 136.068 234.739 134.73 233.896 134.73Z" fill="white"/>
<path d="M231.018 131.094C230.814 131.269 230.727 131.559 230.814 131.792C230.93 132.17 231.279 132.316 231.628 132.258C232.18 132.17 232.326 131.647 232.326 131.181C232.326 130.338 231.105 130.309 231.018 131.094Z" fill="white"/>
<path d="M237.442 124.055H237.006C236.134 124.055 236.134 125.393 237.006 125.393H237.442C238.285 125.393 238.285 124.055 237.442 124.055Z" fill="white"/>
<path d="M87.791 222.485V222.921C87.791 223.793 89.1282 223.793 89.1282 222.921V222.485C89.1282 221.612 87.791 221.612 87.791 222.485Z" fill="white"/>
<path d="M90.4654 219.954C90.2619 220.129 90.1747 220.419 90.2619 220.652C90.3782 221.03 90.727 221.176 91.0758 221.118C91.6282 221.03 91.7735 220.507 91.7735 220.041C91.7735 219.198 90.5526 219.198 90.4654 219.954Z" fill="white"/>
<path d="M95.3198 225.161V226.266C95.3198 227.139 96.657 227.139 96.657 226.266V225.161C96.657 224.288 95.3198 224.288 95.3198 225.161Z" fill="white"/>
<path d="M99.7677 224.026C98.8956 224.026 98.8956 225.364 99.7677 225.364C100.64 225.364 100.64 224.026 99.7677 224.026Z" fill="white"/>
<path d="M78.0233 220.041V220.274C78.0233 221.146 79.3605 221.146 79.3605 220.274V220.041C79.3605 219.169 78.0233 219.169 78.0233 220.041Z" fill="white"/>
<path d="M80.0002 215.824V216.056C80.0002 216.929 81.3374 216.929 81.3374 216.056V215.824C81.3374 214.951 80.0002 214.951 80.0002 215.824Z" fill="white"/>
<path d="M75.3491 219.372C74.477 219.372 74.477 220.71 75.3491 220.71C76.2212 220.71 76.2212 219.372 75.3491 219.372Z" fill="white"/>
<path d="M71.1339 216.696C70.2618 216.696 70.2618 218.034 71.1339 218.034C72.006 218.034 72.006 216.696 71.1339 216.696Z" fill="white"/>
<path d="M69.128 212.479C68.2559 212.479 68.2559 213.817 69.128 213.817C70.0001 213.817 70.0001 212.479 69.128 212.479Z" fill="white"/>
<path d="M59.3607 211.606V212.042C59.3607 212.915 60.6979 212.915 60.6979 212.042V211.606C60.6979 210.733 59.3607 210.733 59.3607 211.606Z" fill="white"/>
<path d="M61.163 208.465L60.9305 208.232C60.32 207.621 59.3898 208.552 60.0003 209.163L60.2328 209.396C60.8433 210.006 61.7735 209.076 61.163 208.465Z" fill="white"/>
<path d="M55.1454 210.036H54.9129C54.0408 210.036 54.0408 211.374 54.9129 211.374H55.1454C56.0175 211.374 56.0175 210.036 55.1454 210.036Z" fill="white"/>
<path d="M81.134 203.811V204.044C81.134 204.916 82.4712 204.916 82.4712 204.044V203.811C82.4421 202.967 81.134 202.967 81.134 203.811Z" fill="white"/>
<path d="M138.052 213.526C137.675 213.293 137.326 213.526 137.064 213.788C136.541 214.311 137.151 215.038 137.704 214.893C138.052 214.922 138.401 214.718 138.401 214.253C138.401 213.962 138.314 213.7 138.052 213.526Z" fill="white"/>
<path d="M140.146 223.415C140.058 222.863 139.535 222.717 139.07 222.717C138.227 222.717 138.227 223.939 138.983 224.026C139.157 224.23 139.448 224.317 139.681 224.23C140.088 224.143 140.204 223.765 140.146 223.415Z" fill="white"/>
<path d="M133.169 225.131C133.111 225.073 133.081 225.015 133.023 224.957C132.936 224.695 132.733 224.521 132.413 224.521C132.093 224.521 131.686 224.811 131.744 225.19C131.773 225.364 131.802 225.51 131.861 225.655C131.919 225.713 131.948 225.771 132.006 225.83C132.093 226.091 132.297 226.266 132.616 226.266C132.936 226.266 133.343 225.946 133.285 225.597C133.285 225.422 133.256 225.277 133.169 225.131Z" fill="white"/>
<path d="M117.965 213.788C117.994 213.788 117.965 213.788 117.965 213.788C117.965 213.788 117.936 213.788 117.907 213.817C117.907 213.817 117.878 213.817 117.849 213.817C117.762 213.817 117.645 213.817 117.558 213.817C116.686 213.817 116.686 215.155 117.558 215.155C118.081 215.155 118.517 215.097 118.924 214.748C119.535 214.137 118.576 213.206 117.965 213.788Z" fill="white"/>
<path d="M107.965 220.885L107.733 221.118C107.122 221.728 108.082 222.659 108.663 222.048L108.896 221.816C109.506 221.234 108.576 220.303 107.965 220.885Z" fill="white"/>
<path d="M103.954 226.004L103.721 226.237C103.111 226.848 104.041 227.778 104.651 227.168L104.884 226.935C105.524 226.353 104.564 225.393 103.954 226.004Z" fill="white"/>
<path d="M17.9653 92.5249V93.4266C17.9653 94.7064 19.9711 94.7064 19.9711 93.4266V92.5249C19.942 91.216 17.9653 91.216 17.9653 92.5249Z" fill="white"/>
<path d="M67.7617 106.196C67.3838 105.876 66.8024 105.876 66.4245 106.254C66.0466 106.632 66.0466 107.272 66.4245 107.679C66.7733 107.999 67.0931 108.203 67.5873 108.203C68.8082 108.174 68.8663 106.399 67.7617 106.196Z" fill="#231F20"/>
<path d="M67.3549 97.0626H66.9188C65.9595 97.0626 65.727 98.1679 66.1921 98.7206H66.0467C65.1746 98.7206 65.1746 100.059 66.0467 100.059H66.2793C66.8607 100.059 67.0351 99.4477 66.8316 99.0405C66.8607 99.0405 66.9188 99.0405 66.9479 99.0405H67.3839C68.6339 99.0696 68.6339 97.0626 67.3549 97.0626Z" fill="#231F20"/>
<path d="M61.0175 94.0668V94.7358C61.0175 96.0156 63.0233 96.0156 63.0233 94.7358V94.0668C63.0233 92.787 61.0175 92.787 61.0175 94.0668Z" fill="#231F20"/>
<path d="M64.0698 85.5443C63.5465 85.457 62.9942 85.6606 62.8488 86.2423C62.8198 86.3878 62.8198 86.5332 62.8488 86.7077C62.8488 86.795 62.8198 86.8822 62.8198 86.9695C62.7616 87.5221 63.314 87.9584 63.8082 87.9584C64.3895 87.9584 64.7384 87.4931 64.7965 86.9695C64.7675 87.2022 64.8256 86.9695 64.8547 86.9404C64.8837 86.8241 64.9128 86.7077 64.9128 86.5623C64.8547 86.0969 64.564 85.6315 64.0698 85.5443Z" fill="#231F20"/>
<path d="M61.8607 75.1601C61.4828 74.7819 60.9886 74.811 60.5817 75.0728C60.5817 75.0728 60.5526 75.0728 60.5235 75.0728C60.6107 75.0437 60.3491 75.0728 60.291 75.0728C59.0119 75.0728 59.0119 77.0798 60.291 77.0798C60.9014 77.0798 61.4247 76.9635 61.8898 76.5563C62.2677 76.2072 62.2096 75.5091 61.8607 75.1601Z" fill="#231F20"/>
<path d="M66.9769 72.9206C66.7153 72.1062 66.4246 71.3208 65.8432 70.71C65.4653 70.3028 64.7967 70.3319 64.4188 70.71C64.0118 71.0881 64.0409 71.728 64.4188 72.1353C64.535 72.2516 64.6513 72.4552 64.7676 72.6879C64.8548 72.8915 64.9711 73.2115 65.0583 73.4733C65.2327 73.9968 65.756 74.3168 66.2792 74.1713C66.8025 74.0259 67.1513 73.4442 66.9769 72.9206Z" fill="#231F20"/>
<path d="M63.0234 62.7401V63.1764C63.0234 64.4563 65.0292 64.4563 65.0292 63.1764V62.7401C65.0292 61.4603 63.0234 61.4603 63.0234 62.7401Z" fill="#231F20"/>
<path d="M67.2385 54.7412V55.6429C67.2385 56.9227 69.2443 56.9227 69.2443 55.6429V54.7412C69.2443 53.4614 67.2385 53.4614 67.2385 54.7412Z" fill="#231F20"/>
<path d="M71.1338 45.7535C69.8547 45.7535 69.8547 47.7605 71.1338 47.7605C72.4128 47.7605 72.4128 45.7535 71.1338 45.7535Z" fill="#231F20"/>
<path d="M61.2502 118.063V118.296C61.2502 119.576 63.256 119.576 63.256 118.296V118.063C63.256 116.784 61.2502 116.784 61.2502 118.063Z" fill="#231F20"/>
<path d="M69.7676 116.638C69.3897 116.318 68.8083 116.318 68.4304 116.696C68.0525 117.074 68.0525 117.714 68.4304 118.121C68.7792 118.441 69.099 118.645 69.5932 118.645C70.8141 118.616 70.8722 116.842 69.7676 116.638Z" fill="#231F20"/>
<path d="M69.477 114.515C69.477 114.544 69.477 114.544 69.477 114.573C69.1863 114.98 69.1863 115.503 69.5351 115.882C69.913 116.26 70.5816 116.289 70.9595 115.882C71.3084 115.474 71.4828 115.038 71.4828 114.515C71.4828 113.235 69.477 113.235 69.477 114.515Z" fill="#231F20"/>
<path d="M72.907 128.185C71.6279 128.185 71.6279 130.192 72.907 130.192C74.186 130.163 74.186 128.185 72.907 128.185Z" fill="#231F20"/>
<path d="M86.0467 143.136C85.6688 142.758 85.0001 142.729 84.6222 143.136C84.2734 143.543 84.099 143.98 84.099 144.503C84.099 145.783 86.1048 145.783 86.1048 144.503C86.1048 144.474 86.1048 144.474 86.1048 144.445C86.3955 144.038 86.4246 143.514 86.0467 143.136Z" fill="#231F20"/>
<path d="M90.4944 152.735C90.0584 152.473 89.3607 152.589 89.1281 153.084C89.0409 153.287 88.9537 153.491 88.8665 153.695C88.8665 153.695 88.8665 153.724 88.8374 153.753C88.8084 153.782 88.8084 153.811 88.7793 153.84C88.7793 153.84 88.8084 153.811 88.8084 153.782C88.4595 154.189 88.4304 154.771 88.8374 155.178C89.2153 155.556 89.8839 155.585 90.2618 155.178C90.4072 155.033 90.5235 154.858 90.6107 154.683C90.6688 154.567 90.727 154.422 90.756 154.305C90.756 154.276 90.7851 154.218 90.7851 154.189C90.7851 154.189 90.8142 154.16 90.8432 154.073C91.1049 153.636 91.0177 153.026 90.4944 152.735Z" fill="#231F20"/>
<path d="M93.3723 154.247C92.9944 153.869 92.3548 153.869 91.9479 154.247C91.8025 154.393 91.6572 154.538 91.5118 154.684C91.1339 155.062 91.1339 155.702 91.5118 156.109C91.8897 156.487 92.5293 156.487 92.9362 156.109C93.0816 155.963 93.2269 155.818 93.3723 155.672C93.7502 155.265 93.7502 154.625 93.3723 154.247Z" fill="#231F20"/>
<path d="M101.657 161.839V162.508C101.657 163.788 103.663 163.788 103.663 162.508V161.839C103.663 160.53 101.657 160.53 101.657 161.839Z" fill="#231F20"/>
<path d="M105.32 167.278C104.041 167.278 104.041 169.285 105.32 169.285C106.599 169.285 106.599 167.278 105.32 167.278Z" fill="#231F20"/>
<path d="M75.5816 148.168C74.3025 148.168 74.3025 150.175 75.5816 150.175C76.8607 150.175 76.8607 148.168 75.5816 148.168Z" fill="#231F20"/>
<path d="M215.901 145.841C215.029 145.841 215.029 147.179 215.901 147.179C216.744 147.179 216.744 145.841 215.901 145.841Z" fill="#231F20"/>
<path d="M214.826 144.736C214.477 144.358 213.663 144.503 213.663 145.172C213.663 145.87 214.157 146.074 214.767 146.074C215.64 146.045 215.64 144.794 214.826 144.736Z" fill="#231F20"/>
<path d="M219.448 139.616C219.651 139.646 219.332 139.558 219.273 139.529C219.099 139.442 218.954 139.413 218.779 139.413C218.43 139.384 218.111 139.762 218.111 140.082C218.111 140.489 218.43 140.693 218.779 140.751C218.576 140.722 218.895 140.809 218.954 140.838C219.128 140.925 219.273 140.954 219.448 140.954C219.797 140.984 220.116 140.605 220.116 140.285C220.116 139.878 219.797 139.646 219.448 139.616Z" fill="#231F20"/>
<path d="M220.785 138.279V138.715C220.785 139.588 222.122 139.588 222.122 138.715V138.279C222.122 137.435 220.785 137.435 220.785 138.279Z" fill="#231F20"/>
<path d="M225.465 131.152L225.233 130.92C224.622 130.309 223.692 131.24 224.302 131.85L224.535 132.083C225.145 132.694 226.076 131.763 225.465 131.152Z" fill="#231F20"/>
<path d="M55.3781 66.5216H55.1456C54.2735 66.5216 54.2735 67.8596 55.1456 67.8596H55.3781C56.2211 67.8596 56.2211 66.5216 55.3781 66.5216Z" fill="#231F20"/>
<path d="M56.9477 83.5955L56.5117 83.1592C55.9012 82.5484 54.971 83.4791 55.5815 84.09L56.0175 84.5263C56.628 85.1662 57.5582 84.2063 56.9477 83.5955Z" fill="#231F20"/>
<path d="M67.3549 80.9775C66.4827 80.9775 66.4827 82.3155 67.3549 82.3155C68.227 82.2864 68.227 80.9775 67.3549 80.9775Z" fill="#231F20"/>
<path d="M62.9071 55.2068H62.006C61.1339 55.2068 61.1339 56.5448 62.006 56.5448H62.9071C63.7792 56.5157 63.7792 55.2068 62.9071 55.2068Z" fill="#231F20"/>
<path d="M70.0291 58.5225C70 57.679 68.6628 57.6499 68.6919 58.5225C68.721 58.9006 68.8954 59.2497 68.9245 59.6278C68.9535 60.4713 70.2907 60.5004 70.2617 59.6278C70.2326 59.2497 70.0291 58.9006 70.0291 58.5225Z" fill="#231F20"/>
<path d="M75.0292 43.9791C74.8839 43.6592 74.4188 43.5719 74.1281 43.7464C73.8083 43.9501 73.7211 44.3282 73.8955 44.6481C74.0118 44.9099 74.0118 45.1426 74.0118 45.4335C74.0118 46.3061 75.349 46.3061 75.349 45.4335C75.349 44.8808 75.2618 44.4445 75.0292 43.9791Z" fill="#231F20"/>
<path d="M75.1163 36.0969H74.6803C73.8082 36.0969 73.8082 37.4349 74.6803 37.4349H75.1163C75.9884 37.4058 75.9884 36.0969 75.1163 36.0969Z" fill="#231F20"/>
<path d="M83.0233 31.9664C82.8779 31.6465 82.4128 31.5592 82.1221 31.7338C81.7733 31.9374 81.7442 32.3155 81.8896 32.6354C82.064 32.9845 82.0349 33.479 82.0349 33.8571C82.0349 34.7297 83.3721 34.7297 83.3721 33.8571C83.3431 33.2172 83.314 32.5773 83.0233 31.9664Z" fill="#231F20"/>
<path d="M84.8837 25.6547C84.0116 25.6547 84.0116 26.9927 84.8837 26.9927C85.7558 26.9636 85.7558 25.6547 84.8837 25.6547Z" fill="#231F20"/>
<path d="M58.4884 104.073H58.2559C57.3838 104.073 57.3838 105.411 58.2559 105.411H58.4884C59.3315 105.411 59.3315 104.073 58.4884 104.073Z" fill="#231F20"/>
<path d="M73.9826 113.235C73.9245 112.857 73.6338 112.711 73.3722 112.508C72.7326 111.926 71.8024 112.886 72.4419 113.438C72.5291 113.526 72.6454 113.613 72.7326 113.671C72.8489 113.962 73.2268 114.136 73.5175 114.049C73.9245 113.933 74.0408 113.584 73.9826 113.235Z" fill="#231F20"/>
<path d="M70.0291 107.854V109.192C70.0291 110.064 71.3663 110.064 71.3663 109.192V107.854C71.3663 106.981 70.0291 106.981 70.0291 107.854Z" fill="#231F20"/>
<path d="M69.7966 102.298H69.5641C68.692 102.298 68.692 103.636 69.5641 103.636H69.7966C70.6687 103.636 70.6687 102.298 69.7966 102.298Z" fill="#231F20"/>
<path d="M68.227 90.3436C68.1397 89.7909 67.6165 89.6455 67.1514 89.6455C66.3084 89.6455 66.3084 90.8672 67.0642 90.9544C67.2386 91.158 67.5293 91.2453 67.7618 91.158C68.1397 91.0417 68.2851 90.6926 68.227 90.3436Z" fill="#231F20"/>
<path d="M63.8081 100.96C62.936 100.96 62.936 102.298 63.8081 102.298C64.6511 102.298 64.6511 100.96 63.8081 100.96Z" fill="#231F20"/>
<path d="M68.4593 125.829V126.062C68.4593 126.935 69.7965 126.935 69.7965 126.062V125.829C69.7965 124.986 68.4593 124.986 68.4593 125.829Z" fill="#231F20"/>
<path d="M72.0058 134.265C71.8604 134.41 71.8023 134.497 71.5988 134.526C70.7558 134.556 70.7267 135.894 71.5988 135.864C72.1511 135.835 72.5581 135.603 72.9651 135.225C73.5465 134.585 72.6162 133.654 72.0058 134.265Z" fill="#231F20"/>
<path d="M74.6803 136.94V138.715C74.6803 139.587 76.0175 139.587 76.0175 138.715V136.94C76.0175 136.097 74.6803 136.097 74.6803 136.94Z" fill="#231F20"/>
<path d="M79.3605 148.255C79.0989 147.993 78.8373 147.848 78.4594 147.848C77.6163 147.848 77.6163 149.099 78.4012 149.157L78.4303 149.186C79.0408 149.797 79.971 148.866 79.3605 148.255Z" fill="#231F20"/>
<path d="M84.4477 155.178C83.5756 155.178 83.5756 156.516 84.4477 156.516C85.3198 156.487 85.3198 155.178 84.4477 155.178Z" fill="#231F20"/>
<path d="M115.989 169.169H115.756C114.884 169.169 114.884 170.507 115.756 170.507H115.989C116.832 170.507 116.832 169.169 115.989 169.169Z" fill="#231F20"/>
<path d="M125.872 172.805C125.581 172.63 125.116 172.717 124.971 173.037C124.855 173.299 124.767 173.59 124.709 173.881C124.651 174.113 124.622 174.375 124.535 174.608C124.39 174.928 124.448 175.335 124.767 175.51C125.058 175.684 125.523 175.597 125.669 175.277C125.785 175.015 125.872 174.724 125.93 174.433C125.988 174.201 126.017 173.939 126.105 173.706C126.25 173.386 126.192 173.008 125.872 172.805Z" fill="#231F20"/>
<path d="M131.512 169.169V169.401C131.512 170.274 132.849 170.274 132.849 169.401V169.169C132.849 168.296 131.512 168.296 131.512 169.169Z" fill="#231F20"/>
<path d="M139.942 171.583C139.797 171.728 139.593 171.554 139.419 171.467C138.663 171.089 137.965 172.223 138.75 172.63C139.506 173.008 140.204 173.125 140.901 172.514C141.512 171.932 140.581 171.001 139.942 171.583Z" fill="#231F20"/>
<path d="M147.093 165.358L147.064 165.329C147.064 165.329 147.064 165.358 147.093 165.358C147.035 165.038 146.802 164.718 146.395 164.718C146.076 164.718 145.698 165.009 145.727 165.387C145.756 165.736 145.901 166.027 146.134 166.289C146.744 166.929 147.675 165.969 147.093 165.358Z" fill="#231F20"/>
<path d="M147.064 165.329C147.121 165.386 147.064 165.214 147.064 165.329V165.329Z" fill="#231F20"/>
<path d="M154.186 171.147L153.954 170.914C153.343 170.303 152.413 171.234 153.024 171.845L153.256 172.077C153.867 172.688 154.797 171.728 154.186 171.147Z" fill="#231F20"/>
<path d="M44.2734 66.7542C40.4071 67.3359 39.1571 62.5948 42.3548 60.8205C44.7966 59.4825 47.9652 60.1806 47.8199 63.4092C47.7617 64.8635 45.6978 66.5506 44.2734 66.7542Z" fill="#231F20"/>
<path d="M49.4477 84.1192C49.0989 82.2867 53.1396 82.8975 53.0815 84.8172C53.0524 86.1843 50.9303 87.086 49.8838 86.417C48.9535 85.8062 48.5756 83.5374 50.0873 83.4792L49.4477 84.1192Z" fill="#231F20"/>
<path d="M64.3607 124.753C63.7212 125.655 62.006 126.324 60.9595 125.771C59.3607 124.957 59.5351 121.757 61.2212 121.117C63.4886 120.274 65.8723 122.659 64.3607 124.753Z" fill="#231F20"/>
<path d="M83.5755 159.396C79.1278 161.461 84.6802 167.918 87.4127 162.944C89.5058 159.134 83.6918 156.778 82.9069 159.832L83.5755 159.396Z" fill="#231F20"/>
<path d="M79.4185 160.995C78.1685 163.06 75.6976 162.799 75.7848 160.094C75.872 156.632 81.0755 158.261 79.4185 160.995Z" fill="#231F20"/>
<path d="M55.5815 117.831C56.7734 115.562 59.942 118.412 58.4594 120.245C56.9478 122.135 54.3024 120.623 55.3489 118.296L55.5815 117.831Z" fill="#231F20"/>
<path d="M46.5119 84.9624C46.0177 86.5622 43.4886 86.5331 43.0526 84.9334C42.2677 82.0538 47.3258 82.3155 46.5119 84.9624Z" fill="#231F20"/>
<path d="M68.4302 44.7064C66.2791 46.2189 63.7209 43.3684 65.6977 41.5069C67.7616 39.5872 71.3082 42.6704 68.4302 44.7064Z" fill="#231F20"/>
<path d="M92.006 26.0328C89.5932 27.9525 86.0757 25.9746 87.5002 22.746C89.2734 18.7611 95.6688 23.1241 92.006 26.0328Z" fill="#231F20"/>
<path d="M100.465 21.6697C100.32 23.0077 98.1976 24.3166 96.9767 23.4149C93.6918 21.0007 100.872 17.7139 100.465 21.6697Z" fill="#231F20"/>
<path d="M212.82 150.495C213.576 149.477 215 149.622 215.552 150.669C216.279 152.066 214.826 154.858 213.14 153.753C212.297 153.229 211.628 151.018 212.965 150.669L212.82 150.495Z" fill="#231F20"/>
<path d="M142.675 168.325C141.599 169.576 138.808 169.372 138.895 167.307C139.041 164.369 145.407 165.213 142.675 168.325Z" fill="#231F20"/>
<path opacity="0.2" d="M98.1687 191.507C98.4304 196.016 94.7385 199.07 90.4652 198.633C84.4769 198.023 81.4536 190.46 86.1048 186.155C87.7036 184.672 90.349 183.217 92.6745 183.799C95.7269 184.585 97.7327 187.988 98.1397 190.925C98.1397 191.1 98.1687 191.304 98.1687 191.507Z" fill="white"/>
<path opacity="0.2" d="M66.7441 142.06C66.9186 151.6 51.8604 148.11 55.029 140.286C56.0465 137.813 57.9069 136.01 60.7267 136.01C64.593 136.01 66.686 139.035 66.7441 142.06Z" fill="white"/>
<path opacity="0.2" d="M44.3894 137.057C44.4766 139.384 42.2383 141.158 39.8255 140.053C37.9069 139.18 36.6859 136.446 38.1976 134.643C39.7673 132.839 43.2266 133.596 44.0987 135.777C44.2731 136.213 44.3604 136.621 44.3894 137.057Z" fill="white"/>
<path opacity="0.2" d="M33.6049 95.7829C33.6049 96.2774 33.5467 96.7718 33.4304 97.2954C32.9944 99.3606 31.8025 101.019 29.6514 101.397C26.3956 101.978 23.4886 100 22.6165 96.8591C20.4653 89.0639 33.7211 87.1732 33.6049 95.7829Z" fill="white"/>
<path opacity="0.2" d="M144.215 180.658C144.361 182.141 143.837 183.596 142.413 184.294C139.535 185.661 135.116 184.352 135.116 180.658C135.116 177.807 138.43 174.928 141.25 176.149C142.878 176.847 144.041 178.796 144.215 180.658Z" fill="white"/>
</g>
<defs>
<clipPath id="clip0">
<rect width="240" height="229" fill="white"/>
</clipPath>
</defs>
</svg>
