<svg width="152" height="140" viewBox="0 0 152 140" fill="none" xmlns="http://www.w3.org/2000/svg">
<g clip-path="url(#clip0)">
<path opacity="0.5" d="M116.525 138.135C116.525 138.135 122.739 141.015 126.27 137.971C129.801 134.954 126.188 131.06 123.012 131.69C123.012 131.69 124.326 125.164 117.812 123.545C111.297 121.9 108.231 126.562 108.696 130.621C108.696 130.621 106.561 128.921 104.426 130.155C102.291 131.389 102.948 133.116 102.948 133.116C102.948 133.116 98.9518 132.65 99.034 135.612C99.1161 138.574 103.961 136.764 103.961 136.764C103.961 136.764 104.7 139.095 109.819 139.863C114.937 140.631 116.525 138.135 116.525 138.135Z" fill="#C4E3FF"/>
<path opacity="0.5" d="M23.3214 38.3115C23.3214 38.3115 31.6426 42.1509 36.3507 38.0921C41.0588 34.0333 36.2138 28.8502 31.9985 29.7003C31.9985 29.7003 33.7229 20.9795 25.0458 18.8129C16.3687 16.6464 12.2628 22.8717 12.8924 28.2468C12.8924 28.2468 10.0457 25.9706 7.17154 27.6161C4.32479 29.289 5.17333 31.5652 5.17333 31.5652C5.17333 31.5652 -0.164322 30.9344 -0.0274582 34.8835C0.109406 38.8325 6.54196 36.4466 6.54196 36.4466C6.54196 36.4466 7.52738 39.573 14.3705 40.5877C21.2137 41.6298 23.3214 38.3115 23.3214 38.3115Z" fill="#C4E3FF"/>
<path d="M90.7401 25.669C93.6143 21.0069 99.3351 17.9902 105.165 18.9227C109.846 19.6631 112.282 23.8316 117.456 21.1714C116.635 22.762 115.485 24.0784 114.226 25.2028C116.251 25.5593 118.113 26.2175 120.193 26.1352C119.016 27.5612 116.717 27.9726 114.554 27.9178C116.771 34.335 116.47 42.6719 116.005 47.8276C115.403 54.4094 115.786 59.8942 118.66 65.9275C120.001 68.7248 121.808 71.193 123.806 73.5514C127.885 78.2958 133.469 81.477 139.409 83.2321C143.542 84.4388 147.703 85.7826 152 86.2488V122.065C147.155 120.748 142.912 118.637 138.587 115.73C127.146 108.078 117.62 93.2145 112.501 80.6817C111.023 77.0343 111.023 73.0304 109.928 69.3007C109.463 67.7101 108.012 61.2654 107.875 59.62C107.465 54.9579 105.467 49.2811 102.045 45.9902C97.8023 41.9315 92.0266 43.0559 89.6179 36.5015C88.1671 32.6073 88.8241 28.7679 90.7401 25.669Z" fill="#E4E4E4"/>
<path d="M97.2547 30.4956C97.2547 31.5103 98.0759 32.3604 99.1161 32.3604C100.129 32.3604 100.977 31.5377 100.977 30.4956C100.977 29.4809 100.156 28.6307 99.1161 28.6307C98.0759 28.6582 97.2547 29.4809 97.2547 30.4956Z" fill="#231F20"/>
<path d="M66.6249 25.998L70.1833 32.9637L62.8749 31.7845L64.1066 25.5044L66.6249 25.998Z" fill="#BF9C83"/>
<path d="M63.1759 25.2849C63.1759 26.519 64.4076 27.5063 65.9131 27.5063C67.4186 27.5063 68.6504 26.519 68.6504 25.2849C68.6504 24.0509 67.4186 23.0636 65.9131 23.0636C64.3803 23.0636 63.1759 24.0509 63.1759 25.2849Z" fill="#BF9C83"/>
<path d="M64.5719 23.9961C64.5719 23.9961 56.6612 12.6699 52.1174 10.9148C52.1174 10.9148 51.2962 18.621 53.048 21.0617C54.7999 23.5025 58.0572 26.7933 64.1066 25.5044L64.5719 23.9961Z" fill="#BF9C83"/>
<path d="M67.5829 24.3801C67.5829 24.3801 69.3348 23.8042 68.8694 20.8698C68.4041 17.9628 72.7016 16.098 77.7108 14.3429C79.5995 13.6847 80.6123 13.1362 81.1324 12.6974C82.0083 11.957 81.5977 12.0392 81.5429 12.8345C81.4334 15.385 80.667 20.9246 76.3148 22.1587C70.5939 23.8042 67.5829 25.8884 67.5829 25.8884V24.3801Z" fill="#BF9C83"/>
<path d="M88.742 27.1498C88.742 27.1498 91.9994 29.1243 92.1088 33.1008C92.2183 37.0773 89.7822 38.4759 89.7822 38.4759C89.7822 38.4759 52.8566 33.1008 52.2544 31.949C51.7069 30.7698 88.742 27.1498 88.742 27.1498Z" fill="#FF939C"/>
<path d="M80.229 106.927C80.2016 106.927 80.2016 106.927 80.1743 106.927C79.6815 107.064 79.2436 107.228 78.8056 107.448C77.8202 107.969 76.9443 108.654 75.9862 109.175C75.9589 109.038 75.9589 108.901 76.0136 108.764C76.1505 108.161 76.2326 107.557 76.3695 106.954C76.5611 106.076 76.3147 105.089 76.5337 104.266C77.5191 103.855 78.4224 103.252 79.4899 103.087C80.4206 102.95 80.3659 102.155 80.3659 101.332C80.3659 101.085 80.3385 100.756 80.4206 100.564C80.5027 100.4 80.7217 100.18 80.7491 100.564C80.7765 100.345 80.7764 99.6592 81.0502 99.5769C81.2692 99.5221 81.4334 99.7963 81.4608 99.9609C81.4608 99.4672 81.4334 98.9188 81.844 98.5897C82.2546 98.2606 82.6104 98.48 82.6652 98.9736C82.6378 98.6445 82.8841 98.0138 83.2947 97.9863C83.5685 97.9589 83.6232 98.1783 83.6232 98.3977C83.6232 98.5348 83.5685 98.6445 83.5685 98.7816C83.5411 98.9462 83.5685 99.0833 83.5685 99.2478C83.5685 99.2478 83.5685 99.2204 83.5958 99.193C83.7053 99.0559 83.7327 98.7816 83.8422 98.6171C83.9243 98.4526 84.0338 98.288 84.198 98.1783C84.4717 97.9863 85.0192 97.9589 85.1561 98.3429C85.2929 98.7268 85.0192 99.3301 84.8276 99.6592C84.7181 99.8512 84.6086 100.016 84.5265 100.235C84.417 100.592 84.3896 100.948 84.2528 101.305C84.1159 101.689 83.9243 102.018 83.8148 102.402C83.7053 102.758 83.6779 103.142 83.6779 103.526C83.6779 103.773 83.6779 104.02 83.7053 104.266C83.7327 104.705 83.8422 105.144 83.7874 105.583C83.6779 106.323 82.9663 106.872 82.2272 106.927C81.7892 106.954 81.3513 106.789 80.9133 106.789C80.6122 106.844 80.4206 106.872 80.229 106.927Z" fill="#FDC29F"/>
<path d="M81.2965 107.667C81.4334 107.585 81.5429 107.53 81.6797 107.448C82.1451 107.201 82.5283 106.872 82.9662 106.597C83.1578 106.488 83.3768 106.405 83.5684 106.268C83.76 106.131 83.9243 105.912 84.0885 105.72C84.3349 105.391 84.3622 104.979 84.5538 104.623C84.7181 104.321 85.156 103.745 85.5119 103.718C86.2783 103.608 85.8677 104.87 85.6488 105.199C85.7035 105.144 86.4699 104.595 86.5247 104.815C86.5794 105.062 86.4426 105.446 86.2509 105.61C86.4152 105.446 86.7984 105.199 87.0174 105.446C87.2637 105.775 86.8531 106.433 86.6615 106.652C86.7984 106.515 86.99 106.405 87.1542 106.378C87.4006 106.323 87.4827 106.323 87.4553 106.57C87.428 107.009 87.1269 107.42 86.771 107.667C86.99 107.53 87.7017 107.42 87.5101 107.859C87.2637 108.407 86.6342 108.49 86.2236 108.819C85.7309 109.23 85.2108 109.696 84.8002 110.19C84.417 110.629 84.1159 111.068 83.8148 111.589C83.5411 112.082 83.2673 112.521 83.0757 113.042C82.9115 113.453 82.4462 113.728 82.0082 113.865C80.9954 114.167 80.0647 113.563 79.2709 113.015C78.5319 112.521 77.8476 112.658 76.999 112.713C76.0957 112.768 75.165 112.74 74.2617 112.631C73.5501 112.548 72.7836 112.466 72.0719 112.603C72.4552 112.11 72.7015 111.397 72.8931 110.793C73.1395 109.998 73.4132 109.23 73.5501 108.407C73.7143 108.407 73.9059 108.462 74.0701 108.517C74.9734 108.709 75.8494 108.901 76.8074 108.846C77.5465 108.819 78.2855 108.682 79.0246 108.627C79.5994 108.599 80.0921 108.38 80.5574 108.078C80.8038 107.941 81.0502 107.804 81.2965 107.667Z" fill="#FDC29F"/>
<path d="M67.0629 32.2233C67.8293 32.2507 68.5684 32.3056 69.28 32.3878C71.7436 32.6346 73.468 36.9128 74.6177 38.8325C76.4243 41.8491 77.7655 45.1126 78.7783 48.4858C80.8039 55.2595 81.4882 62.3349 82.4189 69.3281C83.5138 77.5279 83.5685 87.1812 81.6798 95.1342C80.9681 98.2057 77.136 107.859 76.8896 110.409C76.5338 114.468 69.6359 117.238 66.4059 118.746C63.8603 119.898 54.8821 122.832 50.5024 120.364C46.1228 117.869 35.9402 101.03 35.9402 101.03C35.9402 101.03 45.5754 93.379 52.5554 74.4838C55.2379 67.2439 57.2361 59.8119 58.9606 52.2977C59.8091 48.6229 60.5756 44.9481 61.342 41.2458C61.4241 40.7796 63.3402 32.2507 63.0938 32.2507C64.4077 32.1684 65.749 32.1684 67.0629 32.2233Z" fill="#BF9C83"/>
<path d="M44.3162 92.4741C45.9311 90.1156 48.1209 81.3673 45.2742 78.1587C42.4274 74.9501 40.6756 75.6083 39.307 74.429C37.5277 72.9207 35.858 72.0706 33.6682 71.2753C32.7102 70.9462 31.6974 70.6445 30.7393 70.48C25.1006 69.6298 20.502 72.3448 16.8341 76.431C15.2191 78.2136 14.6169 80.2429 14.1516 82.5191C13.6315 85.0147 13.1114 87.1812 13.741 89.7865C14.4253 92.6112 16.3414 94.1744 18.0932 96.3409C20.0914 98.809 22.1717 99.906 25.2648 100.784C27.1809 101.332 29.5623 101.305 31.5332 101.058C36.8982 100.4 41.3052 96.8619 44.3162 92.4741Z" fill="#FFC7A6"/>
<path d="M26.9073 91.1303C26.5514 93.4339 28.1117 95.573 30.411 95.9295C32.7103 96.286 34.8453 94.7228 35.2012 92.4192C35.557 90.1156 33.9968 87.9765 31.6975 87.62C29.4255 87.2635 27.2631 88.8266 26.9073 91.1303Z" fill="#FF939C"/>
<path d="M38.6228 79.5847C38.2943 81.669 39.7177 83.6161 41.798 83.9452C43.8783 84.2743 45.8218 82.8482 46.1503 80.764C46.4787 78.6797 45.0554 76.7326 42.975 76.4035C40.8947 76.0745 38.9513 77.5005 38.6228 79.5847Z" fill="#FF939C"/>
<path d="M36.7614 76.1567C37.3362 74.7032 38.3216 74.237 39.2249 74.3193C40.1282 74.3741 40.8946 74.9226 40.3198 74.8952C39.2249 74.8677 38.0479 75.3065 37.6099 76.4035C37.391 76.8971 36.5424 76.6777 36.7614 76.1567Z" fill="#231F20"/>
<path d="M26.7156 86.3036C27.4546 84.7404 27.9747 84.8775 29.0422 84.3839C29.5623 84.1645 29.7813 85.0146 29.2612 85.234C27.3451 86.0019 27.2083 88.1136 26.5787 89.8139C26.3871 90.3623 25.9765 87.8667 26.7156 86.3036Z" fill="#231F20"/>
<path d="M32.7102 91.6787C32.7376 91.2948 32.765 90.9383 32.7376 90.5543C32.7102 90.2801 33.1482 90.2252 33.1756 90.5269L33.2303 91.1851C35.9949 90.5543 39.5534 89.8961 40.9494 87.0715C41.0863 86.8246 41.4695 87.0166 41.3326 87.2634C39.8819 90.2252 36.2139 90.9383 33.3124 91.5964C33.285 91.5964 33.2851 91.5964 33.2577 91.5964L33.285 91.761C33.3124 91.9804 33.0387 92.0627 32.9018 91.9255C32.8197 91.9255 32.7102 91.8433 32.7102 91.6787Z" fill="#C65043"/>
<path d="M37.8563 82.4094C37.8563 82.4094 36.6793 81.3947 35.7486 82.3271C34.7906 83.2869 35.0917 84.6581 35.0917 84.6581C35.0917 84.6581 35.9402 82.6287 37.8563 82.4094Z" fill="#231F20"/>
<path d="M67.3091 67.7649C67.3091 69.2732 67.9387 70.5073 68.7325 70.5073C69.5263 70.5073 70.1559 69.2732 70.1559 67.7649C70.1559 66.2565 69.5263 65.0225 68.7325 65.0225C67.9661 65.0225 67.3091 66.2291 67.3091 67.7649Z" fill="white"/>
<path d="M69.3349 94.3663C69.3349 95.9843 70.2655 97.3006 71.4152 97.3006C72.5648 97.3006 73.4955 95.9843 73.4955 94.3663C73.4955 92.7482 72.5648 91.4319 71.4152 91.4319C70.2655 91.4319 69.3349 92.7482 69.3349 94.3663Z" fill="white"/>
<path d="M51.9804 102.593C51.9804 104.102 53.0754 105.336 54.4166 105.336C55.7579 105.336 56.8528 104.102 56.8528 102.593C56.8528 101.085 55.7579 99.8511 54.4166 99.8511C53.0754 99.8511 51.9804 101.085 51.9804 102.593Z" fill="white"/>
<path d="M58.4678 81.4221C58.0573 82.8755 58.4952 84.2742 59.4533 84.5484C60.4113 84.8226 61.5062 83.8628 61.9168 82.4093C62.3274 80.9559 61.8894 79.5572 60.9314 79.283C59.9733 79.0087 58.8784 79.9686 58.4678 81.4221Z" fill="white"/>
<path d="M60.3292 53.6963C60.1649 55.2046 60.685 56.4936 61.4788 56.5759C62.3 56.6581 63.0938 55.5337 63.258 54.0254C63.4223 52.5171 62.9022 51.2281 62.1084 51.1459C61.2872 51.0636 60.4934 52.2154 60.3292 53.6963Z" fill="white"/>
<path d="M75.3567 78.7346C75.4936 80.2429 76.4243 81.3673 77.4097 81.285C78.3951 81.1753 79.0794 79.8864 78.9425 78.378C78.8057 76.8697 77.875 75.7453 76.8896 75.8276C75.8768 75.9373 75.1925 77.2262 75.3567 78.7346Z" fill="white"/>
<path d="M74.2345 47.4163C74.344 48.9246 75.3021 50.0764 76.3422 49.9941C77.3824 49.9119 78.1214 48.6229 78.012 47.1146C77.9025 45.6063 76.9444 44.4545 75.9043 44.5367C74.8641 44.619 74.0977 45.9079 74.2345 47.4163Z" fill="white"/>
<path d="M64.873 27.2595C64.9551 28.137 65.4752 28.7952 66.0773 28.7404C66.6795 28.6855 67.1175 27.9451 67.0354 27.0949C66.9533 26.2174 66.4332 25.5592 65.831 25.614C65.2288 25.6689 64.7908 26.4093 64.873 27.2595Z" fill="white"/>
<path d="M56.0043 19.8277C56.5791 21.0618 57.7288 21.7474 58.5773 21.3634C59.4259 20.9795 59.6722 19.6631 59.0974 18.4016C58.5226 17.1675 57.3729 16.4819 56.5244 16.8659C55.6758 17.2772 55.4568 18.5936 56.0043 19.8277Z" fill="white"/>
<path d="M76.1231 19.2517C77.437 18.8952 78.3129 17.9902 78.1213 17.2497C77.9023 16.5093 76.6979 16.2076 75.3841 16.5916C74.0702 16.9481 73.1942 17.8531 73.3859 18.5935C73.5775 19.334 74.8092 19.6356 76.1231 19.2517Z" fill="white"/>
<path d="M39.6082 104.65C40.5388 105.912 42.0717 106.323 43.0297 105.61C43.9878 104.897 44.0151 103.307 43.0571 102.045C42.1264 100.784 40.5936 100.372 39.6355 101.085C38.7049 101.798 38.6775 103.389 39.6082 104.65Z" fill="white"/>
<path d="M66.3511 117.732C67.7745 117.54 68.7873 116.415 68.623 115.209C68.4588 114.029 67.1723 113.234 65.7489 113.426C64.3256 113.618 63.3128 114.742 63.477 115.949C63.6412 117.128 64.9278 117.924 66.3511 117.732Z" fill="white"/>
<path d="M46.1776 115.977C46.6155 115.51 47.1903 115.236 47.8473 115.236C49.1885 115.236 50.2834 116.47 50.2834 117.978C50.2834 118.664 50.0645 119.267 49.6813 119.761C48.6958 118.911 47.4641 117.567 46.1776 115.977Z" fill="white"/>
<path d="M22.2539 72.9755C21.2685 73.524 19.5988 73.8256 19.1608 75.0323C18.9692 75.5808 19.1608 76.4035 19.5167 76.8423C19.6262 76.9794 20.8306 77.6376 20.8032 77.5004C20.42 75.7727 21.8981 76.3761 22.9382 76.2664C24.4164 76.1018 25.6208 75.0597 25.7576 73.5514C25.8945 72.1253 25.6208 70.9187 24.3616 70.0959C23.8142 69.7394 22.7193 69.2458 22.2539 69.904C24.0879 70.1234 23.431 72.3173 22.2539 72.9755Z" fill="#231F20"/>
<path d="M40.2924 52.2429C41.4421 50.3232 42.8928 52.4897 43.6866 54.2997C43.7687 53.5592 44.0151 52.9011 44.6446 52.6817C45.0826 52.5171 45.6301 52.6542 46.0133 53.0382C47.9567 54.9304 45.11 58.523 44.2614 59.8393C44.2067 59.9216 43.9877 59.8942 43.8508 59.8119C44.0151 59.9765 44.1519 60.1136 44.3162 60.2781C44.453 60.4153 43.933 60.4153 43.8235 60.3056C42.7286 59.2086 41.5789 58.0568 40.8125 56.5485C40.2103 55.3418 39.6081 53.4221 40.2924 52.2429Z" fill="#FF939C"/>
<path opacity="0.3" d="M124.6 6.03326C123.239 6.03326 122.137 4.92822 122.137 3.56509C122.137 2.20196 123.239 1.09692 124.6 1.09692C125.961 1.09692 127.064 2.20196 127.064 3.56509C127.064 4.92822 125.961 6.03326 124.6 6.03326Z" fill="#C4E3FF"/>
<path opacity="0.3" d="M132.839 39.5181C132.839 43.1655 135.795 46.0998 139.409 46.0998C143.049 46.0998 145.978 43.138 145.978 39.5181C145.978 35.8707 143.022 32.9363 139.409 32.9363C135.768 32.9363 132.839 35.8707 132.839 39.5181Z" fill="#C4E3FF"/>
<path opacity="0.3" d="M38.8965 1.91969C38.8965 2.98923 39.745 3.83937 40.8126 3.83937C41.8801 3.83937 42.7286 2.98923 42.7286 1.91969C42.7286 0.850147 41.8801 0 40.8126 0C39.745 0 38.8965 0.850147 38.8965 1.91969Z" fill="#C4E3FF"/>
</g>
<defs>
<clipPath id="clip0">
<rect width="152" height="140" fill="white" transform="matrix(-1 0 0 1 152 0)"/>
</clipPath>
</defs>
</svg>
