<svg width="130" height="121" viewBox="0 0 130 121" fill="none" xmlns="http://www.w3.org/2000/svg">
<g clip-path="url(#clip0)">
<path d="M92.443 0.818698C91.1911 2.43625e-05 90.8616 -0.196457 89.2144 0.196506C88.0284 0.458482 86.9412 1.47364 86.5129 2.61978C85.5575 5.1413 86.9742 7.2371 89.0167 8.18676C87.0071 7.49908 84.5692 7.49908 83.7126 9.88961C82.7902 12.3784 84.0421 13.8192 85.6564 15.4238C83.4491 14.8016 81.3736 14.9326 79.8251 17.2577C77.6178 20.5979 80.5829 22.3662 82.6913 24.2983C80.3523 24.2655 78.3426 22.6609 76.6954 25.1824C75.2788 27.3765 78.145 29.2103 79.6604 30.3565C77.2555 30.0945 74.9823 29.5378 73.6974 32.7142C72.3796 35.9234 75.2129 37.4625 77.5849 38.8707C75.9377 38.9689 72.775 37.6918 71.5231 39.2964C69.8099 41.4904 73.4668 44.1757 74.4881 45.682C73.1703 45.7148 71.9513 45.1908 70.6665 45.8785C69.4146 46.5335 68.6239 48.1381 69.184 49.5462C69.5793 50.5613 71.1607 52.8536 72.3137 52.6571C73.0385 52.5261 74.554 50.8233 74.3893 50.0374L92.443 0.818698Z" fill="#885E42"/>
<path d="M129.275 54.622C129.275 54.622 128.353 90.6764 98.8673 94.7371C69.3817 98.7977 40.9504 93.4599 35.9428 85.3714C30.9352 77.2829 24.3462 52.2315 24.3462 52.9847C24.3133 53.7379 115.043 52.8537 129.275 54.622Z" fill="#FF939C"/>
<path d="M115.043 65.232C115.241 64.9046 115.438 64.7408 115.735 64.5116C116.097 64.2496 116.624 64.2496 117.053 64.3151C117.481 64.3806 117.909 64.7736 118.074 65.1338C118.272 65.5268 118.338 65.887 118.37 66.3127C118.37 66.4764 118.338 66.6402 118.305 66.7712C118.305 66.9021 118.272 67.0659 118.239 67.1969C118.074 67.8191 117.448 68.2775 116.789 68.2775C116.394 68.2775 115.998 68.1793 115.669 67.9828C115.241 67.7536 114.977 67.3606 114.812 66.9021C114.615 66.4109 114.78 65.7233 115.043 65.232Z" fill="white"/>
<path d="M70.6006 53.5086L92.2783 0.458496C92.2783 0.458496 101.371 12.3456 111.222 10.4791C111.222 10.4791 113.099 24.462 125.091 26.2958C125.091 26.2958 118.832 45.5511 129.242 53.967C129.275 54.0325 71.1277 56.3903 70.6006 53.5086Z" fill="#BF9C83"/>
<path d="M3.72275 28.6863C8.20323 26.1976 14.1333 29.7997 17.0654 33.1072C19.3056 35.6287 20.4587 39.1653 21.5788 42.2763C22.1718 43.9137 22.633 45.5183 23.0283 47.1884C23.4237 48.8912 23.7531 50.8888 24.9391 52.2314C25.7957 53.181 24.3791 54.5892 23.5225 53.6395C22.1718 52.1331 21.6776 50.1356 21.2164 48.2363C20.5575 45.4528 19.7009 42.8003 18.6467 40.1478C16.7359 35.334 13.7709 31.3061 8.43384 30.0617C6.42421 29.6032 4.6452 30.1599 3.36035 31.5026C3.3933 31.7645 3.3274 32.0265 3.12974 32.2557C2.00961 33.5984 5.27114 34.7445 6.09476 35.6287C7.34666 36.9713 6.72071 38.9689 5.07347 39.5583C2.76734 40.4097 0.46122 37.528 0.0988274 35.6614C-0.461233 32.8779 1.31778 29.9962 3.72275 28.6863ZM3.29446 37.1678C4.11808 37.7245 5.27114 37.528 4.2828 36.6438C3.62391 36.0544 2.76735 35.6614 2.00962 35.1375C2.17434 35.9234 2.56968 36.6766 3.29446 37.1678Z" fill="#885E42"/>
<path d="M68.7557 54.6219C66.9767 54.7529 70.1394 52.4279 70.3041 52.2314C73.2033 48.9567 76.8272 46.4025 79.8251 43.226C83.1855 39.6238 86.6447 36.2509 90.2686 32.9107C93.8267 29.6688 96.9564 26.1321 100.119 22.5299C103.677 18.4693 107.301 14.5069 110.76 10.3808C111.09 9.98784 111.65 10.5445 111.32 10.9375C108.026 14.8671 104.6 18.6658 101.206 22.4972C97.8459 26.2958 94.5844 30.029 90.8287 33.4674C87.3695 36.6439 84.0091 39.8203 80.8464 43.2915C77.8485 46.5662 74.1587 49.186 71.1936 52.4606C75.9377 50.856 80.484 48.7275 84.9975 46.5335C89.6097 44.3067 94.2879 42.2763 98.999 40.246C103.842 38.1502 108.52 35.7597 113.165 33.2382C115.471 31.9611 117.909 30.7822 120.084 29.2758C120.347 29.1448 123.444 26.9508 124.432 26.5251C124.63 26.2958 124.828 26.0993 125.124 26.0993C125.355 26.0993 125.52 26.2958 125.52 26.4923V26.5905C125.52 26.787 125.388 26.918 125.223 26.9835C125.157 27.0163 125.124 27.0163 125.058 27.049C124.992 27.18 124.861 27.311 124.696 27.3765C124.531 27.5075 124.334 27.5075 124.202 27.4092C122.653 28.1624 121.401 29.3413 119.985 30.3237C117.778 31.8301 115.241 33.0417 112.869 34.3188C108.224 36.8404 103.545 39.1654 98.7025 41.2612C89.3462 45.2891 80.2864 50.3648 70.5677 53.5085C70.1394 53.6395 68.3604 54.8184 68.7557 54.6219Z" fill="white"/>
<path d="M130 54.0981C129.506 56.1284 128.814 58.2897 125.783 57.7658C124.301 57.5038 121.5 55.8337 121.698 54.3601C121.83 55.7682 120.512 57.9623 118.7 58.2242C117.415 58.388 115.702 57.602 114.78 56.9471C113.857 56.2922 113.462 55.1133 112.539 54.5238C112.506 56.0302 111.584 58.6499 109.607 58.9119C107.103 59.2394 104.633 56.5541 103.611 54.9823C103.117 55.9319 102.293 58.5517 100.91 58.8464C99.1637 59.2394 96.4952 55.9647 95.7704 54.9168C95.2433 56.2594 94.6832 57.7985 92.6406 57.9623C90.3675 58.1587 87.6989 56.5541 87.1059 54.753C87.5672 55.7682 85.0634 58.4535 83.8773 58.7154C81.6042 59.2066 79.6604 56.8161 78.6721 55.5062C77.7826 56.6851 76.2671 58.0277 74.554 58.1587C73.1044 58.2897 70.3041 56.5214 70.2712 55.2115C69.8429 56.1939 68.9534 57.602 67.3391 57.7658C65.5271 57.9295 63.1221 56.5869 62.7598 55.0478C63.221 59.3049 55.7755 58.388 55.1495 55.2443C55.2484 56.7834 53.4035 58.1915 51.6903 58.1915C49.8784 58.1915 46.8804 56.8816 46.7486 55.146C47.0451 56.9143 44.9696 58.257 43.0917 58.3552C40.7197 58.519 38.8748 57.0126 38.2489 55.2115C38.5783 57.1436 36.8981 58.7809 34.6249 58.8792C32.5824 58.9774 30.408 56.9798 30.1444 55.277C30.1774 56.2267 30.3092 57.0781 29.3538 57.733C28.4313 58.3552 27.1465 58.2897 26.0922 57.8968C25.1698 57.5693 24.478 56.7179 24.2144 55.8992C24.0167 55.3425 23.852 53.4759 24.4121 53.0175L130 54.0981Z" fill="#885E42"/>
<path d="M99.1637 76.2678C99.7237 75.7111 100.58 75.6783 101.239 76.0058C101.272 76.0058 101.305 76.0385 101.338 76.0713C101.569 76.1368 101.799 76.3005 101.964 76.4642C102.162 76.628 102.293 76.8572 102.392 77.0864C102.392 77.1192 102.425 77.1519 102.425 77.1847C102.886 77.9051 102.59 78.8875 101.865 79.3132C101.7 79.4115 101.503 79.477 101.305 79.5097C101.272 79.5425 101.239 79.5752 101.173 79.608C100.745 79.9027 100.053 79.9027 99.592 79.7389C99.3284 79.6734 99.0978 79.5425 98.9001 79.346C98.6036 79.0513 98.4389 78.6583 98.4389 78.2326C98.4389 77.5449 98.6695 76.759 99.1637 76.2678Z" fill="white"/>
<path d="M79.1992 63.9549C79.364 63.6602 79.6605 63.3982 79.957 63.2018C80.5829 62.8088 81.5054 62.8415 82.1313 63.2672C82.4278 63.4637 82.6584 63.693 82.7573 64.0532C82.8561 64.3807 82.7902 64.7736 82.6255 65.0683C82.5596 65.1993 82.4278 65.2976 82.329 65.3958C82.2631 65.756 82.0654 66.0508 81.8348 66.3127C81.4724 66.7384 80.7806 66.9349 80.2535 66.7384C79.957 66.6402 79.6934 66.5092 79.4957 66.2472C79.1334 65.887 79.0016 65.4613 78.9357 64.9701C78.9027 64.6426 79.0345 64.2497 79.1992 63.9549Z" fill="white"/>
<path d="M67.7015 82.1949C67.8332 81.7037 68.2286 81.1798 68.7227 80.9506C69.0522 80.8196 69.3487 80.6886 69.7111 80.7213C70.1064 80.7541 70.4688 80.8523 70.7983 81.0488C71.4572 81.409 71.6548 82.2604 71.2924 82.9154C71.2265 83.0464 71.1277 83.1446 70.9959 83.2428C70.9959 83.3083 70.963 83.3738 70.963 83.4066C70.8642 83.865 70.4359 84.2252 70.0076 84.3562C69.3487 84.5527 68.6239 84.4217 68.1297 83.9633C67.6685 83.5048 67.5367 82.7844 67.7015 82.1949Z" fill="white"/>
<path d="M51.5256 65.494C51.855 64.9701 52.448 64.6099 53.074 64.6426C53.7988 64.6754 54.3588 65.1011 54.7542 65.6905C55.1166 66.2472 54.9518 67.0004 54.4577 67.4261C54.2271 67.8518 53.7329 68.1465 53.2387 68.1465C52.8434 68.1465 52.5469 68.0483 52.1845 67.8846C51.888 67.7536 51.6903 67.4916 51.4926 67.2296C51.1632 66.7712 51.2291 66.018 51.5256 65.494Z" fill="white"/>
<path d="M40.3573 80.1647C40.4561 79.7062 40.7856 79.346 41.1809 79.084C41.3456 78.9858 41.5433 78.8875 41.741 78.8548C42.1363 78.7893 42.334 78.7893 42.7293 78.8548C43.0258 78.8875 43.3553 79.1823 43.4871 79.4442C43.6518 79.739 43.7177 80.0992 43.6188 80.4266C43.6188 80.4594 43.5859 80.5249 43.553 80.5576C43.5859 80.7541 43.5859 80.9506 43.52 81.1143C43.4871 81.2126 43.4541 81.3436 43.3882 81.4418C43.1906 81.9002 42.6964 82.1622 42.2022 82.195C41.6751 82.2277 41.1809 82.064 40.7856 81.7038C40.3573 81.3436 40.2585 80.7214 40.3573 80.1647Z" fill="white"/>
<path d="M30.2104 61.8919C30.3093 61.3352 30.7705 60.7785 31.3305 60.6803C31.4294 60.6475 31.5941 60.6148 31.7259 60.6475C32.0883 60.6803 32.1212 60.713 32.4177 60.844C32.6154 60.9423 32.8131 61.0732 32.9448 61.237C33.439 61.6954 33.4061 62.4814 32.9448 62.9398C32.7142 63.1691 32.4177 63.2673 32.1212 63.3C31.7588 63.4965 31.3964 63.4638 31.0011 63.3983C30.7046 63.3655 30.4081 63.1036 30.2763 62.8416C30.1445 62.5141 30.1445 62.2194 30.2104 61.8919Z" fill="white"/>
<path d="M93.8596 121C99.6579 121 105.16 118.282 108.487 113.73C111.716 109.342 112.506 103.644 110.661 98.4702C108.487 92.4447 102.985 87.8929 96.6929 86.9105C95.7045 86.7468 94.7162 86.6813 93.7608 86.6813C85.6564 86.6813 79.0674 91.9863 77.3543 99.911C77.0907 101.188 76.959 102.465 76.959 103.742C76.959 108.491 78.7709 113.043 81.9995 116.219C85.1293 119.363 89.2144 121 93.8596 121ZM93.7608 89.301C94.5844 89.301 95.441 89.3665 96.2646 89.4975C101.635 90.3489 106.313 94.2131 108.158 99.3543C109.739 103.71 109.047 108.491 106.346 112.158C103.479 116.023 98.8013 118.348 93.8267 118.348C89.9062 118.348 86.4471 116.972 83.8115 114.352C81.0771 111.634 79.5287 107.77 79.5287 103.71C79.5287 102.629 79.6604 101.516 79.891 100.402C81.3736 93.7874 86.9412 89.301 93.7608 89.301Z" fill="#885E42"/>
<path d="M94.0903 112.289C96.9565 112.289 99.6579 110.947 101.305 108.72C102.887 106.559 103.282 103.775 102.359 101.221C101.272 98.2409 98.5707 96.0141 95.4739 95.5229C94.9798 95.4574 94.5185 95.4247 94.0244 95.4247C90.0381 95.4247 86.7765 98.0444 85.9529 101.941C85.8211 102.564 85.7552 103.186 85.7552 103.841C85.7552 106.166 86.6448 108.425 88.2261 109.997C89.7745 111.471 91.8171 112.289 94.0903 112.289ZM94.0573 96.7018C94.4527 96.7018 94.8809 96.7346 95.2763 96.8001C97.9119 97.2258 100.218 99.1251 101.107 101.647C101.865 103.775 101.536 106.133 100.218 107.934C98.8014 109.833 96.5282 110.979 94.0573 110.979C92.1136 110.979 90.4334 110.292 89.1486 109.015C87.7978 107.672 87.0401 105.773 87.0401 103.808C87.0401 103.251 87.106 102.727 87.2048 102.203C87.9625 98.8959 90.697 96.7018 94.0573 96.7018Z" fill="#885E42"/>
<path d="M91.817 106.984C93.4972 108.294 96.001 108.294 97.5165 106.362C98.373 105.281 98.6366 103.873 98.2742 102.596C97.9118 101.352 96.9564 100.402 95.7045 100.009C94.2879 99.5508 92.6077 99.8783 91.4876 100.926C89.8404 102.465 89.7745 104.758 91.1252 106.362C91.3558 106.591 91.5864 106.788 91.817 106.984Z" fill="#885E42"/>
<path d="M83.0845 92.088L105.996 115.115L105.528 115.576L82.6161 92.5486L83.0845 92.088Z" fill="#885E42"/>
<path d="M105.547 92.081L106.016 92.5415L83.107 115.572L82.6384 115.111L105.547 92.081Z" fill="#885E42"/>
<path d="M80.2344 95.6731L108.705 111.42L108.384 111.992L79.914 96.2454L80.2344 95.6731Z" fill="#885E42"/>
<path d="M101.794 89.4271L102.374 89.7388L86.8645 118.22L86.285 117.908L101.794 89.4271Z" fill="#885E42"/>
<path d="M92.6757 87.7123L96.6182 119.859L95.9641 119.939L92.0217 87.7915L92.6757 87.7123Z" fill="#885E42"/>
<path d="M78.2108 106.297L110.497 102.04L110.431 101.385L78.112 105.642L78.2108 106.297Z" fill="#885E42"/>
<path d="M87.7656 88.9958L101.447 118.39L100.849 118.665L87.1676 89.2708L87.7656 88.9958Z" fill="#885E42"/>
<path d="M108.898 96.5805L109.181 97.1719L79.7626 111.095L79.4793 110.504L108.898 96.5805Z" fill="#885E42"/>
<path d="M97.6492 87.9733L98.2914 88.1202L90.9864 119.684L90.3443 119.537L97.6492 87.9733Z" fill="#885E42"/>
<path d="M78.4561 100.073L110.292 106.969L110.152 107.609L78.3159 100.713L78.4561 100.073Z" fill="#885E42"/>
<path d="M53.074 119.887C58.8723 119.887 64.374 117.169 67.7014 112.617C70.93 108.229 71.7207 102.531 69.8758 97.3568C67.7015 91.3314 62.1997 86.7796 55.9072 85.7972C54.9189 85.6334 53.9305 85.5679 52.9751 85.5679C44.8707 85.5679 38.2818 90.8729 36.5686 98.7977C36.3051 100.075 36.1733 101.352 36.1733 102.629C36.1733 107.377 37.9853 111.929 41.2139 115.106C44.3107 118.217 48.4288 119.887 53.074 119.887ZM52.9751 88.1877C53.7988 88.1877 54.6553 88.2532 55.4789 88.3842C60.8489 89.2356 65.5271 93.0997 67.372 98.241C68.9534 102.596 68.2615 107.377 65.56 111.045C62.6938 114.942 58.0157 117.234 53.041 117.234C49.1206 117.234 45.6614 115.859 43.0258 113.239C40.2914 110.521 38.743 106.657 38.743 102.596C38.743 101.483 38.8748 100.402 39.1054 99.2889C40.5879 92.674 46.1226 88.1877 52.9751 88.1877Z" fill="#885E42"/>
<path d="M53.3046 111.176C56.1708 111.176 58.8723 109.833 60.5195 107.607C62.1009 105.445 62.4962 102.662 61.5738 100.108C60.4866 97.1276 57.7851 94.9008 54.6883 94.4096C54.1941 94.3441 53.7329 94.3113 53.2387 94.3113C49.2524 94.3113 45.9909 96.9311 45.1673 100.828C45.0355 101.45 44.9696 102.105 44.9696 102.727C44.9696 105.052 45.8591 107.312 47.4404 108.884C48.9888 110.357 50.9985 111.176 53.3046 111.176ZM53.2387 95.5885C53.6341 95.5885 54.0623 95.6212 54.4577 95.6867C57.0933 96.1124 59.3994 98.0117 60.2889 100.533C61.0466 102.662 60.7172 105.02 59.3994 106.821C57.9828 108.72 55.7096 109.866 53.2387 109.866C51.295 109.866 49.6148 109.178 48.33 107.901C46.9792 106.559 46.2215 104.659 46.2215 102.695C46.2215 102.171 46.2874 101.614 46.3862 101.09C47.1769 97.7825 49.8784 95.5885 53.2387 95.5885Z" fill="#885E42"/>
<path d="M51.0314 105.871C52.7116 107.181 55.2154 107.181 56.7308 105.249C57.5874 104.168 57.851 102.76 57.4886 101.483C57.1262 100.239 56.1708 99.2889 54.9189 98.896C53.5023 98.4375 51.8221 98.765 50.7019 99.8129C49.0547 101.352 48.9888 103.644 50.3395 105.249C50.5702 105.445 50.7678 105.675 51.0314 105.871Z" fill="#885E42"/>
<path d="M42.2884 90.986L65.2003 114.013L64.7318 114.474L41.8199 91.4466L42.2884 90.986Z" fill="#885E42"/>
<path d="M64.737 90.956L65.2056 91.4164L42.3002 114.447L41.8316 113.986L64.737 90.956Z" fill="#885E42"/>
<path d="M39.4432 94.5666L67.9137 110.313L67.5933 110.885L39.1229 95.1389L39.4432 94.5666Z" fill="#885E42"/>
<path d="M60.9759 88.3057L61.5553 88.6175L46.0461 117.098L45.4667 116.787L60.9759 88.3057Z" fill="#885E42"/>
<path d="M51.8634 86.6093L55.8091 118.756L55.1551 118.836L51.2093 86.6886L51.8634 86.6093Z" fill="#885E42"/>
<path d="M37.4252 105.183L69.7111 100.894L69.6122 100.271L37.3264 104.528L37.4252 105.183Z" fill="#885E42"/>
<path d="M46.9674 87.8799L60.6357 117.281L60.0376 117.555L46.3693 88.1547L46.9674 87.8799Z" fill="#885E42"/>
<path d="M68.08 95.4426L68.3633 96.0339L38.9447 109.957L38.6614 109.366L68.08 95.4426Z" fill="#885E42"/>
<path d="M56.8268 86.8538L57.469 87.0007L50.164 118.565L49.5219 118.418L56.8268 86.8538Z" fill="#885E42"/>
<path d="M37.6667 98.9632L69.5029 105.858L69.3627 106.498L37.5264 99.6031L37.6667 98.9632Z" fill="#885E42"/>
<path d="M75.9047 106.428C86.6447 106.428 92.8713 103.71 93.2666 103.546L92.7395 102.367C92.6077 102.433 77.9473 108.785 54.6224 101.843L54.26 103.088C62.6939 105.609 69.9747 106.428 75.9047 106.428Z" fill="#885E42"/>
</g>
<defs>
<clipPath id="clip0">
<rect width="130" height="121" fill="white" transform="matrix(-1 0 0 1 130 0)"/>
</clipPath>
</defs>
</svg>
