<svg width="280" height="258" viewBox="0 0 280 258" fill="none" xmlns="http://www.w3.org/2000/svg">
<g clip-path="url(#clip0)">
<path opacity="0.5" d="M214.651 254.563C214.651 254.563 226.098 259.87 232.602 254.26C239.107 248.701 232.451 241.524 226.602 242.687C226.602 242.687 229.022 230.659 217.021 227.677C205.021 224.645 199.373 233.236 200.23 240.716C200.23 240.716 196.297 237.582 192.364 239.857C188.431 242.131 189.642 245.315 189.642 245.315C189.642 245.315 182.28 244.456 182.431 249.914C182.582 255.372 191.507 252.036 191.507 252.036C191.507 252.036 192.869 256.332 202.298 257.747C211.727 259.162 214.651 254.563 214.651 254.563Z" fill="#C4E3FF"/>
<path opacity="0.5" d="M42.9605 70.6025C42.9605 70.6025 58.2892 77.6779 66.9619 70.1982C75.6347 62.7185 66.7098 53.1667 58.9447 54.7334C58.9447 54.7334 62.1213 38.6621 46.1372 34.6695C30.153 30.6769 22.5895 42.1492 23.7493 52.0548C23.7493 52.0548 18.5053 47.8601 13.2108 50.8924C7.96682 53.9753 9.52992 58.17 9.52992 58.17C9.52992 58.17 -0.302605 57.0076 -0.0504837 64.2852C0.20163 71.5627 12.0511 67.1659 12.0511 67.1659C12.0511 67.1659 13.8663 72.9273 26.4721 74.7972C39.0779 76.7177 42.9605 70.6025 42.9605 70.6025Z" fill="#C4E3FF"/>
<path d="M167.153 47.3042C172.447 38.7127 182.986 33.1534 193.726 34.8717C202.348 36.2363 206.836 43.9181 216.366 39.0159C214.853 41.9471 212.735 44.373 210.416 46.4451C214.147 47.1021 217.576 48.315 221.408 48.1634C219.24 50.7914 215.004 51.5495 211.021 51.4484C215.105 63.2745 214.551 78.6382 213.693 88.1395C212.584 100.269 213.29 110.377 218.585 121.495C221.055 126.65 224.383 131.198 228.064 135.545C235.577 144.288 245.863 150.15 256.805 153.385C264.419 155.609 272.084 158.085 280 158.944V224.948C271.075 222.522 263.259 218.63 255.293 213.273C234.216 199.173 216.668 171.781 207.239 148.685C204.516 141.963 204.516 134.585 202.5 127.711C201.642 124.78 198.97 112.903 198.718 109.871C197.961 101.28 194.281 90.818 187.978 84.7534C180.162 77.2737 169.523 79.3458 165.086 67.267C162.413 60.0905 163.623 53.0151 167.153 47.3042Z" fill="#E4E4E4"/>
<path d="M179.154 56.1991C179.154 58.069 180.666 59.6357 182.582 59.6357C184.448 59.6357 186.011 58.1195 186.011 56.1991C186.011 54.3291 184.498 52.7625 182.582 52.7625C180.666 52.813 179.154 54.3291 179.154 56.1991Z" fill="#231F20"/>
<path d="M122.73 47.9107L129.285 60.7475L115.822 58.5743L118.091 47.001L122.73 47.9107Z" fill="#BF9C83"/>
<path d="M116.377 46.5966C116.377 48.8708 118.646 50.6902 121.419 50.6902C124.192 50.6902 126.461 48.8708 126.461 46.5966C126.461 44.3223 124.192 42.5029 121.419 42.5029C118.595 42.5029 116.377 44.3223 116.377 46.5966Z" fill="#BF9C83"/>
<path d="M118.948 44.2215C118.948 44.2215 104.376 23.349 96.0058 20.1145C96.0058 20.1145 94.4931 34.3159 97.7201 38.8138C100.947 43.3118 106.948 49.3764 118.091 47.0011L118.948 44.2215Z" fill="#BF9C83"/>
<path d="M124.495 44.9288C124.495 44.9288 127.722 43.8675 126.865 38.4599C126.008 33.1028 133.924 29.6662 143.151 26.4317C146.631 25.2187 148.496 24.208 149.454 23.3994C151.068 22.0348 150.312 22.1864 150.211 23.652C150.009 28.3521 148.597 38.561 140.58 40.8352C130.041 43.8675 124.495 47.7085 124.495 47.7085V44.9288Z" fill="#BF9C83"/>
<path d="M163.472 50.0332C163.472 50.0332 169.472 53.672 169.674 61.0001C169.876 68.3282 165.388 70.9057 165.388 70.9057C165.388 70.9057 97.3672 61.0001 96.2579 58.8775C95.2495 56.7043 163.472 50.0332 163.472 50.0332Z" fill="#FF939C"/>
<path d="M147.79 197.05C147.74 197.05 147.74 197.05 147.69 197.05C146.782 197.303 145.975 197.606 145.168 198.01C143.353 198.971 141.74 200.234 139.975 201.194C139.924 200.942 139.924 200.689 140.025 200.436C140.277 199.324 140.429 198.213 140.681 197.101C141.034 195.484 140.58 193.664 140.983 192.148C142.798 191.39 144.462 190.278 146.429 189.975C148.143 189.722 148.042 188.256 148.042 186.74C148.042 186.285 147.992 185.679 148.143 185.325C148.295 185.022 148.698 184.618 148.748 185.325C148.799 184.921 148.799 183.657 149.303 183.506C149.706 183.405 150.009 183.91 150.059 184.213C150.059 183.304 150.009 182.293 150.765 181.686C151.522 181.08 152.177 181.484 152.278 182.394C152.228 181.788 152.681 180.625 153.438 180.575C153.942 180.524 154.043 180.928 154.043 181.333C154.043 181.585 153.942 181.788 153.942 182.04C153.892 182.343 153.942 182.596 153.942 182.899C153.942 182.899 153.942 182.849 153.992 182.798C154.194 182.546 154.245 182.04 154.446 181.737C154.597 181.434 154.799 181.131 155.102 180.928C155.606 180.575 156.614 180.524 156.867 181.232C157.119 181.939 156.614 183.051 156.261 183.657C156.06 184.011 155.858 184.314 155.707 184.719C155.505 185.376 155.455 186.033 155.203 186.69C154.95 187.397 154.597 188.004 154.396 188.711C154.194 189.368 154.144 190.076 154.144 190.783C154.144 191.238 154.144 191.693 154.194 192.148C154.245 192.957 154.446 193.765 154.345 194.574C154.144 195.938 152.833 196.949 151.471 197.05C150.664 197.101 149.858 196.798 149.051 196.798C148.496 196.899 148.143 196.949 147.79 197.05Z" fill="#FDC29F"/>
<path d="M149.757 198.415C150.009 198.263 150.211 198.162 150.463 198.011C151.32 197.556 152.026 196.949 152.833 196.444C153.186 196.242 153.589 196.09 153.942 195.838C154.295 195.585 154.597 195.181 154.9 194.827C155.354 194.22 155.404 193.462 155.757 192.805C156.06 192.249 156.866 191.188 157.522 191.137C158.934 190.935 158.177 193.26 157.774 193.867C157.875 193.765 159.287 192.755 159.388 193.159C159.488 193.614 159.236 194.321 158.883 194.625C159.186 194.321 159.892 193.867 160.295 194.321C160.749 194.928 159.993 196.141 159.64 196.545C159.892 196.292 160.245 196.09 160.547 196.04C161.001 195.939 161.152 195.939 161.102 196.393C161.052 197.202 160.497 197.96 159.841 198.415C160.245 198.162 161.556 197.96 161.203 198.769C160.749 199.78 159.589 199.931 158.833 200.538C157.925 201.296 156.967 202.155 156.211 203.065C155.505 203.873 154.95 204.682 154.396 205.642C153.891 206.552 153.387 207.36 153.034 208.321C152.732 209.079 151.875 209.584 151.068 209.837C149.202 210.393 147.488 209.281 146.025 208.27C144.664 207.36 143.403 207.613 141.84 207.714C140.176 207.815 138.462 207.765 136.798 207.563C135.487 207.411 134.075 207.259 132.764 207.512C133.47 206.602 133.924 205.288 134.277 204.176C134.731 202.711 135.235 201.296 135.487 199.78C135.79 199.78 136.142 199.881 136.445 199.982C138.109 200.335 139.723 200.689 141.487 200.588C142.849 200.538 144.21 200.285 145.572 200.184C146.631 200.133 147.538 199.729 148.395 199.173C148.849 198.92 149.303 198.668 149.757 198.415Z" fill="#FDC29F"/>
<path d="M123.537 59.3829C124.949 59.4335 126.31 59.5346 127.621 59.6862C132.159 60.141 135.336 68.0251 137.454 71.5628C140.782 77.122 143.252 83.1361 145.118 89.3524C148.849 101.835 150.11 114.874 151.824 127.762C153.841 142.873 153.942 160.662 150.463 175.319C149.152 180.979 142.093 198.769 141.639 203.469C140.983 210.949 128.277 216.053 122.327 218.833C117.637 220.955 101.099 226.363 93.0308 221.814C84.9631 217.215 66.2057 186.185 66.2057 186.185C66.2057 186.185 83.9546 172.084 96.8125 137.263C101.754 123.921 105.435 110.225 108.612 96.3773C110.175 89.6051 111.587 82.8329 112.998 76.0102C113.15 75.151 116.679 59.4335 116.225 59.4335C118.646 59.2819 121.117 59.2819 123.537 59.3829Z" fill="#BF9C83"/>
<path d="M81.6351 170.416C84.61 166.07 88.6439 149.948 83.3999 144.035C78.1559 138.122 74.9288 139.335 72.4076 137.162C69.1301 134.382 66.0543 132.816 62.0205 131.35C60.2556 130.744 58.39 130.188 56.6252 129.884C46.238 128.318 37.7669 133.321 31.0102 140.851C28.0352 144.136 26.9259 147.876 26.0687 152.071C25.1107 156.67 24.1526 160.662 25.3124 165.464C26.5729 170.669 30.1026 173.55 33.3296 177.542C37.0105 182.091 40.8427 184.112 46.5405 185.73C50.0701 186.74 54.457 186.69 58.0874 186.235C67.9704 185.022 76.0885 178.503 81.6351 170.416Z" fill="#FFC7A6"/>
<path d="M49.5659 167.94C48.9104 172.185 51.7845 176.127 56.0201 176.784C60.2556 177.441 64.1886 174.561 64.8441 170.315C65.4996 166.07 62.6255 162.128 58.39 161.471C54.2048 160.814 50.2214 163.695 49.5659 167.94Z" fill="#FF939C"/>
<path d="M71.1471 146.663C70.5421 150.504 73.1641 154.093 76.9962 154.699C80.8284 155.306 84.4084 152.677 85.0135 148.837C85.6186 144.996 82.9966 141.407 79.1644 140.801C75.3323 140.194 71.7522 142.822 71.1471 146.663Z" fill="#FF939C"/>
<path d="M67.7183 140.346C68.7772 137.667 70.5925 136.808 72.2564 136.96C73.9204 137.061 75.3322 138.072 74.2733 138.021C72.2564 137.971 70.0882 138.779 69.2815 140.801C68.8781 141.71 67.3149 141.306 67.7183 140.346Z" fill="#231F20"/>
<path d="M49.213 159.045C50.5744 156.164 51.5324 156.417 53.4989 155.507C54.457 155.103 54.8604 156.67 53.9023 157.074C50.3727 158.489 50.1206 162.381 48.9609 165.514C48.6079 166.525 47.8515 161.926 49.213 159.045Z" fill="#231F20"/>
<path d="M60.2557 168.951C60.3061 168.243 60.3566 167.586 60.3061 166.879C60.2557 166.373 61.0625 166.272 61.1129 166.828L61.2138 168.041C66.3065 166.879 72.8615 165.666 75.4331 160.46C75.6852 160.005 76.3912 160.359 76.1391 160.814C73.4666 166.272 66.7099 167.586 61.365 168.799C61.3146 168.799 61.3146 168.799 61.2642 168.799L61.3146 169.102C61.365 169.507 60.8608 169.658 60.6087 169.406C60.4574 169.406 60.2557 169.254 60.2557 168.951Z" fill="#C65043"/>
<path d="M69.7353 151.869C69.7353 151.869 67.5671 149.999 65.8527 151.717C64.0879 153.486 64.6425 156.013 64.6425 156.013C64.6425 156.013 66.2057 152.273 69.7353 151.869Z" fill="#231F20"/>
<path d="M123.991 124.881C123.991 127.661 125.15 129.935 126.613 129.935C128.075 129.935 129.235 127.661 129.235 124.881C129.235 122.101 128.075 119.827 126.613 119.827C125.201 119.827 123.991 122.051 123.991 124.881Z" fill="white"/>
<path d="M127.722 173.903C127.722 176.885 129.436 179.311 131.554 179.311C133.672 179.311 135.386 176.885 135.386 173.903C135.386 170.922 133.672 168.496 131.554 168.496C129.436 168.496 127.722 170.922 127.722 173.903Z" fill="white"/>
<path d="M95.7536 189.065C95.7536 191.845 97.7706 194.119 100.241 194.119C102.712 194.119 104.729 191.845 104.729 189.065C104.729 186.285 102.712 184.011 100.241 184.011C97.7706 184.011 95.7536 186.285 95.7536 189.065Z" fill="white"/>
<path d="M107.704 150.049C106.948 152.728 107.754 155.305 109.519 155.811C111.284 156.316 113.301 154.547 114.057 151.869C114.814 149.19 114.007 146.613 112.242 146.107C110.477 145.602 108.46 147.371 107.704 150.049Z" fill="white"/>
<path d="M111.133 98.9546C110.83 101.734 111.788 104.11 113.251 104.261C114.763 104.413 116.226 102.341 116.528 99.561C116.831 96.7814 115.873 94.4061 114.41 94.2545C112.898 94.1029 111.435 96.2255 111.133 98.9546Z" fill="white"/>
<path d="M138.815 145.096C139.067 147.876 140.782 149.948 142.597 149.796C144.412 149.594 145.673 147.219 145.421 144.439C145.168 141.66 143.454 139.588 141.639 139.739C139.773 139.941 138.513 142.317 138.815 145.096Z" fill="white"/>
<path d="M136.748 87.3813C136.949 90.161 138.714 92.2836 140.63 92.132C142.546 91.9804 143.908 89.605 143.706 86.8254C143.504 84.0458 141.74 81.9232 139.824 82.0748C137.907 82.2264 136.496 84.6017 136.748 87.3813Z" fill="white"/>
<path d="M119.503 50.2355C119.654 51.8527 120.612 53.0656 121.722 52.9646C122.831 52.8635 123.638 51.4989 123.486 49.9322C123.335 48.315 122.377 47.1021 121.268 47.2031C120.158 47.3042 119.352 48.6688 119.503 50.2355Z" fill="white"/>
<path d="M103.166 36.5394C104.225 38.8136 106.343 40.0771 107.906 39.3696C109.469 38.662 109.923 36.2362 108.864 33.9114C107.805 31.6371 105.687 30.3737 104.124 31.0812C102.561 31.8393 102.157 34.2651 103.166 36.5394Z" fill="white"/>
<path d="M140.227 35.4781C142.647 34.8211 144.261 33.1533 143.908 31.7887C143.504 30.4242 141.286 29.8683 138.866 30.5758C136.445 31.2328 134.832 32.9006 135.185 34.2651C135.538 35.6297 137.807 36.1856 140.227 35.4781Z" fill="white"/>
<path d="M72.9625 192.856C74.6768 195.18 77.5005 195.939 79.2653 194.625C81.0302 193.311 81.0806 190.379 79.3158 188.054C77.6014 185.73 74.7777 184.972 73.0129 186.286C71.2985 187.6 71.2481 190.531 72.9625 192.856Z" fill="white"/>
<path d="M122.226 216.963C124.848 216.609 126.713 214.537 126.411 212.313C126.108 210.14 123.739 208.674 121.117 209.028C118.495 209.382 116.629 211.454 116.931 213.678C117.234 215.851 119.604 217.316 122.226 216.963Z" fill="white"/>
<path d="M85.064 213.728C85.8707 212.869 86.9296 212.364 88.1398 212.364C90.6105 212.364 92.6274 214.638 92.6274 217.417C92.6274 218.681 92.2241 219.793 91.5181 220.702C89.7029 219.136 87.4339 216.659 85.064 213.728Z" fill="white"/>
<path d="M40.9941 134.483C39.1788 135.494 36.103 136.05 35.2963 138.274C34.9433 139.285 35.2963 140.801 35.9518 141.609C36.1534 141.862 38.3721 143.075 38.3216 142.822C37.6157 139.638 40.3386 140.75 42.2546 140.548C44.9775 140.245 47.1961 138.324 47.4482 135.545C47.7003 132.917 47.1961 130.693 44.8767 129.177C43.8682 128.52 41.8513 127.61 40.9941 128.823C44.3724 129.227 43.1623 133.27 40.9941 134.483Z" fill="#231F20"/>
<path d="M74.2229 96.2762C76.3407 92.7385 79.0131 96.7311 80.4754 100.067C80.6266 98.7021 81.0805 97.4892 82.2402 97.0849C83.047 96.7816 84.0554 97.0343 84.7614 97.7419C88.3414 101.229 83.0974 107.85 81.5343 110.275C81.4334 110.427 81.03 110.377 80.7779 110.225C81.0805 110.528 81.3326 110.781 81.6351 111.084C81.8872 111.337 80.9292 111.337 80.7275 111.135C78.7106 109.113 76.5928 106.99 75.1809 104.211C74.0716 101.987 72.9623 98.4494 74.2229 96.2762Z" fill="#FF939C"/>
<path opacity="0.3" d="M229.526 11.1184C227.02 11.1184 224.988 9.08202 224.988 6.56997C224.988 4.05791 227.02 2.02148 229.526 2.02148C232.033 2.02148 234.064 4.05791 234.064 6.56997C234.064 9.08202 232.033 11.1184 229.526 11.1184Z" fill="#C4E3FF"/>
<path opacity="0.3" d="M244.704 72.8263C244.704 79.548 250.149 84.9556 256.805 84.9556C263.512 84.9556 268.907 79.4974 268.907 72.8263C268.907 66.1047 263.461 60.697 256.805 60.697C250.099 60.697 244.704 66.1047 244.704 72.8263Z" fill="#C4E3FF"/>
<path opacity="0.3" d="M71.6514 3.53771C71.6514 5.50872 73.2145 7.07542 75.181 7.07542C77.1475 7.07542 78.7106 5.50872 78.7106 3.53771C78.7106 1.5667 77.1475 0 75.181 0C73.2145 0 71.6514 1.5667 71.6514 3.53771Z" fill="#C4E3FF"/>
</g>
<defs>
<clipPath id="clip0">
<rect width="280" height="258" fill="white" transform="matrix(-1 0 0 1 280 0)"/>
</clipPath>
</defs>
</svg>
