<svg width="137" height="85" viewBox="0 0 137 85" fill="none" xmlns="http://www.w3.org/2000/svg">
<g clip-path="url(#clip0)">
<path d="M40.6839 82.8349C41.9321 81.1147 42.1995 78.5048 42.4076 76.6363C43.0019 70.7344 44.5473 65.1883 46.2412 59.4347C48.1134 52.9989 51.5904 48.3722 56.1076 43.4786C59.3171 40.0086 63.2102 38.6444 67.8759 38.4071C71.7392 38.1995 75.0082 39.8603 78.1583 41.9364C79.6442 42.9151 81.3084 43.7159 82.7646 44.6056C84.4882 45.703 85.2609 47.6604 86.5982 49.1433C87.8167 50.4483 88.9162 51.6346 89.8375 53.2658C91.7097 56.5875 92.9579 59.9389 93.8494 63.6165C94.6221 66.9085 95.5731 70.2302 95.9 73.5816C96.1971 76.4881 96.0485 79.4539 97.1778 82.0934C98.9015 86.0973 104.964 85.6524 105.35 81.0257C105.647 77.7337 105.469 74.1154 105.172 70.8827C104.578 64.5062 102.824 58.1594 99.9119 52.3761C98.8123 50.1814 97.4156 48.0756 96.4646 45.8513C95.365 43.3007 94.6815 40.6018 93.2253 38.0512C88.2922 29.4207 78.7527 24.2602 68.8566 24.7051C47.7271 25.6541 36.7611 46.5038 31.3227 64.3282C30.134 68.2431 30.5501 72.2766 30.134 76.3101C29.8963 78.5641 29.0345 82.8052 31.5902 84.0805C33.195 84.8813 38.247 84.9109 39.7329 83.9026C40.0598 83.5763 40.4164 83.2204 40.6839 82.8349Z" fill="#2D2F2F"/>
<path d="M29.7477 83.5169C30.7878 82.7162 31.3227 81.5002 31.5308 80.1063C33.7893 64.2985 39.6141 45.7326 51.8876 34.6701C57.118 29.9545 63.7154 27.2556 70.818 27.6708C88.3516 28.6792 96.9698 46.2368 101.041 61.0658C102.319 65.6924 103.27 70.4377 103.983 75.183C104.28 77.2294 104.132 79.3352 104.578 81.3816C105.35 84.9109 106.747 84.5846 109.927 84.466C111.205 84.4067 112.542 84.466 113.82 84.466C115.128 84.466 119.288 84.2287 119.972 82.8645C121.22 80.4028 119.05 76.6659 118.307 74.3229C117.178 70.8233 115.276 67.6499 114.236 64.1206C113.226 60.6802 112.839 57.3289 111.502 54.0072C110.313 51.071 108.411 48.3425 107.044 45.4953C105.588 42.4702 104.578 39.3561 102.943 36.4199C101.249 33.3652 98.7826 30.8739 96.5537 28.264C94.4735 25.8617 92.5121 23.0145 89.9861 21.0571C87.7572 19.3072 84.9043 18.0616 82.3783 16.727C77.2371 14.0281 70.5208 12.3969 64.7555 13.2273C59.3171 14.0281 52.6305 15.689 47.6973 18.3582C44.1015 20.286 41.5457 23.3407 38.7522 26.2472C37.6229 27.4039 36.6422 28.3826 35.3347 29.3317C34.6809 29.8062 33.819 30.34 33.3733 31.0222C31.1444 34.4625 28.975 38.2884 26.9245 41.9067C22.0804 50.4185 17.4741 59.6422 16.9986 69.4887C16.8203 73.0476 15.7505 77.3184 16.8501 80.7587C18.0091 84.4363 20.0596 85.0592 23.7446 84.8516C25.2603 84.7626 26.7462 84.7329 28.1429 84.3474C28.767 84.1101 29.3019 83.8432 29.7477 83.5169Z" fill="white"/>
<path d="M67.1637 -0.00102557C49.6599 0.354871 32.9583 6.67204 21.19 19.9292C11.7694 30.5468 6.18241 44.0709 3.03231 57.7729C1.99218 62.3402 1.18979 66.9372 0.654865 71.5935C0.149659 75.8643 -1.51455 82.2408 3.95356 83.961C7.96549 85.2066 13.6119 86.0074 16.7917 82.5374C19.4366 79.6902 19.5555 75.9236 20.2985 72.3053C21.7546 65.0688 23.7458 57.9212 26.4501 51.0108C32.3343 35.9742 42.4681 20.7596 58.9913 16.4295C62.5277 15.5101 66.1831 15.1246 69.8087 15.1839C88.1744 15.5398 100.359 30.6061 107.551 45.9097C110.938 53.1462 113.494 60.7387 115.545 68.4498C116.793 73.1358 116.585 79.5419 120.329 83.1305C122.796 85.5032 125.114 84.4651 128.086 84.2575C131.622 83.9906 137.387 84.5838 137.031 79.4233C136.852 76.843 136.377 74.2628 135.961 71.7122C134.921 65.3357 133.465 59.0482 131.563 52.8793C127.164 38.6731 120.151 24.7338 108.977 14.6501C97.4464 4.32905 82.4982 -0.297606 67.1637 -0.00102557Z" fill="#C4E3FF"/>
<path d="M48.2025 82.894C48.6483 81.7966 48.678 80.3434 48.886 79.2757C49.9559 74.0262 50.5502 68.5394 52.155 63.3196C53.314 59.5827 55.1565 56.2907 57.326 53.0579C58.8416 50.8336 61.1893 49.499 63.6262 48.372C68.0542 46.2959 73.2548 45.6434 77.5639 48.3126C80.7735 50.2997 81.7542 53.829 83.2995 57.0618C85.35 61.4512 86.4199 66.2261 87.4897 70.9121C87.7572 72.1281 87.9355 73.3737 88.1138 74.5897C88.3813 76.4285 88.5001 78.3563 88.9756 80.1358C89.2431 81.1738 89.8969 82.894 90.7884 83.6354C92.096 84.7327 95.0975 84.9107 96.6726 84.3472C98.8717 83.5761 97.9802 80.9958 97.8019 79.2164C97.7127 78.3266 97.5939 77.4072 97.475 76.5175C97.2075 74.4711 96.8806 72.4247 96.524 70.4079C95.6919 65.9295 94.5329 61.4808 92.9281 57.2397C89.0648 47.067 81.6947 37.5468 69.8372 37.6654C58.1878 37.784 50.58 46.6518 46.5086 56.7059C44.6066 61.4215 43.3288 66.4041 42.4372 71.3866C42.0509 73.522 41.7537 75.687 41.516 77.8521C41.3971 78.9198 41.1296 79.9578 41.0108 80.9958C40.6244 84.021 44.3986 85.1183 46.7463 84.4065C47.4596 84.1692 47.9053 83.6057 48.2025 82.894Z" fill="#FFDDC4"/>
<path d="M55.9887 83.6653C56.1075 83.5467 56.2264 83.428 56.3156 83.2797C57.326 81.7079 56.8505 80.4919 56.9991 78.8014C57.1477 77.0812 57.4151 75.3314 57.6529 73.6112C58.1878 70.1115 58.8713 66.6119 59.8817 63.2309C61.2487 58.6932 63.8045 51.6939 69.4212 51.2194C69.5698 51.2194 69.6887 51.1897 69.8372 51.1897C75.3648 51.1007 77.9503 57.9221 79.3173 62.2225C80.3871 65.6035 81.1004 69.1032 81.6353 72.6028C81.9028 74.3823 82.1405 76.1618 82.3485 77.9709C82.5268 79.4242 82.2594 81.5299 83.0023 82.7755C83.6858 83.8729 84.9637 84.2288 86.1524 84.3474C92.4527 84.9702 88.5596 72.5732 87.8464 69.2811C86.5388 63.3199 84.6963 57.0917 81.1004 52.0498C78.2772 48.0756 74.2058 45.1691 69.1835 45.2284C56.9693 45.3767 52.1847 59.9092 50.045 69.6667C49.4507 72.3359 49.0049 75.0348 48.6483 77.7337C48.4106 79.5428 47.4299 82.5679 49.1832 83.8432C50.6394 84.8516 54.5028 84.9999 55.9887 83.6653Z" fill="#FF939C"/>
<path d="M55.424 7.4144C55.3349 7.20679 55.216 7.02885 55.008 6.88056C54.7108 6.64329 54.3245 6.52466 53.9084 6.52466C53.6112 6.52466 53.3735 6.58397 53.106 6.70261C52.7197 6.88056 52.5414 7.11782 52.3928 7.44406C52.1848 7.82961 52.2739 8.30414 52.5711 8.66004C52.898 9.01594 53.314 9.2532 53.9084 9.2532C54.473 9.2532 54.9188 9.01594 55.2457 8.66004C55.5429 8.27448 55.632 7.79996 55.424 7.4144Z" fill="white"/>
<path d="M62.4374 4.18158C62.1106 4.12226 61.7242 4.32987 61.7242 4.59679C61.7242 4.71542 61.5162 4.89337 61.4568 5.012C61.3676 5.24927 61.6648 5.48653 61.962 5.42722C62.3483 5.33824 62.7049 5.012 62.7941 4.71542C62.9129 4.47816 62.7346 4.24089 62.4374 4.18158Z" fill="white"/>
<path d="M64.2801 6.25772C64.1909 6.31704 64.072 6.3467 63.9829 6.40601C63.8937 6.46533 63.8343 6.5543 63.7451 6.61362C63.6263 6.73225 63.4777 6.82122 63.3291 6.9102C63.0913 7.05849 63.1211 7.38473 63.3291 7.53302C63.5371 7.68131 63.9532 7.71097 64.1315 7.53302C64.2801 7.38473 64.4287 7.23644 64.5475 7.08815C64.6961 6.88054 64.7853 6.70259 64.7853 6.46533C64.7853 6.28738 64.5178 6.13909 64.2801 6.25772Z" fill="white"/>
<path d="M71.7987 3.05469C71.5015 2.75811 70.818 2.63947 70.4019 2.75811C70.1345 2.84708 69.8967 2.9064 69.7184 3.08435C69.3024 3.44024 69.1835 3.94443 69.5104 4.3893C69.659 4.59691 69.8967 4.77485 70.1642 4.89349C70.4911 5.07144 70.8477 5.13075 71.2935 5.04178C71.8878 4.92314 72.3039 4.47827 72.3039 4.00375C72.2742 3.61819 72.0958 3.35127 71.7987 3.05469Z" fill="white"/>
<path d="M76.6725 7.05835C73.9087 7.05835 73.9087 10.4394 76.6725 10.4394C79.4362 10.4394 79.4362 7.05835 76.6725 7.05835Z" fill="white"/>
<path d="M88.619 6.96945C87.8761 6.82116 87.3114 7.47363 87.668 7.94816C87.6977 8.03714 87.7275 8.09645 87.7869 8.15577C87.9355 8.30406 88.1435 8.36338 88.3218 8.30406C88.5001 8.30406 88.6784 8.2744 88.827 8.18543C89.4214 7.88885 89.362 7.14739 88.619 6.96945Z" fill="white"/>
<path d="M89.3619 12.3967C88.5595 12.3967 88.5595 13.3754 89.3619 13.3754C90.1643 13.4051 90.1643 12.3967 89.3619 12.3967Z" fill="white"/>
<path d="M100.179 12.4266C99.9416 12.1596 99.6741 11.9817 99.2284 11.9817C98.9609 11.9817 98.8123 12.041 98.5746 12.13C98.2774 12.2486 98.0396 12.5155 97.8316 12.7231C97.5642 12.9901 97.7127 13.4349 97.9802 13.6425C98.2774 13.8798 98.8123 13.9688 99.1689 13.7612C99.2284 13.7315 99.2878 13.7019 99.3472 13.6722C99.4364 13.6722 99.4661 13.6722 99.5255 13.6722C99.7039 13.6425 99.8524 13.5536 100.001 13.4646C100.358 13.2273 100.447 12.6935 100.179 12.4266Z" fill="white"/>
<path d="M101.101 18.5361C99.5255 18.5361 99.5255 20.4639 101.101 20.4639C102.676 20.4639 102.676 18.5361 101.101 18.5361Z" fill="white"/>
<path d="M108.292 18.803C107.49 18.803 106.866 19.5444 107.341 20.1079C107.579 20.3749 107.817 20.8197 108.292 20.8197C108.798 20.8197 109.035 20.4045 109.243 20.1079C109.719 19.5741 109.095 18.803 108.292 18.803Z" fill="white"/>
<path d="M110.432 25.9209C107.668 25.9209 107.668 29.3019 110.432 29.3019C113.196 29.3019 113.196 25.9209 110.432 25.9209Z" fill="white"/>
<path d="M119.645 31.467C119.496 31.4077 119.347 31.3484 119.199 31.3187C118.278 31.0518 117.237 31.8822 117.564 32.594C117.594 32.6237 117.594 32.683 117.594 32.7126C117.743 33.0685 118.099 33.3948 118.575 33.4838C119.11 33.6914 119.764 33.5134 120.09 33.1279C120.18 33.0092 120.269 32.8609 120.298 32.7423C120.388 32.2085 120.18 31.7636 119.645 31.467Z" fill="white"/>
<path d="M118.367 38.5554C118.248 38.4367 118.099 38.3478 117.921 38.2885C117.356 37.9919 116.524 38.1105 116.078 38.4664C115.573 38.852 115.514 39.4451 115.841 39.9197C116.168 40.3645 116.673 40.6314 117.327 40.6314C117.594 40.6314 117.832 40.5721 118.07 40.4832C118.426 40.3052 118.605 40.0679 118.753 39.7714C118.753 39.7714 118.753 39.7417 118.783 39.7417C118.961 39.2968 118.694 38.852 118.367 38.5554Z" fill="white"/>
<path d="M123.122 44.4275C122.646 44.4275 122.408 44.7537 122.468 45.1096C122.498 45.3469 122.557 45.5842 122.646 45.8214C122.795 46.1773 123.449 46.1773 123.597 45.8214C123.686 45.5842 123.746 45.3469 123.775 45.1096C123.835 44.7537 123.627 44.4275 123.122 44.4275Z" fill="white"/>
<path d="M124.34 51.2192C123.151 51.2192 123.151 52.6725 124.34 52.6725C125.529 52.6725 125.529 51.2192 124.34 51.2192Z" fill="white"/>
<path d="M30.8473 15.1552C30.8176 15.1255 30.8176 15.1255 30.7581 15.0959C30.4312 14.8883 29.9557 14.829 29.6288 15.0959C29.3019 15.3628 29.3614 15.7187 29.6288 15.9856C29.9557 16.2822 30.3123 16.3712 30.7878 16.1932C31.085 16.1042 31.2039 15.8077 31.2039 15.5704C31.2336 15.3925 31.0553 15.2145 30.8473 15.1552Z" fill="white"/>
<path d="M39.9113 14.6509C39.7627 14.5916 39.6438 14.5619 39.4952 14.5323C39.4655 14.5323 39.4655 14.5026 39.4358 14.5026C39.406 14.473 39.3763 14.473 39.3466 14.4433C39.198 14.295 38.8414 14.3543 38.7225 14.5026C38.6037 14.6806 38.5442 14.8585 38.6334 15.0661C38.6928 15.2144 38.8117 15.3331 38.9008 15.4517C39.1089 15.7779 39.733 15.8372 40.0598 15.5703C40.3867 15.3331 40.357 14.8289 39.9113 14.6509Z" fill="white"/>
<path d="M41.9915 9.04545C41.9321 8.63024 41.7538 8.27434 41.2486 8.03708C40.8325 7.85913 40.3867 7.85913 39.941 8.00742C39.4358 8.15571 39.0494 8.48195 39.0494 8.92682C39.0494 9.37169 39.3763 9.66827 39.8518 9.81656C39.8518 9.81656 39.8815 9.84622 39.9113 9.84622C40.0301 9.90554 40.149 9.9352 40.2976 9.96485C40.3273 9.96485 40.357 9.96485 40.4165 9.96485C40.7434 10.0538 41.1 10.0242 41.3972 9.87588C41.6943 9.75725 42.0212 9.37169 41.9915 9.04545Z" fill="white"/>
<path d="M22.3776 25.9209C22.2291 25.6243 22.1102 25.3574 21.7238 25.1794C21.4564 25.0608 21.0998 24.9718 20.8026 25.0608C20.5648 25.1498 20.4163 25.1794 20.2082 25.3277C20.0002 25.476 19.911 25.6836 19.8219 25.8912C19.6733 26.1878 19.8219 26.692 20.1488 26.8996C20.1785 26.9293 20.2082 26.9293 20.2379 26.9589C20.5054 27.1665 20.7432 27.2852 21.0998 27.2852C21.4564 27.2852 21.6941 27.1665 21.9616 27.0182C21.9913 26.9886 22.021 26.9886 22.0507 26.9589C22.3776 26.7513 22.5262 26.2471 22.3776 25.9209Z" fill="white"/>
<path d="M26.3301 22.8367C26.4193 22.4808 26.0924 22.1545 25.6466 22.1545C25.2306 22.1545 24.7848 22.5104 24.9631 22.8663C25.0523 23.0443 25.1414 23.1629 25.3197 23.3112C25.4386 23.4298 25.5575 23.4892 25.6763 23.5781C25.7952 23.6968 26.0329 23.7264 26.1518 23.5781C26.2707 23.4298 26.3598 23.2815 26.3896 23.0739C26.3896 23.0146 26.3896 22.9553 26.3896 22.896C26.3301 22.896 26.3301 22.8663 26.3301 22.8367Z" fill="white"/>
<path d="M17.7415 32.8906C14.9778 32.8906 14.9778 36.2716 17.7415 36.2716C20.5053 36.2716 20.5053 32.8906 17.7415 32.8906Z" fill="white"/>
<path d="M16.0179 40.6907C15.7207 40.3052 14.9183 40.2458 14.6509 40.6907C14.6211 40.7204 14.5914 40.7797 14.5617 40.8093C14.6211 40.7204 14.5023 40.8687 14.5023 40.8687C14.3834 40.9576 14.2645 41.0763 14.2051 41.1949C13.9376 41.5508 14.4428 41.877 14.8589 41.7287C15.0372 41.6694 15.3047 41.6991 15.5424 41.6101C16.0179 41.4618 16.3151 41.0466 16.0179 40.6907Z" fill="white"/>
<path d="M10.0744 44.6353C9.42057 44.6353 8.88564 45.2581 9.3017 45.7029C9.45029 45.8512 9.56916 45.9699 9.77718 46.0588C9.83662 46.0885 9.86634 46.1182 9.92577 46.1478C9.95549 46.1775 9.95549 46.1775 9.98521 46.1775C10.223 46.3851 10.6093 46.2961 10.7876 46.0885C10.8768 45.9699 10.9065 45.8512 10.9362 45.7326C10.9362 45.6733 10.9362 45.6436 10.9659 45.5843C11.0848 45.1394 10.7579 44.6353 10.0744 44.6353Z" fill="white"/>
<path d="M9.5988 56.6467C8.97472 56.6467 8.97472 57.4178 9.5988 57.4178C10.2229 57.4178 10.2229 56.6467 9.5988 56.6467Z" fill="white"/>
<path d="M13.5217 50.5372C13.3434 50.2406 12.749 50.2109 12.4815 50.4185C12.1844 50.6558 12.2438 51.071 12.6004 51.2193C12.7193 51.2786 12.7193 51.2786 12.749 51.3676C12.8976 51.6642 13.4325 51.6938 13.5811 51.3676C13.7297 51.1007 13.6703 50.8337 13.5217 50.5372Z" fill="white"/>
<path d="M11.5899 63.6756C11.2928 63.7943 10.8767 64.1205 10.8767 64.3874C10.8767 64.5654 11.0847 64.7433 11.3225 64.773C11.4414 64.8026 11.5602 64.773 11.6791 64.773C11.7088 64.773 11.7385 64.773 11.798 64.773C12.3032 64.8916 12.7787 64.5654 12.7787 64.1798C12.7787 63.7053 12.1249 63.468 11.5899 63.6756Z" fill="white"/>
<path d="M7.66723 66.1076C7.34033 65.8703 6.86485 65.811 6.47851 65.989C6.06246 66.1669 5.795 66.7008 6.1219 67.027C6.18133 67.0863 6.21105 67.1456 6.24077 67.2049C6.3002 67.2643 6.35964 67.3236 6.44879 67.3829C6.18133 67.1753 6.65682 67.5608 6.56767 67.5015C6.6271 67.5608 6.71626 67.5905 6.77569 67.6498C6.68654 67.5905 6.68654 67.5905 6.74597 67.6498C6.83513 67.7091 6.89456 67.7388 6.98372 67.7981C7.13231 67.8871 7.31062 67.8871 7.45921 67.7981C7.69695 67.6498 7.93469 67.4719 8.02385 67.2346C8.14272 66.7897 8.05357 66.4042 7.66723 66.1076Z" fill="white"/>
<path d="M6.2408 74.9753C3.47703 74.9753 3.47703 78.3564 6.2408 78.3564C9.00457 78.3267 9.00457 74.9753 6.2408 74.9753Z" fill="white"/>
<path d="M122.884 58.4558C122.141 58.4558 122.141 59.3455 122.884 59.3455C123.627 59.3752 123.627 58.4558 122.884 58.4558Z" fill="white"/>
<path d="M130.284 61.1843C130.105 60.5912 128.917 60.4132 128.56 61.0064C128.59 60.9767 128.619 60.9471 128.649 60.9174C128.619 60.9471 128.59 60.9767 128.53 61.036C127.966 61.3919 128.144 62.0741 128.828 62.252C129.154 62.341 129.511 62.3113 129.808 62.1927C130.254 61.9554 130.403 61.5402 130.284 61.1843Z" fill="white"/>
<path d="M129.6 68.0652C128.827 68.0652 128.827 68.9846 129.6 68.9846C130.373 69.0142 130.373 68.0652 129.6 68.0652Z" fill="white"/>
<path d="M128.887 73.3443C128.828 72.9884 128.738 72.7215 128.441 72.4546C128.055 72.158 127.461 72.0097 126.926 72.1284C126.272 72.2766 125.945 72.6622 125.677 73.1367C125.499 73.463 125.707 73.9078 126.034 74.1451C126.331 74.3824 126.747 74.4713 127.134 74.4417C127.163 74.4417 127.193 74.4417 127.223 74.4417C127.55 74.4713 127.847 74.4417 128.174 74.3231C128.56 74.1748 128.946 73.7299 128.887 73.3443Z" fill="white"/>
<path d="M133.731 78.7419C133.642 78.4749 133.315 78.2673 132.958 78.2673C132.661 78.2673 132.394 78.386 132.275 78.5936C132.067 78.8605 132.186 79.1274 132.394 79.3647C132.483 79.4537 132.602 79.5426 132.721 79.6019C132.869 79.6613 133.047 79.6613 133.166 79.6019C133.315 79.5426 133.404 79.4537 133.493 79.3647C133.701 79.1867 133.82 78.9791 133.731 78.7419Z" fill="white"/>
<path d="M52.9574 21.2944C52.3334 21.591 52.3334 22.3028 52.9574 22.5994C53.6112 22.896 54.5622 22.5994 54.5622 21.9469C54.5622 21.2944 53.6112 20.9979 52.9574 21.2944Z" fill="#FF939C"/>
<path d="M63.5965 20.3454C63.0318 19.5743 61.5756 19.5743 61.011 20.3454C60.6247 20.8496 60.6841 21.5614 61.2487 21.9766C61.8728 22.4215 62.7346 22.4215 63.3587 21.9766C63.9234 21.5614 63.9531 20.8496 63.5965 20.3454Z" fill="#FF939C"/>
<path d="M65.7064 22.6587C65.5281 22.7477 65.4092 22.8663 65.2606 23.0146C65.1417 23.1332 65.112 23.2518 64.9634 23.3112C64.696 23.4594 64.7554 23.8153 64.9634 23.9636C65.2309 24.1712 65.7064 24.1119 65.8847 23.8747C65.9738 23.756 66.0333 23.6077 66.063 23.4594C66.0927 23.3408 66.063 23.1629 66.1521 23.0442C66.3304 22.807 66.0333 22.4807 65.7064 22.6587Z" fill="#FF939C"/>
<path d="M73.8491 19.1293C73.5817 18.9217 73.2548 18.8327 72.8684 18.8031C72.601 18.7734 72.2741 18.8624 71.9769 18.8921C70.7287 19.07 70.7287 20.6715 71.9769 20.8495C72.2741 20.8792 72.5712 20.9681 72.8684 20.9385C73.2548 20.9088 73.5519 20.8495 73.8491 20.6122C74.1166 20.4046 74.2652 20.1377 74.2652 19.8411C74.2652 19.6039 74.1166 19.3073 73.8491 19.1293Z" fill="#FF939C"/>
<path d="M80.7438 22.1841C78.931 22.1841 78.931 24.3788 80.7438 24.3788C82.5566 24.3788 82.5566 22.1841 80.7438 22.1841Z" fill="#FF939C"/>
<path d="M87.6978 25.2686C86.9549 25.2686 86.9549 26.1583 87.6978 26.1583C88.4111 26.188 88.4111 25.2686 87.6978 25.2686Z" fill="#FF939C"/>
<path d="M93.6116 26.9294C93.1956 26.8404 92.7795 27.0777 92.7795 27.4336C92.7795 27.3446 92.7498 27.4929 92.7498 27.4929C92.7201 27.5522 92.6904 27.6115 92.6904 27.6412C92.6012 27.8488 92.7201 28.0268 92.8687 28.175C93.0173 28.3233 93.255 28.2937 93.4333 28.2344L93.3739 28.264C93.4631 28.2344 93.5522 28.2047 93.6414 28.1454C93.7305 28.0861 93.7602 28.0268 93.8197 27.9674C93.9088 27.8488 94.0277 27.7005 94.0574 27.5522C94.1466 27.2853 93.9683 26.9887 93.6116 26.9294Z" fill="#FF939C"/>
<path d="M96.5834 33.3948C96.3754 33.1575 95.9296 33.0686 95.6324 33.3058C95.3352 33.5431 95.4244 33.8693 95.7513 34.0473C96.0485 34.2252 96.2862 34.4328 96.6131 34.5811C96.8212 34.6998 97.0589 34.5515 97.0589 34.3735C97.1183 34.0176 96.8509 33.721 96.5834 33.3948Z" fill="#FF939C"/>
<path d="M101.101 42.322C100.179 42.322 100.179 43.449 101.101 43.449C102.022 43.449 102.022 42.322 101.101 42.322Z" fill="#FF939C"/>
<path d="M42.0212 31.7637C41.6051 31.5561 40.9216 31.5858 40.5947 31.912C40.5353 31.9713 40.4759 32.001 40.4461 32.0603C40.2976 32.1789 40.1787 32.2976 40.1192 32.4459L40.0895 32.4755C40.0895 32.4459 40.1192 32.4459 40.1192 32.4459C39.8815 32.5941 39.7329 32.8018 39.7329 33.0687C39.7329 33.4246 40.0598 33.7508 40.5056 33.8694C40.9216 33.9584 41.3377 33.8991 41.724 33.7508C42.2292 33.5729 42.4373 33.217 42.6156 32.8314C42.7047 32.4459 42.467 31.9713 42.0212 31.7637Z" fill="#FF939C"/>
<path d="M47.9351 26.3955C47.5785 26.3955 47.2813 26.6921 47.3705 26.959C47.4002 26.9887 47.4002 27.048 47.4299 27.0776C47.5785 27.4632 48.2917 27.4632 48.4403 27.0776C48.47 27.048 48.47 26.9887 48.47 26.959C48.5889 26.6921 48.2917 26.3955 47.9351 26.3955Z" fill="#FF939C"/>
<path d="M52.7197 27.1074C51.8876 27.1074 51.8876 28.1455 52.7197 28.1455C53.5518 28.1158 53.5518 27.1074 52.7197 27.1074Z" fill="#FF939C"/>
<path d="M64.2205 31.1111C63.4776 31.1111 63.4776 32.0008 64.2205 32.0008C64.9635 32.0305 64.9635 31.1111 64.2205 31.1111Z" fill="white"/>
<path d="M70.283 30.3401C70.0155 30.2808 69.748 30.3401 69.4806 30.3697C68.6782 30.518 68.6782 31.5264 69.4806 31.645C69.748 31.7043 70.0155 31.734 70.283 31.6747C71.1448 31.4671 71.1448 30.5477 70.283 30.3401Z" fill="white"/>
<path d="M76.4347 32.6238C75.6621 32.6238 75.6621 33.5432 76.4347 33.5432C77.1777 33.5432 77.1777 32.6238 76.4347 32.6238Z" fill="white"/>
<path d="M81.4571 36.0938C81.4272 36.0938 81.4272 36.1238 81.4571 36.1238C81.4871 36.1238 81.4871 36.0938 81.4571 36.0938Z" fill="white"/>
<path d="M59.6737 34.5514C59.3171 34.3438 58.8714 34.4328 58.4553 34.5218C57.6529 34.6404 57.6529 35.6784 58.4553 35.7971C58.8714 35.8564 59.2874 35.975 59.6737 35.7674C59.9412 35.6191 60.1195 35.4412 60.1195 35.1743C60.1195 34.8777 59.9412 34.6997 59.6737 34.5514Z" fill="white"/>
</g>
<defs>
<clipPath id="clip0">
<rect width="137" height="85" fill="white"/>
</clipPath>
</defs>
</svg>
