<svg width="155" height="148" viewBox="0 0 155 148" fill="none" xmlns="http://www.w3.org/2000/svg">
<g clip-path="url(#clip0)">
<path d="M113.453 103.109C85.16 109.011 52.5491 92.1491 46.654 63.8199C45.5839 58.6691 45.077 47.0893 46.654 42.0701C49.6579 32.4829 52.3238 27.7833 58.3691 21.0723C61.373 17.7262 65.616 14.6244 69.0329 11.7295C71.9054 9.30448 77.5376 7.10506 76.9932 2.55584C76.4675 -1.86179 68.5448 0.732396 66.0478 1.23995C26.0399 9.56766 -7.04026 48.9316 1.2955 88.991C9.61248 129.05 48.7943 154.767 88.8022 146.439C90.5294 146.082 92.2378 145.668 93.9463 145.198C110.881 140.48 126.294 130.366 137.54 116.85C143.022 110.271 147.528 102.827 150.588 94.7997C152.09 90.8521 153.235 86.7728 153.986 82.5995C154.399 80.3249 156.464 73.9523 153.179 72.7304C153.048 72.674 152.897 72.6364 152.766 72.6176C150.889 72.3356 149.48 74.7042 148.729 76.0953C147.753 77.9563 147.115 79.761 145.895 81.528C143.416 85.1373 140.488 88.4271 137.202 91.3032C130.425 97.2059 122.202 101.285 113.453 103.109Z" fill="#FFDDC4"/>
<path d="M91.1866 77.3179C91.1866 77.3179 96.6312 73.6522 102.845 72.1108C109.06 70.5693 120.399 68.0691 128.247 77.5435C136.076 87.0179 130.012 105.403 117.208 107.339C116.213 107.489 114.974 107.809 113.96 107.659C113.284 107.565 112.739 107.151 112.026 107.057C110.411 106.813 108.778 107.546 107.163 107.546C105.737 107.546 104.253 107.32 102.845 107.038C100.724 106.606 99.2032 105.403 97.2883 104.406C95.2794 103.354 93.5522 104.256 91.487 103.711C89.7786 103.26 87.995 102.151 86.6808 100.835C84.2965 98.4286 84.8973 95.3456 85.2164 92.2439C85.4229 90.2888 85.254 88.2586 85.4605 86.2848C85.836 82.7883 86.9624 76.9608 91.1866 77.3179Z" fill="white"/>
<path d="M128.378 77.2617C122.577 70.1559 114.842 69.7047 108.703 70.5883C109.379 71.4342 112.645 75.8518 111.613 82.5065C110.449 89.913 104.066 100.967 104.066 100.967C104.066 100.967 113.866 109.2 123.384 105.121C131.814 99.2934 134.837 85.1946 128.378 77.2617Z" fill="#FF939C"/>
<path d="M114.523 108.11C114.297 108.11 114.091 108.091 113.903 108.072C113.528 108.016 113.19 107.884 112.871 107.753C112.57 107.621 112.289 107.508 111.969 107.471C111.763 107.433 111.575 107.433 111.35 107.433C110.693 107.433 110.017 107.565 109.322 107.696C108.628 107.828 107.895 107.978 107.163 107.978C105.905 107.978 104.516 107.809 102.77 107.452C101.174 107.132 99.9352 106.399 98.621 105.647C98.1328 105.365 97.6259 105.064 97.1003 104.801C96.2554 104.369 95.4857 104.312 94.791 104.312C94.5282 104.312 94.2654 104.331 94.0025 104.331C93.7209 104.35 93.4581 104.35 93.1765 104.35C92.4818 104.35 91.9374 104.294 91.3929 104.143C89.6657 103.692 87.807 102.564 86.399 101.154C84.0897 98.8046 84.4089 95.872 84.728 93.0334C84.7656 92.7703 84.7844 92.5071 84.8219 92.2439C84.9158 91.2852 84.9346 90.2889 84.9346 89.3302C84.9533 88.3338 84.9533 87.2999 85.066 86.2848C85.7231 80.0625 87.6568 76.9232 90.8297 76.9232C90.9048 76.9232 90.9986 76.9232 91.0925 76.9232C91.9186 76.378 97.0439 73.1635 102.751 71.7348C104.873 71.2085 108.815 70.231 112.946 70.231C119.423 70.231 124.661 72.5996 128.547 77.2992C132.433 81.9988 133.241 89.1234 130.65 95.9096C128.172 102.433 123.159 106.869 117.245 107.771C117.02 107.809 116.794 107.847 116.55 107.884C115.912 107.978 115.199 108.11 114.523 108.11ZM111.331 106.606C111.594 106.606 111.838 106.625 112.063 106.662C112.476 106.719 112.814 106.869 113.152 107.001C113.453 107.113 113.715 107.226 113.997 107.264C114.147 107.283 114.316 107.301 114.504 107.301C115.105 107.301 115.762 107.189 116.4 107.076C116.644 107.038 116.888 106.982 117.132 106.944C122.746 106.098 127.515 101.85 129.899 95.6088C132.34 89.1986 131.57 82.2055 127.928 77.8067C124.21 73.3139 119.16 71.0393 112.946 71.0393C108.909 71.0393 105.023 71.998 102.939 72.5244C96.875 74.0282 91.468 77.6375 91.4117 77.6751L91.299 77.7503L91.1488 77.7315C87.5442 77.4308 86.2863 82.2807 85.8545 86.36C85.7419 87.3375 85.7419 88.3526 85.7231 89.3302C85.7043 90.3077 85.7043 91.3228 85.5917 92.3191C85.5729 92.5823 85.5353 92.8455 85.4978 93.1086C85.1974 95.8908 84.897 98.5038 86.9434 100.572C88.2388 101.887 89.9661 102.921 91.5619 103.354C92.0312 103.485 92.5194 103.523 93.1389 103.523C93.4017 103.523 93.6834 103.504 93.9462 103.504C94.2278 103.485 94.4907 103.485 94.7535 103.485C95.5232 103.485 96.4432 103.561 97.4382 104.068C97.9827 104.35 98.4896 104.651 98.9965 104.933C100.254 105.666 101.437 106.362 102.901 106.643C104.591 106.982 105.943 107.151 107.126 107.151C107.783 107.151 108.44 107.019 109.135 106.888C109.867 106.737 110.599 106.606 111.331 106.606Z" fill="#231F20"/>
<path d="M89.1776 89.3679C91.1114 86.4917 95.5233 79.1227 93.1953 69.1784C90.8673 59.234 70.4222 45.7367 56.6982 60.4371C42.9743 75.1375 50.559 92.9396 63.532 96.4173C76.505 99.8762 83.3013 98.1091 89.1776 89.3679Z" fill="white"/>
<path d="M113.697 83.2018C113.997 80.476 113.941 77.6187 113.19 74.9869C112.927 74.047 112.551 73.1634 112.063 72.3363C111.744 71.81 111.181 70.6633 110.655 70.4001C110.036 70.0805 108.722 70.3061 108.158 70.7009C107.201 71.34 108.102 71.7536 108.571 72.2611C109.923 73.7086 110.618 76.2088 110.824 78.2014C111.125 81.04 110.693 84.0101 109.904 86.7171C108.966 89.9504 107.069 92.8454 105.361 95.6088C103.821 98.0902 102.639 100.196 103.39 103.241C103.897 105.29 106.75 104.312 106.243 102.263C105.755 100.233 107.013 98.7293 107.989 97.169C108.984 95.5712 109.961 93.9733 110.843 92.3002C112.326 89.5181 113.359 86.4163 113.697 83.2018Z" fill="#231F20"/>
<path d="M121.826 93.1649C119.479 90.364 112.683 89.5932 108.083 94.4808C103.484 99.3684 97.8138 106.493 99.9165 109.313C102.019 112.133 107.013 114.088 115.837 110.253C118.278 109.2 120.568 107.79 122.521 105.985C123.234 105.328 124.961 104.726 125.525 103.918C125.881 103.41 128.209 100.91 128.528 98.1841C126.951 99.688 123.365 102.038 123.178 102.357C123.365 102.057 123.572 101.756 123.797 101.474C125.168 99.7068 125.112 97.075 121.826 93.1649Z" fill="white"/>
<path d="M69.8027 94.0676C69.9529 93.6164 70.1969 93.1841 70.5161 92.8269C70.5349 92.7893 70.5724 92.7705 70.5912 92.7329C71.9805 91.323 74.3273 92.0562 75.2848 93.5788C76.1296 94.9135 75.2284 97.019 73.8579 97.6581C72.9192 98.0905 71.8678 97.9401 71.0606 97.3197C70.4222 96.8498 69.7088 96.0602 69.6525 95.2143C69.6337 94.8195 69.69 94.4436 69.8027 94.0676Z" fill="#FF939C"/>
<path d="M83.2637 79.7055C83.6768 79.4611 84.1461 79.3107 84.6155 79.2731C84.653 79.2731 84.6906 79.2731 84.7281 79.2543C86.6994 79.1415 87.9385 81.2657 87.6381 83.0328C87.3753 84.5931 85.2913 85.533 83.8457 85.0818C82.8695 84.781 82.1936 83.9539 82.0058 82.9388C81.8557 82.1493 81.8557 81.0965 82.3813 80.4386C82.6254 80.1566 82.9258 79.8935 83.2637 79.7055Z" fill="#FF939C"/>
<path d="M107.107 112.809C102.489 112.809 100.292 110.535 99.5599 109.576C97.2695 106.493 102.752 99.5188 107.745 94.1989C110.036 91.7739 113.171 90.4204 116.344 90.5144C118.766 90.5895 120.925 91.4731 122.127 92.883C125.187 96.5111 125.863 99.5 124.117 101.737C123.779 102.188 122.371 103.335 122.202 103.166C122.033 102.997 123.122 101.624 123.441 101.211C124.886 99.3308 124.229 96.7178 121.469 93.4469C120.456 92.225 118.484 91.4355 116.325 91.3791C114.617 91.3227 111.275 91.7175 108.365 94.7816C101.813 101.756 98.7714 107.095 100.236 109.05C101.231 110.384 105.267 114.351 115.631 109.858C118.109 108.786 120.249 107.433 122.033 105.816C122.765 105.158 123.441 104.444 124.023 103.711C124.154 103.542 124.342 103.354 124.53 103.166C124.943 102.733 125.45 102.207 125.487 101.812C125.506 101.568 125.694 101.399 125.938 101.417C126.182 101.436 126.351 101.643 126.332 101.869C126.294 102.602 125.675 103.222 125.13 103.767C124.961 103.936 124.792 104.106 124.68 104.256C124.06 105.027 123.347 105.76 122.596 106.455C120.756 108.128 118.522 109.538 115.95 110.647C112.345 112.245 109.435 112.809 107.107 112.809Z" fill="#231F20"/>
<path d="M125.637 103.711C124.736 103.73 124.004 103.297 123.178 104.181C122.652 104.764 122.183 106.004 122.464 106.85C122.953 108.317 125.112 106.305 125.262 105.215C125.187 106.023 124.192 107.64 125.168 107.978C125.9 108.241 126.745 107.32 126.538 106.343C126.426 106.963 126.369 108.787 127.12 108.749C127.74 108.711 128.228 107.471 128.003 106.85C127.928 107.584 128.453 108.636 129.092 108.561C129.373 108.523 129.617 108.241 129.636 107.847C129.636 107.527 129.448 107.245 129.298 107.001C129.692 107.565 130.199 108.129 130.838 107.621C131.138 107.377 131.251 107.132 131.27 106.7C131.307 106.042 131.082 105.779 130.8 105.271L125.637 103.711Z" fill="white"/>
<path d="M127.083 109.162C126.858 109.162 126.67 109.068 126.501 108.918C126.332 108.749 126.219 108.504 126.144 108.185C125.806 108.41 125.374 108.485 125.018 108.354C124.454 108.147 124.304 107.715 124.323 107.226C123.91 107.546 123.459 107.771 123.046 107.771C122.577 107.771 122.201 107.489 122.033 106.982C121.695 105.985 122.201 104.613 122.84 103.899C123.272 103.429 123.76 103.203 124.361 103.203C124.567 103.203 124.774 103.222 124.961 103.26C125.168 103.278 125.356 103.297 125.543 103.297H125.656L131.082 104.951L131.157 105.102C131.213 105.196 131.251 105.271 131.288 105.346C131.495 105.722 131.701 106.079 131.664 106.737C131.626 107.301 131.457 107.64 131.082 107.959C130.838 108.147 130.594 108.241 130.331 108.241C130.199 108.241 130.087 108.222 129.955 108.166C129.824 108.579 129.486 108.918 129.092 108.955C129.054 108.955 129.017 108.955 128.979 108.955C128.604 108.955 128.303 108.749 128.059 108.448C127.834 108.843 127.496 109.125 127.102 109.143L127.083 109.162ZM127.083 108.354V108.767V108.354ZM126.876 107.245C126.876 108.034 127.045 108.335 127.102 108.373C127.271 108.354 127.571 107.94 127.646 107.433C127.608 107.226 127.59 107.019 127.608 106.831L127.777 104.989L128.378 106.737C128.435 106.925 128.472 107.151 128.453 107.376C128.566 107.828 128.848 108.166 129.017 108.166C129.092 108.166 129.223 108.053 129.223 107.846C129.223 107.677 129.11 107.489 128.998 107.301L128.941 107.226L129.617 106.794C129.918 107.226 130.162 107.452 130.331 107.452C130.406 107.452 130.481 107.414 130.575 107.339C130.763 107.188 130.838 107.057 130.856 106.7C130.894 106.286 130.781 106.098 130.594 105.76C130.575 105.722 130.556 105.685 130.518 105.628L126.538 104.406L126.914 106.267C127.008 106.587 126.97 106.925 126.876 107.245ZM124.849 105.158L125.656 105.252C125.637 105.553 125.525 105.872 125.412 106.23C125.13 107.057 125.036 107.508 125.299 107.602C125.562 107.696 125.919 107.452 126.069 107.076C126.069 106.794 126.107 106.493 126.144 106.267L126.482 104.369L125.562 104.087C125.318 104.087 125.112 104.068 124.886 104.03C124.342 103.974 123.947 103.88 123.459 104.425C122.971 104.951 122.596 106.042 122.821 106.7C122.896 106.944 123.009 106.944 123.065 106.944C123.647 106.963 124.755 105.835 124.849 105.158Z" fill="#231F20"/>
<path d="M132.508 92.7888C130.349 92.3189 129.373 94.7627 128.472 98.2404C127.571 101.718 123.29 102.338 124.436 104.594C125.581 106.85 131.307 107.32 132.771 103.654C133.804 101.06 133.485 100.722 134.649 96.9433C135.587 93.8603 132.508 92.7888 132.508 92.7888Z" fill="white"/>
<path d="M128.097 106.982C126.069 106.982 124.267 106.174 123.628 104.97C122.84 103.485 124.023 102.545 125.187 101.624C126.238 100.797 127.421 99.8573 127.834 98.3158C128.622 95.3644 129.599 92.4883 131.908 92.4883C132.114 92.4883 132.321 92.5071 132.546 92.5635L132.584 92.5823C133.842 93.0146 135.982 94.5373 135.099 97.2819C134.536 99.0301 134.311 100.045 134.123 100.872C133.898 101.85 133.729 102.639 133.147 104.068C132.396 105.873 130.518 106.982 128.097 106.982ZM131.908 93.2778C130.331 93.2778 129.448 95.3644 128.622 98.5038C128.134 100.308 126.782 101.38 125.693 102.245C124.379 103.297 123.91 103.767 124.361 104.576C124.849 105.497 126.407 106.155 128.115 106.155C130.181 106.155 131.795 105.252 132.415 103.73C132.978 102.357 133.128 101.662 133.353 100.666C133.541 99.8197 133.785 98.7858 134.348 96.9999C135.174 94.4057 132.64 93.4094 132.358 93.3154C132.208 93.2966 132.058 93.2778 131.908 93.2778Z" fill="#231F20"/>
<path d="M74.1206 98.4661C71.1542 98.4661 67.6622 97.9209 63.438 96.793C56.9609 95.0636 51.7417 89.8 49.8079 83.0702C47.5926 75.3628 49.9957 67.0163 56.3977 60.1549C60.4342 55.8313 65.4844 53.5378 71.004 53.5378C81.6678 53.5378 91.8997 61.8843 93.5894 69.0841C94.7346 73.9529 94.9599 81.4723 89.5154 89.5932C85.3475 95.8155 80.7291 98.4661 74.1206 98.4661ZM71.004 54.3462C65.6534 54.3462 60.9411 56.4892 56.9985 60.7188C50.803 67.3547 48.4562 75.4192 50.5965 82.8634C52.4551 89.33 57.4491 94.368 63.6633 96.0411C67.8312 97.1502 71.2481 97.6953 74.1393 97.6953C80.4475 97.6953 84.8594 95.1388 88.8583 89.1609C93.1013 82.8446 94.4342 76.1523 92.8197 69.2909C91.2239 62.5047 81.1421 54.3462 71.004 54.3462Z" fill="#231F20"/>
<path d="M87.9386 89.781C87.9386 89.781 82.3814 93.3339 81.1986 97.5448C81.1986 97.5448 76.5426 96.5297 71.4736 96.9056C71.4736 96.9056 67.6624 94.3302 64.8838 94.4242C62.0865 94.5182 59.8523 96.4733 60.9412 98.4095C62.0489 100.327 64.0014 99.7818 64.7524 99.5562C64.7524 99.5562 65.3719 98.5787 63.9076 98.2779C62.4432 97.9959 64.1141 97.4696 64.1141 97.4696C64.1141 97.4696 65.3344 99.8758 67.4559 99.8382C67.5498 99.857 78.8894 108.016 81.6304 108.467C84.3527 108.918 95.1479 99.481 97.4947 95.4206C99.8414 91.3601 93.9839 87.7884 87.9386 89.781Z" fill="white"/>
<path d="M69.7276 92.1497L69.6713 92.1309C69.7088 92.0369 69.7464 91.9429 69.7652 91.8489C69.9341 91.2285 69.3146 91.1157 69.0517 91.7173C68.3946 93.2212 66.6111 93.8227 65.7099 94.0671C65.0904 94.2363 65.2406 94.9694 65.8601 94.8002C66.4609 94.631 68.0943 93.9355 68.5824 93.5407C68.7138 93.9919 69.4085 93.8039 69.2958 93.3527C69.2583 93.2212 69.2019 93.1272 69.1268 93.0332C69.2019 92.958 69.2583 92.864 69.3146 92.7888L69.5211 92.8452C69.9905 92.9956 70.197 92.2812 69.7276 92.1497Z" fill="#231F20"/>
<path d="M127.89 98.7104C127.89 98.7104 127.759 98.8232 127.496 99.0112C126.107 100.064 119.573 105.252 112.89 104.594C112.89 104.594 115.067 106.888 121.432 103.636C125.318 101.718 127.89 98.7104 127.89 98.7104Z" fill="#231F20"/>
<path d="M87.5819 63.3883C87.5819 63.3883 86.7746 58.9895 90.0977 60.4557C93.4395 61.922 93.6084 66.7908 90.6421 67.7307L87.5819 63.3883Z" fill="white"/>
<path d="M90.6421 68.1256C90.4731 68.1256 90.3041 68.0128 90.2666 67.8436C90.1915 67.6368 90.3229 67.4112 90.5294 67.336C91.5996 66.9977 92.2754 66.0201 92.3317 64.7418C92.4068 63.3508 91.6934 61.5837 89.9287 60.813C89.2152 60.4934 88.6896 60.4558 88.3704 60.719C87.7509 61.2077 87.8823 62.8056 87.9761 63.3132C88.0137 63.5387 87.8635 63.7455 87.657 63.7831C87.4317 63.8207 87.2252 63.6703 87.1876 63.4635C87.1501 63.2192 86.7558 60.9822 87.8823 60.0798C88.4455 59.6287 89.2528 59.6287 90.2666 60.0798C92.3693 61.001 93.2329 63.1252 93.139 64.7982C93.0639 66.4149 92.144 67.6744 90.7735 68.1256C90.7359 68.1256 90.6796 68.1256 90.6421 68.1256Z" fill="#231F20"/>
<path d="M81.0484 108.674C81.0296 108.674 81.0296 108.674 81.0484 108.674C80.9545 108.674 80.8606 108.674 80.7855 108.655C78.7391 108.317 72.9754 104.275 68.2068 100.797C67.8501 100.534 67.5309 100.308 67.3619 100.196C67.1742 100.233 67.0052 100.252 66.8175 100.252C66.1792 100.252 65.6347 99.9888 65.1841 99.6128C65.1466 99.688 65.1278 99.7444 65.109 99.7632C65.0527 99.8384 64.9776 99.8948 64.8838 99.9324C64.5083 100.045 63.945 100.214 63.3067 100.214C62.1239 100.214 61.1852 99.6692 60.5845 98.6165C60.1339 97.8458 60.1339 96.9998 60.5657 96.2291C61.2603 94.9884 62.9876 94.1049 64.865 94.0485C67.4934 93.9545 70.8915 96.0787 71.5861 96.5111C72.3183 96.4547 73.0693 96.4359 73.8391 96.4359C77.1245 96.4359 79.9407 96.9058 80.9169 97.0938C82.3062 92.9582 87.4879 89.612 87.7132 89.4617C87.7507 89.4429 87.7695 89.4241 87.8071 89.4241C88.9898 89.0293 90.2102 88.8413 91.4117 88.8413C94.3217 88.8413 96.875 90.0068 97.9076 91.8303C98.5835 93.0146 98.5647 94.3681 97.8137 95.6463C95.6171 99.5188 84.3338 108.674 81.0484 108.674ZM67.4183 99.3496C67.5685 99.3496 67.5685 99.3496 68.6574 100.158C71.1543 101.981 78.7579 107.508 80.8794 107.865C80.9169 107.865 80.9733 107.884 81.0296 107.884C83.8457 107.884 94.8286 99.2557 97.1379 95.2328C97.7386 94.1989 97.7574 93.1462 97.2317 92.225C96.3306 90.6648 94.0589 89.6496 91.4305 89.6496C90.3228 89.6496 89.2151 89.8376 88.1262 90.176C87.6193 90.5144 82.6817 93.8605 81.5928 97.6766C81.5365 97.8834 81.33 98.0149 81.1234 97.9586C81.0859 97.9586 77.8192 97.2442 73.8578 97.2442C73.0505 97.2442 72.2808 97.2818 71.5298 97.3382C71.436 97.3382 71.3421 97.3194 71.267 97.263C71.2294 97.2442 67.5497 94.744 64.9025 94.8568C63.3255 94.9132 61.8236 95.6463 61.2791 96.6239C60.9787 97.1502 60.9975 97.6954 61.2979 98.2217C61.7672 99.0301 62.4243 99.406 63.3067 99.406C63.7385 99.406 64.1516 99.312 64.4519 99.2181C64.4707 99.1429 64.4895 99.0677 64.4519 98.9925C64.3956 98.8609 64.1703 98.7481 63.8136 98.6729C63.5508 98.6165 62.9125 98.4849 62.8937 97.9962C62.8749 97.6202 63.2504 97.3194 63.9826 97.075C64.1891 97.0186 64.3956 97.1126 64.4707 97.3006C64.4707 97.3194 65.3531 99.4436 66.78 99.4436C66.9301 99.4436 67.0991 99.4248 67.2681 99.3684C67.3432 99.3496 67.3807 99.3496 67.4183 99.3496Z" fill="#231F20"/>
<path d="M81.9309 77.6752C82.006 77.694 82.0623 77.694 82.1187 77.6752C82.1187 77.6752 82.1187 77.6752 82.1374 77.6752C82.3252 77.6376 82.4754 77.5812 82.6443 77.506C83.0761 77.2805 82.7007 76.6413 82.2876 76.8669C82.2313 76.9045 82.175 76.9233 82.1187 76.9233C82.1938 76.5849 82.2313 76.2278 82.2501 75.8894C82.4378 75.9082 82.588 75.9082 82.7758 75.8706C83.2451 75.7766 83.0574 75.0622 82.588 75.1562C82.5317 75.175 82.4566 75.1938 82.4003 75.175C82.3439 75.1562 82.2876 75.175 82.2501 75.175C82.175 74.6487 81.4616 74.7615 81.4991 75.3254C81.6305 77.0737 80.7669 79.4987 79.1148 79.7243C78.6267 79.7995 78.683 80.683 79.1711 80.6266C79.5841 80.5702 79.9409 80.401 80.2788 80.1754C80.3914 80.2694 80.5416 80.3446 80.673 80.3822C81.1236 80.5326 81.3301 79.8183 80.8796 79.6679C80.8796 79.6679 80.8608 79.6679 80.8608 79.6491C81.011 79.4799 81.1424 79.2919 81.2738 79.0851C81.424 79.1603 81.6305 79.2167 81.7995 79.1603C81.9872 79.0851 82.1187 78.9159 82.0623 78.7092C82.0248 78.5776 81.9121 78.4648 81.7807 78.446C81.7619 78.4084 81.7432 78.3708 81.7056 78.3332C81.7619 78.1264 81.837 77.9008 81.9309 77.6752C81.9121 77.6752 81.9309 77.6752 81.9309 77.6752Z" fill="#231F20"/>
<path d="M84.4466 86.7737C84.334 86.3601 83.7144 86.6045 83.827 86.9992C84.2025 88.5031 83.2826 91.5109 81.4615 91.6612C81.0297 91.6988 81.1048 92.3568 81.5366 92.3192C83.8458 92.15 84.9347 88.6911 84.4466 86.7737Z" fill="#231F20"/>
<path d="M76.4111 91.3229C76.4111 91.3229 80.7104 92.3192 79.9594 87.4692C79.9594 87.4692 78.3261 90.3078 76.4111 91.3229Z" fill="#FFDDC4"/>
<path d="M80.4664 72.186C78.1572 72.8816 76.0357 74.4982 74.9843 76.6976C74.7778 77.13 75.4161 77.506 75.6226 77.0736C76.5989 75.0434 78.5139 73.5395 80.6541 72.9004C81.1235 72.7688 80.9357 72.0544 80.4664 72.186Z" fill="#231F20"/>
<path d="M65.3906 89.3112C63.1002 89.6684 61.1476 91.4918 60.4342 93.6912C60.284 94.1424 60.9975 94.3492 61.1476 93.898C61.7672 91.943 63.532 90.3639 65.5596 90.0443C66.0477 89.9503 65.86 89.236 65.3906 89.3112Z" fill="#231F20"/>
<path d="M118.841 73.1448C118.428 73.0508 118.015 73.1448 117.696 73.3704C117.358 73.5584 117.095 73.878 117.001 74.3103C116.813 75.0811 117.32 75.927 118.109 76.0774C118.954 76.2466 119.742 75.7766 119.949 74.9307C120.136 74.1411 119.611 73.3328 118.841 73.1448Z" fill="white"/>
<path d="M123.384 82.431L123.272 82.4122C122.483 82.2243 121.676 82.7318 121.507 83.5213C121.319 84.3109 121.826 85.1192 122.615 85.2884L122.727 85.3072C123.516 85.4952 124.323 84.9876 124.492 84.1981C124.661 83.4273 124.173 82.619 123.384 82.431Z" fill="white"/>
<path d="M130.556 89.631C130.331 89.4242 130.124 89.3303 129.824 89.2551C129.054 89.0483 128.228 89.5934 128.059 90.3642C128.059 90.4018 128.059 90.4206 128.04 90.4582C127.965 90.8153 128.022 91.2101 128.228 91.5485C128.641 92.2252 129.58 92.4508 130.256 92.0184C130.387 91.9432 130.5 91.8492 130.612 91.7364C131.176 91.1537 131.119 90.1762 130.556 89.631Z" fill="white"/>
<path d="M117.057 87.3562C116.569 87.2434 116.062 87.563 115.95 88.0517L115.931 88.1081C115.818 88.5969 116.138 89.1045 116.626 89.2172C117.114 89.33 117.621 89.0105 117.733 88.5217L117.752 88.4653C117.865 87.9765 117.546 87.469 117.057 87.3562Z" fill="white"/>
<path d="M127.89 77.4307C127.439 77.2239 126.895 77.3367 126.632 77.8066C126.538 77.9758 126.501 78.2014 126.538 78.4082C126.52 78.8406 126.82 79.2541 127.252 79.3481C127.74 79.4609 128.247 79.1413 128.359 78.6526C128.472 78.2014 128.359 77.6562 127.89 77.4307Z" fill="white"/>
<path d="M124.792 91.3037C123.628 91.0405 123.215 92.8264 124.379 93.1084C125.543 93.3716 125.956 91.5669 124.792 91.3037Z" fill="white"/>
<path d="M66.6674 76.4722C66.1981 76.3406 66.0666 77.0737 66.536 77.2053C66.4609 77.9009 66.1042 78.1828 65.5034 78.0324C65.1467 77.9948 64.79 77.7881 64.4708 77.6189C63.8137 77.2617 63.3256 76.679 62.9501 76.0398C62.0865 74.6299 62.0302 72.7313 62.6685 71.2274C62.8563 70.795 62.1992 70.4567 62.0114 70.9078C60.9976 73.314 61.5796 76.679 63.9076 78.1264C64.8088 78.6904 65.9728 79.1604 66.8739 78.3896C67.5498 77.8069 67.6061 76.7166 66.6674 76.4722Z" fill="#231F20"/>
<path d="M61.1665 76.8105C60.0963 75.9082 60.5469 74.1035 60.8473 72.938C60.96 72.4681 60.2465 72.3365 60.1151 72.8064C59.7396 74.2727 59.3641 76.2653 60.6783 77.3744C61.0538 77.694 61.5232 77.1301 61.1665 76.8105Z" fill="#231F20"/>
<path d="M64.6398 72.6372C63.8701 71.5469 63.9076 70.4754 64.5084 69.3099C64.7337 68.8775 64.0578 68.5579 63.8513 68.9903C63.1191 70.3814 63.1191 71.7725 64.039 73.0508C64.3206 73.4455 64.9214 73.032 64.6398 72.6372Z" fill="#231F20"/>
<path d="M17.6855 104.237H17.5353C16.7093 104.237 16.7093 105.534 17.5353 105.534H17.6855C18.5304 105.515 18.5304 104.237 17.6855 104.237Z" fill="white"/>
<path d="M10.983 99.5752C10.6826 99.4061 10.2884 99.5001 10.1006 99.8008C9.93166 100.083 10.0255 100.478 10.3071 100.666C10.3071 100.684 10.3071 100.684 10.3071 100.703C10.3071 101.53 11.6026 101.53 11.6026 100.703C11.6026 100.214 11.4336 99.8196 10.983 99.5752Z" fill="white"/>
<path d="M12.8229 90.7396C12.4662 90.7208 12.1846 91.0403 12.1846 91.3787C12.1846 91.6983 12.4286 91.9615 12.729 92.0179C12.8417 92.2059 13.0294 92.3187 13.2547 92.3187C13.5926 92.3187 13.9306 92.0179 13.893 91.6795C13.8367 91.0779 13.3861 90.7584 12.8229 90.7396Z" fill="white"/>
<path d="M6.57117 91.0968V91.2472C6.57117 92.0744 7.86659 92.0744 7.86659 91.2472V91.0968C7.86659 90.2509 6.57117 90.2509 6.57117 91.0968Z" fill="white"/>
<path d="M5.06913 86.0024C4.24307 86.0024 4.24307 87.2995 5.06913 87.2995C5.8952 87.2807 5.8952 86.0024 5.06913 86.0024Z" fill="white"/>
<path d="M5.78264 77.675C4.95657 77.675 4.95657 78.9722 5.78264 78.9722C6.62748 78.9534 6.62748 77.675 5.78264 77.675Z" fill="white"/>
<path d="M5.65117 71.2083C4.8251 71.2083 4.8251 72.5054 5.65117 72.5054C6.47723 72.5054 6.47723 71.2083 5.65117 71.2083Z" fill="white"/>
<path d="M6.64628 60.8691C5.82022 60.8691 5.82022 62.1662 6.64628 62.1662C7.47235 62.1662 7.47235 60.8691 6.64628 60.8691Z" fill="white"/>
<path d="M8.80534 51.6768C7.97927 51.6768 7.97927 52.9739 8.80534 52.9739C9.6314 52.9739 9.6314 51.6768 8.80534 51.6768Z" fill="white"/>
<path d="M10.814 48.2366C9.98794 48.2366 9.98794 49.5337 10.814 49.5337C11.6401 49.5337 11.6401 48.2366 10.814 48.2366Z" fill="white"/>
<path d="M18.3988 33.4421H18.2486C17.4225 33.4421 17.4225 34.7392 18.2486 34.7392H18.3988C19.2436 34.7392 19.2436 33.4421 18.3988 33.4421Z" fill="white"/>
<path d="M22.1351 31.7129C21.309 31.7129 21.309 33.01 22.1351 33.01C22.9611 33.01 22.9611 31.7129 22.1351 31.7129Z" fill="white"/>
<path d="M23.1488 25.6973C22.3228 25.6973 22.3228 26.9944 23.1488 26.9944C23.9749 26.9756 23.9749 25.6973 23.1488 25.6973Z" fill="white"/>
<path d="M32.029 18.9487H31.8788C31.0528 18.9487 31.0528 20.2458 31.8788 20.2458H32.029C32.8551 20.227 32.8551 18.9487 32.029 18.9487Z" fill="white"/>
<path d="M37.7926 16.4108C37.5485 16.1664 37.1355 16.1664 36.8726 16.4108C36.7788 16.5048 36.6849 16.5988 36.591 16.6928C36.3469 16.9372 36.3469 17.3507 36.591 17.6139C36.8351 17.8583 37.2481 17.8583 37.5109 17.6139L37.7926 17.3319C38.0366 17.0688 38.0366 16.6552 37.7926 16.4108Z" fill="white"/>
<path d="M39.9141 12.6326C39.088 12.6326 39.088 13.9297 39.9141 13.9297C40.7402 13.9109 40.7402 12.6326 39.9141 12.6326Z" fill="white"/>
<path d="M45.659 12.7639C44.8329 12.7639 44.8329 14.061 45.659 14.061C46.485 14.061 46.485 12.7639 45.659 12.7639Z" fill="white"/>
<path d="M52.5304 7.74487C51.7044 7.74487 51.7044 9.04196 52.5304 9.04196C53.3753 9.04196 53.3753 7.74487 52.5304 7.74487Z" fill="white"/>
<path d="M64.1515 4.00391C63.3255 4.00391 63.3255 5.301 64.1515 5.301C64.9776 5.301 64.9776 4.00391 64.1515 4.00391Z" fill="white"/>
<path d="M22.8858 114.726C22.5291 114.67 22.1912 114.802 22.0973 115.178C22.041 115.366 22.0973 115.61 22.2287 115.779C22.3789 116.456 23.5054 116.418 23.5054 115.629C23.4866 115.253 23.3176 114.802 22.8858 114.726Z" fill="white"/>
<path d="M27.8048 113.053V113.486C27.8048 114.313 29.1002 114.313 29.1002 113.486V113.053C29.1002 112.226 27.8048 112.226 27.8048 113.053Z" fill="white"/>
<path d="M29.5132 122.678V122.829C29.5132 123.656 30.8086 123.656 30.8086 122.829V122.678C30.8086 121.851 29.5132 121.851 29.5132 122.678Z" fill="white"/>
<path d="M43.1056 132.829C42.9179 132.773 42.6738 132.829 42.5049 132.961C41.829 133.111 41.8665 134.239 42.6551 134.239C43.0493 134.239 43.4999 134.07 43.5562 133.619C43.5938 133.281 43.4811 132.923 43.1056 132.829Z" fill="white"/>
<path d="M49.8645 134.315L49.8458 134.296C49.8458 134.296 49.827 134.296 49.827 134.277C49.7143 134.164 49.5829 134.108 49.3764 134.108C49.1887 134.108 49.0385 134.183 48.9258 134.296C48.9258 134.296 48.9258 134.296 48.9071 134.296C48.8695 134.333 48.832 134.39 48.8132 134.427C48.7005 134.615 48.7005 134.822 48.7944 135.029C48.8132 135.085 48.8507 135.142 48.8883 135.198C48.9634 135.48 49.1699 135.687 49.5078 135.687C49.827 135.687 50.1837 135.386 50.1462 135.048C50.1462 134.747 50.0523 134.521 49.8645 134.315Z" fill="white"/>
<path d="M63.1004 139.353C63.0628 139.315 63.0253 139.259 62.9877 139.221C62.8939 138.996 62.7061 138.845 62.4245 138.845C62.1053 138.845 61.7298 139.146 61.7862 139.484C61.8049 139.635 61.8425 139.748 61.8988 139.898C61.9364 139.936 61.9739 139.992 62.0115 140.03C62.1053 140.255 62.2931 140.406 62.5747 140.406C62.8939 140.406 63.2693 140.105 63.213 139.766C63.1942 139.616 63.1755 139.503 63.1004 139.353Z" fill="white"/>
<path d="M65.6536 143.357V143.639C65.6536 144.466 66.949 144.466 66.949 143.639V143.357C66.949 142.53 65.6536 142.53 65.6536 143.357Z" fill="white"/>
<path d="M71.4924 139.879C71.4361 139.823 71.3986 139.785 71.3422 139.729C71.0982 139.484 70.6851 139.484 70.4223 139.729C70.1782 139.973 70.1782 140.387 70.4223 140.65C70.4786 140.706 70.5162 140.744 70.5725 140.8C70.8166 141.045 71.2296 141.045 71.4924 140.8C71.7365 140.556 71.7365 140.142 71.4924 139.879Z" fill="white"/>
<path d="M84.8221 138.883C84.5781 138.638 84.165 138.638 83.9022 138.883C83.8459 138.939 83.8083 138.976 83.752 139.033C83.508 139.277 83.508 139.691 83.752 139.954C83.9961 140.198 84.4091 140.198 84.6719 139.954C84.7283 139.898 84.7658 139.86 84.8221 139.804C85.0662 139.54 85.0662 139.127 84.8221 138.883Z" fill="white"/>
<path d="M87.4504 142.21V142.793C87.4504 143.62 88.7459 143.62 88.7459 142.793V142.21C88.7459 141.383 87.4504 141.383 87.4504 142.21Z" fill="white"/>
<path d="M95.6923 136.815C94.8662 136.815 94.8662 138.112 95.6923 138.112C96.5371 138.112 96.5371 136.815 95.6923 136.815Z" fill="white"/>
<path d="M101.888 134.427C101.625 134.202 101.343 134.089 101.005 134.089C100.179 134.089 100.179 135.386 101.005 135.386C101.024 135.386 101.024 135.386 101.043 135.386C101.306 135.574 101.644 135.574 101.888 135.348C102.132 135.104 102.151 134.653 101.888 134.427Z" fill="white"/>
<path d="M117.564 130.442C117.564 130.461 117.564 130.461 117.564 130.48C117.377 130.743 117.377 131.081 117.602 131.326C117.846 131.57 118.278 131.589 118.522 131.326C118.747 131.062 118.86 130.78 118.86 130.442C118.86 129.596 117.564 129.596 117.564 130.442Z" fill="white"/>
<path d="M120.643 124.182C119.817 124.182 119.817 125.479 120.643 125.479C121.488 125.479 121.488 124.182 120.643 124.182Z" fill="white"/>
<path d="M127.177 122.528V122.81C127.177 123.637 128.472 123.637 128.472 122.81V122.528C128.472 121.701 127.177 121.701 127.177 122.528Z" fill="white"/>
<path d="M131.833 114.99H131.551C130.725 114.99 130.725 116.287 131.551 116.287H131.833C132.659 116.287 132.659 114.99 131.833 114.99Z" fill="white"/>
<path d="M143.191 104.124C142.966 103.861 142.515 103.88 142.271 104.124C142.083 104.312 142.046 104.575 142.121 104.801C142.046 105.026 142.065 105.289 142.271 105.477C142.515 105.722 142.947 105.741 143.191 105.477C143.567 105.045 143.567 104.556 143.191 104.124Z" fill="white"/>
<path d="M144.167 99.0674C143.341 99.0674 143.341 100.364 144.167 100.364C144.993 100.346 144.993 99.0674 144.167 99.0674Z" fill="white"/>
<path d="M148.467 95.6084C147.641 95.6084 147.641 96.9055 148.467 96.9055C149.293 96.9055 149.293 95.6084 148.467 95.6084Z" fill="white"/>
<path d="M149.687 89.6122C149.856 89.3491 149.875 89.0107 149.631 88.7851C149.405 88.5595 148.955 88.5219 148.711 88.7851C148.448 89.0859 148.373 89.4243 148.373 89.819C148.373 90.6461 149.668 90.6461 149.668 89.819C149.668 89.7626 149.668 89.7062 149.668 89.6498C149.687 89.6122 149.687 89.6122 149.687 89.6122Z" fill="white"/>
<path d="M151.771 83.6904C150.945 83.6904 150.945 84.9875 151.771 84.9875C152.597 84.9875 152.597 83.6904 151.771 83.6904Z" fill="white"/>
<path d="M152.635 77.2427C151.808 77.2427 151.808 78.5397 152.635 78.5397C153.461 78.5209 153.461 77.2427 152.635 77.2427Z" fill="white"/>
<path d="M36.6849 123.111V123.261C36.6849 124.088 37.9804 124.088 37.9804 123.261V123.111C37.9804 122.283 36.6849 122.283 36.6849 123.111Z" fill="white"/>
<path d="M35.3332 129.502C34.5071 129.502 34.5071 130.799 35.3332 130.799C36.1592 130.799 36.1592 129.502 35.3332 129.502Z" fill="white"/>
<path d="M25.2139 125.836V125.987C25.2139 126.814 26.5093 126.814 26.5093 125.987V125.836C26.5093 125.009 25.2139 125.009 25.2139 125.836Z" fill="white"/>
<path d="M24.8572 120.028C24.0312 120.028 24.0312 121.325 24.8572 121.325C25.6833 121.325 25.6833 120.028 24.8572 120.028Z" fill="white"/>
<path d="M19.4128 119.163C18.5867 119.163 18.5867 120.46 19.4128 120.46C20.2388 120.46 20.2388 119.163 19.4128 119.163Z" fill="white"/>
<path d="M17.8356 113.411C17.0095 113.411 17.0095 114.708 17.8356 114.708C18.6617 114.708 18.6617 113.411 17.8356 113.411Z" fill="white"/>
<path d="M11.4525 109.181V109.463C11.4525 110.29 12.7479 110.29 12.7479 109.463V109.181C12.7479 108.354 11.4525 108.354 11.4525 109.181Z" fill="white"/>
<path d="M13.6679 101.493C12.8418 101.493 12.8418 102.79 13.6679 102.79C14.5127 102.79 14.5127 101.493 13.6679 101.493Z" fill="white"/>
<path d="M5.82012 96.6616C5.57606 96.3984 5.14425 96.4172 4.90019 96.6616C4.65612 96.906 4.65612 97.3008 4.88141 97.5451C4.88141 97.5451 4.88141 97.5451 4.88141 97.5639C4.95651 97.8459 5.16303 98.0527 5.50096 98.0527C5.82012 98.0527 6.19561 97.7519 6.13929 97.4135C6.12051 97.1128 6.02664 96.8872 5.82012 96.6616Z" fill="white"/>
<path d="M4.07418 92.093C4.11173 91.8674 3.84889 91.6606 3.64238 91.6606C3.43586 91.6606 3.30444 91.7922 3.24812 91.9426C3.22934 91.9802 3.19179 91.999 3.17302 92.0366C3.09792 92.1306 3.07915 92.2434 3.06038 92.375C3.02283 92.6006 3.28567 92.8073 3.49218 92.8073C3.6987 92.8073 3.83012 92.6758 3.88644 92.5254C3.90522 92.4878 3.94276 92.469 3.96154 92.4314C4.03664 92.3374 4.05541 92.2246 4.07418 92.093Z" fill="white"/>
<path d="M8.37339 84.1982H7.94159C7.37836 84.1982 7.37836 85.063 7.94159 85.063H8.37339C8.91785 85.063 8.91785 84.1982 8.37339 84.1982Z" fill="white"/>
<path d="M2.64723 78.0134C2.62846 77.9946 2.62846 77.9946 2.60968 77.9758C2.59091 77.769 2.45949 77.5999 2.19665 77.5999C1.76484 77.5999 1.67097 78.1262 1.91504 78.3518C1.93381 78.4458 1.97136 78.5398 2.02768 78.615C2.04646 78.6338 2.04646 78.803 2.04646 78.8782C2.04646 79.4421 2.91007 79.4421 2.91007 78.8782C2.92885 78.5586 2.87252 78.2578 2.64723 78.0134Z" fill="white"/>
<path d="M2.19671 73.1443C1.63349 73.1443 1.63349 74.009 2.19671 74.009C2.75994 74.009 2.75994 73.1443 2.19671 73.1443Z" fill="white"/>
<path d="M2.77862 68.8398C2.21539 68.8398 2.21539 69.7046 2.77862 69.7046C3.34185 69.7046 3.34185 68.8398 2.77862 68.8398Z" fill="white"/>
<path d="M3.21063 64.967C2.6474 64.967 2.6474 65.8318 3.21063 65.8318C3.75508 65.813 3.75508 64.967 3.21063 64.967Z" fill="white"/>
<path d="M3.6423 60.9446C3.28559 60.9446 3.07908 61.1514 3.0603 61.5273C3.0603 61.9973 3.66108 62.0537 3.84882 61.7529C4.16798 61.5461 4.11166 60.9446 3.6423 60.9446Z" fill="white"/>
<path d="M8.69262 65.6815C8.88036 65.4747 8.95546 65.2491 8.95546 64.9672C8.95546 64.4032 8.09184 64.4032 8.09184 64.9672C8.09184 65.0236 8.11062 65.0611 8.07307 65.0987C8.05429 65.1175 8.05429 65.1363 8.03552 65.1551C7.92287 65.3055 7.92287 65.5123 8.05429 65.6627C8.05429 65.6815 8.07307 65.6815 8.07307 65.7003L8.09184 65.7191C8.16694 65.7755 8.24204 65.8319 8.37346 65.8319H8.39223C8.44855 65.8319 8.50488 65.8131 8.54242 65.7943C8.57997 65.7755 8.59875 65.7567 8.61752 65.7379C8.6363 65.7191 8.65507 65.7191 8.69262 65.6815C8.67384 65.7003 8.67384 65.7003 8.69262 65.6815C8.67384 65.6815 8.69262 65.6815 8.69262 65.6815Z" fill="white"/>
<path d="M7.94158 59.2148C7.37836 59.2148 7.37836 60.0796 7.94158 60.0796C8.48604 60.0796 8.48604 59.2148 7.94158 59.2148Z" fill="white"/>
<path d="M5.2193 56.207C4.65607 56.207 4.65607 57.0718 5.2193 57.0718C5.76375 57.0718 5.76375 56.207 5.2193 56.207Z" fill="white"/>
<path d="M9.36834 54.4778C8.80512 54.4778 8.80512 55.3425 9.36834 55.3425C9.93157 55.3425 9.93157 54.4778 9.36834 54.4778Z" fill="white"/>
<path d="M13.1044 50.1729C12.5412 50.1729 12.5412 51.0376 13.1044 51.0376C13.6489 51.0376 13.6489 50.1729 13.1044 50.1729Z" fill="white"/>
<path d="M13.5926 43.8376C13.5551 43.8 13.5363 43.7624 13.4987 43.7248C13.4424 43.5557 13.311 43.4429 13.1045 43.4429C12.898 43.4429 12.6351 43.6497 12.6727 43.8752C12.6915 43.988 12.7102 44.082 12.7478 44.176C12.7853 44.2136 12.8041 44.2512 12.8416 44.2888C12.8416 44.2888 12.8416 44.2888 12.8604 44.2888C12.9167 44.458 13.0482 44.5708 13.2547 44.5708C13.4612 44.5708 13.724 44.364 13.6865 44.1384C13.6677 44.0256 13.6302 43.9504 13.5926 43.8376Z" fill="white"/>
<path d="M13.6677 40.1157C13.1044 40.1157 13.1044 40.9805 13.6677 40.9805C14.2309 40.9805 14.2309 40.1157 13.6677 40.1157Z" fill="white"/>
<path d="M16.3899 39.8337H16.1083C15.5451 39.8337 15.5451 40.6985 16.1083 40.6985H16.3899C16.9532 40.6985 16.9532 39.8337 16.3899 39.8337Z" fill="white"/>
<path d="M15.395 35.5288H15.2448C14.6816 35.5288 14.6816 36.3935 15.2448 36.3935H15.395C15.9582 36.3935 15.9582 35.5288 15.395 35.5288Z" fill="white"/>
<path d="M21.1961 29.2502C20.8769 29.2502 20.7267 29.5134 20.6892 29.7954C20.6516 30.021 20.9145 30.2278 21.121 30.2278C21.1397 30.2278 21.1585 30.209 21.1961 30.209C21.2148 30.209 21.2336 30.2278 21.2712 30.2278C21.4777 30.2278 21.7405 30.0398 21.703 29.7954C21.6654 29.5134 21.5152 29.2502 21.1961 29.2502Z" fill="white"/>
<path d="M26.3404 28.0658C26.3592 28.0658 26.3592 28.0658 26.3217 28.047C26.3217 28.047 26.3217 28.047 26.3029 28.0282C25.9086 27.6522 25.2891 28.2538 25.7021 28.6298C25.8711 28.7989 26.0588 28.8741 26.2841 28.8929C26.5094 28.9117 26.7159 28.6674 26.7159 28.4606C26.7159 28.2538 26.547 28.1222 26.3404 28.0658Z" fill="white"/>
<path d="M27.298 23.1785H27.1478C26.5845 23.1785 26.5845 24.0432 27.1478 24.0432H27.298C27.8612 24.0432 27.8612 23.1785 27.298 23.1785Z" fill="white"/>
<path d="M29.4569 24.9077H29.3067C28.7435 24.9077 28.7435 25.7724 29.3067 25.7724H29.4569C30.0013 25.7724 30.0013 24.9077 29.4569 24.9077Z" fill="white"/>
<path d="M31.7474 23.1785C31.1841 23.1785 31.1841 24.0432 31.7474 24.0432C32.2918 24.0432 32.2918 23.1785 31.7474 23.1785Z" fill="white"/>
<path d="M35.765 20.1707H35.6148C35.0516 20.1707 35.0516 21.0354 35.6148 21.0354H35.765C36.3094 21.0166 36.3094 20.1707 35.765 20.1707Z" fill="white"/>
<path d="M40.5524 20.2646C40.5337 20.227 40.4773 20.0203 40.4961 20.1518C40.4773 19.9263 40.3271 19.7195 40.0643 19.7195C39.8578 19.7195 39.6137 19.9075 39.6325 20.1518C39.6513 20.2834 39.67 20.3586 39.7076 20.4714C39.7264 20.509 39.7827 20.7158 39.7639 20.5842C39.7827 20.8098 39.9329 21.0166 40.1957 21.0166C40.4022 21.0166 40.6463 20.8286 40.6275 20.5842C40.6275 20.4714 40.6087 20.3774 40.5524 20.2646Z" fill="white"/>
<path d="M42.2045 15.9973C41.6413 15.9973 41.6413 16.862 42.2045 16.862C42.7677 16.862 42.7677 15.9973 42.2045 15.9973Z" fill="white"/>
<path d="M48.3813 14.8506C47.8181 14.8506 47.8181 15.7153 48.3813 15.7153C48.9258 15.7153 48.9258 14.8506 48.3813 14.8506Z" fill="white"/>
<path d="M48.6629 8.38379C48.0997 8.38379 48.0997 9.24852 48.6629 9.24852C49.2261 9.24852 49.2261 8.38379 48.6629 8.38379Z" fill="white"/>
<path d="M52.8307 11.9746C52.2675 11.9746 52.2675 12.8393 52.8307 12.8393C53.3752 12.8393 53.3752 11.9746 52.8307 11.9746Z" fill="white"/>
<path d="M57.2617 6.52295C56.6984 6.52295 56.6984 7.38768 57.2617 7.38768C57.8249 7.38768 57.8249 6.52295 57.2617 6.52295Z" fill="white"/>
<path d="M60.9975 8.38379C60.4343 8.38379 60.4343 9.24852 60.9975 9.24852C61.5419 9.24852 61.5419 8.38379 60.9975 8.38379Z" fill="white"/>
<path d="M62.4245 6.67334C61.8613 6.67334 61.8613 7.53807 62.4245 7.53807C62.9877 7.51927 62.9877 6.67334 62.4245 6.67334Z" fill="white"/>
<path d="M69.8777 3.64673C69.3145 3.64673 69.3145 4.51146 69.8777 4.51146C70.441 4.51146 70.441 3.64673 69.8777 3.64673Z" fill="white"/>
<path d="M72.3184 4.66187C71.7552 4.66187 71.7552 5.52659 72.3184 5.52659C72.8816 5.52659 72.8816 4.66187 72.3184 4.66187Z" fill="white"/>
<path d="M33.6247 117.058C33.5684 117.001 33.5308 116.964 33.4745 116.907C33.0803 116.512 32.4795 117.114 32.8737 117.509C32.9301 117.565 32.9676 117.603 33.0239 117.659C33.4182 118.073 34.019 117.452 33.6247 117.058Z" fill="white"/>
<path d="M31.3155 126.269C31.0526 126.269 30.9212 126.476 30.8837 126.701C30.9024 126.57 30.8461 126.777 30.8273 126.814C30.771 126.927 30.7522 127.021 30.7522 127.134C30.7335 127.359 30.9775 127.566 31.184 127.566C31.4469 127.566 31.5971 127.378 31.6159 127.134C31.5971 127.265 31.6534 127.059 31.6722 127.021C31.7285 126.908 31.7473 126.814 31.7473 126.701C31.7661 126.476 31.522 126.269 31.3155 126.269Z" fill="white"/>
<path d="M38.112 127.34C37.9806 127.585 37.8116 127.773 37.6051 127.979C37.2108 128.374 37.8116 128.976 38.2058 128.581C38.4499 128.337 38.694 128.092 38.8442 127.773C39.107 127.284 38.3748 126.851 38.112 127.34Z" fill="white"/>
<path d="M37.0417 133.299H36.8915C36.3283 133.299 36.3283 134.164 36.8915 134.164H37.0417C37.605 134.164 37.605 133.299 37.0417 133.299Z" fill="white"/>
<path d="M42.4862 138.074C42.4486 138.056 42.4298 138.018 42.3923 137.999C42.2984 137.924 42.1858 137.905 42.0544 137.886C41.8291 137.849 41.6226 138.112 41.6226 138.319C41.6226 138.526 41.754 138.657 41.9042 138.714C41.9417 138.732 41.9605 138.77 41.998 138.789C42.0919 138.864 42.2046 138.883 42.336 138.902C42.5613 138.939 42.7678 138.676 42.7678 138.469C42.7866 138.262 42.6551 138.15 42.4862 138.074Z" fill="white"/>
<path d="M54.2577 141.496H54.1075C53.5442 141.496 53.5442 142.36 54.1075 142.36H54.2577C54.8021 142.342 54.8021 141.496 54.2577 141.496Z" fill="white"/>
<path d="M55.1213 137.755C54.558 137.755 54.558 138.62 55.1213 138.62C55.6657 138.62 55.6657 137.755 55.1213 137.755Z" fill="white"/>
<path d="M48.8132 139.334C48.2499 139.334 48.2499 140.199 48.8132 140.199C49.3576 140.199 49.3576 139.334 48.8132 139.334Z" fill="white"/>
<path d="M60.1339 143.921V144.203C60.1339 144.767 60.9975 144.767 60.9975 144.203V143.921C60.9975 143.375 60.1339 143.375 60.1339 143.921Z" fill="white"/>
<path d="M62.0114 137.303C61.9551 137.247 61.9176 137.209 61.8612 137.153C61.467 136.758 60.8662 137.379 61.2605 137.755C61.3168 137.811 61.3543 137.849 61.4107 137.905C61.8049 138.319 62.4057 137.698 62.0114 137.303Z" fill="white"/>
<path d="M46.3726 128.995C45.8094 128.995 45.8094 129.859 46.3726 129.859C46.9171 129.859 46.9171 128.995 46.3726 128.995Z" fill="white"/>
<path d="M42.6364 124.539C42.0732 124.539 42.0732 125.404 42.6364 125.404C43.1996 125.404 43.1996 124.539 42.6364 124.539Z" fill="white"/>
<path d="M29.5884 130.442V130.724C29.5884 131.288 30.452 131.288 30.452 130.724V130.442C30.452 129.878 29.5884 129.878 29.5884 130.442Z" fill="white"/>
<path d="M34.4882 133.431C34.4319 133.374 34.3944 133.337 34.338 133.28C33.9438 132.886 33.343 133.506 33.7373 133.882C33.7936 133.938 33.8311 133.976 33.8875 134.032C34.2629 134.427 34.8825 133.826 34.4882 133.431Z" fill="white"/>
<path d="M33.4746 130.706L33.4558 130.687C33.4558 130.687 33.4558 130.706 33.4746 130.706C33.437 130.499 33.2868 130.292 33.024 130.292C32.8175 130.292 32.5734 130.48 32.5922 130.724C32.611 130.95 32.7049 131.138 32.855 131.307C33.2493 131.721 33.8689 131.1 33.4746 130.706Z" fill="white"/>
<path d="M33.4558 130.686C33.4922 130.722 33.4558 130.613 33.4558 130.686V130.686Z" fill="white"/>
<path d="M36.9103 116.945H36.7601C36.1968 116.945 36.1968 117.81 36.7601 117.81H36.9103C37.4547 117.791 37.4547 116.945 36.9103 116.945Z" fill="white"/>
<path d="M34.2068 121.795C34.0566 121.626 33.7562 121.644 33.606 121.795C33.437 121.964 33.4558 122.227 33.606 122.396C33.6435 122.434 33.6248 122.471 33.6248 122.528C33.6248 123.092 34.4884 123.092 34.4884 122.528C34.4696 122.246 34.3945 122.02 34.2068 121.795Z" fill="white"/>
<path d="M21.9097 122.753C21.5906 122.941 21.6657 123.543 22.135 123.543C22.4917 123.543 22.6982 123.336 22.717 122.96C22.717 122.509 22.1162 122.434 21.9097 122.753Z" fill="white"/>
<path d="M22.1348 120.103C21.5716 120.103 21.5716 120.968 22.1348 120.968C22.6981 120.949 22.6981 120.103 22.1348 120.103Z" fill="white"/>
<path d="M16.2588 116.513C15.902 116.513 15.6955 116.719 15.6768 117.095C15.6768 117.565 16.2775 117.641 16.4653 117.321C16.7844 117.095 16.7281 116.494 16.2588 116.513Z" fill="white"/>
<path d="M21.9847 108.185H21.8345C21.2713 108.185 21.2713 109.049 21.8345 109.049H21.9847C22.5479 109.049 22.5479 108.185 21.9847 108.185Z" fill="white"/>
<path d="M15.1134 112.49C15.1509 112.264 14.8881 112.058 14.6816 112.058C14.475 112.058 14.3436 112.189 14.2873 112.34C14.2685 112.377 14.231 112.396 14.2122 112.434C14.1371 112.528 14.1183 112.64 14.0996 112.772C14.062 112.998 14.3249 113.204 14.5314 113.204C14.7379 113.204 14.8693 113.073 14.9256 112.904C14.9444 112.866 14.9819 112.847 15.0007 112.81C15.0758 112.716 15.0946 112.603 15.1134 112.49Z" fill="white"/>
<path d="M17.6855 108.316C17.1223 108.316 17.1223 109.181 17.6855 109.181C18.2487 109.181 18.2487 108.316 17.6855 108.316Z" fill="white"/>
<path d="M10.3635 103.56L10.2133 103.711C9.81908 104.105 10.4199 104.707 10.8141 104.312L10.9643 104.162C11.3586 103.786 10.7578 103.165 10.3635 103.56Z" fill="white"/>
<path d="M19.4125 96.8306C18.8493 96.8306 18.8493 97.6953 19.4125 97.6953C19.957 97.6953 19.957 96.8306 19.4125 96.8306Z" fill="white"/>
<path d="M2.91022 81.8857C2.8539 81.9421 2.81635 81.9797 2.76003 82.0361C2.36577 82.4308 2.98532 83.0324 3.3608 82.6376C3.41713 82.5812 3.45467 82.5436 3.511 82.4872C3.90526 82.1113 3.30448 81.4909 2.91022 81.8857Z" fill="white"/>
<path d="M5.63233 82.0363C5.59478 82.0739 5.55723 82.0551 5.50091 82.0551C4.93768 82.0551 4.93768 82.9198 5.50091 82.9198C5.78253 82.9198 6.00782 82.8447 6.23311 82.6567C6.64614 82.2619 6.04536 81.6603 5.63233 82.0363Z" fill="white"/>
<path d="M3.21063 84.7808C2.6474 84.7808 2.6474 85.6455 3.21063 85.6455C3.75508 85.6455 3.75508 84.7808 3.21063 84.7808Z" fill="white"/>
<path d="M8.65508 96.1162C8.37347 96.1162 8.14818 96.1914 7.92289 96.3794C7.75392 96.5298 7.7727 96.8306 7.92289 96.9809C8.09186 97.1501 8.3547 97.1313 8.52367 96.9809C8.56121 96.9434 8.59876 96.9621 8.65508 96.9621C9.21831 96.9809 9.21831 96.1162 8.65508 96.1162Z" fill="white"/>
<path d="M6.79639 100.853V101.286C6.79639 101.85 7.66 101.85 7.66 101.286V100.853C7.66 100.308 6.79639 100.308 6.79639 100.853Z" fill="white"/>
<path d="M14.4 96.2666C13.8367 96.2666 13.8367 97.1313 14.4 97.1313C14.9444 97.1313 14.9444 96.2666 14.4 96.2666Z" fill="white"/>
<path d="M13.2922 80.3255C13.1795 80.1939 12.9918 80.1375 12.8416 80.1939C12.5975 80.2691 12.5036 80.4947 12.5412 80.7202C12.5975 81.0774 12.9355 81.1714 13.2358 81.1714C13.7803 81.1902 13.7991 80.4007 13.2922 80.3255Z" fill="white"/>
<path d="M10.0818 72.7122C9.51862 72.7122 9.51862 73.5769 10.0818 73.5769C10.6451 73.5769 10.6451 72.7122 10.0818 72.7122Z" fill="white"/>
<path d="M14.4 71.415C13.8367 71.415 13.8367 72.2798 14.4 72.2798C14.9444 72.2798 14.9444 71.415 14.4 71.415Z" fill="white"/>
<path d="M73.8955 142.924V143.921C73.8955 144.485 74.7591 144.485 74.7591 143.921V142.924C74.7591 142.36 73.8955 142.36 73.8955 142.924Z" fill="white"/>
<path d="M77.6316 140.913C77.0684 140.913 77.0684 141.778 77.6316 141.778C78.1761 141.778 78.1761 140.913 77.6316 140.913Z" fill="white"/>
<path d="M80.0723 144.504V144.786C80.0723 145.349 80.9359 145.349 80.9359 144.786V144.504C80.9359 143.94 80.0723 143.94 80.0723 144.504Z" fill="white"/>
<path d="M81.7995 137.304C81.4991 137.022 81.1987 137.022 80.8983 137.304C80.5604 137.642 80.9734 138.15 81.3489 138.018C81.7244 138.15 82.1563 137.642 81.7995 137.304Z" fill="white"/>
<path d="M83.7894 143.638V143.789C83.7894 144.353 84.653 144.353 84.653 143.789V143.638C84.653 143.093 83.7894 143.093 83.7894 143.638Z" fill="white"/>
<path d="M77.9133 145.519C77.35 145.519 77.35 146.383 77.9133 146.383C78.4765 146.364 78.4765 145.519 77.9133 145.519Z" fill="white"/>
<path d="M71.3421 144.767C71.2858 144.71 71.2483 144.673 71.1919 144.616C70.7977 144.221 70.1969 144.823 70.5911 145.218C70.6475 145.274 70.685 145.312 70.7413 145.368C71.1168 145.782 71.7364 145.161 71.3421 144.767Z" fill="white"/>
<path d="M71.3235 145.932C71.0606 145.932 70.9292 146.139 70.8917 146.364C70.9104 146.308 70.9104 146.289 70.8917 146.327C70.8541 146.383 70.7978 146.44 70.7415 146.496C70.3472 146.891 70.9668 147.492 71.3422 147.098C71.5675 146.872 71.7177 146.684 71.7553 146.364C71.7741 146.139 71.53 145.932 71.3235 145.932Z" fill="white"/>
<path d="M74.7591 145.218C74.1959 145.218 74.1959 146.083 74.7591 146.083C75.3223 146.083 75.3223 145.218 74.7591 145.218Z" fill="white"/>
<path d="M91.975 142.924C91.975 142.981 91.9938 143.018 91.9562 143.056C91.806 143.225 91.7872 143.488 91.9562 143.657C92.1064 143.808 92.4068 143.827 92.557 143.657C92.7447 143.432 92.8198 143.206 92.8198 142.924C92.8386 142.36 91.975 142.379 91.975 142.924Z" fill="white"/>
<path d="M95.9927 140.763H95.7111C95.1479 140.763 95.1479 141.627 95.7111 141.627H95.9927C96.5372 141.627 96.5372 140.763 95.9927 140.763Z" fill="white"/>
<path d="M97.9829 140.33C97.814 140.499 97.7389 140.687 97.7201 140.932C97.7013 141.157 97.9266 141.364 98.1519 141.364C98.396 141.364 98.5274 141.195 98.5649 140.988C98.5649 141.007 98.5649 141.007 98.5837 140.969C98.5837 140.969 98.5837 140.951 98.6025 140.951C98.9592 140.537 98.3584 139.917 97.9829 140.33Z" fill="white"/>
<path d="M103.24 137.83C103.033 137.454 102.714 137.322 102.301 137.322C101.738 137.322 101.738 138.187 102.301 138.187C102.338 138.187 102.376 138.187 102.413 138.187C102.413 138.187 102.432 138.187 102.47 138.187C102.489 138.225 102.507 138.262 102.507 138.262C102.751 138.751 103.502 138.319 103.24 137.83Z" fill="white"/>
<path d="M104.742 138.77C104.178 138.77 104.178 139.635 104.742 139.635C105.286 139.616 105.286 138.77 104.742 138.77Z" fill="white"/>
<path d="M106.168 136.025C105.906 136.025 105.774 136.232 105.737 136.458C105.755 136.307 105.699 136.533 105.68 136.571C105.624 136.683 105.605 136.777 105.605 136.89C105.586 137.116 105.812 137.322 106.037 137.322C106.3 137.322 106.45 137.116 106.469 136.89C106.45 137.022 106.506 136.815 106.525 136.777C106.581 136.665 106.6 136.571 106.6 136.458C106.619 136.232 106.375 136.025 106.168 136.025Z" fill="white"/>
<path d="M108.74 134.597C108.177 134.597 108.177 135.461 108.74 135.461C109.304 135.461 109.304 134.597 108.74 134.597Z" fill="white"/>
<path d="M111.05 135.311C110.487 135.311 110.487 136.176 111.05 136.176C111.594 136.176 111.594 135.311 111.05 135.311Z" fill="white"/>
<path d="M113.471 131.871C112.908 131.871 112.908 132.735 113.471 132.735C114.035 132.735 114.035 131.871 113.471 131.871Z" fill="white"/>
<path d="M100.574 142.342C100.574 142.135 100.386 141.89 100.142 141.909C100.029 141.928 99.9353 141.947 99.8227 141.984C99.7851 142.003 99.5786 142.06 99.71 142.041C99.4847 142.06 99.2782 142.21 99.2782 142.473C99.2782 142.68 99.4659 142.924 99.71 142.906C99.8227 142.887 99.9165 142.868 100.029 142.83C100.067 142.812 100.273 142.755 100.142 142.774C100.367 142.755 100.574 142.605 100.574 142.342Z" fill="white"/>
<path d="M106.319 130.574C105.755 130.574 105.755 131.438 106.319 131.438C106.863 131.438 106.863 130.574 106.319 130.574Z" fill="white"/>
<path d="M105.906 129.126C105.511 128.732 104.911 129.333 105.305 129.728L105.324 129.747C105.38 130.254 106.187 130.236 106.168 129.709C106.168 129.465 106.074 129.296 105.906 129.126Z" fill="white"/>
<path d="M107.332 126.306C107.295 126.231 107.239 126.175 107.182 126.119C106.807 125.705 106.206 126.306 106.581 126.72C106.732 126.889 106.807 127.077 107.051 127.115C107.276 127.152 107.52 127.058 107.576 126.814C107.633 126.626 107.539 126.363 107.332 126.306Z" fill="white"/>
<path d="M112.758 127.284C112.195 127.284 112.195 128.149 112.758 128.149C113.321 128.13 113.321 127.284 112.758 127.284Z" fill="white"/>
<path d="M124.229 125.705V126.137C124.229 126.701 125.093 126.701 125.093 126.137V125.705C125.093 125.141 124.229 125.141 124.229 125.705Z" fill="white"/>
<path d="M124.098 120.103V120.254C124.098 120.817 124.962 120.817 124.962 120.254V120.103C124.943 119.539 124.098 119.539 124.098 120.103Z" fill="white"/>
<path d="M122.37 128.863C121.807 128.863 121.807 129.728 122.37 129.728C122.934 129.709 122.934 128.863 122.37 128.863Z" fill="white"/>
<path d="M119.216 126.701C118.653 126.701 118.653 127.566 119.216 127.566C119.761 127.566 119.761 126.701 119.216 126.701Z" fill="white"/>
<path d="M115.48 121.532C114.917 121.532 114.917 122.396 115.48 122.396C116.044 122.396 116.044 121.532 115.48 121.532Z" fill="white"/>
<path d="M131.833 118.223C131.57 118.223 131.42 118.43 131.401 118.656C131.42 118.524 131.345 118.731 131.345 118.768C131.288 118.881 131.269 118.975 131.269 119.088C131.251 119.313 131.495 119.52 131.701 119.52C131.964 119.52 132.096 119.332 132.133 119.088C132.114 119.219 132.171 119.013 132.189 118.975C132.246 118.862 132.264 118.768 132.264 118.656C132.283 118.43 132.039 118.223 131.833 118.223Z" fill="white"/>
<path d="M134.987 115.366C134.424 115.366 134.424 116.23 134.987 116.23C135.55 116.212 135.55 115.366 134.987 115.366Z" fill="white"/>
<path d="M135.569 113.354H135.419C134.855 113.354 134.855 114.219 135.419 114.219H135.569C136.113 114.2 136.113 113.354 135.569 113.354Z" fill="white"/>
<path d="M127.684 114.068V114.219C127.684 114.783 128.547 114.783 128.547 114.219V114.068C128.529 113.505 127.684 113.505 127.684 114.068Z" fill="white"/>
<path d="M137.578 110.91V111.061C137.578 111.625 138.441 111.625 138.441 111.061V110.91C138.422 110.346 137.578 110.346 137.578 110.91Z" fill="white"/>
<path d="M138.854 106.023H138.573C138.009 106.023 138.009 106.888 138.573 106.888H138.854C139.418 106.888 139.418 106.023 138.854 106.023Z" fill="white"/>
<path d="M140.844 107.019C140.675 107.188 140.6 107.376 140.581 107.602C140.563 107.827 140.788 108.034 141.013 108.034C141.257 108.034 141.389 107.865 141.426 107.658C141.426 107.677 141.426 107.677 141.445 107.639C141.445 107.639 141.445 107.639 141.445 107.62C141.839 107.226 141.239 106.605 140.844 107.019Z" fill="white"/>
<path d="M146.326 101.417C146.27 101.361 146.233 101.323 146.176 101.267C145.782 100.872 145.181 101.492 145.576 101.868C145.632 101.925 145.669 101.962 145.726 102.019C146.12 102.413 146.721 101.812 146.326 101.417Z" fill="white"/>
<path d="M143.097 94.3115C142.909 94.1987 142.609 94.2551 142.515 94.4619C142.459 94.5935 142.403 94.7063 142.365 94.8379C142.346 94.8943 142.328 95.0634 142.29 95.0822C142.14 95.2514 142.121 95.5146 142.29 95.6838C142.44 95.8342 142.741 95.8718 142.891 95.6838C143.097 95.4394 143.116 95.1574 143.247 94.8755C143.341 94.6875 143.304 94.4431 143.097 94.3115Z" fill="white"/>
<path d="M148.298 92.112C148.072 92.0744 147.828 92.1684 147.772 92.4128C147.735 92.5632 147.791 92.7511 147.904 92.8639C147.96 93.3527 148.748 93.3527 148.748 92.8075C148.748 92.5068 148.654 92.1684 148.298 92.112Z" fill="white"/>
<path d="M151.058 87.0742H150.757C150.194 87.0742 150.194 87.9389 150.757 87.9389H151.039C151.602 87.9389 151.602 87.0742 151.058 87.0742Z" fill="white"/>
<path d="M149.199 84.7245C149.068 84.8373 149.011 85.0253 149.068 85.1757C149.143 85.42 149.368 85.514 149.593 85.4764C149.95 85.42 150.044 85.0817 150.044 84.7809C150.044 84.2357 149.255 84.2169 149.199 84.7245Z" fill="white"/>
<path d="M153.348 80.175H153.066C152.503 80.175 152.503 81.0398 153.066 81.0398H153.348C153.892 81.0398 153.892 80.175 153.348 80.175Z" fill="white"/>
<path d="M56.6984 143.789V144.071C56.6984 144.635 57.562 144.635 57.562 144.071V143.789C57.562 143.225 56.6984 143.225 56.6984 143.789Z" fill="white"/>
<path d="M58.4255 142.154C58.2941 142.267 58.2378 142.455 58.2941 142.605C58.3692 142.849 58.5945 142.943 58.8198 142.906C59.1765 142.849 59.2703 142.511 59.2703 142.21C59.2703 141.665 58.4818 141.665 58.4255 142.154Z" fill="white"/>
<path d="M61.5607 145.519V146.233C61.5607 146.797 62.4243 146.797 62.4243 146.233V145.519C62.4243 144.955 61.5607 144.955 61.5607 145.519Z" fill="white"/>
<path d="M64.4333 144.785C63.8701 144.785 63.8701 145.65 64.4333 145.65C64.9965 145.65 64.9965 144.785 64.4333 144.785Z" fill="white"/>
<path d="M50.39 142.21V142.36C50.39 142.924 51.2536 142.924 51.2536 142.36V142.21C51.2536 141.646 50.39 141.646 50.39 142.21Z" fill="white"/>
<path d="M51.6667 139.484V139.634C51.6667 140.198 52.5304 140.198 52.5304 139.634V139.484C52.5304 138.92 51.6667 138.92 51.6667 139.484Z" fill="white"/>
<path d="M48.6629 141.778C48.0997 141.778 48.0997 142.643 48.6629 142.643C49.2261 142.643 49.2261 141.778 48.6629 141.778Z" fill="white"/>
<path d="M45.9406 140.048C45.3774 140.048 45.3774 140.913 45.9406 140.913C46.5038 140.913 46.5038 140.048 45.9406 140.048Z" fill="white"/>
<path d="M44.6452 137.322C44.082 137.322 44.082 138.187 44.6452 138.187C45.2084 138.187 45.2084 137.322 44.6452 137.322Z" fill="white"/>
<path d="M38.337 136.758V137.04C38.337 137.604 39.2006 137.604 39.2006 137.04V136.758C39.2006 136.194 38.337 136.194 38.337 136.758Z" fill="white"/>
<path d="M39.5012 134.728L39.351 134.578C38.9567 134.183 38.3559 134.784 38.7502 135.179L38.9004 135.33C39.2947 135.724 39.8954 135.123 39.5012 134.728Z" fill="white"/>
<path d="M35.6147 135.743H35.4645C34.9013 135.743 34.9013 136.608 35.4645 136.608H35.6147C36.178 136.608 36.178 135.743 35.6147 135.743Z" fill="white"/>
<path d="M52.399 131.72V131.871C52.399 132.435 53.2627 132.435 53.2627 131.871V131.72C53.2439 131.175 52.399 131.175 52.399 131.72Z" fill="white"/>
<path d="M89.1589 137.999C88.9149 137.848 88.6896 137.999 88.5206 138.168C88.1827 138.506 88.5769 138.976 88.9336 138.882C89.1589 138.901 89.3842 138.77 89.3842 138.469C89.3842 138.281 89.3279 138.112 89.1589 137.999Z" fill="white"/>
<path d="M90.5107 144.391C90.4544 144.033 90.1165 143.939 89.8161 143.939C89.2716 143.939 89.2716 144.729 89.7597 144.785C89.8724 144.917 90.0601 144.973 90.2103 144.917C90.4732 144.861 90.5483 144.616 90.5107 144.391Z" fill="white"/>
<path d="M86.0047 145.5C85.9672 145.462 85.9484 145.425 85.9108 145.387C85.8545 145.218 85.7231 145.105 85.5166 145.105C85.3101 145.105 85.0472 145.293 85.0848 145.537C85.1036 145.65 85.1223 145.744 85.1599 145.838C85.1974 145.876 85.2162 145.913 85.2538 145.951C85.3101 146.12 85.4415 146.233 85.648 146.233C85.8545 146.233 86.1174 146.026 86.0798 145.801C86.0798 145.688 86.061 145.594 86.0047 145.5Z" fill="white"/>
<path d="M76.1859 138.168C76.2046 138.168 76.1859 138.168 76.1859 138.168C76.1859 138.168 76.1671 138.168 76.1483 138.187C76.1483 138.187 76.1295 138.187 76.1108 138.187C76.0545 138.187 75.9794 138.187 75.923 138.187C75.3598 138.187 75.3598 139.052 75.923 139.052C76.261 139.052 76.5426 139.014 76.8054 138.788C77.1997 138.394 76.5801 137.792 76.1859 138.168Z" fill="white"/>
<path d="M69.7277 142.755L69.5775 142.906C69.1833 143.3 69.8028 143.902 70.1783 143.507L70.3285 143.357C70.7228 142.981 70.122 142.379 69.7277 142.755Z" fill="white"/>
<path d="M67.1368 146.064L66.9867 146.214C66.5924 146.609 67.1932 147.21 67.5874 146.816L67.7376 146.665C68.1506 146.289 67.5311 145.669 67.1368 146.064Z" fill="white"/>
<path d="M11.6025 59.7975V60.3803C11.6025 61.2074 12.898 61.2074 12.898 60.3803V59.7975C12.8792 58.9516 11.6025 58.9516 11.6025 59.7975Z" fill="white"/>
<path d="M43.7629 68.6331C43.5188 68.4263 43.1433 68.4263 42.8992 68.6707C42.6552 68.9151 42.6552 69.3286 42.8992 69.5918C43.1245 69.7986 43.331 69.9302 43.6502 69.9302C44.4387 69.9114 44.4763 68.7647 43.7629 68.6331Z" fill="#231F20"/>
<path d="M43.5 62.7305H43.2184C42.5989 62.7305 42.4487 63.4448 42.7491 63.802H42.6552C42.092 63.802 42.092 64.6667 42.6552 64.6667H42.8054C43.1809 64.6667 43.2935 64.2719 43.1621 64.0088C43.1809 64.0088 43.2184 64.0088 43.2372 64.0088H43.5188C44.3261 64.0276 44.3261 62.7305 43.5 62.7305Z" fill="#231F20"/>
<path d="M39.4072 60.7942V61.2265C39.4072 62.0537 40.7027 62.0537 40.7027 61.2265V60.7942C40.7027 59.967 39.4072 59.967 39.4072 60.7942Z" fill="#231F20"/>
<path d="M41.3785 55.2862C41.0406 55.2298 40.6839 55.3614 40.59 55.7373C40.5712 55.8313 40.5712 55.9253 40.59 56.0381C40.59 56.0945 40.5712 56.1509 40.5712 56.2073C40.5337 56.5645 40.8904 56.8464 41.2095 56.8464C41.585 56.8464 41.8103 56.5457 41.8479 56.2073C41.8291 56.3577 41.8666 56.2073 41.8854 56.1885C41.9042 56.1133 41.923 56.0381 41.923 55.9441C41.8854 55.6434 41.6977 55.3426 41.3785 55.2862Z" fill="#231F20"/>
<path d="M39.9518 48.575C39.7078 48.3306 39.3886 48.3494 39.1258 48.5186C39.1258 48.5186 39.107 48.5186 39.0882 48.5186C39.1445 48.4998 38.9756 48.5186 38.938 48.5186C38.112 48.5186 38.112 49.8157 38.938 49.8157C39.3323 49.8157 39.6702 49.7405 39.9706 49.4773C40.2147 49.2517 40.1771 48.8005 39.9518 48.575Z" fill="#231F20"/>
<path d="M43.256 47.1276C43.087 46.6013 42.8993 46.0937 42.5238 45.6989C42.2797 45.4358 41.8479 45.4546 41.6039 45.6989C41.341 45.9433 41.3598 46.3569 41.6039 46.6201C41.6789 46.6953 41.754 46.8268 41.8291 46.9772C41.8855 47.1088 41.9606 47.3156 42.0169 47.4848C42.1295 47.8232 42.4675 48.0299 42.8054 47.936C43.1433 47.842 43.3686 47.466 43.256 47.1276Z" fill="#231F20"/>
<path d="M40.7026 40.5481V40.8301C40.7026 41.6572 41.9981 41.6572 41.9981 40.8301V40.5481C41.9981 39.721 40.7026 39.721 40.7026 40.5481Z" fill="#231F20"/>
<path d="M43.4249 35.3786V35.9614C43.4249 36.7885 44.7203 36.7885 44.7203 35.9614V35.3786C44.7203 34.5515 43.4249 34.5515 43.4249 35.3786Z" fill="#231F20"/>
<path d="M45.9406 29.5698C45.1145 29.5698 45.1145 30.8669 45.9406 30.8669C46.7667 30.8669 46.7667 29.5698 45.9406 29.5698Z" fill="#231F20"/>
<path d="M39.5575 76.303V76.4534C39.5575 77.2805 40.8529 77.2805 40.8529 76.4534V76.303C40.8529 75.4758 39.5575 75.4758 39.5575 76.303Z" fill="#231F20"/>
<path d="M45.0583 75.3819C44.8142 75.1751 44.4387 75.1751 44.1946 75.4195C43.9506 75.6639 43.9506 76.0774 44.1946 76.3406C44.4199 76.5474 44.6265 76.679 44.9456 76.679C45.7341 76.6602 45.7717 75.5135 45.0583 75.3819Z" fill="#231F20"/>
<path d="M44.8706 74.0095C44.8706 74.0283 44.8706 74.0283 44.8706 74.0471C44.6828 74.3103 44.6828 74.6486 44.9081 74.893C45.1522 75.1374 45.584 75.1562 45.8281 74.893C46.0533 74.6298 46.166 74.3479 46.166 74.0095C46.166 73.1824 44.8706 73.1824 44.8706 74.0095Z" fill="#231F20"/>
<path d="M47.0859 82.8447C46.2598 82.8447 46.2598 84.1418 47.0859 84.1418C47.9119 84.123 47.9119 82.8447 47.0859 82.8447Z" fill="#231F20"/>
<path d="M55.5719 92.5073C55.3278 92.2629 54.896 92.2441 54.6519 92.5073C54.4266 92.7705 54.314 93.0525 54.314 93.3908C54.314 94.218 55.6094 94.218 55.6094 93.3908C55.6094 93.372 55.6094 93.372 55.6094 93.3532C55.7971 93.0901 55.8159 92.7517 55.5719 92.5073Z" fill="#231F20"/>
<path d="M58.4443 98.7104C58.1627 98.5412 57.7121 98.6164 57.5619 98.936C57.5056 99.0676 57.4493 99.1992 57.393 99.3308C57.393 99.3308 57.393 99.3495 57.3742 99.3683C57.3554 99.3871 57.3554 99.406 57.3366 99.4247C57.3366 99.4247 57.3554 99.4059 57.3554 99.3872C57.1301 99.6503 57.1114 100.026 57.3742 100.289C57.6183 100.534 58.0501 100.553 58.2941 100.289C58.388 100.195 58.4631 100.083 58.5194 99.9699C58.557 99.8947 58.5945 99.8007 58.6133 99.7255C58.6133 99.7067 58.6321 99.6691 58.6321 99.6503C58.6321 99.6503 58.6508 99.6315 58.6696 99.5751C58.8386 99.2932 58.7823 98.8984 58.4443 98.7104Z" fill="#231F20"/>
<path d="M60.3031 99.6882C60.059 99.4438 59.646 99.4438 59.3831 99.6882C59.2892 99.7822 59.1954 99.8761 59.1015 99.9701C58.8574 100.215 58.8574 100.628 59.1015 100.891C59.3456 101.136 59.7586 101.136 60.0214 100.891C60.1153 100.797 60.2092 100.703 60.3031 100.609C60.5471 100.346 60.5471 99.9325 60.3031 99.6882Z" fill="#231F20"/>
<path d="M65.6537 104.594V105.027C65.6537 105.854 66.9491 105.854 66.9491 105.027V104.594C66.9491 103.748 65.6537 103.748 65.6537 104.594Z" fill="#231F20"/>
<path d="M68.0191 108.11C67.193 108.11 67.193 109.407 68.0191 109.407C68.8451 109.407 68.8451 108.11 68.0191 108.11Z" fill="#231F20"/>
<path d="M48.8132 95.7593C47.9871 95.7593 47.9871 97.0563 48.8132 97.0563C49.6392 97.0563 49.6392 95.7593 48.8132 95.7593Z" fill="#231F20"/>
<path d="M139.436 94.2554C138.873 94.2554 138.873 95.1201 139.436 95.1201C139.981 95.1201 139.981 94.2554 139.436 94.2554Z" fill="#231F20"/>
<path d="M138.742 93.5411C138.516 93.2967 137.991 93.3907 137.991 93.823C137.991 94.2742 138.31 94.4058 138.704 94.4058C139.267 94.387 139.267 93.5787 138.742 93.5411Z" fill="#231F20"/>
<path d="M141.727 90.2327C141.858 90.2515 141.652 90.1951 141.614 90.1763C141.501 90.1199 141.408 90.1011 141.295 90.1011C141.07 90.0823 140.863 90.3267 140.863 90.5335C140.863 90.7967 141.07 90.9283 141.295 90.9659C141.164 90.9471 141.37 91.0035 141.408 91.0223C141.52 91.0786 141.614 91.0974 141.727 91.0974C141.952 91.1162 142.159 90.8719 142.159 90.6651C142.159 90.4019 141.952 90.2515 141.727 90.2327Z" fill="#231F20"/>
<path d="M142.59 89.3678V89.6498C142.59 90.2138 143.454 90.2138 143.454 89.6498V89.3678C143.454 88.8227 142.59 88.8227 142.59 89.3678Z" fill="#231F20"/>
<path d="M145.613 84.7622L145.463 84.6118C145.069 84.2171 144.468 84.8186 144.862 85.2134L145.012 85.3638C145.406 85.7585 146.007 85.157 145.613 84.7622Z" fill="#231F20"/>
<path d="M35.7651 42.9922H35.6149C35.0517 42.9922 35.0517 43.8569 35.6149 43.8569H35.7651C36.3096 43.8569 36.3096 42.9922 35.7651 42.9922Z" fill="#231F20"/>
<path d="M36.7788 54.0269L36.4972 53.7449C36.103 53.3501 35.5022 53.9517 35.8964 54.3464L36.1781 54.6284C36.5723 55.042 37.1731 54.4216 36.7788 54.0269Z" fill="#231F20"/>
<path d="M43.5001 52.3347C42.9368 52.3347 42.9368 53.1994 43.5001 53.1994C44.0633 53.1806 44.0633 52.3347 43.5001 52.3347Z" fill="#231F20"/>
<path d="M40.6276 35.6794H40.0456C39.4824 35.6794 39.4824 36.5442 40.0456 36.5442H40.6276C41.1908 36.5254 41.1908 35.6794 40.6276 35.6794Z" fill="#231F20"/>
<path d="M45.2272 37.8224C45.2084 37.2773 44.3448 37.2585 44.3636 37.8224C44.3824 38.0668 44.495 38.2924 44.5138 38.5368C44.5326 39.0819 45.3962 39.1007 45.3774 38.5368C45.3586 38.2924 45.2272 38.0668 45.2272 37.8224Z" fill="#231F20"/>
<path d="M48.4565 28.4233C48.3626 28.2165 48.0622 28.1601 47.8745 28.2729C47.668 28.4045 47.6116 28.6489 47.7243 28.8557C47.7994 29.0249 47.7994 29.1753 47.7994 29.3632C47.7994 29.9272 48.663 29.9272 48.663 29.3632C48.663 29.0061 48.6066 28.7241 48.4565 28.4233Z" fill="#231F20"/>
<path d="M48.5127 23.3289H48.2311C47.6679 23.3289 47.6679 24.1936 48.2311 24.1936H48.5127C49.076 24.1748 49.076 23.3289 48.5127 23.3289Z" fill="#231F20"/>
<path d="M53.6193 20.6596C53.5254 20.4529 53.225 20.3965 53.0373 20.5093C52.812 20.6408 52.7932 20.8852 52.8871 21.092C52.9997 21.3176 52.9809 21.6372 52.9809 21.8815C52.9809 22.4455 53.8445 22.4455 53.8445 21.8815C53.8258 21.468 53.807 21.0544 53.6193 20.6596Z" fill="#231F20"/>
<path d="M54.8209 16.5803C54.2576 16.5803 54.2576 17.4451 54.8209 17.4451C55.3841 17.4263 55.3841 16.5803 54.8209 16.5803Z" fill="#231F20"/>
<path d="M37.7738 67.2607H37.6236C37.0604 67.2607 37.0604 68.1255 37.6236 68.1255H37.7738C38.3182 68.1255 38.3182 67.2607 37.7738 67.2607Z" fill="#231F20"/>
<path d="M47.7805 73.1823C47.7429 72.9379 47.5552 72.8439 47.3862 72.7123C46.9732 72.3364 46.3724 72.9567 46.7854 73.3139C46.8418 73.3703 46.9169 73.4267 46.9732 73.4643C47.0483 73.6523 47.2923 73.7651 47.4801 73.7087C47.7429 73.6335 47.818 73.4079 47.7805 73.1823Z" fill="#231F20"/>
<path d="M45.2272 69.7047V70.5694C45.2272 71.1334 46.0908 71.1334 46.0908 70.5694V69.7047C46.0908 69.1407 45.2272 69.1407 45.2272 69.7047Z" fill="#231F20"/>
<path d="M45.0771 66.114H44.9269C44.3637 66.114 44.3637 66.9787 44.9269 66.9787H45.0771C45.6403 66.9787 45.6403 66.114 45.0771 66.114Z" fill="#231F20"/>
<path d="M44.0633 58.3879C44.007 58.0308 43.6691 57.9368 43.3687 57.9368C42.8242 57.9368 42.8242 58.7263 43.3123 58.7827C43.425 58.9143 43.6127 58.9707 43.7629 58.9143C44.007 58.8391 44.1009 58.6135 44.0633 58.3879Z" fill="#231F20"/>
<path d="M41.2095 65.2495C40.6463 65.2495 40.6463 66.1142 41.2095 66.1142C41.754 66.1142 41.754 65.2495 41.2095 65.2495Z" fill="#231F20"/>
<path d="M44.2134 81.3222V81.4726C44.2134 82.0365 45.077 82.0365 45.077 81.4726V81.3222C45.077 80.777 44.2134 80.777 44.2134 81.3222Z" fill="#231F20"/>
<path d="M46.5038 86.7737C46.4099 86.8677 46.3724 86.9241 46.241 86.9429C45.6965 86.9617 45.6777 87.8264 46.241 87.8077C46.5977 87.7889 46.8605 87.6385 47.1234 87.3941C47.4988 86.9805 46.8981 86.3789 46.5038 86.7737Z" fill="#231F20"/>
<path d="M48.2311 88.5031V89.6498C48.2311 90.2137 49.0947 90.2137 49.0947 89.6498V88.5031C49.0947 87.958 48.2311 87.958 48.2311 88.5031Z" fill="#231F20"/>
<path d="M51.2537 95.8154C51.0847 95.6462 50.9158 95.5522 50.6717 95.5522C50.1272 95.5522 50.1273 96.3606 50.6342 96.3982L50.6529 96.417C51.0472 96.8118 51.648 96.2102 51.2537 95.8154Z" fill="#231F20"/>
<path d="M54.5392 100.29C53.976 100.29 53.976 101.154 54.5392 101.154C55.1025 101.135 55.1025 100.29 54.5392 100.29Z" fill="#231F20"/>
<path d="M74.9094 109.332H74.7592C74.196 109.332 74.196 110.196 74.7592 110.196H74.9094C75.4539 110.196 75.4539 109.332 74.9094 109.332Z" fill="#231F20"/>
<path d="M81.2924 111.682C81.1047 111.569 80.8043 111.625 80.7104 111.832C80.6353 112.001 80.579 112.189 80.5415 112.377C80.5039 112.528 80.4851 112.697 80.4288 112.847C80.335 113.054 80.3725 113.317 80.579 113.43C80.7668 113.543 81.0671 113.486 81.161 113.279C81.2361 113.11 81.2924 112.922 81.33 112.734C81.3675 112.584 81.3863 112.415 81.4426 112.264C81.5365 112.058 81.499 111.813 81.2924 111.682Z" fill="#231F20"/>
<path d="M84.9347 109.332V109.482C84.9347 110.046 85.7983 110.046 85.7983 109.482V109.332C85.7983 108.768 84.9347 108.768 84.9347 109.332Z" fill="#231F20"/>
<path d="M90.3793 110.892C90.2854 110.986 90.154 110.873 90.0413 110.817C89.5532 110.572 89.1026 111.305 89.6095 111.569C90.0976 111.813 90.5482 111.888 90.9988 111.493C91.3931 111.117 90.7923 110.516 90.3793 110.892Z" fill="#231F20"/>
<path d="M94.9977 106.869L94.9789 106.85C94.9789 106.85 94.9789 106.869 94.9977 106.869C94.9601 106.662 94.8099 106.456 94.5471 106.456C94.3406 106.456 94.0965 106.644 94.1153 106.888C94.1341 107.114 94.2279 107.302 94.3781 107.471C94.7724 107.884 95.3732 107.264 94.9977 106.869Z" fill="#231F20"/>
<path d="M94.9789 106.849C95.0152 106.886 94.9789 106.777 94.9789 106.849V106.849Z" fill="#231F20"/>
<path d="M99.5787 110.61L99.4285 110.459C99.0342 110.065 98.4335 110.666 98.8277 111.061L98.9779 111.211C99.3722 111.606 99.9729 110.986 99.5787 110.61Z" fill="#231F20"/>
<path d="M28.5933 43.1424C26.0963 43.5184 25.289 40.4543 27.3542 39.3076C28.9312 38.4428 30.9776 38.894 30.8837 40.9806C30.8462 41.9206 29.5132 43.0109 28.5933 43.1424Z" fill="#231F20"/>
<path d="M31.935 54.365C31.7097 53.1807 34.3193 53.5755 34.2818 54.8162C34.263 55.6997 32.8925 56.2825 32.2166 55.8501C31.6158 55.4554 31.3718 53.9891 32.348 53.9515L31.935 54.365Z" fill="#231F20"/>
<path d="M41.5663 80.6264C41.1533 81.2091 40.0456 81.6415 39.3697 81.2843C38.3371 80.758 38.4498 78.6902 39.5387 78.2766C41.0031 77.7314 42.5426 79.2729 41.5663 80.6264Z" fill="#231F20"/>
<path d="M53.9759 103.016C51.1035 104.35 54.6893 108.524 56.4541 105.309C57.8059 102.846 54.051 101.324 53.5441 103.298L53.9759 103.016Z" fill="#231F20"/>
<path d="M51.2912 104.049C50.4839 105.384 48.8881 105.215 48.9444 103.467C49.0008 101.23 52.3614 102.282 51.2912 104.049Z" fill="#231F20"/>
<path d="M35.8964 76.1524C36.6662 74.6861 38.7126 76.5283 37.7551 77.7126C36.7788 78.9345 35.0704 77.957 35.7463 76.4531L35.8964 76.1524Z" fill="#231F20"/>
<path d="M30.039 54.9103C29.7198 55.9442 28.0865 55.9254 27.8049 54.8915C27.2979 53.0304 30.5647 53.1996 30.039 54.9103Z" fill="#231F20"/>
<path d="M44.1946 28.8932C42.8053 29.8707 41.1532 28.0285 42.4298 26.8254C43.7628 25.5847 46.0532 27.5773 44.1946 28.8932Z" fill="#231F20"/>
<path d="M59.4206 16.8247C57.8623 18.0654 55.5906 16.7871 56.5105 14.7005C57.6558 12.1251 61.7861 14.9449 59.4206 16.8247Z" fill="#231F20"/>
<path d="M64.8837 14.0049C64.7899 14.8696 63.4194 15.7155 62.6308 15.1328C60.5094 13.5725 65.1466 11.4483 64.8837 14.0049Z" fill="#231F20"/>
<path d="M137.446 97.263C137.934 96.6051 138.854 96.6991 139.211 97.3758C139.68 98.2781 138.742 100.083 137.653 99.3684C137.108 99.0301 136.676 97.6014 137.54 97.3758L137.446 97.263Z" fill="#231F20"/>
<path d="M92.1441 108.787C91.4494 109.595 89.6471 109.463 89.7034 108.129C89.7973 106.23 93.9089 106.775 92.1441 108.787Z" fill="#231F20"/>
<path opacity="0.2" d="M63.4006 123.769C63.5696 126.682 61.1853 128.656 58.4254 128.374C54.558 127.979 52.6054 123.092 55.6093 120.31C56.6419 119.351 58.3503 118.411 59.8523 118.787C61.8236 119.295 63.119 121.494 63.3818 123.393C63.3818 123.505 63.4006 123.637 63.4006 123.769Z" fill="white"/>
<path opacity="0.2" d="M43.1056 91.8114C43.2183 97.9773 33.4932 95.7215 35.5396 90.6647C36.1967 89.0669 37.3983 87.9014 39.2194 87.9014C41.7164 87.9014 43.0681 89.8564 43.1056 91.8114Z" fill="white"/>
<path opacity="0.2" d="M28.6682 88.5784C28.7245 90.0823 27.2789 91.229 25.7206 90.5146C24.4815 89.9507 23.693 88.1836 24.6693 87.0181C25.6831 85.8526 27.9172 86.3414 28.4805 87.7512C28.5931 88.0332 28.6494 88.2964 28.6682 88.5784Z" fill="white"/>
<path opacity="0.2" d="M21.7031 61.9033C21.7031 62.2228 21.6656 62.5424 21.5905 62.8808C21.3089 64.2155 20.5391 65.287 19.1499 65.5313C17.0471 65.9073 15.1697 64.629 14.6065 62.5988C13.2172 57.5608 21.7782 56.3389 21.7031 61.9033Z" fill="white"/>
<path opacity="0.2" d="M93.139 116.757C93.2329 117.716 92.895 118.655 91.975 119.107C90.1164 119.99 87.2627 119.144 87.2627 116.757C87.2627 114.915 89.403 113.054 91.2241 113.843C92.2754 114.294 93.0264 115.554 93.139 116.757Z" fill="white"/>
</g>
<defs>
<clipPath id="clip0">
<rect width="155" height="148" fill="white"/>
</clipPath>
</defs>
</svg>
