<svg width="348" height="183" viewBox="0 0 348 183" fill="none" xmlns="http://www.w3.org/2000/svg">
<g clip-path="url(#clip0)">
<path d="M51.1765 109.764C51.1159 109.764 51.0554 109.764 50.9948 109.764C48.5723 109.583 47.6032 107.59 46.8159 105.96C46.4525 106.805 45.8469 107.469 45.0596 107.952C43.9694 108.556 42.7581 108.617 41.6074 108.134C40.0933 107.469 38.882 105.296 38.3975 103.364C37.6708 104.451 36.5201 105.477 35.3088 105.9C34.0975 106.322 32.8862 106.202 31.8566 105.417C29.858 103.968 29.7975 101.734 30.1003 99.6809C29.6158 100.104 29.0707 100.526 28.5256 100.828C27.1327 101.492 25.7397 101.432 24.7101 100.587C23.4383 99.4998 23.4383 95.9376 23.9228 93.1603C23.1354 93.764 22.2875 94.1867 21.4397 94.2471C20.2284 94.3678 19.1988 93.8848 18.5326 92.7377C17.8058 91.4094 17.8058 88.934 18.5326 87.3038C17.5636 87.3642 16.8974 87.0019 16.4734 86.7C15.2016 85.7944 14.5959 83.8624 14.9593 81.87C15.2621 80.3606 16.0495 79.0323 17.1396 78.187C16.4734 77.8248 15.9889 77.1606 15.7466 76.1946C15.141 73.6588 16.6551 69.4325 18.896 67.9834C18.7143 67.8627 18.5931 67.6816 18.4115 67.5608C17.2607 66.5948 15.8678 65.3873 17.3213 62.9722C18.5326 60.9194 20.7734 60.4968 22.7721 60.3761C21.1974 58.927 19.3805 56.8742 20.7129 54.6403C21.9242 52.5875 24.6495 52.2857 26.7693 52.1649C25.6186 50.897 24.3467 48.965 25.4369 46.7914C26.3453 45.0405 28.2228 44.799 29.858 44.799C29.3735 44.1349 29.0707 43.4104 29.0101 42.6255C28.8284 41.418 29.1918 40.2104 29.9792 39.2444C31.4933 37.3728 34.1581 37.9765 35.975 39.3048L35.2482 40.2708C34.2792 39.5463 32.0989 38.5199 30.8876 39.9689C30.282 40.6935 30.0397 41.5387 30.1608 42.4444C30.282 43.4104 30.8271 44.316 31.6749 44.9198L33.189 46.0669L30.7059 46.0065C28.6468 45.9462 27.1327 46.0066 26.4665 47.3348C25.558 49.1461 27.0115 50.8366 28.4651 52.2253L29.4341 53.1913C29.4341 53.1913 27.496 53.3121 27.1932 53.3724C25.1946 53.4932 22.6509 53.6139 21.6213 55.3045C20.6523 56.995 22.2875 58.5648 24.2862 60.2553L25.6791 61.4025L23.62 61.5232C21.5002 61.644 19.3805 61.7647 18.2903 63.576C17.3819 65.0854 17.9875 65.6288 19.1382 66.6552C19.5016 67.0174 19.9256 67.3193 20.2889 67.7419L20.8946 68.4061L20.0467 68.708C18.1692 69.3117 16.3523 73.4777 16.8974 75.8927C17.1396 76.9795 17.8058 77.4021 19.0171 77.221L19.2594 78.4285C17.6241 78.8511 16.4734 80.1794 16.11 82.0511C15.8072 83.6209 16.2312 85.0699 17.1396 85.6736C17.7453 86.0963 18.5931 86.1567 19.6227 85.734C19.9256 85.4925 20.2889 85.3114 20.6523 85.251L24.5284 84.4058L21.0763 86.3378C20.7734 86.5189 20.5312 86.6397 20.2284 86.7604C19.9256 87.0019 19.7439 87.3642 19.5622 87.6661C18.896 89.1151 19.0171 91.1679 19.5016 92.0131C19.865 92.6773 20.4706 92.9791 21.1974 92.9188C22.3481 92.798 23.6805 91.7716 24.4073 90.6245C24.5284 90.2019 24.7101 89.9 24.8312 89.6585L26.951 86.4585L25.9214 90.1415C25.8002 90.5037 25.6791 90.866 25.4369 91.1679C24.7101 93.4622 24.2862 98.5941 25.3763 99.4998C26.2242 100.224 27.1932 99.9224 27.92 99.6205C29.1918 99.0168 30.282 97.6281 30.5242 96.5413C30.5242 96.3602 30.5848 96.1791 30.5848 95.998H31.7961C31.7961 96.2395 31.7961 96.4206 31.7355 96.6621C31.6749 97.2055 31.5538 97.7489 31.4933 98.2923C31.0693 100.587 30.6454 103.002 32.5228 104.33C33.189 104.813 33.9764 104.934 34.8243 104.632C36.3989 104.028 37.7919 102.277 38.0947 100.949L39.306 101.13C39.1243 102.82 40.5778 106.202 42.0919 106.866C43.1215 107.349 43.9694 107.047 44.4539 106.745C45.3018 106.202 45.968 105.175 46.0286 104.088L46.1497 102.217L47.1187 103.786C47.4216 104.269 47.6638 104.752 47.9061 105.296C48.6328 106.866 49.3596 108.315 51.0554 108.435C51.7822 108.496 52.5695 108.073 53.2962 107.288C54.3258 106.202 55.0526 104.571 54.9315 103.545L56.1427 103.303C56.6273 104.934 59.2921 106.685 61.2301 106.624C63.2287 106.564 63.7738 104.451 64.2583 101.975L64.5611 100.405L65.3485 101.432C66.4386 102.76 68.6189 104.209 70.1936 103.183C70.9809 102.7 71.8288 100.949 71.8288 99.4394C71.8288 98.9564 71.7077 98.2922 71.2837 97.93C71.2232 97.93 71.1626 97.8696 71.1626 97.8092L71.8288 96.7829C71.8894 96.8432 71.9499 96.8432 72.0105 96.9036C72.8584 97.447 73.8274 97.6281 74.7964 97.447C75.7049 97.2659 76.4922 96.7829 76.9767 96.0583C77.6429 95.0923 77.9457 92.9791 77.3401 92.0131C77.219 91.832 77.0373 91.5905 76.6133 91.5301C76.4922 91.5301 76.3105 91.5301 76.1894 91.5301L76.1288 90.3226C76.3105 90.3226 76.4922 90.3226 76.6739 90.3226C78.8542 90.2622 80.126 89.7188 80.6106 87.5453C81.1556 84.9491 80.3077 83.2586 77.8852 82.4133L74.857 81.3266L78.0669 81.2058C80.3077 81.1454 83.0331 80.4209 83.4571 77.3417C83.5782 76.3757 83.8204 73.2362 81.0951 72.7532L79.0965 72.3909L81.1556 71.4853C83.4571 70.4589 85.3345 69.674 85.274 67.0174C85.274 64.2401 82.8514 62.9119 80.55 62.6704L78.6725 62.4289L80.3683 61.5232C82.3063 60.4968 83.6993 57.961 83.2754 56.4516C82.912 55.2441 81.3979 55.1233 80.1866 55.2441L77.5824 55.4856L79.8232 54.1573C80.9739 53.4932 82.1852 51.1989 81.8824 49.8102C81.7613 49.3272 81.4585 49.0254 80.9134 48.8442L79.8232 48.9046C79.8232 48.6027 79.8232 48.3612 79.8838 48.0593L79.9444 47.6971L80.4894 47.7575C82.3063 47.9386 82.8514 49.0857 83.0331 49.7499C83.3359 51.1989 82.6697 53.0706 81.6401 54.3385C83.5782 54.58 84.2444 55.6667 84.4261 56.3912C84.9106 58.0818 83.881 60.4968 82.1247 62.0062C84.7895 62.7911 86.4853 64.7231 86.4853 67.2589C86.4853 70.157 84.7895 71.3645 82.7909 72.3305C84.3049 73.2966 85.0317 75.2286 84.6683 77.7644C84.305 80.2398 82.7303 81.8096 80.0655 82.4133C81.7007 83.6209 82.3063 85.5529 81.7613 88.0283C81.2768 90.3226 79.9444 91.2282 78.3697 91.5905C79.2176 93.0395 78.8542 95.6357 77.9457 96.964C77.2795 97.9904 76.1894 98.6545 74.9781 98.896C74.3119 99.0168 73.6457 99.0168 72.9795 98.8356C73.0401 99.0771 73.0401 99.3186 73.0401 99.6205C73.0401 101.492 72.071 103.666 70.8598 104.39C68.9823 105.598 66.6809 104.511 65.2879 103.243C64.8639 105.356 64.0161 107.892 61.2907 108.013C59.5949 108.073 57.2935 106.986 55.9611 105.477C55.6582 106.503 55.0526 107.53 54.2653 108.315C53.2357 109.22 52.2061 109.764 51.1765 109.764Z" fill="#FF939C"/>
<path d="M348 0C318.324 16.9053 262.787 42.1425 187.748 48.2405C108.288 54.7611 36.7623 28.4371 0 11.4715V12.7997C33.0679 28.0145 93.6923 50.5348 162.856 50.5348C171.093 50.5348 179.451 50.2329 187.93 49.5084C262.666 43.4104 318.142 18.4147 348.061 1.44903V0H348Z" fill="#231F20"/>
<path d="M236.199 85.9153L210.762 55.9688L185.023 55.4254C180.965 67.9233 176.241 73.5382 163.523 72.7534C157.89 72.3911 156.376 71.5458 151.531 68.4667C149.653 67.2591 141.114 55.4254 142.022 55.4254L116.283 55.9688L90.846 85.9153C89.2713 87.787 89.2713 90.5039 90.7854 92.3756L102.293 106.383C103.867 108.315 106.653 108.798 108.773 107.53L120.704 100.526C121.612 99.983 122.703 99.983 123.672 100.466C124.58 100.949 125.186 101.915 125.246 102.941L123.127 148.948C123.248 151.484 125.246 153.597 127.851 153.718C138.57 154.442 147.958 160.359 152.5 170.2C153.711 172.857 154.62 175.695 155.225 178.532C155.589 180.162 155.225 180.827 156.982 181.37C158.617 181.853 160.494 182.094 162.19 182.276C164.855 182.577 167.641 182.759 170.306 182.094C173.092 181.37 172.547 180.042 173.092 177.627C174 173.883 175.333 170.261 177.331 167C180.359 162.11 184.841 158.246 190.171 156.072C193.381 154.744 196.833 154.02 200.285 153.778C202.829 153.597 204.888 151.544 205.009 149.008L201.799 103.002C201.86 101.975 202.465 101.009 203.374 100.526C204.282 100.043 205.433 100.043 206.341 100.587L218.272 107.59C220.453 108.858 223.178 108.375 224.753 106.443L236.26 92.436C237.774 90.5039 237.774 87.787 236.199 85.9153Z" fill="#C4E3FF"/>
<path d="M158.253 180.404C153.832 164.223 141.901 150.035 124.095 149.25C121.249 149.129 121.249 153.476 124.095 153.597C139.903 154.261 149.714 166.457 153.59 180.585C154.317 183.302 158.98 183.121 158.253 180.404Z" fill="#FF939C"/>
<path d="M205.009 151.242C198.528 149.552 188.535 155.287 183.085 158.427C174.606 163.317 172.123 171.106 169.397 180.404C168.61 183.06 172.183 184.087 173.273 181.491C176.301 174.487 177.392 167.242 184.235 162.834C188.535 160.057 198.468 154.08 203.858 155.469C206.583 156.133 207.734 151.967 205.009 151.242Z" fill="#FF939C"/>
<path d="M184.841 55.4254C180.359 62.9724 174.061 69.1307 164.734 69.0704C155.892 69.01 147.291 63.0931 142.931 56.0291C140.993 52.9499 136.996 55.7272 138.813 57.8404C145.232 65.3874 154.499 72.7533 164.734 73.4174C175.393 74.0816 183.569 65.9912 188.596 57.5989C190.11 55.1839 186.295 52.9499 184.841 55.4254Z" fill="#FF939C"/>
<path d="M150.744 143.575C150.926 142.065 149.351 140.858 148.018 140.858C147.292 140.858 146.565 141.16 146.08 141.643C145.838 141.884 145.656 142.186 145.535 142.427C145.475 142.488 145.414 142.548 145.414 142.609C145.051 143.092 144.99 143.695 144.93 144.299C144.748 145.809 146.323 147.016 147.655 147.016C148.382 147.016 149.109 146.714 149.593 146.231C149.835 145.99 150.017 145.688 150.138 145.446C150.199 145.386 150.259 145.325 150.259 145.265C150.623 144.782 150.683 144.178 150.744 143.575Z" fill="#231F20"/>
<path d="M190.776 119.666C190.171 118.941 189.141 118.7 188.172 118.639C186.658 118.579 185.447 119.907 185.447 121.356C185.447 122.322 185.931 123.107 186.658 123.59C187.143 124.315 187.991 124.798 188.96 124.798C190.474 124.798 191.685 123.53 191.685 122.081C191.685 121.115 191.382 120.39 190.776 119.666Z" fill="#231F20"/>
<path d="M161.524 103.666C158.011 103.666 158.011 109.16 161.524 109.16C165.037 109.16 165.037 103.666 161.524 103.666Z" fill="#231F20"/>
<path d="M139.963 82.1719H139.6C138.086 82.1719 136.874 83.4398 136.874 84.8888C136.874 86.3982 138.146 87.6057 139.6 87.6057H139.963C141.477 87.6057 142.689 86.3378 142.689 84.8888C142.689 83.4398 141.477 82.1719 139.963 82.1719Z" fill="#231F20"/>
<path d="M181.994 79.6361C178.482 79.6361 178.482 85.1303 181.994 85.1303C185.507 85.1303 185.507 79.6361 181.994 79.6361Z" fill="#231F20"/>
<path d="M217.061 79.9984C215.547 79.9984 214.336 81.2663 214.336 82.7153V83.0776C214.336 84.587 215.607 85.7945 217.061 85.7945C218.575 85.7945 219.786 84.5266 219.786 83.0776V82.7153C219.847 81.2663 218.575 79.9984 217.061 79.9984Z" fill="#231F20"/>
<path d="M108.167 93.1002C106.956 93.1002 105.987 93.8851 105.624 94.9719C104.897 96.0587 104.897 97.5077 105.866 98.4737C106.895 99.5001 108.773 99.5605 109.742 98.4737C110.408 97.6888 110.893 96.8435 110.893 95.8171C110.953 94.3681 109.621 93.1002 108.167 93.1002Z" fill="#231F20"/>
<path d="M121.794 64.4215C120.765 63.3951 118.948 63.3951 117.918 64.4215C117.797 64.5422 117.676 64.663 117.555 64.7837C116.525 65.8101 116.525 67.6214 117.555 68.6478C118.584 69.6742 120.401 69.6742 121.431 68.6478C121.552 68.527 121.673 68.4063 121.794 68.2855C122.884 67.1988 122.884 65.4479 121.794 64.4215Z" fill="#231F20"/>
<path d="M171.759 151.604H171.396C170.427 151.604 169.761 152.027 169.276 152.631C168.852 153.114 168.61 153.718 168.61 154.382C168.61 155.046 168.852 155.65 169.276 156.133C169.7 156.736 170.427 157.159 171.396 157.159H171.759C173.273 157.159 174.485 155.891 174.485 154.442C174.485 152.812 173.273 151.604 171.759 151.604Z" fill="#231F20"/>
<path d="M130.455 119.364C128.941 119.364 127.729 120.632 127.729 122.081V122.805C127.729 124.315 129.001 125.522 130.455 125.522C131.969 125.522 133.18 124.254 133.18 122.805V122.081C133.18 120.571 131.969 119.364 130.455 119.364Z" fill="#231F20"/>
<path d="M270.72 41.1161L246.434 49.2065C246.434 49.2065 250.734 67.2589 249.281 72.9343C247.827 78.6097 237.834 97.6281 243.103 101.915C248.372 106.202 265.027 101.915 272.174 90.0207C279.32 78.1267 278.836 71.0023 276.958 61.0402C275.02 51.0781 270.72 41.1161 270.72 41.1161Z" fill="#BF9C83"/>
<path d="M265.996 85.0094C259.274 84.3453 252.672 82.3529 245.889 81.9906C245.647 82.5944 245.405 83.1981 245.162 83.8623C254.005 84.1641 263.998 87.7263 273.385 87.8471C273.809 87.1226 274.172 86.3377 274.536 85.6132C271.629 85.6132 268.722 85.2509 265.996 85.0094Z" fill="white"/>
<path d="M263.998 93.0395C257.033 92.0735 250.371 89.9603 243.648 87.9679C243.467 88.5717 243.224 89.1754 243.043 89.7792C248.796 91.4697 254.489 93.2206 260.364 94.3678C262.484 94.7904 265.148 94.9111 267.753 95.3338C268.237 94.8508 268.782 94.3678 269.206 93.8244C267.51 93.5225 265.694 93.281 263.998 93.0395Z" fill="white"/>
<path d="M277.927 67.742C277.867 67.0779 277.806 66.4138 277.685 65.7496C268.479 68.4666 259.152 70.459 249.523 71.1231C249.462 71.7872 249.402 72.4514 249.281 72.9344C249.281 72.9948 249.281 72.9948 249.22 73.0551C255.579 72.6929 261.878 71.7872 268.176 70.3986C271.508 69.6137 274.717 68.7081 277.927 67.742Z" fill="white"/>
<path d="M248.009 76.7379C247.767 77.3417 247.524 77.9454 247.282 78.6699C257.457 78.6096 267.571 78.3681 277.625 77.1605C277.746 76.4964 277.867 75.8323 277.927 75.2285C267.995 76.436 258.002 76.6775 248.009 76.7379Z" fill="white"/>
<path d="M267.268 56.8744C269.993 56.0895 272.658 55.2442 275.384 54.3386C275.202 53.7348 275.02 53.131 274.839 52.5273C271.205 53.7348 267.571 54.8216 263.877 55.848C259.031 57.2366 253.823 59.0479 248.614 60.0743C248.736 60.6781 248.796 61.3422 248.917 62.0063C255.155 60.8592 261.454 58.5649 267.268 56.8744Z" fill="white"/>
<path d="M247.888 56.1497C254.368 54.7007 260.606 52.4668 266.723 49.931C268.843 49.0253 270.902 48.1197 273.022 47.1537C272.78 46.4896 272.598 45.9462 272.356 45.3424C264.361 49.0253 256.185 52.346 247.524 54.3384C247.646 54.8818 247.767 55.546 247.888 56.1497Z" fill="white"/>
<path d="M272.477 59.9535C265.27 63.0327 257.336 66.1722 249.402 66.7156C249.462 67.3798 249.523 67.9835 249.523 68.5873C256.306 68.1646 263.271 65.8703 269.449 63.2742C271.326 62.4893 273.93 61.1006 276.656 59.8931C276.534 59.3497 276.413 58.8063 276.292 58.2026C274.96 58.8667 273.627 59.4705 272.477 59.9535Z" fill="white"/>
<path d="M268.177 70.5796C266.178 74.0815 266.118 79.0323 267.692 82.6549C268.722 85.0095 270.236 86.5793 272.416 87.9076C272.658 88.0283 272.901 88.2095 273.143 88.3906C278.351 79.153 278.775 72.7532 277.685 65.2665C273.87 65.6892 270.175 67.0778 268.177 70.5796Z" fill="#FFDDC4"/>
<path d="M253.763 94.0661C251.34 92.8586 246.495 92.0133 242.377 92.5567C241.347 96.7226 241.226 100.345 243.164 101.915C246.313 104.511 253.641 103.968 260.485 100.526C258.789 97.8094 256.609 95.5151 253.763 94.0661Z" fill="#FFDDC4"/>
<path d="M302.214 31.5162L279.018 42.3839C279.018 42.3839 285.377 59.8326 284.65 65.6287C283.923 71.4851 276.171 91.4697 281.864 95.1526C287.557 98.7752 303.607 92.6168 309.36 79.9982C315.053 67.3796 313.781 60.376 310.693 50.6554C307.604 40.9348 302.214 31.5162 302.214 31.5162Z" fill="#BF9C83"/>
<path d="M281.925 76.6776C281.743 77.2814 281.622 77.8851 281.501 78.4889C286.649 79.5153 291.797 80.6021 297.005 81.2662C300.821 81.7492 304.758 81.2662 308.573 81.5077C308.876 80.9643 309.118 80.4813 309.36 79.9379C309.421 79.8775 309.421 79.8172 309.482 79.6964C306.574 79.3945 303.607 79.4549 300.7 79.4549C294.341 79.5153 288.102 78.0059 281.925 76.6776Z" fill="white"/>
<path d="M311.48 73.2966C308.391 73.4777 305.302 73.3569 302.214 73.2362C295.855 72.9947 289.677 71.9683 283.439 70.9419C283.257 71.5457 283.136 72.1494 282.954 72.7532C290.283 73.9607 297.49 74.9871 304.939 75.2286C306.514 75.289 308.815 75.4701 311.177 75.4701C311.419 74.6852 311.662 73.9607 311.904 73.2966C311.722 73.2966 311.601 73.2966 311.48 73.2966Z" fill="white"/>
<path d="M298.641 85.0093C292.766 84.4056 286.467 83.4999 280.714 81.749C280.593 82.3528 280.471 83.0169 280.35 83.6207C285.074 84.949 289.98 85.6131 294.886 86.398C297.914 86.881 301.063 87.0621 304.212 87.4244C304.758 86.881 305.242 86.3376 305.727 85.7339C303.365 85.432 301.003 85.2508 298.641 85.0093Z" fill="white"/>
<path d="M309.966 58.2628C310.39 58.1421 311.359 57.9006 312.57 57.5987C312.449 56.9345 312.267 56.2704 312.086 55.6063C308.997 56.5119 306.09 57.4175 305.908 57.4779C298.822 59.6515 291.736 61.0401 284.408 62.0061C284.529 62.6703 284.529 63.3344 284.59 63.8778C293.311 62.7306 301.608 60.7986 309.966 58.2628Z" fill="white"/>
<path d="M280.108 45.5838C280.29 46.1272 280.471 46.7309 280.714 47.3951C289.435 45.7045 297.066 40.8141 304.818 36.5274C304.515 35.9236 304.212 35.3802 303.97 34.8369C296.339 39.1236 288.769 44.014 280.108 45.5838Z" fill="white"/>
<path d="M300.881 65.6891C295.491 66.3533 289.859 67.44 284.408 67.0174C284.287 67.5608 284.166 68.2249 283.984 68.8891C289.132 69.3117 294.341 68.406 299.428 67.7419C304.091 67.1985 308.755 66.5344 313.297 65.4476C313.358 64.7835 313.358 64.1193 313.297 63.5156C309.239 64.542 305.06 65.1457 300.881 65.6891Z" fill="white"/>
<path d="M282.107 51.742C282.288 52.3458 282.47 52.9495 282.652 53.5533C288.163 52.5269 293.25 50.293 298.338 47.9383C301.487 46.4289 304.636 44.4969 307.846 42.9875C307.604 42.3837 307.362 41.8403 307.12 41.2969C304.697 42.4441 302.335 43.8327 299.973 45.0403C294.341 47.9383 288.345 50.6552 282.107 51.742Z" fill="white"/>
<path d="M283.318 56.1496C283.5 56.7534 283.621 57.4175 283.742 58.0213C293.069 56.5119 301.972 54.0365 310.693 50.5347C310.511 49.9309 310.329 49.3271 310.087 48.7234C301.427 52.1648 292.584 54.7006 283.318 56.1496Z" fill="white"/>
<path d="M303.122 61.1005C301.547 64.7834 302.092 69.7343 304.031 73.1153C305.302 75.3492 306.998 76.7379 309.3 77.8247C309.542 77.9454 309.784 78.0662 310.087 78.1869C314.145 68.406 313.842 62.0061 311.904 54.7006C308.209 55.6063 304.697 57.4175 303.122 61.1005Z" fill="#FFDDC4"/>
<path d="M291.494 86.1567C288.95 85.251 284.044 84.9491 279.987 85.9755C279.442 90.2622 279.744 93.8244 281.864 95.1527C285.316 97.3263 292.463 95.9376 298.943 91.7716C297.005 89.2359 294.583 87.2434 291.494 86.1567Z" fill="#FFDDC4"/>
<path d="M38.3369 35.5616C38.3369 35.5616 32.8255 57.1159 51.4792 63.878C70.1329 70.6401 80.7316 46.9727 80.7316 46.9727C80.7316 46.9727 94.6613 118.579 38.7608 101.975C-6.48041 88.5114 38.3369 35.5616 38.3369 35.5616Z" fill="#FFDDC4"/>
<path d="M79.3388 44.0142C76.5528 54.8215 69.4669 63.2742 57.6569 63.5761C51.4794 63.7572 45.7258 59.7724 42.092 55.0026C38.4582 50.2329 38.5793 43.5916 39.5483 37.9766C39.6089 37.7351 39.6089 37.4936 39.5483 37.2521C39.9723 35.5615 40.3356 33.8106 40.5173 32.0597C40.6385 31.1541 39.6694 30.4296 38.8821 30.4296C37.9131 30.4296 37.368 31.1541 37.2469 32.0597C37.0046 33.9314 36.5807 35.803 36.0356 37.6143C35.9145 38.0973 35.975 38.52 36.1567 38.8218C34.6426 51.6216 40.5779 63.7572 54.3259 66.5345C68.7401 69.4325 79.2782 57.5384 82.5487 44.8595C83.0332 42.867 79.8838 42.0218 79.3388 44.0142Z" fill="#FF939C"/>
<path d="M41.5469 79.6362C41.244 77.5834 41.1229 71.6665 43.9694 71.0024C46.8765 70.3382 47.361 77.6438 47.4216 79.3343C47.361 78.3079 50.2075 75.8929 50.8131 74.9872C51.7822 73.4778 53.8413 71.1835 55.1737 73.8401C57.1118 77.7041 52.8723 82.655 50.5709 85.4323C49.723 86.4587 45.6652 90.202 44.8779 91.4095C44.6962 89.7794 41.9102 82.0512 41.5469 79.6362Z" fill="#231F20"/>
<path d="M129.728 60.4366C129.728 60.4366 129.365 59.531 128.88 57.297C128.396 54.882 128.274 52.4066 127.729 49.9915C127.366 48.4217 126.639 43.1086 126.821 42.0219C128.456 41.6596 130.818 41.2974 132.453 41.8408C132.696 45.1614 132.332 48.4821 132.332 51.8028C132.332 54.7612 132.635 57.6593 132.514 60.6177C132.029 60.6781 129.728 60.4366 129.728 60.4366Z" fill="#231F20"/>
<path d="M195.803 58.8064C195.803 58.8064 195.5 57.9007 195.258 55.6064C194.955 53.131 195.076 50.6556 194.774 48.2406C194.531 46.6104 194.289 41.2973 194.531 40.2709C196.166 40.0898 198.589 39.8483 200.103 40.5728C200.043 43.8935 199.376 47.1538 199.074 50.4745C198.831 53.3725 198.892 56.331 198.468 59.229C198.044 59.229 195.803 58.8064 195.803 58.8064Z" fill="#231F20"/>
<path d="M262.908 46.9727C262.908 46.9727 262.423 46.1878 261.696 44.0746C260.909 41.8407 260.485 39.4257 259.698 37.1918C259.153 35.7427 257.76 30.7315 257.82 29.6447C259.395 29.1014 261.696 28.4372 263.332 28.7995C263.937 31.939 263.998 35.1993 264.361 38.3993C264.725 41.237 265.391 44.0143 265.573 46.8519C265.149 46.9123 262.908 46.9727 262.908 46.9727Z" fill="#231F20"/>
<path d="M296.097 37.4332C296.097 37.4332 295.612 36.6483 294.885 34.5955C294.098 32.3616 293.735 30.0673 292.887 27.8937C292.342 26.4447 290.949 21.5543 291.009 20.5279C292.584 19.9845 294.885 19.3203 296.581 19.6826C297.187 22.7618 297.247 25.9617 297.611 29.0409C297.974 31.8182 298.64 34.5351 298.822 37.3124C298.337 37.3728 296.097 37.4332 296.097 37.4332Z" fill="#231F20"/>
<path d="M36.5201 36.0444C36.5201 36.0444 36.5807 35.2595 37.1257 33.5086C37.7314 31.6369 38.7004 29.886 39.2455 28.0144C39.6089 26.7465 41.1835 22.822 41.7892 22.1579C43.3033 22.7617 45.4836 23.7277 46.6343 24.9956C45.423 27.3502 43.7272 29.403 42.3342 31.6369C41.123 33.6294 40.1539 35.7425 38.761 37.6746C38.337 37.3727 36.5201 36.0444 36.5201 36.0444Z" fill="#231F20"/>
<path d="M78.7332 47.3952C78.7332 47.3952 78.5515 46.6103 78.6726 44.799C78.7937 42.8066 79.2783 40.9349 79.3388 38.9425C79.3994 37.6142 79.9445 33.3879 80.3684 32.6634C82.0036 32.9049 84.3656 33.3275 85.7586 34.2332C85.153 36.769 84.0022 39.184 83.2149 41.7198C82.4881 43.9537 82.1248 46.248 81.2163 48.4216C80.8529 48.2404 78.7332 47.3952 78.7332 47.3952Z" fill="#231F20"/>
<path opacity="0.5" d="M274.173 158.548C274.173 165.672 268.358 171.408 261.272 171.408C254.126 171.408 248.372 165.612 248.372 158.548C248.372 151.423 254.187 145.688 261.272 145.688C268.419 145.688 274.173 151.423 274.173 158.548Z" fill="#C4E3FF"/>
<path opacity="0.5" d="M112.588 19.6221C112.588 23.4258 109.5 26.4446 105.745 26.4446C101.929 26.4446 98.901 23.3654 98.901 19.6221C98.901 15.8184 101.99 12.7996 105.745 12.7996C109.56 12.7996 112.588 15.8184 112.588 19.6221Z" fill="#C4E3FF"/>
</g>
<defs>
<clipPath id="clip0">
<rect width="348" height="183" fill="white"/>
</clipPath>
</defs>
</svg>
