<svg width="227" height="121" viewBox="0 0 227 121" fill="none" xmlns="http://www.w3.org/2000/svg">
<g clip-path="url(#clip0)">
<path d="M33.3824 72.5761C33.3429 72.5761 33.3034 72.5761 33.2639 72.5761C31.6837 72.4563 31.0516 71.139 30.538 70.0611C30.301 70.62 29.9059 71.0591 29.3923 71.3785C28.6812 71.7777 27.8911 71.8176 27.1405 71.4982C26.1529 71.0591 25.3627 69.622 25.0467 68.3445C24.5726 69.0631 23.822 69.7417 23.0319 70.0212C22.2418 70.3006 21.4517 70.2208 20.7801 69.7018C19.4764 68.7437 19.4369 67.2666 19.6344 65.9093C19.3184 66.1888 18.9628 66.4682 18.6073 66.6678C17.6986 67.1069 16.79 67.067 16.1184 66.5081C15.2888 65.7896 15.2888 63.4342 15.6048 61.5979C15.0912 61.9971 14.5382 62.2765 13.9851 62.3165C13.195 62.3963 12.5234 62.0769 12.0888 61.3184C11.6147 60.4402 11.6147 58.8034 12.0888 57.7256C11.4567 57.7655 11.0222 57.526 10.7456 57.3264C9.91599 56.7275 9.52094 55.4501 9.75797 54.1327C9.9555 53.1347 10.4691 52.2564 11.1802 51.6975C10.7456 51.458 10.4296 51.0189 10.2715 50.3801C9.87649 48.7035 10.8641 45.909 12.3258 44.9509C12.2073 44.8711 12.1283 44.7513 12.0098 44.6715C11.2592 44.0327 10.3506 43.2343 11.2987 41.6375C12.0888 40.2802 13.5505 40.0007 14.8542 39.9209C13.8271 38.9628 12.6419 37.6055 13.511 36.1284C14.3011 34.7711 16.0789 34.5715 17.4616 34.4917C16.711 33.6533 15.8814 32.3759 16.5925 30.9387C17.185 29.781 18.4097 29.6213 19.4764 29.6213C19.1603 29.1822 18.9628 28.7031 18.9233 28.1842C18.8048 27.3858 19.0418 26.5873 19.5554 25.9486C20.543 24.7111 22.2813 25.1103 23.4665 25.9885L22.9924 26.6273C22.3603 26.1482 20.9381 25.4696 20.148 26.4277C19.7529 26.9067 19.5949 27.4656 19.6739 28.0644C19.7529 28.7031 20.1085 29.302 20.6616 29.7012L21.6492 30.4597L20.0295 30.4197C18.6863 30.3798 17.6986 30.4197 17.2641 31.298C16.6715 32.4956 17.6196 33.6134 18.5678 34.5316L19.1998 35.1703C19.1998 35.1703 17.9357 35.2502 17.7381 35.2901C16.4344 35.3699 14.7752 35.4498 14.1036 36.5675C13.4715 37.6853 14.5382 38.7233 15.8419 39.841L16.7505 40.5995L15.4073 40.6794C14.0246 40.7592 12.6419 40.8391 11.9308 42.0367C11.3382 43.0347 11.7333 43.394 12.4839 44.0726C12.7209 44.3122 12.9974 44.5118 13.2345 44.7912L13.6295 45.2304L13.0765 45.43C11.8518 45.8292 10.6666 48.5837 11.0222 50.1805C11.1802 50.8991 11.6147 51.1786 12.4049 51.0588L12.5629 51.8572C11.4962 52.1366 10.7456 53.0149 10.5086 54.2524C10.3111 55.2904 10.5876 56.2485 11.1802 56.6477C11.5752 56.9271 12.1283 56.9671 12.7999 56.6876C12.9974 56.5279 13.2345 56.4082 13.4715 56.3683L15.9999 55.8094L13.748 57.0868C13.5505 57.2066 13.3925 57.2864 13.195 57.3663C12.9974 57.526 12.8789 57.7655 12.7604 57.9651C12.3258 58.9232 12.4049 60.2805 12.7209 60.8394C12.9579 61.2785 13.353 61.4781 13.8271 61.4382C14.5777 61.3584 15.4468 60.6797 15.9209 59.9212C15.9999 59.6418 16.1184 59.4422 16.1974 59.2825L17.5801 57.1667L16.9085 59.6018C16.8295 59.8414 16.7505 60.0809 16.5925 60.2805C16.1184 61.7975 15.8419 65.1908 16.553 65.7896C17.106 66.2686 17.7381 66.069 18.2122 65.8694C19.0418 65.4702 19.7529 64.552 19.9109 63.8334C19.9109 63.7137 19.9505 63.5939 19.9505 63.4742H20.7406C20.7406 63.6338 20.7406 63.7536 20.7011 63.9133C20.6616 64.2726 20.5825 64.6319 20.543 64.9911C20.2665 66.5081 19.99 68.105 21.2146 68.9832C21.6492 69.3026 22.1628 69.3824 22.7159 69.1828C23.743 68.7836 24.6516 67.6259 24.8492 66.7477L25.6393 66.8674C25.5208 67.9852 26.4689 70.2208 27.4565 70.6599C28.1281 70.9793 28.6812 70.7797 28.9973 70.5801C29.5503 70.2208 29.9849 69.5421 30.0244 68.8235L30.1034 67.586L30.7355 68.6239C30.9331 68.9433 31.0911 69.2627 31.2491 69.622C31.7232 70.6599 32.1972 71.618 33.3034 71.6978C33.7775 71.7378 34.291 71.4583 34.7651 70.9393C35.4367 70.2208 35.9108 69.1429 35.8318 68.4643L36.6219 68.3046C36.9379 69.3824 38.6762 70.5401 39.9404 70.5002C41.244 70.4603 41.5996 69.0631 41.9156 67.4263L42.1132 66.3884L42.6268 67.067C43.3379 67.9453 44.7601 68.9034 45.7872 68.2247C46.3008 67.9054 46.8539 66.7477 46.8539 65.7496C46.8539 65.4303 46.7748 64.9911 46.4983 64.7516C46.4588 64.7516 46.4193 64.7117 46.4193 64.6718L46.8539 63.9931C46.8934 64.0331 46.9329 64.033 46.9724 64.073C47.5255 64.4323 48.1576 64.552 48.7896 64.4323C49.3822 64.3125 49.8958 63.9931 50.2118 63.5141C50.6464 62.8753 50.8439 61.4781 50.4489 60.8394C50.3699 60.7196 50.2514 60.5599 49.9748 60.52C49.8958 60.52 49.7773 60.52 49.6983 60.52L49.6588 59.7216C49.7773 59.7216 49.8958 59.7216 50.0143 59.7216C51.4365 59.6817 52.2662 59.3224 52.5822 57.8852C52.9378 56.1686 52.3847 55.0509 50.8044 54.492L48.8292 53.7734L50.923 53.6936C52.3847 53.6536 54.1624 53.1746 54.439 51.1386C54.518 50.4999 54.676 48.424 52.8982 48.1046L51.5946 47.8651L52.9377 47.2663C54.439 46.5877 55.6636 46.0687 55.6241 44.3122C55.6241 42.4758 54.0439 41.5976 52.5427 41.4379L51.318 41.2782L52.4242 40.6794C53.6884 40.0007 54.597 38.3241 54.3204 37.326C54.0834 36.5276 53.0958 36.4478 52.3057 36.5276L50.6069 36.6873L52.0686 35.809C52.8192 35.3699 53.6093 33.8529 53.4118 32.9347C53.3328 32.6154 53.1353 32.4158 52.7797 32.296L52.0686 32.3359C52.0686 32.1363 52.0686 31.9766 52.1081 31.777L52.1476 31.5375L52.5032 31.5774C53.6884 31.6972 54.0439 32.4557 54.1624 32.8948C54.36 33.8529 53.9254 35.0905 53.2538 35.9288C54.518 36.0885 54.9525 36.8071 55.0711 37.2861C55.3871 38.4039 54.7155 40.0007 53.5698 40.9987C55.3081 41.5177 56.4143 42.7952 56.4143 44.4719C56.4143 46.3881 55.3081 47.1865 54.0044 47.8252C54.992 48.4639 55.4661 49.7414 55.2291 51.4181C54.992 53.0548 53.9649 54.0928 52.2266 54.492C53.2933 55.2904 53.6884 56.5679 53.3328 58.2046C53.0168 59.7216 52.1476 60.3204 51.1205 60.5599C51.6736 61.518 51.4365 63.2346 50.8439 64.1129C50.4094 64.7915 49.6983 65.2307 48.9082 65.3904C48.4736 65.4702 48.039 65.4702 47.6045 65.3504C47.644 65.5101 47.644 65.6698 47.644 65.8694C47.644 67.1069 47.0119 68.5441 46.2218 69.0231C44.9971 69.8216 43.4959 69.103 42.5872 68.2647C42.3107 69.6619 41.7576 71.3386 39.9799 71.4184C38.8737 71.4583 37.3725 70.7397 36.5034 69.7417C36.3058 70.4204 35.9108 71.099 35.3972 71.618C34.7256 72.2168 34.054 72.5761 33.3824 72.5761Z" fill="#FF939C"/>
<path d="M227 0C207.642 11.1778 171.415 27.8647 122.468 31.8967C70.6363 36.2082 23.98 18.8027 0 7.58496V8.46321C21.5701 18.5233 61.1154 33.4137 106.231 33.4137C111.604 33.4137 117.056 33.2141 122.586 32.7351C171.336 28.7031 207.524 12.1758 227.04 0.9581V0H227Z" fill="#231F20"/>
<path d="M154.073 56.8072L137.48 37.0065L120.69 36.6472C118.043 44.9108 114.962 48.6235 106.666 48.1045C102.992 47.865 102.004 47.3061 98.8435 45.2701C97.6188 44.4717 92.0485 36.6472 92.6411 36.6472L75.8512 37.0065L59.2588 56.8072C58.2316 58.0448 58.2316 59.8412 59.2193 61.0788L66.7254 70.3404C67.7525 71.6178 69.5698 71.9372 70.9525 71.0989L78.7351 66.4681C79.3277 66.1088 80.0388 66.1088 80.6709 66.4281C81.2635 66.7475 81.6585 67.3862 81.698 68.0649L80.3153 98.4846C80.3943 100.161 81.698 101.558 83.3968 101.638C90.3893 102.117 96.5127 106.03 99.4756 112.537C100.266 114.293 100.858 116.169 101.253 118.046C101.49 119.124 101.253 119.563 102.399 119.922C103.466 120.241 104.69 120.401 105.797 120.521C107.535 120.72 109.352 120.84 111.09 120.401C112.908 119.922 112.552 119.044 112.908 117.447C113.5 114.972 114.369 112.577 115.673 110.421C117.648 107.187 120.572 104.632 124.048 103.195C126.142 102.317 128.394 101.838 130.646 101.678C132.305 101.558 133.648 100.201 133.727 98.5245L131.633 68.1048C131.673 67.4262 132.068 66.7874 132.66 66.4681C133.253 66.1487 134.004 66.1487 134.596 66.508L142.379 71.1388C143.801 71.9771 145.579 71.6578 146.606 70.3803L154.112 61.1187C155.1 59.8412 155.1 58.0448 154.073 56.8072Z" fill="#C4E3FF"/>
<path d="M103.229 119.283C100.345 108.585 92.5621 99.2032 80.9474 98.6843C79.0906 98.6044 79.0906 101.479 80.9474 101.559C91.2584 101.998 97.6583 110.062 100.187 119.403C100.661 121.2 103.703 121.08 103.229 119.283Z" fill="#FF939C"/>
<path d="M133.727 100.002C129.5 98.8837 122.981 102.676 119.426 104.752C113.895 107.986 112.275 113.135 110.498 119.283C109.984 121.04 112.315 121.718 113.026 120.002C115.001 115.371 115.712 110.581 120.176 107.666C122.981 105.83 129.46 101.878 132.976 102.796C134.754 103.235 135.505 100.481 133.727 100.002Z" fill="#FF939C"/>
<path d="M120.572 36.6473C117.648 41.6374 113.54 45.7093 107.456 45.6694C101.688 45.6294 96.0781 41.7172 93.2337 37.0465C91.9695 35.0105 89.3622 36.8469 90.5473 38.2441C94.7349 43.2342 100.779 48.1045 107.456 48.5437C114.409 48.9828 119.742 43.6334 123.021 38.0844C124.009 36.4876 121.52 35.0105 120.572 36.6473Z" fill="#FF939C"/>
<path d="M98.33 94.9317C98.4485 93.9337 97.4214 93.1353 96.5523 93.1353C96.0782 93.1353 95.6041 93.3349 95.2881 93.6542C95.13 93.8139 95.0115 94.0135 94.9325 94.1732C94.893 94.2131 94.8535 94.253 94.8535 94.293C94.6165 94.6123 94.577 95.0115 94.5375 95.4107C94.4189 96.4088 95.4461 97.2072 96.3152 97.2072C96.7893 97.2072 97.2634 97.0076 97.5794 96.6882C97.7374 96.5285 97.8559 96.3289 97.935 96.1692C97.9745 96.1293 98.014 96.0894 98.014 96.0495C98.251 95.7301 98.2905 95.3309 98.33 94.9317Z" fill="#231F20"/>
<path d="M124.443 79.1231C124.048 78.644 123.377 78.4843 122.745 78.4444C121.757 78.4045 120.967 79.2828 120.967 80.2409C120.967 80.8796 121.283 81.3986 121.757 81.7179C122.073 82.197 122.626 82.5163 123.258 82.5163C124.246 82.5163 125.036 81.678 125.036 80.7199C125.036 80.0812 124.838 79.6021 124.443 79.1231Z" fill="#231F20"/>
<path d="M105.362 68.5442C103.071 68.5442 103.071 72.177 105.362 72.177C107.653 72.177 107.653 68.5442 105.362 68.5442Z" fill="#231F20"/>
<path d="M91.2979 54.3323H91.0608C90.0732 54.3323 89.2831 55.1706 89.2831 56.1287C89.2831 57.1267 90.1127 57.9252 91.0608 57.9252H91.2979C92.2855 57.9252 93.0756 57.0868 93.0756 56.1287C93.0756 55.1706 92.2855 54.3323 91.2979 54.3323Z" fill="#231F20"/>
<path d="M118.715 52.6555C116.424 52.6555 116.424 56.2883 118.715 56.2883C121.006 56.2883 121.006 52.6555 118.715 52.6555Z" fill="#231F20"/>
<path d="M141.589 52.895C140.601 52.895 139.811 53.7334 139.811 54.6915V54.931C139.811 55.929 140.641 56.7274 141.589 56.7274C142.576 56.7274 143.366 55.8891 143.366 54.931V54.6915C143.406 53.7334 142.576 52.895 141.589 52.895Z" fill="#231F20"/>
<path d="M70.5575 61.5579C69.7674 61.5579 69.1353 62.0768 68.8982 62.7954C68.4242 63.514 68.4242 64.4721 69.0562 65.1108C69.7278 65.7895 70.9525 65.8294 71.5846 65.1108C72.0192 64.5919 72.3352 64.033 72.3352 63.3543C72.3747 62.3962 71.5056 61.5579 70.5575 61.5579Z" fill="#231F20"/>
<path d="M79.4462 42.5954C78.7746 41.9168 77.5894 41.9168 76.9179 42.5954C76.8388 42.6753 76.7598 42.7551 76.6808 42.8349C76.0092 43.5136 76.0092 44.7112 76.6808 45.3899C77.3524 46.0685 78.5376 46.0685 79.2092 45.3899C79.2882 45.31 79.3672 45.2302 79.4462 45.1504C80.1573 44.4318 80.1573 43.2741 79.4462 42.5954Z" fill="#231F20"/>
<path d="M112.038 100.241H111.801C111.169 100.241 110.735 100.52 110.419 100.92C110.142 101.239 109.984 101.638 109.984 102.077C109.984 102.516 110.142 102.916 110.419 103.235C110.695 103.634 111.169 103.914 111.801 103.914H112.038C113.026 103.914 113.816 103.075 113.816 102.117C113.816 101.039 113.026 100.241 112.038 100.241Z" fill="#231F20"/>
<path d="M85.0955 78.9236C84.1079 78.9236 83.3177 79.7619 83.3177 80.72V81.1991C83.3177 82.1971 84.1474 82.9955 85.0955 82.9955C86.0832 82.9955 86.8733 82.1572 86.8733 81.1991V80.72C86.8733 79.722 86.0832 78.9236 85.0955 78.9236Z" fill="#231F20"/>
<path d="M176.591 27.186L160.749 32.5354C160.749 32.5354 163.554 44.4718 162.606 48.2243C161.657 51.9769 155.139 64.5519 158.576 67.3863C162.013 70.2207 172.877 67.3863 177.539 59.5219C182.2 51.6575 181.884 46.9468 180.66 40.3599C179.396 33.773 176.591 27.186 176.591 27.186Z" fill="#BF9C83"/>
<path d="M173.509 56.2084C169.124 55.7693 164.818 54.4519 160.393 54.2124C160.235 54.6116 160.077 55.0108 159.919 55.4499C165.687 55.6495 172.205 58.0049 178.329 58.0847C178.605 57.6057 178.842 57.0867 179.079 56.6077C177.183 56.6077 175.287 56.3681 173.509 56.2084Z" fill="white"/>
<path d="M172.205 61.5179C167.662 60.8792 163.317 59.4819 158.932 58.1646C158.813 58.5638 158.655 58.963 158.536 59.3622C162.29 60.48 166.003 61.6377 169.835 62.3962C171.218 62.6756 172.956 62.7554 174.655 63.0349C174.971 62.7155 175.326 62.3961 175.603 62.0369C174.497 61.8373 173.312 61.6776 172.205 61.5179Z" fill="white"/>
<path d="M181.292 44.7913C181.252 44.3521 181.213 43.913 181.134 43.4739C175.129 45.2703 169.045 46.5877 162.764 47.0268C162.724 47.4659 162.685 47.9051 162.606 48.2244C162.606 48.2644 162.606 48.2644 162.566 48.3043C166.714 48.0648 170.823 47.4659 174.931 46.5478C177.104 46.0288 179.198 45.43 181.292 44.7913Z" fill="white"/>
<path d="M161.776 50.7392C161.618 51.1384 161.46 51.5376 161.302 52.0167C167.939 51.9768 174.536 51.8171 181.094 51.0187C181.173 50.5795 181.252 50.1404 181.292 49.7412C174.813 50.5396 168.295 50.6993 161.776 50.7392Z" fill="white"/>
<path d="M174.339 37.6055C176.117 37.0865 177.855 36.5276 179.633 35.9288C179.514 35.5296 179.395 35.1304 179.277 34.7312C176.907 35.5296 174.536 36.2482 172.126 36.9268C168.966 37.845 165.569 39.0426 162.171 39.7213C162.25 40.1205 162.29 40.5596 162.369 40.9988C166.438 40.2403 170.546 38.7233 174.339 37.6055Z" fill="white"/>
<path d="M161.697 37.1263C165.924 36.1682 169.993 34.6911 173.983 33.0144C175.366 32.4156 176.709 31.8168 178.092 31.1781C177.934 30.739 177.815 30.3797 177.657 29.9805C172.443 32.4156 167.109 34.6113 161.46 35.9287C161.539 36.288 161.618 36.7271 161.697 37.1263Z" fill="white"/>
<path d="M177.736 39.6413C173.035 41.6773 167.86 43.7532 162.685 44.1125C162.724 44.5516 162.764 44.9508 162.764 45.35C167.188 45.0706 171.731 43.5536 175.761 41.837C176.986 41.318 178.684 40.3998 180.462 39.6014C180.383 39.2421 180.304 38.8829 180.225 38.4836C179.356 38.9228 178.487 39.322 177.736 39.6413Z" fill="white"/>
<path d="M174.931 46.6673C173.628 48.9827 173.588 52.2562 174.615 54.6515C175.287 56.2084 176.275 57.2463 177.697 58.1246C177.855 58.2044 178.013 58.3242 178.171 58.444C181.568 52.3361 181.845 48.1045 181.134 43.1543C178.645 43.4337 176.235 44.3519 174.931 46.6673Z" fill="#FFDDC4"/>
<path d="M165.529 62.1966C163.949 61.3982 160.788 60.8393 158.102 61.1986C157.43 63.9531 157.351 66.3484 158.616 67.3863C160.67 69.1029 165.45 68.7436 169.914 66.4681C168.808 64.6717 167.386 63.1547 165.529 62.1966Z" fill="#FFDDC4"/>
<path d="M197.134 20.8386L182.003 28.0244C182.003 28.0244 186.151 39.5615 185.677 43.3939C185.203 47.2662 180.146 60.48 183.86 62.9152C187.573 65.3104 198.042 61.2385 201.795 52.895C205.509 44.5516 204.679 39.9208 202.664 33.4935C200.65 27.0663 197.134 20.8386 197.134 20.8386Z" fill="#BF9C83"/>
<path d="M183.899 50.6992C183.781 51.0984 183.702 51.4976 183.623 51.8968C186.981 52.5755 190.339 53.2941 193.736 53.7332C196.225 54.0526 198.793 53.7332 201.282 53.8929C201.479 53.5336 201.637 53.2142 201.795 52.8549C201.835 52.815 201.835 52.7751 201.874 52.6953C199.978 52.4957 198.042 52.5356 196.146 52.5356C191.998 52.5755 187.929 51.5775 183.899 50.6992Z" fill="white"/>
<path d="M203.178 48.4639C201.163 48.5837 199.149 48.5038 197.134 48.424C192.986 48.2643 188.956 47.5856 184.887 46.907C184.768 47.3062 184.689 47.7054 184.571 48.1046C189.351 48.903 194.052 49.5817 198.911 49.7414C199.939 49.7813 201.44 49.901 202.981 49.901C203.139 49.3821 203.297 48.903 203.455 48.4639C203.336 48.4639 203.257 48.4639 203.178 48.4639Z" fill="white"/>
<path d="M194.803 56.2082C190.971 55.809 186.862 55.2102 183.109 54.0525C183.03 54.4517 182.951 54.8908 182.872 55.29C185.954 56.1683 189.154 56.6074 192.354 57.1264C194.329 57.4458 196.383 57.5655 198.437 57.8051C198.793 57.4458 199.109 57.0865 199.425 56.6873C197.884 56.4877 196.344 56.3679 194.803 56.2082Z" fill="white"/>
<path d="M202.19 38.5236C202.467 38.4438 203.099 38.2841 203.889 38.0845C203.81 37.6453 203.692 37.2062 203.573 36.7671C201.558 37.3659 199.662 37.9647 199.544 38.0046C194.921 39.4418 190.299 40.36 185.519 40.9987C185.598 41.4378 185.598 41.877 185.638 42.2362C191.326 41.4778 196.739 40.2003 202.19 38.5236Z" fill="white"/>
<path d="M182.714 30.1401C182.833 30.4994 182.951 30.8986 183.109 31.3377C188.798 30.2199 193.776 26.9863 198.832 24.152C198.635 23.7528 198.437 23.3935 198.279 23.0342C193.302 25.8686 188.363 29.1021 182.714 30.1401Z" fill="white"/>
<path d="M196.265 43.4337C192.749 43.8729 189.075 44.5914 185.519 44.312C185.44 44.6713 185.361 45.1104 185.243 45.5495C188.601 45.829 191.998 45.2302 195.317 44.791C198.358 44.4318 201.4 43.9926 204.363 43.2741C204.403 42.8349 204.403 42.3958 204.363 41.9966C201.716 42.6752 198.991 43.0744 196.265 43.4337Z" fill="white"/>
<path d="M184.018 34.212C184.136 34.6112 184.255 35.0104 184.373 35.4096C187.968 34.7309 191.287 33.2539 194.605 31.697C196.66 30.6989 198.714 29.4215 200.808 28.4234C200.65 28.0242 200.492 27.665 200.334 27.3057C198.753 28.0642 197.213 28.9823 195.672 29.7808C191.998 31.697 188.087 33.4934 184.018 34.212Z" fill="white"/>
<path d="M184.808 37.1263C184.927 37.5255 185.006 37.9647 185.085 38.3639C191.168 37.3659 196.976 35.7291 202.665 33.4137C202.546 33.0145 202.428 32.6153 202.27 32.2161C196.62 34.4916 190.852 36.1682 184.808 37.1263Z" fill="white"/>
<path d="M197.726 40.3998C196.699 42.835 197.055 46.1085 198.319 48.3441C199.148 49.8211 200.255 50.7393 201.756 51.4579C201.914 51.5377 202.072 51.6176 202.269 51.6974C204.916 45.2302 204.719 40.9986 203.455 36.1682C201.045 36.767 198.753 37.9646 197.726 40.3998Z" fill="#FFDDC4"/>
<path d="M190.141 56.967C188.482 56.3681 185.282 56.1685 182.635 56.8472C182.28 59.6816 182.477 62.0369 183.86 62.9152C186.112 64.3523 190.773 63.4341 195 60.6796C193.736 59.0029 192.156 57.6855 190.141 56.967Z" fill="#FFDDC4"/>
<path d="M25.007 23.5134C25.007 23.5134 21.412 37.7652 33.5798 42.2363C45.7475 46.7074 52.661 31.0585 52.661 31.0585C52.661 31.0585 61.7474 78.4045 25.2836 67.4263C-4.22722 58.524 25.007 23.5134 25.007 23.5134Z" fill="#FFDDC4"/>
<path d="M51.7526 29.1023C49.9353 36.2481 45.3132 41.837 37.6095 42.0366C33.58 42.1564 29.8269 39.5216 27.4566 36.3679C25.0862 33.2141 25.1652 28.8229 25.7973 25.1102C25.8368 24.9505 25.8368 24.7909 25.7973 24.6312C26.0739 23.5134 26.3109 22.3557 26.4294 21.198C26.5084 20.5992 25.8763 20.1201 25.3628 20.1201C24.7307 20.1201 24.3751 20.5992 24.2961 21.198C24.1381 22.4355 23.8615 23.6731 23.506 24.8707C23.427 25.1901 23.4665 25.4695 23.585 25.6691C22.5974 34.1323 26.4689 42.1564 35.4367 43.9928C44.8391 45.909 51.7131 38.0446 53.8464 29.6612C54.1624 28.3438 52.1081 27.7849 51.7526 29.1023Z" fill="#FF939C"/>
<path d="M27.101 52.6555C26.9035 51.2982 26.8245 47.386 28.6812 46.9468C30.5775 46.5077 30.8936 51.3381 30.9331 52.4559C30.8936 51.7773 32.7503 50.1804 33.1454 49.5816C33.7775 48.5836 35.1207 47.0666 35.9898 48.8231C37.254 51.378 34.4886 54.6516 32.9874 56.4879C32.4343 57.1666 29.7874 59.6417 29.2738 60.4401C29.1553 59.3622 27.338 54.2523 27.101 52.6555Z" fill="#231F20"/>
<path d="M84.6214 39.9608C84.6214 39.9608 84.3844 39.362 84.0683 37.8849C83.7523 36.288 83.6733 34.6513 83.3177 33.0545C83.0807 32.0165 82.6066 28.5035 82.7251 27.7849C83.7918 27.5454 85.3325 27.3059 86.3992 27.6651C86.5572 29.8608 86.3202 32.0564 86.3202 34.2521C86.3202 36.2082 86.5177 38.1244 86.4387 40.0805C86.1226 40.1204 84.6214 39.9608 84.6214 39.9608Z" fill="#231F20"/>
<path d="M127.722 38.8829C127.722 38.8829 127.525 38.2841 127.367 36.7671C127.169 35.1303 127.248 33.4936 127.051 31.8968C126.892 30.8189 126.734 27.3059 126.892 26.6272C127.959 26.5074 129.539 26.3478 130.527 26.8268C130.487 29.0225 130.053 31.1782 129.855 33.3738C129.697 35.29 129.737 37.2461 129.46 39.1623C129.184 39.1623 127.722 38.8829 127.722 38.8829Z" fill="#231F20"/>
<path d="M171.494 31.0584C171.494 31.0584 171.178 30.5394 170.704 29.1422C170.191 27.6651 169.914 26.0683 169.401 24.5912C169.045 23.6331 168.136 20.3197 168.176 19.6011C169.203 19.2418 170.704 18.8027 171.771 19.0422C172.166 21.1181 172.206 23.2738 172.443 25.3896C172.68 27.2659 173.114 29.1023 173.233 30.9786C172.956 31.0185 171.494 31.0584 171.494 31.0584Z" fill="#231F20"/>
<path d="M193.143 24.7509C193.143 24.7509 192.827 24.2319 192.353 22.8746C191.84 21.3975 191.603 19.8805 191.05 18.4434C190.694 17.4853 189.785 14.2517 189.825 13.573C190.852 13.2138 192.353 12.7746 193.46 13.0141C193.855 15.0501 193.894 17.1659 194.131 19.2019C194.368 21.0382 194.803 22.8347 194.921 24.671C194.605 24.7109 193.143 24.7509 193.143 24.7509Z" fill="#231F20"/>
<path d="M23.822 23.8327C23.822 23.8327 23.8615 23.3137 24.2171 22.156C24.6121 20.9184 25.2442 19.7607 25.5998 18.5232C25.8368 17.6849 26.864 15.09 27.259 14.6509C28.2467 15.0501 29.6689 15.6888 30.4195 16.5272C29.6294 18.0841 28.5232 19.4414 27.6146 20.9184C26.8245 22.2358 26.1924 23.6331 25.2837 24.9105C25.0072 24.7109 23.822 23.8327 23.822 23.8327Z" fill="#231F20"/>
<path d="M51.3576 31.3378C51.3576 31.3378 51.239 30.8189 51.3181 29.6213C51.3971 28.3039 51.7131 27.0663 51.7526 25.7489C51.7921 24.8707 52.1477 22.0762 52.4242 21.5972C53.4909 21.7569 55.0316 22.0363 55.9402 22.6351C55.5452 24.3118 54.7946 25.9086 54.281 27.5853C53.8069 29.0624 53.5699 30.5794 52.9773 32.0165C52.7403 31.8967 51.3576 31.3378 51.3576 31.3378Z" fill="#231F20"/>
<path opacity="0.5" d="M178.842 104.832C178.842 109.543 175.05 113.335 170.428 113.335C165.766 113.335 162.013 109.503 162.013 104.832C162.013 100.122 165.805 96.3291 170.428 96.3291C175.089 96.3291 178.842 100.122 178.842 104.832Z" fill="#C4E3FF"/>
<path opacity="0.5" d="M73.4413 12.9742C73.4413 15.4892 71.4266 17.4852 68.9772 17.4852C66.4883 17.4852 64.5131 15.4493 64.5131 12.9742C64.5131 10.4592 66.5279 8.46313 68.9772 8.46313C71.4661 8.46313 73.4413 10.4592 73.4413 12.9742Z" fill="#C4E3FF"/>
</g>
<defs>
<clipPath id="clip0">
<rect width="227" height="121" fill="white"/>
</clipPath>
</defs>
</svg>
