<svg width="140" height="118" viewBox="0 0 140 118" fill="none" xmlns="http://www.w3.org/2000/svg">
<path opacity="0.5" d="M117.672 110.917C117.672 114.816 96.3928 118 70.1716 118C43.9182 118 22.6716 114.848 22.6716 110.917C22.6716 107.018 43.9503 103.834 70.1716 103.834C96.3928 103.834 117.672 107.018 117.672 110.917Z" fill="#D8D4CE"/>
<path d="M100.918 106.693C100.918 106.596 100.886 106.531 100.854 106.433C100.854 105.881 100.629 105.264 100.565 104.809C100.405 103.964 100.244 103.152 100.116 102.307C99.8592 100.423 99.6345 98.5382 99.474 96.6538C99.1531 92.9174 99.0247 89.1809 98.9926 85.412C98.9926 84.1449 97.0348 84.1449 97.0669 85.412C97.099 92.495 97.5484 99.5455 98.8321 106.531C97.8693 107.051 96.8102 107.408 95.8153 107.863C95.2376 108.123 95.7511 108.968 96.2967 108.708C97.2916 108.253 98.3507 107.896 99.2815 107.376C98.7679 108.026 98.5433 108.87 97.9977 109.52C97.5805 110.007 98.2865 110.69 98.6717 110.202C99.2173 109.585 99.4419 108.61 99.9875 107.993C100.052 108.675 100.148 109.325 100.276 110.007C100.405 110.625 101.336 110.365 101.207 109.748C101.079 108.74 100.95 107.701 100.918 106.693Z" fill="#885E42"/>
<path d="M119.084 73.5205C115.425 66.4375 115.104 61.0766 115.104 61.0766C115.104 61.0766 124.09 50.6471 123.096 38.853C122.101 27.0589 110.803 20.0085 99.506 19.3262C98.9925 19.2937 98.4469 19.2937 97.8692 19.2937C97.0027 18.6764 96.2003 17.9291 95.6226 17.0843C94.6598 15.7522 94.724 14.2251 95.8152 12.9905C96.3929 12.3407 97.131 12.0158 97.9976 11.9508C98.4148 11.9183 98.8321 12.0158 99.2493 12.2107C100.501 12.7631 99.0246 15.4273 98.2223 13.9977C98.5432 14.5501 99.3777 14.0627 99.0567 13.5104C98.6074 12.7306 97.6767 12.9255 97.3236 13.7053C96.8101 14.7775 98.2864 15.7197 99.1209 15.8172C100.437 15.9796 101.335 14.2576 101.047 13.153C100.661 11.6584 99.4739 11.0411 98.0297 11.0086C94.9486 10.9111 93.3118 14.4201 94.4351 16.9544C94.8202 17.8641 95.4942 18.6764 96.2966 19.3912C95.8473 19.4236 95.3979 19.4886 94.9165 19.5211C94.4351 19.3587 93.9858 19.1312 93.5365 18.8713C93.1834 18.6439 92.8625 18.319 92.6057 17.9941C92.4452 17.8316 92.3169 17.6367 92.2206 17.4417C92.1564 17.3118 92.1243 17.2143 92.0601 17.0843C91.8675 16.6944 92.028 16.4995 92.5736 16.4995C92.2206 17.0193 93.055 17.5067 93.4081 16.9868C94.5956 15.2648 90.3591 14.4526 91.0652 17.0843C91.354 18.2215 92.1564 19.1312 93.1513 19.7485C85.8338 21.1132 77.104 25.4994 74.6007 35.4415C71.2628 48.5677 80.2493 61.0116 80.2493 61.0116C80.2493 61.0116 77.5855 90.643 102.523 90.9679C127.46 91.2928 127.46 71.1162 127.46 71.1162C127.46 71.1162 122.743 80.5709 119.084 73.5205Z" fill="#FFDDC4"/>
<path d="M49.3744 109.585C48.7646 109.487 48.1548 109.292 47.5771 109.032C48.0906 108.87 48.6362 108.708 49.0856 108.838C49.6954 109 49.8237 108.025 49.2139 107.863C48.572 107.7 47.866 107.928 47.2241 108.155C46.6785 100.325 45.8761 92.4948 45.2021 84.6645C45.1058 83.3974 43.1802 83.6573 43.2764 84.9245C43.9504 92.7547 44.7528 100.552 45.2984 108.383C45.2984 108.448 45.2663 108.48 45.2984 108.545L45.3626 109.032C45.3626 109.065 45.3947 109.065 45.3947 109.097C45.2984 109.292 45.2984 109.52 45.5231 109.682C46.197 110.137 46.7747 110.69 47.3204 111.274C47.7376 111.697 48.2832 112.477 48.893 112.477C49.1818 112.477 49.4065 112.054 49.2781 111.794C49.246 111.729 49.2139 111.664 49.2139 111.599C49.1497 111.372 48.9572 111.307 48.7967 111.307C48.3474 110.884 47.8981 110.43 47.4487 110.007C48.0585 110.235 48.6683 110.462 49.2781 110.527C49.8558 110.625 49.9842 109.65 49.3744 109.585Z" fill="#885E42"/>
<path d="M57.2376 0.481577C49.0535 -1.11046 38.6227 0.806483 29.9893 12.9255C21.3558 25.0445 24.6616 35.149 14.0383 31.0877C14.0383 31.0877 18.018 37.131 23.3457 36.1237C23.3457 36.1237 25.3356 41.1598 16.7021 38.4631C16.7021 38.4631 21.6768 45.1886 27.6785 44.1814L29.6683 49.2174C29.6683 49.2174 31.6582 65.3653 23.6987 70.0764C15.7072 74.7875 12.0484 62.3436 12.0484 62.3436C12.0484 62.3436 9.38456 90.6105 37.6599 88.2711C65.9352 85.9318 71.5839 46.5207 71.5839 46.5207C71.5839 46.5207 79.2224 35.084 78.5805 24.9795C77.8423 14.9399 71.1987 3.1783 57.2376 0.481577Z" fill="#C4E3FF"/>
<path d="M63.2393 28.3911C60.5754 28.0337 54.9268 33.1023 52.2629 32.0951C49.5991 31.0879 62.8862 42.1997 62.8862 42.1997L71.1024 31.2503C71.1345 31.2828 65.6463 28.7485 63.2393 28.3911Z" fill="#FF939C"/>
<path d="M81.4368 40.7698C81.4368 40.7698 87.9199 45.0585 95.9114 44.0513C95.9114 44.0513 88.1766 52.8888 85.6733 52.3689C83.1699 51.8816 81.4368 40.7698 81.4368 40.7698Z" fill="#FF939C"/>
<path d="M119.084 73.5205C115.425 66.4375 115.104 61.0766 115.104 61.0766C115.104 61.0766 115.297 60.8491 115.617 60.4268C115.264 60.5242 114.911 60.6542 114.526 60.8166C114.526 60.8166 106.31 69.1342 110.771 77.4843C114.623 84.6322 120.849 79.5312 123.031 76.0222C121.748 76.4121 120.367 75.9573 119.084 73.5205Z" fill="#BF9C83"/>
<path d="M29.7967 55.0657C29.7967 55.0657 39.9707 68.1918 35.6379 76.2495C31.3052 84.3071 27.0687 79.726 27.0687 79.726C27.0687 79.726 22.9927 82.7151 21.0991 80.0509C19.2055 77.3542 22.094 74.9499 22.094 74.9499C22.094 74.9499 14.616 75.0798 17.1194 70.1413C17.0873 70.1413 27.7427 73.3578 29.7967 55.0657Z" fill="#885E42"/>
<path d="M127.236 72.4479C127.236 72.4479 128.231 60.3289 130.221 60.8487C132.21 61.3686 130.477 67.9317 130.477 67.9317C130.477 67.9317 138.95 56.5599 139.945 60.3613C140.972 64.0978 127.236 72.4479 127.236 72.4479Z" fill="#BF9C83"/>
<path d="M12.0163 62.4089C12.0163 62.4089 -4.19149 53.2466 1.03993 48.6979C6.27135 44.1492 7.52304 53.7339 7.52304 53.7339C7.52304 53.7339 7.00953 40.3479 10.0264 42.3623C13.0112 44.4092 11.5349 58.445 12.0163 62.4089Z" fill="#885E42"/>
<path d="M54.9267 53.8962C51.5888 55.0009 46.0365 50.1923 43.3726 56.0081C40.7088 61.8239 41.0297 78.8815 48.4436 79.3038C55.8253 79.7262 63.0787 67.9321 64.3304 60.3618C65.55 52.7915 63.8169 50.9396 54.9267 53.8962Z" fill="white"/>
<path d="M80.5703 70.8561C80.5703 70.8561 79.8321 63.7081 85.898 64.4554C91.9638 65.2027 94.05 67.0547 95.3017 72.2857C96.5534 77.5167 99.2172 89.2783 107.016 90.7079C107.016 90.7079 95.3659 92.4624 88.5618 86.2566C81.7578 80.0509 80.5703 70.8561 80.5703 70.8561Z" fill="#FF939C"/>
<path d="M100.79 41.8746C100.79 41.8746 104.352 34.9867 107.177 36.9036C110.001 38.853 108.011 43.1418 108.011 43.1418C108.011 43.1418 104.802 39.0804 100.79 41.8746Z" fill="#BF9C83"/>
<path d="M81.4368 37.9103C81.4368 37.9103 83.2662 32.03 80.3456 31.7701C77.425 31.5102 76.4301 36.9031 76.4301 36.9031C76.4301 36.9031 79.2544 34.9539 81.4368 37.9103Z" fill="#BF9C83"/>
<path d="M81.0196 38.1379C81.0196 38.1379 80.9875 38.0729 80.9234 37.9755C80.8592 37.8455 80.7308 37.6831 80.5703 37.5206C80.4098 37.3257 80.2173 37.1633 79.9605 37.0008C79.8321 36.9359 79.7038 36.8384 79.5754 36.8059C79.447 36.7409 79.2865 36.7084 79.1261 36.676C78.9656 36.6435 78.8051 36.6435 78.6767 36.611C78.5163 36.611 78.3558 36.611 78.2274 36.6435C78.0669 36.676 77.9386 36.7084 77.7781 36.7409C77.6497 36.7734 77.5213 36.8384 77.393 36.8709C77.1362 36.9359 76.9757 37.0658 76.8153 37.0983C76.6869 37.1633 76.5585 37.2282 76.5585 37.2282C76.398 37.2932 76.2055 37.2282 76.1413 37.0658C76.0771 36.9034 76.1413 36.7084 76.2697 36.6435C76.2697 36.6435 76.3659 36.611 76.4943 36.5135C76.6548 36.4485 76.8474 36.2861 77.1041 36.2211C77.2325 36.1562 77.393 36.1237 77.5534 36.0587C77.7139 36.0262 77.8744 35.9612 78.0669 35.9287C78.2595 35.8963 78.4521 35.8963 78.6446 35.8638C78.8372 35.8638 79.0298 35.8638 79.2544 35.8963C79.447 35.9287 79.6717 35.9612 79.8321 36.0262C80.0247 36.0912 80.2173 36.1886 80.3777 36.2536C80.6987 36.4485 80.9875 36.676 81.2122 36.8709C81.4369 37.0983 81.5973 37.2932 81.6936 37.4232C81.7899 37.5856 81.8541 37.6831 81.8541 37.6831C81.9825 37.9105 81.8862 38.2029 81.6615 38.3328C81.4048 38.4628 81.148 38.3653 81.0196 38.1379Z" fill="#231F20"/>
<path d="M100.661 41.4843C100.661 41.4843 100.694 41.4518 100.726 41.4193C100.79 41.3543 100.854 41.2893 100.95 41.2244C101.143 41.0619 101.432 40.867 101.849 40.7046C102.042 40.6071 102.266 40.5421 102.491 40.4771C102.715 40.4122 102.972 40.3797 103.261 40.3472C103.518 40.3147 103.807 40.3472 104.096 40.3797C104.352 40.4447 104.641 40.4771 104.898 40.5746C105.155 40.6721 105.411 40.7695 105.668 40.8995C105.893 41.0294 106.15 41.1594 106.342 41.3218C106.535 41.4843 106.759 41.6142 106.92 41.7767C107.08 41.9391 107.241 42.069 107.401 42.2315C107.69 42.4914 107.883 42.7838 108.043 42.9462C108.204 43.1086 108.268 43.2061 108.268 43.2061C108.396 43.3361 108.364 43.531 108.236 43.6609C108.107 43.7909 107.915 43.7584 107.786 43.6284C107.754 43.596 107.69 43.531 107.53 43.3685C107.369 43.2061 107.177 42.9787 106.888 42.7188C106.759 42.5888 106.599 42.4589 106.438 42.3289C106.278 42.199 106.085 42.1015 105.893 41.9391C105.7 41.8091 105.508 41.7117 105.283 41.6142C105.091 41.4843 104.866 41.4518 104.641 41.3543C104.417 41.2569 104.192 41.2569 103.967 41.2244C103.743 41.2244 103.518 41.1919 103.325 41.2569C103.133 41.2569 102.94 41.3218 102.748 41.3868C102.555 41.4518 102.395 41.5168 102.266 41.5817C101.977 41.7442 101.753 41.9066 101.592 42.0366C101.528 42.1015 101.464 42.134 101.432 42.1665C101.432 42.2315 101.432 42.2315 101.432 42.2315C101.207 42.4589 100.886 42.4589 100.661 42.264C100.469 42.069 100.437 41.7117 100.661 41.4843C100.661 41.5168 100.661 41.5168 100.661 41.4843Z" fill="#231F20"/>
<path d="M68.8879 24.1997C68.8879 24.1997 71.2308 17.8966 74.2798 18.8063C77.3609 19.7161 77.8423 24.4596 77.8423 24.4596C77.8423 24.4596 75.2106 27.9036 68.8879 24.1997Z" fill="#BF9C83"/>
<path d="M52.1666 23.9399C52.1666 23.9399 49.1818 17.1168 44.0146 19.3912C38.8474 21.6655 38.6869 26.4742 38.6869 26.4742C38.6869 26.4742 46.2612 30.0807 52.1666 23.9399Z" fill="#BF9C83"/>
<path d="M38.8473 26.1814C38.8473 26.1814 38.9115 26.2139 39.0078 26.2464C39.1041 26.2789 39.2646 26.3114 39.425 26.3763C39.8102 26.5063 40.3558 26.6038 40.9977 26.7662C41.3186 26.8312 41.6717 26.8961 42.0568 26.9286C42.2494 26.9611 42.4419 26.9611 42.6345 26.9936C42.8271 26.9936 43.0517 27.0261 43.2443 27.0261C43.6615 27.0586 44.0788 27.0261 44.5281 27.0586C44.9453 27.0261 45.3946 27.0261 45.844 26.9611C46.2612 26.8637 46.7105 26.8312 47.1277 26.7012C47.3203 26.6362 47.545 26.6038 47.7375 26.5388C47.9301 26.4738 48.1227 26.3763 48.3152 26.3114C48.5078 26.2464 48.7004 26.1489 48.8609 26.084C49.0213 25.9865 49.6953 25.6291 49.8558 25.5317C50.0163 25.4342 50.1446 25.3367 50.273 25.2393C50.5298 25.0443 50.7865 24.8819 50.9791 24.687C51.1717 24.4921 51.974 23.7448 51.974 23.7448C52.1024 23.6149 52.295 23.6474 52.4233 23.7773C52.5196 23.9073 52.5196 24.0697 52.4233 24.1997C52.4233 24.1997 51.7173 25.0768 51.5247 25.3042C51.3321 25.5317 51.0754 25.7266 50.7865 25.9865C50.6581 26.1164 50.4977 26.2464 50.3693 26.3439C50.2088 26.4413 49.5027 26.8961 49.3102 27.0261C49.1176 27.1236 48.8929 27.221 48.7004 27.3185C48.4757 27.4159 48.2831 27.5134 48.0585 27.6109C47.8338 27.6758 47.6092 27.7408 47.3845 27.8058C46.9352 27.9682 46.4538 28.0332 45.9723 28.0982C45.4909 28.1632 45.0095 28.1632 44.5281 28.1956C44.0467 28.1632 43.5973 28.1956 43.148 28.1307C42.6987 28.0982 42.2815 28.0332 41.8642 27.9357C41.447 27.8708 41.094 27.7408 40.7409 27.6758C40.0669 27.4809 39.5213 27.2535 39.1362 27.0911C38.9436 27.0261 38.7832 26.9286 38.6869 26.8961C38.5906 26.8312 38.5264 26.8312 38.5264 26.8312C38.3659 26.7662 38.3017 26.5388 38.398 26.4088C38.5264 26.1814 38.6869 26.1164 38.8473 26.1814Z" fill="#231F20"/>
<path d="M68.7594 24.167C68.7594 24.167 69.305 24.3944 70.2036 24.6868C70.6208 24.8493 71.1344 24.9792 71.68 25.1417C72.2256 25.2716 72.8033 25.4016 73.4131 25.4665C73.7019 25.499 73.9908 25.5315 74.2796 25.5315C74.5685 25.564 74.8573 25.5315 75.1141 25.499C75.3708 25.499 75.6276 25.4016 75.8523 25.3691C76.0769 25.3041 76.2695 25.2066 76.4941 25.1417C76.6867 25.0442 76.8151 24.9142 76.9756 24.8493C77.136 24.7843 77.2002 24.6543 77.2965 24.5569C77.4891 24.3944 77.6495 24.232 77.6495 24.232C77.7779 24.102 77.9705 24.1345 78.0989 24.232C78.1952 24.3619 78.2272 24.5244 78.131 24.6543C78.131 24.6543 78.0347 24.7843 77.8421 25.0442C77.7458 25.1417 77.6495 25.3366 77.4891 25.434C77.3286 25.564 77.136 25.7264 76.9114 25.8564C76.6867 25.9538 76.43 26.1163 76.1411 26.2137C75.8523 26.2787 75.5634 26.4087 75.2425 26.4412C74.9215 26.4736 74.6006 26.5386 74.2796 26.5061C73.9587 26.5061 73.6377 26.5061 73.2847 26.4412C72.9637 26.4087 72.6428 26.3437 72.3219 26.2787C72.0009 26.2137 71.7121 26.1163 71.4232 26.0513C70.8455 25.8889 70.332 25.6615 69.8827 25.4665C69.0161 25.0767 68.4705 24.7193 68.4705 24.7193C68.31 24.6219 68.2779 24.4269 68.3742 24.2645C68.4705 24.167 68.631 24.102 68.7594 24.167Z" fill="#231F20"/>
<path d="M82.3676 72.9033V73.3257C82.3676 73.9429 83.3304 73.9429 83.3304 73.3257V72.9033C83.3304 72.2536 82.3676 72.2536 82.3676 72.9033Z" fill="white"/>
<path d="M84.7747 78.134V78.5564C84.7747 79.1737 85.7375 79.1737 85.7375 78.5564V78.134C85.7375 77.4843 84.7747 77.4843 84.7747 78.134Z" fill="white"/>
<path d="M109.648 112.087C109.295 110.95 108.653 109.942 108.268 108.838C108.236 108.74 108.172 108.675 108.107 108.61C107.851 106.173 108.364 103.639 108.685 101.235C109.231 97.011 109.231 92.6573 109.263 88.401C109.263 87.1339 107.337 87.1339 107.337 88.401C107.305 92.3324 107.369 96.3612 106.92 100.228C106.567 102.989 105.925 105.881 106.214 108.643C106.214 108.675 106.214 108.675 106.246 108.708C105.572 109.845 104.866 110.95 103.935 111.892C103.486 112.347 104.192 113.029 104.609 112.574C105.379 111.762 106.021 110.82 106.631 109.877C106.342 110.885 105.957 111.924 106.085 112.931C106.182 113.549 107.113 113.289 107.016 112.672C106.952 112.217 107.177 111.664 107.273 111.209C107.401 110.722 107.53 110.235 107.626 109.747C108.011 110.592 108.46 111.404 108.717 112.282C108.878 112.964 109.841 112.704 109.648 112.087Z" fill="#885E42"/>
<path d="M86.8608 74.3651V74.4625C86.8608 75.0798 87.8237 75.0798 87.8237 74.4625V74.3651C87.8558 73.7478 86.8608 73.7478 86.8608 74.3651Z" fill="white"/>
<path d="M86.7003 68.4844C86.0905 68.4844 86.0905 69.459 86.7003 69.459C87.3422 69.459 87.3422 68.4844 86.7003 68.4844Z" fill="white"/>
<path d="M92.3812 74.4626C91.7714 74.4626 91.7714 75.4373 92.3812 75.4373C92.991 75.4373 92.991 74.4626 92.3812 74.4626Z" fill="white"/>
<path d="M91.322 79.3362V79.4337C91.322 80.051 92.2848 80.051 92.2848 79.4337V79.3362C92.2848 78.719 91.322 78.719 91.322 79.3362Z" fill="white"/>
<path d="M89.1716 81.9356C88.7544 81.4808 88.0483 82.1631 88.4977 82.6179C88.4977 82.6504 88.5298 82.6829 88.5298 82.7153C88.626 83.3326 89.5568 83.0727 89.4605 82.4554C89.3963 82.2605 89.3 82.0981 89.1716 81.9356Z" fill="white"/>
<path d="M91.2257 85.4771C90.6159 85.4771 90.6159 86.4517 91.2257 86.4517C91.8676 86.4517 91.8676 85.4771 91.2257 85.4771Z" fill="white"/>
<path d="M95.2054 84.4048C94.5956 84.4048 94.5956 85.3794 95.2054 85.3794C95.8152 85.4119 95.8152 84.4048 95.2054 84.4048Z" fill="white"/>
<path d="M97.1953 88.4336C96.5855 88.4336 96.5855 89.4082 97.1953 89.4082C97.8372 89.4082 97.8372 88.4336 97.1953 88.4336Z" fill="white"/>
<path d="M117.415 80.8957C118.923 81.708 121.266 81.643 120.528 79.2712C120.72 79.856 121.94 79.6611 122.261 79.4336C122.775 79.1087 123.063 78.4264 123.095 77.8091C123.128 77.2568 122.967 76.4445 122.357 76.217C122.068 76.0871 121.748 76.412 121.266 76.2495C120.688 76.0546 120.207 75.4697 119.79 75.0474C119.79 75.9896 120.079 76.7369 119.148 77.3542C118.442 77.8416 117.286 77.9066 116.644 77.2892C116.837 78.199 116.965 78.9788 115.906 79.3362C114.911 79.6611 114.077 79.1737 113.499 78.4264C113.981 79.0113 112.986 79.5636 112.536 79.5311C111.83 79.4661 111.381 78.7838 111.028 78.2315C111.606 79.921 113.114 80.7983 114.59 81.6755C116.003 82.4878 116.741 82.3253 117.094 80.7008C117.254 80.7983 117.318 80.8633 117.415 80.8957Z" fill="#7C6861"/>
<path d="M112.569 76.9641C112.28 76.4443 112.119 75.9245 111.959 75.3722C111.798 74.755 110.868 75.0149 111.028 75.6321C111.221 76.2819 111.413 76.8992 111.734 77.4514C112.023 78.0362 112.857 77.5489 112.569 76.9641Z" fill="#7C6861"/>
<path d="M115.2 75.892C115.104 75.827 115.008 75.762 114.976 75.6646C114.655 75.1123 113.82 75.6321 114.141 76.1519C114.302 76.4118 114.462 76.5742 114.719 76.7366C115.265 77.094 115.746 76.2493 115.2 75.892Z" fill="#7C6861"/>
<path d="M116.966 74.8198C116.741 73.9751 116.324 73.1954 116.067 72.3832C115.874 71.766 114.944 72.0259 115.136 72.6431C115.393 73.4878 115.778 74.2675 116.035 75.0797C116.195 75.6645 117.126 75.4046 116.966 74.8198Z" fill="#7C6861"/>
<path d="M119.02 74.2676C118.891 74.0077 118.795 73.8128 118.634 73.5854C118.249 73.0981 117.543 73.7803 117.96 74.2676C118.089 74.3976 118.121 74.5925 118.217 74.7549C118.442 75.3397 119.276 74.8524 119.02 74.2676Z" fill="#7C6861"/>
<path d="M88.0804 36.5135C87.7916 37.1957 87.5669 37.813 87.5348 38.5602C87.5027 39.2099 88.4977 39.1774 88.4977 38.5602C88.5297 38.0079 88.6902 37.5206 88.9149 37.0008C89.1395 36.4485 88.3051 35.9612 88.0804 36.5135Z" fill="white"/>
<path d="M90.4555 40.315C90.295 40.8023 90.0703 41.2896 89.8778 41.7769C89.6852 42.3617 90.6159 42.6216 90.8085 42.0368C90.969 41.5495 91.1936 41.0622 91.3862 40.5749C91.5788 39.9901 90.648 39.7302 90.4555 40.315Z" fill="white"/>
<path d="M93.8253 34.4341C93.6648 34.8565 93.4402 35.2463 93.2155 35.6362C92.8946 36.1884 93.729 36.6758 94.05 36.1235C94.3067 35.6686 94.5314 35.1813 94.756 34.694C95.0128 34.1092 94.082 33.8493 93.8253 34.4341Z" fill="white"/>
<path d="M95.2053 37.6183C95.109 38.1381 94.8844 38.4955 94.5313 38.8853C94.1141 39.3402 94.7881 40.0224 95.2053 39.5676C95.6546 39.0803 96.0077 38.528 96.1361 37.8782C96.2644 37.261 95.3337 37.0011 95.2053 37.6183Z" fill="white"/>
<path d="M91.0009 29.3659C90.9046 29.7557 90.8084 30.1456 90.5516 30.4705C90.1986 30.9903 91.033 31.4776 91.3861 30.9578C91.6749 30.5679 91.8033 30.0806 91.9317 29.6258C92.0921 29.0085 91.1293 28.7486 91.0009 29.3659Z" fill="white"/>
<path d="M87.278 30.9576C87.278 31.4124 87.1817 31.8672 87.0533 32.2896C86.8607 32.9068 87.7915 33.1667 87.984 32.5495C88.1445 32.0297 88.2408 31.5099 88.2408 30.9576C88.2729 30.3403 87.278 30.3403 87.278 30.9576Z" fill="white"/>
<path d="M90.4234 24.1021C90.1666 24.6868 89.8456 25.2066 89.5247 25.7264C89.2038 26.2787 90.0382 26.7661 90.3592 26.2138C90.6801 25.6615 91.0011 25.1417 91.2578 24.5894C91.5146 24.0371 90.6801 23.5173 90.4234 24.1021Z" fill="white"/>
<path d="M94.4351 25.9866C94.3388 26.1815 94.2746 26.3764 94.1784 26.5714C93.9216 27.1561 94.7561 27.6435 95.0128 27.0587C95.1091 26.8638 95.1733 26.6688 95.2696 26.4739C95.5263 25.9216 94.6919 25.4018 94.4351 25.9866Z" fill="white"/>
<path d="M98.3507 21.7305C97.7409 21.7305 97.7409 22.7051 98.3507 22.7051C98.9604 22.7051 98.9604 21.7305 98.3507 21.7305Z" fill="white"/>
<path d="M98.6395 29.0086C98.4149 29.366 98.1581 29.7233 97.9014 30.0482C97.5162 30.5355 98.1902 31.2503 98.5754 30.7304C98.8963 30.3406 99.1852 29.9183 99.474 29.4959C99.795 28.9761 98.9605 28.4888 98.6395 29.0086Z" fill="white"/>
<path d="M104.962 23.8748C104.609 23.9073 104.288 24.0048 103.999 24.1997C103.454 24.5246 103.967 25.3693 104.481 25.0444C104.641 24.9469 104.77 24.882 104.962 24.882C105.572 24.817 105.572 23.8099 104.962 23.8748Z" fill="white"/>
<path d="M103.935 20.8533C103.582 20.9832 103.229 21.0807 102.844 21.0807C102.234 21.1132 102.202 22.0878 102.844 22.0553C103.293 22.0553 103.743 21.9579 104.192 21.7954C104.77 21.6005 104.513 20.6259 103.935 20.8533Z" fill="white"/>
<path d="M48.4436 58.5101C48.251 58.8349 48.0584 59.1598 47.8017 59.4522C47.8017 59.4522 47.7696 59.4522 47.7696 59.4197C47.6091 59.2573 47.4807 58.9974 47.3524 58.77C47.0635 58.2177 46.229 58.705 46.5179 59.2573C46.7747 59.7446 47.1919 60.5568 47.8659 60.4593C48.572 60.3619 48.9571 59.5497 49.278 58.9974C49.599 58.4776 48.7645 57.9903 48.4436 58.5101Z" fill="#885E42"/>
<path d="M54.9909 61.6287C54.8625 61.8886 54.7663 62.1485 54.6058 62.3759C54.5737 62.4409 54.5416 62.4734 54.5416 62.4734C54.1886 62.2785 53.8676 61.9211 53.5788 61.6937C53.0653 61.3363 52.5838 62.181 53.0973 62.5384C53.5146 62.8633 53.9639 63.4156 54.5416 63.4805C55.2477 63.5455 55.6328 62.6683 55.8575 62.116C56.0821 61.5313 55.2477 61.0439 54.9909 61.6287Z" fill="#885E42"/>
<path d="M60.1902 58.3147C60.1902 58.3797 60.1581 58.3797 60.1581 58.4122C60.1581 58.4122 60.1581 58.3797 60.1261 58.3797C59.9977 58.3147 59.9335 58.1848 59.8372 58.0873C59.4521 57.6 58.7781 58.2822 59.1632 58.7696C59.773 59.5493 60.7679 59.5818 61.0889 58.5422C61.3136 57.9574 60.3507 57.6975 60.1902 58.3147Z" fill="#885E42"/>
<path d="M58.2325 67.5098C58.2325 67.7047 58.2646 67.9646 58.1362 68.1595C58.1362 68.1595 58.1362 68.1595 58.1041 68.127C57.9757 68.0296 57.9115 67.8996 57.8473 67.7697C57.5585 67.2174 56.724 67.7047 57.0129 68.257C57.3017 68.7768 57.8153 69.3291 58.4571 69.1017C59.099 68.8742 59.2274 68.127 59.2274 67.5098C59.1632 66.86 58.2004 66.86 58.2325 67.5098Z" fill="#885E42"/>
<path d="M49.6633 67.8996C48.9893 67.8671 48.5079 68.1919 47.9943 68.5818C47.8981 68.4518 47.8339 68.3219 47.7697 68.1595C47.5771 67.5747 46.6464 67.8346 46.8389 68.4194C46.9673 68.8417 47.2562 69.1341 47.4487 69.5239C47.5771 69.7514 47.8981 69.8488 48.1227 69.6864C48.572 69.329 49.0214 68.8092 49.6633 68.8417C50.2731 68.9392 50.2731 67.932 49.6633 67.8996Z" fill="#885E42"/>
<path d="M52.1986 72.773C52.0061 73.3253 51.5246 73.2603 51.0432 73.0654C50.4655 72.8055 49.9841 73.6502 50.5618 73.9101C51.653 74.3649 52.6801 74.2674 53.1294 73.0329C53.354 72.4481 52.3912 72.1882 52.1986 72.773Z" fill="#885E42"/>
<path d="M59.5804 19.8785C59.3558 19.2937 58.425 19.5536 58.6497 20.1384C58.8423 20.6582 58.8744 21.178 58.9706 21.7303C59.0348 22.3475 60.0298 22.3475 59.9335 21.7303C59.8372 21.113 59.8051 20.4957 59.5804 19.8785Z" fill="white"/>
<path d="M57.751 14.03C57.3979 13.5752 57.0449 13.1203 56.5314 12.7955C55.9858 12.4706 55.5043 13.3478 56.0499 13.6401C56.4993 13.9 56.7881 14.3224 57.077 14.7122C57.4621 15.232 58.1361 14.5173 57.751 14.03Z" fill="white"/>
<path d="M63.7206 17.149C63.5601 16.7916 63.3996 16.4343 63.2391 16.0769C62.9824 15.4921 62.1479 16.0119 62.4047 16.5642C62.5652 16.9216 62.7256 17.279 62.8861 17.6363C63.175 18.2211 64.0094 17.7338 63.7206 17.149Z" fill="white"/>
<path d="M61.3136 12.3404C60.8963 11.7231 60.6075 11.0734 60.1903 10.4561C59.8372 9.93631 59.0028 10.4236 59.3558 10.9434C59.773 11.5607 60.0619 12.2104 60.4791 12.8277C60.8322 13.3475 61.6666 12.8602 61.3136 12.3404Z" fill="white"/>
<path d="M56.6919 9.05871C56.3389 8.44145 56.05 7.7592 55.4723 7.33686C54.9909 6.94701 54.2848 7.62925 54.7983 8.01911C55.3118 8.40896 55.5365 8.99374 55.8574 9.54603C56.1784 10.1308 57.0128 9.611 56.6919 9.05871Z" fill="white"/>
<path d="M53.001 11.5282C52.4875 10.846 52.006 10.1313 51.3 9.64396C50.7864 9.2866 50.305 10.1313 50.8185 10.4886C51.3962 10.8785 51.7814 11.4633 52.1665 12.0156C52.5195 12.5029 53.354 12.0156 53.001 11.5282Z" fill="white"/>
<path d="M50.7224 4.89996C50.4977 4.51011 50.2089 4.21772 49.8237 3.99031C49.2781 3.69792 48.7967 4.5426 49.3423 4.83499C49.5991 4.96494 49.7595 5.12738 49.8879 5.38728C50.1768 5.93957 51.0112 5.45225 50.7224 4.89996Z" fill="white"/>
<path d="M53.6429 1.456C53.2257 1.03366 52.7764 0.773761 52.1666 0.741273C51.5568 0.708785 51.5568 1.68342 52.1666 1.7159C52.4875 1.74839 52.7122 1.91083 52.9689 2.13824C53.3862 2.59307 54.0922 1.87834 53.6429 1.456Z" fill="white"/>
<path d="M59.0348 5.06208C58.4892 4.73721 58.0078 5.58189 58.5534 5.90676C58.9064 6.10169 59.0669 6.42656 59.1311 6.8489C59.2594 7.46617 60.1902 7.20627 60.0618 6.589C59.9334 5.93925 59.6125 5.38696 59.0348 5.06208Z" fill="white"/>
<path d="M64.3625 10.7811C64.3304 10.5862 64.2983 10.3913 64.2662 10.1963C64.2341 9.57908 63.2392 9.57908 63.3034 10.1963C63.3034 10.3913 63.3676 10.5862 63.3676 10.7811C63.3676 10.8136 63.3997 10.8461 63.3997 10.8786C63.4318 11.0735 63.5922 11.2684 63.849 11.2684C63.9453 11.2684 64.0095 11.236 64.0737 11.236C64.2662 11.171 64.3946 11.041 64.3625 10.7811Z" fill="white"/>
<path d="M65.5501 16.5967C65.5501 16.8241 65.4859 17.0515 65.4217 17.2789C65.2291 17.8962 66.1599 18.1236 66.3524 17.5388C66.4487 17.214 66.5129 16.9216 66.545 16.5967C66.545 15.9469 65.5822 15.9469 65.5501 16.5967Z" fill="white"/>
<path d="M64.5872 22.0552V22.705C64.5872 23.3223 65.55 23.3223 65.55 22.705V22.0552C65.55 21.438 64.5872 21.438 64.5872 22.0552Z" fill="white"/>
<path d="M62.9503 25.3693C62.7898 24.9145 62.6936 24.4596 62.6294 23.9723C62.5331 23.3551 61.6023 23.615 61.6986 24.2322C61.7628 24.7195 61.8591 25.1744 62.0196 25.6292C62.2442 26.214 63.175 25.9541 62.9503 25.3693Z" fill="white"/>
<path d="M47.0956 5.45209C46.5821 5.12721 46.0686 4.80233 45.5551 4.47746C45.0416 4.12009 44.5602 4.96477 45.0737 5.32214C45.5872 5.64701 46.1007 5.97189 46.6142 6.29677C47.1277 6.65413 47.6091 5.80945 47.0956 5.45209Z" fill="white"/>
<path d="M46.5821 1.35872C46.55 1.39121 46.5179 1.4237 46.5179 1.4237C46.0686 1.87853 46.7747 2.56077 47.1919 2.10594C47.224 2.07345 47.2561 2.04096 47.2882 2.04096C47.7054 1.61862 47.0314 0.936384 46.5821 1.35872Z" fill="white"/>
<path d="M56.4672 16.889C56.371 16.7915 56.3068 16.6616 56.2105 16.5641C55.8254 16.0768 55.1514 16.7591 55.5365 17.2464C55.6328 17.3438 55.697 17.4738 55.7933 17.5712C56.1784 18.0911 56.8524 17.3763 56.4672 16.889Z" fill="white"/>
<path d="M24.2444 71.571C23.8592 71.376 23.442 71.3111 23.0569 71.1811C22.9285 71.1486 22.8001 71.0836 22.7038 71.0187C22.768 70.8887 22.8643 70.7913 22.9606 70.7263C23.4099 70.2714 22.7359 69.5892 22.2866 70.044C21.7731 70.5638 21.4522 71.3111 22.1261 71.8309C22.6076 72.1882 23.2174 72.1882 23.763 72.4481C24.3086 72.6755 24.79 71.8309 24.2444 71.571Z" fill="white"/>
<path d="M26.844 74.9499C26.4589 75.0799 26.0738 75.0799 25.6565 74.9499C25.2714 74.82 25.7207 74.5276 25.9133 74.3651C26.3947 74.0078 25.9133 73.1306 25.4319 73.5204C24.79 74.0078 24.1802 74.755 24.79 75.5347C25.3035 76.152 26.4268 76.087 27.1008 75.8921C27.7106 75.7296 27.4538 74.7875 26.844 74.9499Z" fill="white"/>
<path d="M30.6954 77.0293C30.567 77.3541 30.1498 77.4841 29.8289 77.4841C29.4437 77.4841 29.4116 77.2892 29.54 76.9643C29.7326 76.3795 28.8018 76.1196 28.6093 76.7044C28.3204 77.5816 28.7697 78.3613 29.7005 78.4587C30.5349 78.5562 31.3373 78.0689 31.6582 77.2892C31.8829 76.7044 30.9522 76.4445 30.6954 77.0293Z" fill="white"/>
<path d="M33.8406 74.7875C30.5991 74.885 26.6193 71.7334 25.5923 68.6793C25.3997 68.0944 24.469 68.3544 24.6616 68.9392C25.8491 72.3832 30.1497 75.8922 33.8406 75.7622C34.4504 75.7297 34.4504 74.755 33.8406 74.7875Z" fill="white"/>
<path d="M36.4723 108.058C35.8304 107.278 34.4182 107.376 33.4875 107.278C33.5196 106.889 33.5517 106.531 33.5517 106.044C33.5517 105.719 33.4233 105.491 33.2628 105.329C32.9098 98.6034 32.4605 91.8778 32.4284 85.1198C32.4284 83.8527 30.4706 83.8527 30.5027 85.1198C30.5348 92.6901 31.1125 100.228 31.4655 107.798C31.4014 107.928 31.4014 108.058 31.4976 108.221C31.5297 108.253 31.5297 108.286 31.5618 108.351C31.5618 108.383 31.5939 108.383 31.5939 108.416C32.2037 109.39 32.3963 110.592 32.7814 111.665C32.9419 112.119 33.5517 112.152 33.7122 111.665C33.7443 111.6 33.7443 111.502 33.7763 111.405C33.8405 111.177 33.7122 110.982 33.5517 110.885C33.4233 110.43 33.2628 109.975 33.1345 109.52C33.3912 109.715 33.6159 109.91 33.8726 110.105C34.354 110.495 34.8676 111.015 35.4132 111.275C35.9909 111.502 36.2476 110.56 35.6699 110.333C35.8625 110.397 35.702 110.333 35.6378 110.3C35.5415 110.235 35.4132 110.138 35.3169 110.04C35.028 109.813 34.7392 109.585 34.4182 109.325C34.0331 109.033 33.6801 108.708 33.2949 108.416C33.327 108.351 33.327 108.318 33.3591 108.253C33.7443 108.286 34.1615 108.318 34.5466 108.351C34.9317 108.383 35.5415 108.416 35.7983 108.74C36.1513 109.26 36.8574 108.546 36.4723 108.058Z" fill="#885E42"/>
<path d="M69.947 106.758C60.2544 107.505 56.2426 95.9388 61.2172 86.3541C67.3152 74.625 71.7764 75.0474 77.5213 84.5996C82.3034 92.5273 84.3254 105.621 69.947 106.758Z" fill="#BF9C83"/>
<path d="M63.3035 85.9967C63.2393 85.7693 62.9825 85.5094 62.7258 85.5094C62.4048 85.4769 62.2123 85.5744 61.9555 85.7368C61.4099 86.0617 61.6025 86.679 61.9876 86.9713C62.3085 87.3287 62.9504 87.3937 63.1751 86.8089C63.3035 86.5165 63.3677 86.3216 63.3035 85.9967Z" fill="white"/>
<path d="M75.2747 96.1987C75.0501 95.8738 74.5365 95.7438 74.2156 96.0037C74.0872 96.1337 73.8947 96.1662 73.7342 96.2961C73.4132 96.556 73.2849 96.9784 73.5416 97.3682C73.7663 97.6931 74.2798 97.823 74.6007 97.5631C74.7291 97.4332 74.9217 97.4007 75.0821 97.2708C75.4031 96.9784 75.5315 96.556 75.2747 96.1987Z" fill="white"/>
<path d="M78.0668 90.4156C77.9064 89.9608 77.5212 89.7983 77.0398 89.7983C76.1412 89.8633 76.1733 91.1303 76.9435 91.2928C77.4891 91.6176 78.3557 91.1628 78.0668 90.4156Z" fill="white"/>
<path d="M62.1159 94.3794C61.8592 94.4119 61.6987 94.5418 61.5703 94.7043C60.8321 94.9642 60.9926 96.2312 61.8913 96.1662C62.5331 96.1012 62.9504 95.7439 62.9504 95.0616C62.9183 94.6718 62.501 94.3794 62.1159 94.3794Z" fill="white"/>
<path d="M68.3102 89.0834C67.8609 89.5058 68.0856 90.4804 68.8558 90.3829C69.3693 90.3179 69.6903 89.9606 69.6582 89.4408C69.6261 88.6611 68.6633 88.5961 68.3102 89.0834Z" fill="white"/>
<path d="M72.0652 82.8121C72.001 82.9096 71.9368 83.0396 71.9368 83.1695C71.7763 84.1116 73.1243 84.404 73.3811 83.5594C73.4453 83.4619 73.5095 83.3319 73.5095 83.202C73.6699 82.2598 72.3219 81.9675 72.0652 82.8121Z" fill="white"/>
<path d="M66.5449 99.058C66.4807 99.1554 66.4165 99.2854 66.4165 99.4153C66.2561 100.357 67.604 100.65 67.8608 99.8052C67.925 99.7077 67.9892 99.5778 67.9892 99.4478C68.1497 98.5057 66.8017 98.2133 66.5449 99.058Z" fill="white"/>
<path d="M91.707 98.4083C89.9097 98.2783 87.9199 99.1881 86.3472 99.7404C85.6411 100 84.9672 100.26 84.2932 100.553C84.7746 100.293 84.3253 99.6429 83.7797 99.8704C80.8591 101.073 77.6496 101.3 74.408 101.527C71.327 101.755 68.2459 102.015 65.1648 101.982C64.7797 101.885 64.3624 101.787 63.9773 101.722C62.8219 101.495 61.7628 100.78 60.6395 100.553C59.2273 100.26 57.783 99.9354 56.3709 99.7079C55.1192 99.4805 52.8084 99.0256 51.6851 99.8054C50.2729 100.813 51.2357 101.787 52.7763 102.567C52.1986 102.989 52.2628 103.704 52.7121 104.452C51.3641 103.737 50.3692 102.86 50.2087 101.852C50.1445 101.332 49.1496 101.495 49.2138 102.015C49.4705 103.802 51.7493 105.036 54.0601 105.914C57.2053 108.318 61.6023 110.3 65.9993 111.21C65.9672 111.34 65.9351 111.437 65.9351 111.567C65.9351 111.762 65.9993 111.924 66.0634 112.087C63.8489 112.054 61.6344 111.762 59.5161 111.015C58.9064 110.787 58.6175 111.567 59.1952 111.762C63.207 113.159 67.5077 113.094 71.7121 112.412C72.3219 112.542 72.9638 112.672 73.6057 112.737C73.6699 112.737 73.7341 112.737 73.7982 112.737C73.4452 112.867 73.0601 113.029 72.707 113.159C72.0972 113.354 72.5786 114.069 73.1884 113.874C76.0128 112.932 78.6124 111.664 81.0195 110.17C81.7256 109.975 82.4317 109.78 83.1057 109.585C83.1699 109.715 83.2982 109.812 83.5229 109.845C84.5178 109.91 85.4165 109.39 84.8388 108.48C84.7104 108.253 84.4857 108.09 84.1969 107.961C84.8067 107.506 85.3844 107.018 85.9621 106.531C86.3793 106.174 85.7053 105.556 85.2881 105.914C84.6141 106.498 83.9401 107.051 83.202 107.571C82.7847 107.473 82.3675 107.408 81.9182 107.376C83.1699 106.693 84.3895 105.946 85.5449 105.199C86.4114 104.614 87.7594 103.769 88.4976 102.795C90.2628 101.722 91.9959 100.39 92.2205 98.8307C92.2205 98.6032 91.9638 98.4083 91.707 98.4083ZM78.9013 102.535C79.5432 102.372 80.153 102.21 80.7949 102.047C80.153 102.34 79.5111 102.632 78.8692 102.924C78.9013 102.795 78.9334 102.665 78.9013 102.535ZM85.9621 102.08C85.9621 102.08 85.9621 102.112 85.93 102.112C85.256 102.697 83.6834 103.022 82.7847 103.314C81.18 103.834 79.5111 104.289 77.8422 104.679C80.3455 103.672 83.1378 102.567 85.9621 102.08ZM77.6175 103.542C77.4249 103.639 77.2003 103.737 76.9756 103.834C76.1732 104.224 75.3709 104.646 74.5685 105.069C74.2155 105.231 73.8624 105.394 73.5094 105.589C73.3168 105.621 73.0922 105.654 72.8996 105.719C72.6428 105.491 72.354 105.296 72.0651 105.101C72.4824 104.874 72.9638 104.711 73.4131 104.517C74.4401 104.419 75.4993 104.224 76.4942 103.932C76.8793 103.802 76.8151 103.477 76.5905 103.282C76.6547 103.249 76.7189 103.217 76.8151 103.217C76.9435 103.379 77.2324 103.509 77.6175 103.542ZM73.3489 108.838C73.4773 108.87 73.6057 108.903 73.7661 108.903C73.9266 109.098 74.0871 109.325 74.2476 109.553C73.4773 109.585 72.7391 109.455 71.9368 109.26C72.4182 109.13 72.8996 109 73.3489 108.838ZM71.3591 106.628C71.0702 106.628 70.7814 106.596 70.4925 106.596C70.2357 106.498 69.979 106.433 69.7543 106.336C69.979 106.206 70.2036 106.044 70.4283 105.914C70.7493 106.174 71.0381 106.401 71.3591 106.628ZM73.8303 102.372C74.8253 102.307 75.8202 102.21 76.783 102.145C76.7188 102.242 76.6547 102.34 76.6226 102.47C75.4672 102.86 74.3438 103.249 73.2526 103.704C72.1935 103.802 71.1023 103.834 70.0432 103.867C69.2729 103.444 68.5026 103.087 67.6682 102.762C69.7222 102.697 71.7763 102.535 73.8303 102.372ZM62.4047 102.242C62.3726 102.437 62.533 102.665 62.854 102.697C63.3675 102.73 63.881 102.762 64.4266 102.762C65.6783 103.249 66.9621 103.867 68.2138 104.549C68.278 104.614 68.3422 104.679 68.4705 104.679C68.8878 104.906 69.2729 105.166 69.658 105.394C69.3371 105.589 69.0161 105.751 68.6952 105.946C68.3743 105.849 68.0854 105.719 67.7966 105.621C63.881 104.159 59.5482 102.567 55.2155 102.177C56.8202 101.43 60.0618 101.852 62.4047 102.242ZM69.658 107.928C69.4976 108.026 69.3371 108.123 69.1445 108.253C69.0161 108.35 68.8557 108.448 68.6952 108.545C68.3101 108.415 67.9249 108.285 67.5398 108.155C67.7003 107.928 67.957 107.668 68.1817 107.473C68.6631 107.603 69.1445 107.766 69.658 107.928ZM57.6226 104.289C59.7729 104.906 61.9553 105.361 64.0736 106.044C64.7797 106.271 65.4536 106.498 66.1276 106.726C65.4536 106.791 64.7797 106.856 64.1057 106.953C64.0094 106.921 63.9131 106.888 63.8489 106.856C63.7526 106.791 63.6243 106.726 63.4638 106.726C63.0786 106.596 62.6935 106.466 62.2763 106.368C60.7999 105.946 54.0922 105.101 54.3489 103.217C55.729 103.769 57.1091 104.159 57.6226 104.289ZM57.5263 103.412C57.8472 103.477 58.1682 103.574 58.457 103.639C60.9925 104.224 63.4638 105.004 65.903 105.881C64.3624 105.329 62.7898 104.809 61.2172 104.419C59.9655 104.094 58.7459 103.769 57.5263 103.412ZM52.9368 100.26C54.8303 99.9029 57.2053 100.423 59.3878 101.073C57.3016 100.943 55.2476 101.105 53.9638 102.112C52.5195 101.462 51.1716 100.585 52.9368 100.26ZM53.707 104.419C55.1192 105.686 58.778 106.531 59.9013 106.758C60.3827 106.856 60.832 106.986 61.3134 107.116C61.0567 107.181 60.7678 107.246 60.5111 107.311C60.3185 107.246 60.1259 107.148 59.9334 107.083C58.7459 106.661 56.756 106.141 54.8945 105.426C54.4773 105.101 54.0601 104.744 53.707 104.419ZM57.9114 107.246C58.7459 107.538 59.5482 107.863 60.3506 108.188C60.4148 108.415 60.7037 108.61 61.0567 108.513C62.2442 109 63.3996 109.52 64.555 110.007C62.2121 109.325 59.9655 108.35 57.9114 107.246ZM62.533 108.123C62.9503 108.026 63.3996 107.928 63.8489 107.863C64.555 108.09 65.2932 108.318 65.9993 108.578C65.9672 109 66.2881 109.358 67.1868 109.65C67.0584 109.748 66.93 109.877 66.8337 109.975C65.3895 109.358 63.9773 108.708 62.533 108.123ZM67.0263 111.405C67.6682 111.502 68.3101 111.599 68.952 111.664C69.0161 111.697 69.0803 111.697 69.1445 111.729C68.1817 111.892 66.9621 111.989 67.0263 111.405ZM70.7493 111.307C70.7172 111.307 70.653 111.275 70.6209 111.275C70.5888 111.112 70.4604 110.95 70.1716 110.95C69.8827 110.95 69.5938 110.917 69.305 110.885C68.8236 110.722 68.3422 110.56 67.8607 110.365C68.0533 110.17 68.2138 110.007 68.4064 109.845C68.8557 109.877 69.305 109.845 69.7864 109.78C69.979 109.845 70.1716 109.877 70.332 109.942C70.6851 110.072 71.0702 110.17 71.5195 110.235C72.0972 110.365 72.6428 110.462 73.2205 110.56C72.4182 110.82 71.5837 111.08 70.7493 111.307ZM73.5736 111.242C74.0871 111.047 74.6006 110.852 75.0178 110.69C75.3067 110.69 75.5955 110.722 75.9165 110.722C75.1462 110.885 74.3759 111.08 73.5736 111.242ZM75.7881 108.545C75.6918 108.415 75.5634 108.318 75.4672 108.188C75.8844 108.058 76.2695 107.928 76.6868 107.798C77.457 107.863 78.1952 107.928 78.9655 107.993C78.4199 108.253 77.8743 108.513 77.3286 108.773C76.9435 108.935 76.5905 109.13 76.2053 109.293C76.0449 109.195 75.9165 109.065 75.756 108.968C75.8523 108.838 75.9165 108.675 75.7881 108.545ZM73.9266 112.704C74.2155 112.574 74.1834 112.184 73.8624 112.022C75.1141 111.762 76.3337 111.47 77.5533 111.145C76.3979 111.729 75.1783 112.217 73.9266 112.704ZM82.2391 108.318C81.6614 108.708 81.0837 109.098 80.4739 109.488C79.3827 109.812 78.2594 110.105 77.1361 110.397C77.1682 110.267 77.1682 110.137 77.0398 110.04C77.0077 110.007 76.9435 109.942 76.9114 109.91C78.1631 109.358 79.4148 108.74 80.6023 108.123C80.9232 108.155 81.2442 108.188 81.5651 108.22C81.7898 108.22 82.0145 108.285 82.2391 108.318ZM80.3455 107.278C80.3455 107.278 80.3134 107.278 80.2814 107.278C79.7678 107.246 79.2222 107.181 78.6766 107.148C80.5381 106.531 82.3354 105.881 84.0685 105.101C82.881 105.881 81.6293 106.596 80.3455 107.278ZM87.7273 102.242C86.7003 102.86 85.6411 103.379 84.903 103.769C82.6243 104.971 80.1209 105.881 77.5854 106.693C77.2645 106.791 76.9435 106.888 76.6547 106.986C75.8202 106.921 74.9857 106.856 74.1513 106.791C74.0229 106.693 73.9266 106.563 73.7982 106.466C73.8945 106.401 74.0229 106.336 74.1192 106.304C77.8422 105.589 81.5009 104.711 85.0313 103.477C86.0263 103.119 86.957 102.567 87.0533 101.95C87.3422 101.917 87.631 101.917 87.9199 101.917C87.8878 102.015 87.8236 102.145 87.7273 102.242ZM89.0111 101.43C88.979 101.235 88.7864 101.073 88.5297 101.073C87.8878 101.073 87.2459 101.105 86.6361 101.202C86.4756 101.073 86.2188 100.943 85.93 100.845C86.1226 100.78 86.283 100.683 86.4756 100.618C87.7915 100.13 89.4925 99.318 91.0651 99.2206C90.7763 100 89.9739 100.748 89.0111 101.43Z" fill="#7C6861"/>
<path d="M108.043 43.1092C108.043 43.1092 108.139 43.2067 108.332 43.3367C108.525 43.4666 108.813 43.5966 109.134 43.629C109.455 43.6615 109.776 43.5966 110.001 43.4666C110.129 43.4341 110.193 43.3691 110.258 43.3042C110.322 43.2717 110.354 43.2392 110.354 43.2392C110.354 43.2392 110.322 43.2717 110.258 43.3367C110.193 43.4016 110.129 43.4666 110.033 43.5641C109.84 43.7265 109.487 43.9214 109.102 43.9539C108.717 44.0189 108.332 43.9214 108.075 43.824C107.947 43.759 107.818 43.7265 107.754 43.694C107.69 43.6615 107.626 43.629 107.626 43.629C107.498 43.5316 107.465 43.3042 107.562 43.1742C107.722 43.0118 107.915 43.0118 108.043 43.1092Z" fill="#231F20"/>
<path d="M107.209 41.972C107.209 41.972 107.305 42.0695 107.498 42.1994C107.69 42.3294 107.979 42.4593 108.3 42.4918C108.621 42.5243 108.942 42.4593 109.167 42.3294C109.295 42.2969 109.359 42.2319 109.423 42.167C109.488 42.1345 109.52 42.102 109.52 42.102C109.52 42.102 109.488 42.1345 109.423 42.1994C109.359 42.2644 109.295 42.3294 109.199 42.4269C109.006 42.5893 108.653 42.7842 108.268 42.8167C107.883 42.8817 107.498 42.7842 107.241 42.6868C107.113 42.6218 106.984 42.5893 106.92 42.5568C106.856 42.5243 106.792 42.4918 106.792 42.4918C106.663 42.3944 106.631 42.167 106.727 42.037C106.856 41.8746 107.048 41.8421 107.209 41.972Z" fill="#231F20"/>
<path d="M76.4622 37.0333C76.4622 37.0333 76.398 37.0333 76.3338 37.0008C76.2375 37.0008 76.1412 36.9683 75.9808 36.9033C75.6919 36.8058 75.3389 36.6434 75.0821 36.3835C74.7933 36.1236 74.6328 35.7662 74.6007 35.5063C74.5686 35.3764 74.5686 35.2789 74.5365 35.1815C74.5365 35.1165 74.5365 35.0515 74.5365 35.0515C74.5365 35.0515 74.5365 35.084 74.5686 35.149C74.6007 35.214 74.6328 35.3114 74.697 35.4414C74.7933 35.6688 75.0179 35.9287 75.3068 36.0911C75.5635 36.2536 75.8845 36.3185 76.1091 36.351C76.3338 36.3835 76.4943 36.351 76.4943 36.351C76.6868 36.351 76.8152 36.481 76.8152 36.6759C76.7831 36.8708 76.6226 37.0333 76.4622 37.0333Z" fill="#231F20"/>
<path d="M77.9706 36.6434C77.9706 36.6434 77.9064 36.6434 77.8422 36.6109C77.7459 36.6109 77.6496 36.5784 77.4892 36.5134C77.2003 36.416 76.8473 36.2535 76.5905 35.9936C76.3017 35.7337 76.1412 35.3763 76.1091 35.1164C76.077 34.9865 76.077 34.889 76.0449 34.7916C76.0449 34.7266 76.0449 34.6616 76.0449 34.6616C76.0449 34.6616 76.0449 34.6941 76.077 34.7591C76.1091 34.8241 76.1412 34.9215 76.2054 35.0515C76.3017 35.2789 76.5263 35.5388 76.8152 35.7012C77.0719 35.8637 77.3929 35.9286 77.6176 35.9611C77.8422 35.9936 78.0027 35.9611 78.0027 35.9611C78.1953 35.9611 78.3236 36.0911 78.3236 36.286C78.2915 36.5134 78.1311 36.6434 77.9706 36.6434Z" fill="#231F20"/>
</svg>
