<svg width="31" height="25" viewBox="0 0 31 25" fill="none" xmlns="http://www.w3.org/2000/svg">
<g clip-path="url(#clip0)">
<path d="M28.2322 21.7738V0L27.388 0.0680643C23.9973 0.340321 20.6759 1.14348 17.5413 2.42989L16.0536 3.03567V24.7277L17.1331 24.2853C20.3784 22.9581 23.8174 22.1345 27.3188 21.8486L28.2322 21.7738Z" fill="#885E42"/>
<path d="M30.9999 3.21973H29.3392V22.2777C29.3392 22.5636 29.1178 22.8018 28.8341 22.8222L27.4156 22.9379C27.0073 22.972 26.5991 23.0128 26.1908 23.0605C26.0593 23.0741 25.9278 23.0945 25.7964 23.1149C25.5196 23.1489 25.2497 23.1898 24.9729 23.2306C24.8138 23.2578 24.6546 23.2851 24.4955 23.3123C24.2533 23.3531 24.0042 23.394 23.762 23.4416C23.5959 23.4757 23.4299 23.5097 23.2638 23.5437C23.0285 23.5914 22.8002 23.639 22.5718 23.6935C22.3988 23.7343 22.2258 23.7751 22.0529 23.8228C21.8314 23.8772 21.6031 23.9385 21.3816 23.9997C21.2087 24.0474 21.0357 24.095 20.8627 24.1427C20.6412 24.2039 20.4198 24.272 20.2053 24.3401C20.0323 24.3945 19.8662 24.449 19.6933 24.5034C19.4718 24.5783 19.2573 24.6532 19.0428 24.728C18.8767 24.7893 18.7107 24.8437 18.5377 24.9118C18.4616 24.939 18.3854 24.9731 18.3093 25.0003H30.9999V3.21973Z" fill="#885E42"/>
<path d="M3.61202 0.0680643L2.76782 0V21.7806L3.75041 21.8622C7.25175 22.1481 10.6839 22.9785 13.9223 24.3126L14.9464 24.7277V3.03567L13.4587 2.42989C10.3241 1.14348 7.00264 0.347128 3.61202 0.0680643Z" fill="#885E42"/>
<path d="M0 3.21973V25.0003H12.6975C12.6283 24.9731 12.5592 24.9458 12.49 24.9186C12.3308 24.8574 12.1717 24.8029 12.0125 24.7485C11.7911 24.6668 11.5627 24.5919 11.3344 24.517C11.1683 24.4626 11.0092 24.4081 10.8431 24.3605C10.6217 24.2856 10.3933 24.2176 10.165 24.1563C9.99888 24.1086 9.83281 24.061 9.66674 24.0134C9.43839 23.9521 9.21004 23.8908 8.9817 23.8364C8.81563 23.7956 8.64955 23.7547 8.47656 23.7139C8.24129 23.6594 8.01295 23.6118 7.77768 23.5573C7.61161 23.5233 7.44554 23.4893 7.27946 23.4552C7.03728 23.4076 6.79509 23.3667 6.5529 23.3259C6.39375 23.2987 6.2346 23.2715 6.07545 23.2442C5.80558 23.2034 5.54263 23.1694 5.27277 23.1285C5.13437 23.1081 5.0029 23.0877 4.86451 23.0741C4.45625 23.0264 4.05491 22.9856 3.64665 22.9516L2.15893 22.829C1.8683 22.8018 1.65379 22.5704 1.65379 22.2845V3.22653H0V3.21973Z" fill="#885E42"/>
</g>
<defs>
<clipPath id="clip0">
<rect width="31" height="25" fill="white"/>
</clipPath>
</defs>
</svg>
