<svg width="34" height="33" viewBox="0 0 34 33" fill="none" xmlns="http://www.w3.org/2000/svg">
<g clip-path="url(#clip0)">
<path d="M24.836 12.5264L30.0157 14.4122L25.7657 26.1305C25.3672 27.2081 23.2422 30.7101 21.6485 31.3836L21.2501 32.4611C21.1172 32.7305 20.9844 32.8652 20.7188 32.8652C20.586 32.8652 20.586 32.8652 20.4532 32.8652C20.1876 32.7305 19.9219 32.3264 20.0547 32.0571L20.4532 31.1142C19.6563 29.6326 20.3204 25.1877 20.586 24.3795L24.836 12.5264ZM32.2735 0.134607C30.8125 -0.404168 29.2188 0.673383 28.6876 2.02032L25.6329 10.506L30.8126 12.3918L33.8672 3.90604C34.2657 2.82849 33.7344 0.673383 32.2735 0.134607ZM22.9766 12.1224C23.1094 12.1224 23.2422 12.2571 23.3751 12.2571C23.9063 12.2571 24.3047 11.9877 24.5704 11.4489L27.8907 2.4244C28.1563 1.75093 27.7579 1.07746 27.0938 0.808077C26.4297 0.538689 25.7657 0.942771 25.5001 1.61624L22.1797 10.506C22.0469 11.1795 22.3125 11.853 22.9766 12.1224ZM17.7969 28.8244C17.3985 28.555 17.0001 28.1509 16.336 27.7469C15.8047 27.4775 15.2735 27.4775 14.8751 27.4775H14.7422C14.4766 26.804 13.9454 26.3999 13.2813 26.1305C12.2188 25.8611 11.4219 26.3999 10.8907 26.804C10.8907 26.5346 11.0235 26.1305 11.0235 25.9958C11.1563 25.1877 11.4219 24.3795 11.2891 23.706C11.1563 23.1673 10.6251 22.6285 10.0938 22.6285C8.50005 22.4938 7.30474 23.4366 6.10943 24.1101C4.91411 24.9183 4.25005 25.4571 3.45318 25.053C2.52349 24.7836 2.39068 22.2244 2.92193 19.9346C3.32036 17.9142 3.98443 14.1428 5.97661 12.5264C6.64068 11.9877 7.57036 11.3142 8.23443 11.5836C9.0313 12.1224 9.82818 13.4693 9.96099 15.2203C10.0938 15.8938 10.6251 16.5673 11.4219 16.4326C12.2188 16.2979 12.7501 15.7591 12.6172 14.9509C12.3516 12.1224 11.0235 9.96726 9.16411 9.1591C8.10161 8.75502 6.24224 8.62032 4.11724 10.506C1.72661 12.6611 0.929739 16.1632 0.265676 19.3958C5.10123e-05 21.0122 -0.796824 26.2652 2.52349 27.4775C4.51568 28.1509 6.24224 27.0734 7.57036 26.1305C7.83599 25.9958 8.10161 25.8611 8.23443 25.5918C7.9688 26.5346 7.83599 27.6122 8.50005 28.555C9.42974 29.902 10.6251 30.0366 12.086 28.9591L12.2188 28.8244C12.3516 29.0938 12.6172 29.4979 13.0157 29.6326C13.5469 29.902 14.0782 29.902 14.4766 29.902C14.6094 29.902 14.8751 29.902 15.0079 29.902C15.2735 30.0366 15.4063 30.1713 15.6719 30.4407C15.9376 30.7101 16.0704 30.8448 16.4688 31.1142C16.7344 31.2489 17.0001 31.3836 17.2657 31.3836C17.6641 31.3836 18.0626 31.2489 18.3282 30.8448C18.7266 30.306 18.5938 29.3632 18.0626 28.9591C18.0626 29.0938 17.9297 28.9591 17.7969 28.8244Z" fill="#885E42"/>
</g>
<defs>
<clipPath id="clip0">
<rect width="34" height="33" fill="white"/>
</clipPath>
</defs>
</svg>
