<svg width="30" height="30" viewBox="0 0 30 30" fill="none" xmlns="http://www.w3.org/2000/svg">
<g clip-path="url(#clip0)">
<path d="M29.9999 20.3027C29.9999 16.582 27.8671 13.2598 24.6678 11.6426C24.5682 18.7793 18.7792 24.5684 11.6425 24.668C13.2596 27.8672 16.5819 30 20.3026 30C22.0487 30 23.7479 29.5371 25.2362 28.6523L29.9589 29.959L28.6522 25.2363C29.537 23.748 29.9999 22.0488 29.9999 20.3027Z" fill="#885E42"/>
<path d="M22.9102 11.4551C22.9102 5.13867 17.7715 0 11.4551 0C5.13867 0 0 5.13867 0 11.4551C0 13.5117 0.550781 15.5156 1.58789 17.2793L0.0410156 22.8691L5.63086 21.3223C7.38867 22.3652 9.39258 22.9102 11.4551 22.9102C17.7715 22.9102 22.9102 17.7715 22.9102 11.4551ZM9.69727 8.78906H7.93945C7.93945 6.84961 9.51562 5.27344 11.4551 5.27344C13.3945 5.27344 14.9707 6.84961 14.9707 8.78906C14.9707 9.77344 14.5547 10.7168 13.8281 11.3848L12.334 12.75V14.1211H10.5762V11.9766L12.6387 10.0898C13.0078 9.75 13.2129 9.29297 13.2129 8.79492C13.2129 7.82813 12.4219 7.03711 11.4551 7.03711C10.4883 7.03711 9.69727 7.82227 9.69727 8.78906ZM10.5762 15.8789H12.334V17.6367H10.5762V15.8789Z" fill="#885E42"/>
</g>
<defs>
<clipPath id="clip0">
<rect width="30" height="30" fill="white"/>
</clipPath>
</defs>
</svg>
