<svg width="46" height="47" viewBox="0 0 46 47" fill="none" xmlns="http://www.w3.org/2000/svg">
<path d="M42.1906 0H3.79785C1.70328 0 0 1.69659 0 3.78293V26.9276H46V3.78293C45.9885 1.69659 44.2852 0 42.1906 0Z" fill="#885E42"/>
<path d="M0 31.7764C0 33.8627 1.70328 35.5593 3.79785 35.5593H22.1886V45.3949H13.4881C13.0393 45.3949 12.6825 45.7502 12.6825 46.1973C12.6825 46.6444 13.0393 46.9998 13.4881 46.9998H33.0528C33.5016 46.9998 33.8584 46.6444 33.8584 46.1973C33.8584 45.7502 33.5016 45.3949 33.0528 45.3949H23.7998V35.5593H42.1906C44.2852 35.5593 45.9885 33.8627 45.9885 31.7764V28.5322H0V31.7764Z" fill="#885E42"/>
</svg>
