<svg width="54" height="44" viewBox="0 0 54 44" fill="none" xmlns="http://www.w3.org/2000/svg">
<path d="M49.1785 38.3218V0L47.708 0.119793C41.8017 0.598965 36.016 2.01252 30.5558 4.27661L27.9642 5.34277V43.5208L29.8446 42.7422C35.4977 40.4062 41.4883 38.9567 47.5874 38.4536L49.1785 38.3218Z" fill="#885E42"/>
<path d="M53.9999 5.66602H51.1071V39.2081C51.1071 39.7112 50.7214 40.1305 50.2272 40.1664L47.7562 40.3701C47.045 40.43 46.3339 40.5019 45.6227 40.5857C45.3937 40.6097 45.1647 40.6456 44.9357 40.6815C44.4535 40.7414 43.9834 40.8133 43.5013 40.8852C43.2241 40.9331 42.9468 40.981 42.6696 41.0289C42.2477 41.1008 41.8138 41.1727 41.3919 41.2565C41.1026 41.3164 40.8133 41.3763 40.5241 41.4362C40.1142 41.5201 39.7165 41.6039 39.3187 41.6998C39.0174 41.7717 38.716 41.8435 38.4147 41.9274C38.029 42.0232 37.6312 42.131 37.2455 42.2389C36.9441 42.3227 36.6428 42.4066 36.3415 42.4904C35.9558 42.5982 35.57 42.718 35.1964 42.8378C34.895 42.9337 34.6058 43.0295 34.3044 43.1253C33.9187 43.2571 33.545 43.3889 33.1714 43.5206C32.8821 43.6284 32.5928 43.7243 32.2915 43.8441C32.1589 43.892 32.0263 43.9519 31.8937 43.9998H53.9999V5.66602Z" fill="#885E42"/>
<path d="M6.29201 0.119793L4.82147 0V38.3338L6.53308 38.4775C12.6322 38.9807 18.6108 40.4421 24.2518 42.7901L26.0358 43.5208V5.34277L23.4442 4.27661C17.984 2.01252 12.1983 0.610945 6.29201 0.119793Z" fill="#885E42"/>
<path d="M0 5.66602V43.9998H22.1183C21.9978 43.9519 21.8772 43.904 21.7567 43.8561C21.4795 43.7482 21.2022 43.6524 20.925 43.5566C20.5393 43.4128 20.1415 43.2811 19.7438 43.1493C19.4545 43.0534 19.1772 42.9576 18.8879 42.8738C18.5022 42.742 18.1045 42.6222 17.7067 42.5144C17.4174 42.4305 17.1281 42.3467 16.8388 42.2628C16.4411 42.155 16.0433 42.0472 15.6455 41.9513C15.3563 41.8795 15.067 41.8076 14.7656 41.7357C14.3558 41.6399 13.958 41.556 13.5482 41.4602C13.2589 41.4003 12.9696 41.3404 12.6804 41.2805C12.2585 41.1967 11.8366 41.1248 11.4147 41.0529C11.1375 41.005 10.8603 40.9571 10.583 40.9091C10.1129 40.8373 9.65491 40.7774 9.18482 40.7055C8.94375 40.6696 8.71473 40.6336 8.47366 40.6097C7.7625 40.5258 7.06339 40.4539 6.35223 40.394L3.76071 40.1784C3.25446 40.1305 2.8808 39.7232 2.8808 39.2201V5.678H0V5.66602Z" fill="#885E42"/>
</svg>
