<svg width="51" height="49" viewBox="0 0 51 49" fill="none" xmlns="http://www.w3.org/2000/svg">
<g clip-path="url(#clip0)">
<path d="M37.2539 18.6001L45.0234 21.4001L38.6484 38.8001C38.0508 40.4001 34.8633 45.6001 32.4727 46.6001L31.875 48.2001C31.6758 48.6001 31.4766 48.8001 31.0781 48.8001C30.8789 48.8001 30.8789 48.8001 30.6797 48.8001C30.2812 48.6001 29.8828 48.0001 30.082 47.6001L30.6797 46.2001C29.4844 44.0001 30.4805 37.4001 30.8789 36.2001L37.2539 18.6001ZM48.4102 0.20013C46.2188 -0.59987 43.8281 1.00013 43.0312 3.00013L38.4492 15.6001L46.2188 18.4001L50.8008 5.80013C51.3984 4.20013 50.6016 1.00013 48.4102 0.20013ZM34.4648 18.0001C34.6641 18.0001 34.8633 18.2001 35.0625 18.2001C35.8594 18.2001 36.457 17.8001 36.8555 17.0001L41.8359 3.60013C42.2344 2.60013 41.6367 1.60013 40.6406 1.20013C39.6445 0.80013 38.6484 1.40013 38.25 2.40013L33.2695 15.6001C33.0703 16.6001 33.4688 17.6001 34.4648 18.0001ZM26.6953 42.8001C26.0977 42.4001 25.5 41.8001 24.5039 41.2001C23.707 40.8001 22.9102 40.8001 22.3125 40.8001H22.1133C21.7148 39.8001 20.918 39.2001 19.9219 38.8001C18.3281 38.4001 17.1328 39.2001 16.3359 39.8001C16.3359 39.4001 16.5352 38.8001 16.5352 38.6001C16.7344 37.4001 17.1328 36.2001 16.9336 35.2001C16.7344 34.4001 15.9375 33.6001 15.1406 33.6001C12.75 33.4001 10.957 34.8001 9.16406 35.8001C7.37109 37.0001 6.375 37.8001 5.17969 37.2001C3.78516 36.8001 3.58594 33.0001 4.38281 29.6001C4.98047 26.6001 5.97656 21.0001 8.96484 18.6001C9.96094 17.8001 11.3555 16.8001 12.3516 17.2001C13.5469 18.0001 14.7422 20.0001 14.9414 22.6001C15.1406 23.6001 15.9375 24.6001 17.1328 24.4001C18.3281 24.2001 19.125 23.4001 18.9258 22.2001C18.5273 18.0001 16.5352 14.8001 13.7461 13.6001C12.1523 13.0001 9.36328 12.8001 6.17578 15.6001C2.58984 18.8001 1.39453 24.0001 0.398438 28.8001C2.23517e-07 31.2001 -1.19531 39.0001 3.78516 40.8001C6.77344 41.8001 9.36328 40.2001 11.3555 38.8001C11.7539 38.6001 12.1523 38.4001 12.3516 38.0001C11.9531 39.4001 11.7539 41.0001 12.75 42.4001C14.1445 44.4001 15.9375 44.6001 18.1289 43.0001L18.3281 42.8001C18.5273 43.2001 18.9258 43.8001 19.5234 44.0001C20.3203 44.4001 21.1172 44.4001 21.7148 44.4001C21.9141 44.4001 22.3125 44.4001 22.5117 44.4001C22.9102 44.6001 23.1094 44.8001 23.5078 45.2001C23.9062 45.6001 24.1055 45.8001 24.7031 46.2001C25.1016 46.4001 25.5 46.6001 25.8984 46.6001C26.4961 46.6001 27.0938 46.4001 27.4922 45.8001C28.0898 45.0001 27.8906 43.6001 27.0938 43.0001C27.0938 43.2001 26.8945 43.0001 26.6953 42.8001Z" fill="#885E42"/>
</g>
<defs>
<clipPath id="clip0">
<rect width="51" height="49" fill="white"/>
</clipPath>
</defs>
</svg>
