<svg width="30" height="30" viewBox="0 0 30 30" fill="none" xmlns="http://www.w3.org/2000/svg">
<path d="M15 24.5508C19.6113 24.5508 23.3672 20.8008 23.3672 16.1836V15.8789H6.63281V16.1895C6.63281 20.8008 10.3887 24.5508 15 24.5508Z" fill="#885E42"/>
<path d="M25.6055 4.39453C22.7754 1.55859 19.0078 0 15 0C10.9922 0 7.22461 1.55859 4.39453 4.39453C1.55859 7.22461 0 10.9922 0 15C0 19.0078 1.55859 22.7754 4.39453 25.6055C7.23047 28.4414 10.9922 30 15 30C19.0078 30 22.7754 28.4414 25.6055 25.6055C28.4414 22.7695 30 19.0078 30 15C30 10.9922 28.4414 7.22461 25.6055 4.39453ZM20.2969 6.5625C22.1836 6.5625 23.7188 8.09766 23.7188 9.98438H21.9609C21.9609 9.07031 21.2168 8.32031 20.2969 8.32031C19.3828 8.32031 18.6328 9.06445 18.6328 9.98438H16.875C16.875 8.09766 18.4102 6.5625 20.2969 6.5625ZM9.70312 6.5625C11.5898 6.5625 13.125 8.09766 13.125 9.98438H11.3672C11.3672 9.07031 10.623 8.32031 9.70312 8.32031C8.7832 8.32031 8.03906 9.06445 8.03906 9.98438H6.28125C6.28125 8.09766 7.81641 6.5625 9.70312 6.5625ZM25.125 16.1895C25.125 21.7734 20.584 26.3145 15 26.3145C9.41602 26.3145 4.875 21.7676 4.875 16.1895V14.1211H25.1191V16.1895H25.125Z" fill="#885E42"/>
</svg>
