<svg width="50" height="50" viewBox="0 0 50 50" fill="none" xmlns="http://www.w3.org/2000/svg">
<path d="M25 40.918C32.6855 40.918 38.9453 34.668 38.9453 26.9727V26.4648H11.0547V26.9824C11.0547 34.668 17.3145 40.918 25 40.918Z" fill="#885E42"/>
<path d="M42.6758 7.32422C37.959 2.59766 31.6797 0 25 0C18.3203 0 12.041 2.59766 7.32422 7.32422C2.59766 12.041 0 18.3203 0 25C0 31.6797 2.59766 37.959 7.32422 42.6758C12.0508 47.4023 18.3203 50 25 50C31.6797 50 37.959 47.4023 42.6758 42.6758C47.4023 37.9492 50 31.6797 50 25C50 18.3203 47.4023 12.041 42.6758 7.32422ZM33.8281 10.9375C36.9727 10.9375 39.5312 13.4961 39.5312 16.6406H36.6016C36.6016 15.1172 35.3613 13.8672 33.8281 13.8672C32.3047 13.8672 31.0547 15.1074 31.0547 16.6406H28.125C28.125 13.4961 30.6836 10.9375 33.8281 10.9375ZM16.1719 10.9375C19.3164 10.9375 21.875 13.4961 21.875 16.6406H18.9453C18.9453 15.1172 17.7051 13.8672 16.1719 13.8672C14.6387 13.8672 13.3984 15.1074 13.3984 16.6406H10.4688C10.4688 13.4961 13.0273 10.9375 16.1719 10.9375ZM41.875 26.9824C41.875 36.2891 34.3066 43.8574 25 43.8574C15.6934 43.8574 8.125 36.2793 8.125 26.9824V23.5352H41.8652V26.9824H41.875Z" fill="#885E42"/>
</svg>
