<svg width="49" height="49" viewBox="0 0 49 49" fill="none" xmlns="http://www.w3.org/2000/svg">
<g clip-path="url(#clip0)">
<path d="M48.9998 33.161C48.9998 27.0839 45.5162 21.6575 40.2908 19.0161C40.1281 30.6728 30.6727 40.1282 19.016 40.2909C21.6574 45.5163 27.0838 48.9999 33.161 48.9999C36.0129 48.9999 38.7883 48.2438 41.2192 46.7987L48.9328 48.9329L46.7987 41.2192C48.2438 38.7884 48.9998 36.013 48.9998 33.161Z" fill="#885E42"/>
<path d="M37.4199 18.71C37.4199 8.39316 29.0268 0 18.71 0C8.39316 0 0 8.39316 0 18.71C0 22.0691 0.899609 25.3422 2.59355 28.2229L0.0669922 37.3529L9.19707 34.8264C12.0682 36.5299 15.3412 37.4199 18.71 37.4199C29.0268 37.4199 37.4199 29.0268 37.4199 18.71ZM15.8389 14.3555H12.9678C12.9678 11.1877 15.5422 8.61328 18.71 8.61328C21.8777 8.61328 24.4521 11.1877 24.4521 14.3555C24.4521 15.9633 23.7727 17.5041 22.5859 18.5951L20.1455 20.825V23.0645H17.2744V19.5617L20.6432 16.4801C21.2461 15.925 21.5811 15.1785 21.5811 14.365C21.5811 12.7859 20.2891 11.4939 18.71 11.4939C17.1309 11.4939 15.8389 12.7764 15.8389 14.3555ZM17.2744 25.9355H20.1455V28.8066H17.2744V25.9355Z" fill="#885E42"/>
</g>
<defs>
<clipPath id="clip0">
<rect width="49" height="49" fill="white"/>
</clipPath>
</defs>
</svg>
