<svg width="30" height="31" viewBox="0 0 30 31" fill="none" xmlns="http://www.w3.org/2000/svg">
<g clip-path="url(#clip0)">
<path d="M27.5156 0H2.47686C1.11083 0 0 1.11902 0 2.49512V17.7607H30V2.49512C29.9925 1.11902 28.8817 0 27.5156 0Z" fill="#885E42"/>
<path d="M0 20.9591C0 22.3352 1.11083 23.4542 2.47686 23.4542H14.4709V29.9415H8.7966C8.50388 29.9415 8.2712 30.1759 8.2712 30.4708C8.2712 30.7657 8.50388 31 8.7966 31H21.5562C21.8489 31 22.0816 30.7657 22.0816 30.4708C22.0816 30.1759 21.8489 29.9415 21.5562 29.9415H15.5216V23.4542H27.5156C28.8817 23.4542 29.9925 22.3352 29.9925 20.9591V18.8193H0V20.9591Z" fill="#885E42"/>
</g>
<defs>
<clipPath id="clip0">
<rect width="30" height="31" fill="white"/>
</clipPath>
</defs>
</svg>
